<?xml version="1.0" encoding="UTF-8"?>
<svg width="94px" height="94px" viewBox="0 0 94 94" version="1.1" xmlns="http://www.w3.org/2000/svg" xmlns:xlink="http://www.w3.org/1999/xlink">
    <!-- Generator: Sketch 46.2 (44496) - http://www.bohemiancoding.com/sketch -->
    <title>kiili</title>
    <desc>Created with Sketch.</desc>
    <defs>
        <filter x="-0.5%" y="-4.6%" width="100.9%" height="107.9%" filterUnits="objectBoundingBox" id="filter-1">
            <feOffset dx="0" dy="-1" in="SourceAlpha" result="shadowOffsetOuter1"></feOffset>
            <feGaussianBlur stdDeviation="2" in="shadowOffsetOuter1" result="shadowBlurOuter1"></feGaussianBlur>
            <feColorMatrix values="0 0 0 0 0   0 0 0 0 0   0 0 0 0 0  0 0 0 0.2 0" type="matrix" in="shadowBlurOuter1" result="shadowMatrixOuter1"></feColorMatrix>
            <feMerge>
                <feMergeNode in="shadowMatrixOuter1"></feMergeNode>
                <feMergeNode in="SourceGraphic"></feMergeNode>
            </feMerge>
        </filter>
    </defs>
    <g id="web" stroke="none" stroke-width="1" fill="none" fill-rule="evenodd">
        <g id="Desktop-HD" transform="translate(-775.000000, -914.000000)">
            <g id="Group-2" filter="url(#filter-1)" transform="translate(0.000000, 880.000000)">
                <g id="Group" transform="translate(146.000000, 16.000000)">
                    <g id="kiili" transform="translate(633.000000, 23.000000)">
                        <path d="M42.9999807,0 C66.7485515,0 86,19.2514571 86,43 C86,66.7485429 66.7485515,86 42.9999807,86 C19.2514871,86 0,66.7485429 0,43 C0,19.2514571 19.2514871,0 42.9999807,0 Z" id="Fill-25" fill="#1160C6"></path>
                        <path d="M42.9999807,0 C66.7485515,0 86,19.2514571 86,43 C86,66.7485429 66.7485515,86 42.9999807,86 C19.2514871,86 0,66.7485429 0,43 C0,19.2514571 19.2514871,0 42.9999807,0 Z M42.9999807,1.54301744 C20.1036566,1.54301744 1.54301675,20.1036271 1.54301675,43 C1.54301675,65.8963343 20.1036566,84.4569826 42.9999807,84.4569826 C65.8963819,84.4569826 84.4569832,65.8963343 84.4569832,43 C84.4569832,20.1036271 65.8963819,1.54301744 42.9999807,1.54301744 Z" id="Fill-26" fill="#230E76"></path>
                        <path d="M42.5,12 C59.3448905,12 73,25.6551181 73,42.5000191 C73,59.3448819 59.3448905,73 42.5,73 C25.6551477,73 12,59.3448819 12,42.5000191 C12,25.6551181 25.6551477,12 42.5,12 Z M42.5,13.5265771 C26.4982376,13.5265771 13.5265762,26.4982085 13.5265762,42.5000191 C13.5265762,58.5017915 26.4982376,71.4734229 42.5,71.4734229 C58.5018006,71.4734229 71.4734238,58.5017915 71.4734238,42.5000191 C71.4734238,26.4982085 58.5018006,13.5265771 42.5,13.5265771 Z" id="Fill-27" fill="#230E76"></path>
                        <polygon id="Fill-28" fill="#230E76" points="4 32.7313245 10.6488974 35 11.1012633 33.6979402 7.71506946 32.5425707 7.72117551 32.5250779 11.523321 32.4833079 12 31.1113502 7.94310271 31.2617444 5.29648116 29 4.83493771 30.328244 7.43015742 32.4258053 7.42412538 32.4432981 4.45240287 31.4293014"></polygon>
                        <polygon id="Fill-29" fill="#230E76" points="7 26.3547915 13.334466 30 14 28.6452085 7.66553404 25"></polygon>
                        <polygon id="Fill-30" fill="#230E76" points="9 22.1665629 15.203904 26 16 24.8334741 9.79613492 21"></polygon>
                        <polygon id="Fill-31" fill="#230E76" points="12 19.1436921 17.2261248 24 19 21.6589002 18.0296248 20.7572264 17.1223304 21.954634 12.8665808 18"></polygon>
                        <polygon id="Fill-32" fill="#230E76" points="16 14.9063178 20.920137 20 22 19.0937183 17.0798243 14"></polygon>
                        <path d="M25.1569425,8.00240913 C24.7229636,7.98462659 24.3200739,8.06441168 23.9326019,8.27092924 C22.899331,8.82164274 22.7844788,9.95198002 23.2952193,10.9148922 C23.7673975,11.8050378 24.4355429,12.030138 25.3787023,12.1294512 C25.8464911,12.1914901 26.3122484,12.1715983 26.5612157,12.640963 C26.7757928,13.0455251 26.6063803,13.4679788 26.2189445,13.67446 C25.8637588,13.8638132 25.5206532,13.8806139 25.1351039,13.8369757 L25.7445897,14.9860047 C26.12633,15.0420434 26.6018457,14.923493 26.9408883,14.7427947 C28.0709818,14.1404427 28.2590768,12.9919229 27.6839088,11.9075875 C26.8083693,10.2568653 24.9458843,11.1768666 24.4137042,10.17348 C24.2162499,9.80128293 24.3301952,9.44992306 24.7014878,9.25198767 C25.0324044,9.0756168 25.4255356,9.09441757 25.7793065,9.17576636 L25.1569425,8.00240913 Z" id="Fill-33" fill="#230E76"></path>
                        <path d="M32.9554627,13.5335392 L31.9409526,10.5372 L32.2787596,10.4531454 C33.6641245,10.0211345 34.3133925,8.95588023 33.8534472,7.59737951 C33.060763,5.25619177 30.8772689,6.15016121 30.5560485,6.25029511 L29,6.73556869 L31.4596457,14 L32.9554627,13.5335392 Z M30.8970807,7.45415306 L31.1781328,7.36648062 C31.8206154,7.16613242 32.1750091,7.52429905 32.3511379,8.04458533 C32.6022837,8.7864445 32.2788015,9.17492063 31.5462231,9.3714098 L30.8970807,7.45415306 Z" id="Fill-34" fill="#230E76"></path>
                        <path d="M38.0595106,4.01890168 C36.8331165,4.18599576 35.7359349,5.43666468 36.0563302,8.33290754 C36.3767255,11.2292322 37.7140101,12.1481678 38.940441,11.9811147 C40.1669088,11.8139797 41.2640904,10.5632698 40.9436582,7.66702699 C40.623226,4.77074322 39.2859784,3.85176668 38.0595106,4.01890168 Z M37.5225323,8.13316383 C37.4466638,7.44748075 37.3028895,5.5555617 38.2158189,5.43122308 C39.1287115,5.30680263 39.4015876,7.18112853 39.477493,7.86681161 C39.5453986,8.48085372 39.6971357,10.4443728 38.7841695,10.5687933 C37.8712769,10.6931319 37.5904748,8.74720594 37.5225323,8.13316383 Z" id="Fill-35" fill="#230E76"></path>
                        <path d="M45.2861897,11.7438022 L45.5489426,8.23050166 L45.5662371,8.23227104 L46.4342295,11.8613049 L47.7894597,12 L46.9176509,8.42139338 C47.5873924,8.07286619 47.9258561,7.38518146 47.9885014,6.54726048 C48.144049,4.46751784 46.6841921,4.21646728 45.8641292,4.13250226 L44.5693439,4 L44,11.6121846 L45.2861897,11.7438022 Z M45.7626657,5.37339901 L45.9353015,5.39109279 C46.5857199,5.41694983 46.7769223,5.88414597 46.7361444,6.42931537 C46.6892807,7.05523273 46.4215079,7.49580778 45.8345601,7.43572937 L45.6109003,7.40267417 L45.7626657,5.37339901 Z" id="Fill-36" fill="#230E76"></path>
                        <path d="M51.3421576,12.8051203 C53.713639,13.5108679 55.032557,12.2278719 55.6958683,10.1161715 C56.994771,5.98108587 53.7289645,5.41744953 53.4665879,5.33932293 L52.3262585,5 L50,12.405725 L51.3421576,12.8051203 Z M51.917033,11.5370404 L53.4164658,6.76353374 C54.6577093,7.13293358 54.4914732,8.71596512 54.1953468,9.65886392 C53.905292,10.5821597 53.1094943,11.9563239 51.917033,11.5370404 Z" id="Fill-37" fill="#230E76"></path>
                        <polygon id="Fill-38" fill="#230E76" points="58.8094351 7 56 13.4093659 57.1905649 14 60 7.59063407"></polygon>
                        <polygon id="Fill-39" fill="#230E76" points="62.7392058 9 59 14.7833262 60.1378762 15.5255441 62.042165 12.5801526 62.0574123 12.5901326 61.1992991 16.2178986 62.3982729 17 63.2127037 13.1038278 66 11.1269631 64.8392167 10.3698297 62.2210861 12.337041 62.2058388 12.3270611 63.8770098 9.74218162"></polygon>
                        <polygon id="Fill-40" fill="#230E76" points="68.9508577 14 64 19.0827198 66.1476053 21 67.066856 20.0562821 65.9684312 19.0756245 70 14.9366957"></polygon>
                        <path d="M73.3332945,18 L68.8899154,21.1646457 C67.7711465,21.9614241 67.7516711,22.951212 68.5828039,23.9936489 C69.8682962,25.605985 71.0012183,24.9049288 71.6359811,24.4528472 L76,21.3447257 L75.1091007,20.2273207 L70.9831227,23.1659069 C70.532824,23.474871 70.0964023,23.785698 69.6599413,23.2382296 C69.1756198,22.6307717 69.8998352,22.1972831 70.3521052,21.8751661 L74.2241938,19.117405 L73.3332945,18 Z" id="Fill-41" fill="#230E76"></path>
                        <path d="M74.2169787,29.3936012 C73.6345964,29.6635368 73.0700487,29.5446084 72.8272602,29.004582 L74.7130851,28.1303846 C74.9975424,28.6401941 74.7624264,29.1407329 74.2169787,29.3936012 Z M71.6537211,29.5050432 C72.2668754,30.6999904 73.3452009,31.3965322 74.7225943,30.7579806 C75.3234642,30.4794725 75.9231915,29.8642721 75.9209877,29.191004 C76.5247961,29.5201711 77.1089741,29.521296 77.7283318,29.2341766 C78.3107141,28.964241 78.8082898,28.4398467 78.9526814,27.8291459 C79.0967466,27.2402835 78.8898315,26.7924208 78.6283512,26.2827664 L77.9700592,25 L71,28.2310431 L71.6537211,29.5050432 Z M77.0648567,28.0081591 C76.5379783,28.2524161 76.0378723,28.1253032 75.7854114,27.633298 L77.4863187,26.8448253 C77.7710616,27.3327575 77.5732883,27.7724745 77.0648567,28.0081591 Z" id="Fill-42" fill="#230E76"></path>
                        <polygon id="Fill-43" fill="#230E76" points="80.5776392 31 74 33.4873348 74.4223244 35 81 32.5127499"></polygon>
                        <polygon id="Fill-44" fill="#230E76" points="32.2663978 73 31.9488619 74.2677879 32.5240663 74.4824511 31 80.5676387 32.1583978 81 34 73.6470246"></polygon>
                        <path d="M38.7951631,82 L39.5286786,80.8999174 C40.2046658,79.8758088 40.8100516,78.8802493 40.9673788,77.6477829 C41.1212776,76.4424527 40.7556878,75.1850239 39.3327354,75.01699 C37.843778,74.8411666 37.1811652,76.0600106 37.0250058,77.2834557 C36.9208745,78.0990617 37.1112043,79.4553616 38.1855201,79.5822385 C38.5624499,79.6267287 38.8271484,79.5016271 39.1199142,79.3062034 L39.1364908,79.3265283 L37.4381405,81.8397192 L38.7951631,82 Z M39.1646334,76.1838079 C39.6463726,76.2314864 39.6622711,77.0060801 39.6206412,77.332366 C39.5766755,77.6767305 39.3748551,78.5084225 38.8376972,78.4449841 C38.3570505,78.388212 38.3671471,77.6350662 38.4087394,77.3088166 C38.4527051,76.9644883 38.6274755,76.1203695 39.1646334,76.1838079 Z" id="Fill-45" fill="#230E76"></path>
                        <path d="M45.7879277,81.8863957 L46.2708344,80.6743169 C46.7135748,79.5472888 47.0930502,78.4618521 46.9797575,77.2355145 C46.8689682,76.0362579 46.2352574,74.8894038 44.7974228,75.0085393 C43.2929477,75.1331341 42.9056969,76.4463182 43.0181931,77.6636408 C43.09314,78.4751772 43.5758191,79.752696 44.6612972,79.6627967 C45.0422139,79.631226 45.2756264,79.4574254 45.5214036,79.2099238 L45.5421126,79.2263736 L44.4166957,82 L45.7879277,81.8863957 Z M44.8858344,76.1732799 C45.3706375,76.1240382 45.5548945,76.8720022 45.584896,77.1966167 C45.6165285,77.5392615 45.5987779,78.3857447 45.0560199,78.4306765 C44.5704203,78.470939 44.4163923,77.7386347 44.3863908,77.4140201 C44.3547204,77.0713754 44.3431143,76.2182475 44.8858344,76.1732799 Z" id="Fill-46" fill="#230E76"></path>
                        <path d="M52.0879436,76.5582989 C51.7312699,76.6456745 51.5455288,76.1525385 51.4706147,75.8967873 C51.4008479,75.6586779 51.3147679,75.1883639 51.6617803,75.1032705 C52.0569405,75.0064038 52.2420085,75.4619379 52.3117753,75.7000473 C52.3840761,75.9469595 52.5312911,76.4496228 52.0879436,76.5582989 Z M52.4849251,77.8786414 C52.9572563,77.7628651 53.2974584,78.359968 53.3930016,78.6862862 C53.4885448,79.0125319 53.5440573,79.6605677 53.0524828,79.7810533 C52.5512471,79.9038935 52.2696064,79.3302647 52.1688762,78.9863772 C52.068146,78.6424173 51.9933902,77.9991995 52.4849251,77.8786414 Z M53.1349992,77.0293375 C53.7354605,76.6458557 53.8978801,76.0011889 53.7145147,75.3750695 C53.4278454,74.3962598 52.4872612,73.7950997 51.3884942,74.0644716 C50.2800264,74.3361981 49.794114,75.2870056 50.0807437,76.2658515 C50.2641487,76.8919709 50.7693836,77.3824625 51.4841958,77.4245926 L51.4893432,77.4422343 C50.6633872,77.9376888 50.4927318,78.6600228 50.7432903,79.5154126 C51.0635364,80.6088756 52.1834472,81.222787 53.3978718,80.9250869 C54.612336,80.6273505 55.2370296,79.5857623 54.9167835,78.4923355 C54.6713724,77.6545875 54.1210387,77.0806326 53.1375333,77.0381765 L53.1323859,77.0205347 L53.1349992,77.0293375 Z" id="Fill-47" fill="#230E76"></path>
                        <path d="M69.1664998,30.3021542 C70.9334632,34.0681306 72,38.4094618 72,42.9999809 C72,45.2724374 71.7386074,47.4837926 71.2442495,49.6057723 C69.793314,38.9397846 64.7241649,34.2675038 55.803569,35.362239 C55.0799186,33.0227891 54.2213634,30.830717 53.2191416,28.6389892 C58.2176244,27.6161064 64.6044875,27.1674307 69.0346557,30.210177 L69.1664998,30.3021542 Z M57.8892002,18.1088248 C62.2106334,20.6993372 65.8015293,24.3833606 68.2793643,28.7784089 C63.6944342,26.3743378 57.6932706,26.8479591 52.8589999,27.8571066 C52.0373273,26.0699407 51.2280509,24.4809237 50.401328,23.0677883 C54.6477332,22.1349314 57.2972027,20.7330444 57.8892002,18.1088248 Z M29.8613878,68.8601113 C23.2555243,65.4973195 18.1100847,59.6777724 15.6283855,52.6050935 C16.78403,47.7056244 21.6459244,43.0484946 24.9842276,40.9744166 C29.4505515,38.0757958 32.0237687,36.5126426 36.3235467,34.563675 C41.0944205,32.4011779 46.4909607,30.3945523 52.3864884,28.8361434 C53.3905466,31.0173879 54.2508236,33.1949212 54.97566,35.522587 C50.3010867,36.7146175 46.70449,39.9177118 44.2129963,45.047736 C39.9161261,54.3013152 35.1302543,62.2397046 29.8613878,68.8601113 Z M52.6351404,70.3610536 C49.6205554,71.4225791 46.3777493,72 43,72 C38.576183,72 34.3836862,71.0095617 30.6323276,69.2382738 C35.904561,62.5859964 40.6823599,54.6429393 44.9707363,45.4076485 C47.3857865,40.4351027 50.8022932,37.4328354 55.2180374,36.323944 C56.5594726,40.8928461 57.3980179,46.0878741 57.7927467,53.0193734 C57.9413104,59.6031653 56.3271194,66.7618911 52.6351404,70.3610536 Z M70.6547388,51.7559113 C68.0942622,59.8506314 62.0780241,66.4092481 54.3375591,69.7002258 C57.4780196,65.618183 58.7656995,58.9600901 58.6309094,52.9860489 C58.2352623,46.0384804 57.3953397,40.7966603 56.048395,36.1769488 C64.8016415,35.1535304 69.6074467,39.9529876 70.6390139,51.757327 L70.6547388,51.7559113 Z M40.7274302,14.0876921 C41.4772887,14.0295368 42.2352201,14 43,14 C48.1261565,14 52.9416416,15.3299581 57.1201735,17.6637837 C56.7513849,19.9589285 54.5357844,21.3371325 49.944771,22.3080199 C47.3777519,18.1550047 44.5943341,15.6298787 40.7274302,14.0876921 Z M20.486607,24.7186718 C24.9696123,19.2045548 31.4378162,15.3692129 38.8024911,14.3015658 C43.2366001,15.6587268 46.2686316,18.0522764 49.0691135,22.4897169 C46.097418,23.0930016 43.9855403,23.2946704 38.7907453,22.9237774 C33.7202188,21.8389898 30.5432965,22.1010712 27.2247355,22.4179028 C24.1863528,22.964027 22.3040736,23.5881251 20.486607,24.7186718 Z M14,42.9999809 C14,37.0726552 15.7782118,31.5607573 18.8302151,26.9685548 C21.4087505,24.8398414 23.2486375,23.9841551 27.3559674,23.2459654 C31.6307233,22.8382279 34.3167311,22.8202839 38.6732487,23.7564312 C43.144929,24.0756731 45.4393453,24.0921632 49.5348912,23.250174 C50.3710643,24.6551601 51.1922395,26.2504517 52.0302492,28.0633666 C46.1447456,29.6289301 40.7463307,31.6378513 35.9771785,33.7996215 C31.6358502,35.7674131 29.0440004,37.3396339 24.5344809,40.266261 C21.3869805,42.2218094 16.8320463,46.4560125 15.171905,51.1876346 C14.4092294,48.5911536 14,45.8433158 14,42.9999809 Z" id="Fill-48" fill="#FDA000"></path>
                        <path d="M32.2928892,36.7071141 C31.9023703,36.3165689 31.9023703,35.6834234 32.2928892,35.2929089 C32.683439,34.9023637 33.316561,34.9023637 33.7071108,35.2929089 C34.0976297,35.6834234 34.0976297,36.3165689 33.7071108,36.7071141 C33.316561,37.0976286 32.683439,37.0976286 32.2928892,36.7071141 Z" id="Fill-49" fill="#230E76"></path>
                        <path d="M34.2928814,33.7070956 C33.9023729,33.3165871 33.9023729,32.6834206 34.2928814,32.2928814 C34.6834206,31.9023729 35.3165871,31.9023729 35.7070956,32.2928814 C36.0976348,32.6834206 36.0976348,33.3165871 35.7070956,33.7070956 C35.3165871,34.0976348 34.6834206,34.0976348 34.2928814,33.7070956 Z" id="Fill-50" fill="#230E76"></path>
                        <path d="M35.517075,38.0137299 C34.8276417,37.3242999 34.8276417,36.2065311 35.517075,35.517101 C36.2065083,34.827633 37.3242824,34.827633 38.0137157,35.517101 L40.482925,37.9863366 C41.1723583,38.6757286 41.1723583,39.7935354 40.482925,40.4829275 C39.7934917,41.1723575 38.6757176,41.1723575 37.9862843,40.4829275 L35.517075,38.0137299 Z" id="Fill-51" fill="#230E76"></path>
                        <path d="M55.7250516,57.6096547 C55.2476889,57.1323723 41.5167638,42.6765259 41.240203,42.3999267 C40.919952,42.0796767 40.9199126,41.5604769 41.240203,41.2401875 C41.5604147,40.9199375 42.0796161,40.9199375 42.3999065,41.2401875 C42.6764672,41.5167867 57.1323597,55.2477075 57.609683,55.7250293 C58.1301057,56.2454897 58.1301057,57.0892337 57.609683,57.6096547 C57.0892209,58.1301151 56.2454743,58.1301151 55.7250516,57.6096547 Z" id="Fill-52" fill="#230E76"></path>
                        <path d="M41.1849181,36.6506229 C40.3186376,37.0731854 39.8747083,37.1578148 39.374875,36.6506229 C38.8750417,36.1433921 38.8750417,35.321061 39.374875,34.8138302 C39.7750334,34.4077104 44.6246603,28.5704259 46.0036749,27.0807617 C47.1555415,25.8364136 50.9860353,20.2219241 51.4489704,19.7520985 C52.0795406,19.1122349 52.8788592,18.6731908 53.5093909,19.3130934 C54.1399995,19.952918 54.103946,20.7459483 53.7323539,22.069276 C53.5652948,22.6644482 51.1170793,28.1573706 49.1767217,30.3772555 C46.5857515,33.3416218 41.6805662,36.4088525 41.1849181,36.6506229 Z" id="Fill-53" fill="#FFFFFE"></path>
                        <path d="M45.0308697,40.9623278 C43.5698535,41.1130813 43.0125603,40.7981638 42.5258897,40.2538019 C41.6631959,39.2888178 41.8529267,38.0907284 43.1614937,37.158423 C44.2083551,36.4125555 49.0494852,33.1653441 50.7138699,32.0119182 C52.1040317,31.048514 56.0562356,27.8242702 56.6086609,27.4663848 C57.3612097,26.9789409 58.2384298,26.7210183 58.7271866,27.4716257 C59.2158661,28.2222332 59.0168632,28.981858 58.3783616,30.1845718 C58.0911962,30.7254654 53.586876,36.2417247 51.1624862,37.904329 C47.5732473,40.3656724 46.1151286,40.8504573 45.0308697,40.9623278 Z" id="Fill-54" fill="#FFFFFE"></path>
                        <path d="M36.6506073,42.1848532 C37.0731702,41.3185719 37.1578387,40.8747188 36.6506073,40.3748466 C36.1434148,39.8750511 35.3210438,39.8750511 34.8138124,40.3748466 C34.4077312,40.7750822 28.5704789,45.624676 27.080735,47.0036537 C25.8364245,48.1555215 20.2219285,51.9860578 19.7521414,52.4489935 C19.1122381,53.0795259 18.6732324,53.8788838 19.3130188,54.5094162 C19.9529611,55.1399486 20.7459144,55.103972 22.0693215,54.7323794 C22.6644554,54.5652818 28.1574231,52.1170636 30.3773105,50.1767423 C33.3416413,47.5856925 36.4088366,42.6805403 36.6506073,42.1848532 Z" id="Fill-55" fill="#FFFFFE"></path>
                        <path d="M40.9623338,45.0308975 C41.1130869,43.5698399 40.798093,43.0125456 40.2537324,42.5258741 C39.2887891,41.6632173 38.0907411,41.8529098 37.1583993,43.1614793 C36.412495,44.2083427 33.1652912,49.0494819 32.0119065,50.7138312 C31.0485046,52.1040728 27.8242683,56.056207 27.4663837,56.6087107 C26.9789409,57.3611835 26.721019,58.2384826 27.4716246,58.727163 C28.2222303,59.2158435 28.9818534,59.0169174 30.1845258,58.378376 C30.7254181,58.0912487 36.2417031,53.5868427 37.904265,51.1625256 C40.3656027,47.5732798 40.850425,46.1151198 40.9623338,45.0308975 Z" id="Fill-56" fill="#FFFFFE"></path>
                    </g>
                </g>
            </g>
        </g>
    </g>
</svg>