<?xml version="1.0" encoding="UTF-8"?>
<svg width="100px" height="133px" viewBox="0 0 100 133" version="1.1" xmlns="http://www.w3.org/2000/svg" xmlns:xlink="http://www.w3.org/1999/xlink">
    <!-- Generator: Sketch 47.1 (45422) - http://www.bohemiancoding.com/sketch -->
    <title>laagri</title>
    <desc>Created with Sketch.</desc>
    <defs>
        <filter x="-0.5%" y="-4.6%" width="100.9%" height="107.9%" filterUnits="objectBoundingBox" id="filter-1">
            <feOffset dx="0" dy="-1" in="SourceAlpha" result="shadowOffsetOuter1"></feOffset>
            <feGaussianBlur stdDeviation="2" in="shadowOffsetOuter1" result="shadowBlurOuter1"></feGaussianBlur>
            <feColorMatrix values="0 0 0 0 0   0 0 0 0 0   0 0 0 0 0  0 0 0 0.2 0" type="matrix" in="shadowBlurOuter1" result="shadowMatrixOuter1"></feColorMatrix>
            <feMerge>
                <feMergeNode in="shadowMatrixOuter1"></feMergeNode>
                <feMergeNode in="SourceGraphic"></feMergeNode>
            </feMerge>
        </filter>
    </defs>
    <g id="web" stroke="none" stroke-width="1" fill="none" fill-rule="evenodd">
        <g id="Desktop-HD" transform="translate(-908.000000, -896.000000)">
            <g id="Group-2" filter="url(#filter-1)" transform="translate(0.000000, 880.000000)">
                <g id="Group" transform="translate(146.000000, 16.000000)">
                    <g id="laagri" transform="translate(766.000000, 5.000000)">
                        <g id="Laagri-Huvialakool_d50mm-kleebis">
                            <g id="Page-1">
                                <path d="M83.6401,76.4127279 C83.4774,77.9201304 83.2886,78.9812889 83.2557,79.2708963 C82.841,81.8047606 82.267,84.148194 81.5614,86.4293538 C80.7592,88.8995405 79.7725,91.277069 78.6508,93.5562232 C71.9307,107.201165 60.1848,116.737451 52.9859,121.680633 C52.2155,122.194265 51.5133,122.675005 50.8707,123.09658 C48.4074,124.730736 43.3512,124.730736 40.8877,123.09658 C40.2479,122.675005 39.5086,122.194265 38.7413,121.680633 C31.5739,116.737451 19.7982,107.201165 13.1059,93.5562232 C11.9904,91.277069 10.9935,88.8995405 10.1995,86.4293538 C9.4934,84.148194 8.9199,81.8047606 8.5324,79.364758 C8.4715,78.9812889 8.2753,77.9201304 8.1152,76.4127279 C7.7319,72.8142956 7.4422,66.6826007 9.3346,62.2191568 C9.3346,62.2191568 17.7204,48.9279014 38.7413,45.6848599 C39.4457,45.5586079 40.1521,45.461437 40.8877,45.3948514 C41.814,45.2689002 42.7441,45.1697237 43.7022,45.1072496 C44.4395,44.946 45.1736,44.9792928 45.8789,45.0102792 C46.5842,44.9792928 47.2886,44.946 48.0576,44.946 C49.016,45.1697237 49.9424,45.2689002 50.8707,45.3948514 C51.5737,45.461437 52.3121,45.5586079 52.9859,45.6848599 C74.0425,48.9279014 82.4237,62.2191568 82.4237,62.2191568 C84.2804,66.6826007 84.0239,72.8142956 83.6401,76.4127279 Z" id="Fill-1" fill="#C92F2B"></path>
                                <path d="M50.8735,123.142392 C48.4091,124.747605 43.3512,124.747605 40.8899,123.142392 L40.8899,45.3951135 C41.8169,45.2676838 42.7418,45.1704559 43.7005,45.10644 C44.4412,44.9463 45.1736,44.9779066 45.8809,45.0103159 C46.585,44.9779066 47.2857,44.9463 48.0531,44.9463 L48.0244,45.10644 C48.9868,45.1704559 49.9466,45.2676838 50.8735,45.3951135 L50.8735,123.142392 Z" id="Fill-2" fill="#FFFFFE"></path>
                                <path d="M83.739975,76.3244 C83.5801069,77.8293 83.3862606,78.8855 83.3555899,79.1741 L83.3215115,79.2691 C82.9345204,81.7017 82.3618018,84.0398 81.6233014,86.3137 L10.1265824,86.3137 C9.41965469,84.0398 8.84182425,81.7017 8.45623645,79.2691 L8.42757045,79.1741 C8.36051606,78.8855 8.19994635,77.8293 8.03997803,76.3244 L83.739975,76.3244 Z" id="Fill-3" fill="#FFFFFE"></path>
                                <path d="M83.8991,29.9936 C83.8991,29.9936 74.362,15.7466 45.8809,13.9532 C17.3638,15.7466 7.8289,29.9936 7.8289,29.9936 C-3.8819,44.9463 0.6632,55.8968 2.3577,59.3869 C4.0537,62.8448 9.3009,62.171 9.3009,62.171 C23.0611,44.4344 45.8469,45.0092 45.8809,45.0092 C45.8809,45.0092 68.6978,44.4344 82.4231,62.171 C82.4231,62.171 87.7061,62.8448 89.4032,59.3869 C91.0674,55.8968 95.6062,44.9463 83.8991,29.9936" id="Fill-4" fill="#3E7E3E"></path>
                                <path d="M47.3195,15.4249 C47.3195,15.4249 48.182,10.9107 56.5995,5.1819 L52.9533,0.2173 C52.9533,0.2173 41.4642,3.3547 44.8854,15.4249 L47.3195,15.4249 Z" id="Fill-5" fill="#3E7E3E"></path>
                                <path d="M57.2359,4.3485 C56.5658,5.7247 54.7471,6.172 53.0817,5.4053 C51.4456,4.636 50.6445,2.8759 51.2888,1.5289 C51.962,0.1532 53.8173,-0.3258 55.4472,0.4744 C57.0806,1.2423 57.8797,3.0026 57.2359,4.3485" id="Fill-6" fill="#131412"></path>
                                <path d="M19.7976,68.992 C19.572,68.4795 19.3792,67.9699 19.4138,67.391 C19.4138,66.9434 19.572,66.5917 19.9257,66.302 C20.2455,66.078 20.5309,66.0466 20.9164,66.302 L21.2365,66.5256 L21.7804,66.5917 C22.0409,66.4618 22.0673,66.205 21.9074,65.9167 C21.7161,65.6285 21.5248,65.3081 21.3334,65.0213 C20.6613,64.0274 20.0241,63.0039 19.3509,61.9791 L19.3197,61.5006 C20.7237,60.5695 22.1643,59.6431 23.5739,58.7136 L23.7346,58.6796 C24.1525,58.554 24.534,58.5846 24.8546,58.9055 C25.1729,59.2582 25.3045,59.6737 25.1103,60.1556 L24.7897,60.6021 C24.568,60.8277 24.631,61.0834 24.9516,61.1483 C25.3045,61.2121 25.6537,61.2441 26.0077,61.114 C26.518,60.9224 27.0302,60.731 27.446,60.3461 C27.7669,60.0286 28.0524,59.7077 28.1799,59.2899 L28.1799,58.8743 L27.8968,58.7136 L27.3511,58.8106 C26.5506,58.8743 25.9414,58.0741 26.2637,57.3045 C26.3581,57.0474 26.5506,56.8895 26.7425,56.6968 C28.1201,55.8013 29.4938,54.905 30.8694,54.0078 L31.255,54.2312 C31.575,54.7117 31.8942,55.1604 32.1842,55.6412 C32.6292,56.3453 33.1131,57.0474 33.5269,57.7847 L34.0074,58.3301 L34.5517,58.3301 L34.7093,57.9134 L34.6123,57.3357 C34.5848,57.0474 34.646,56.7929 34.8725,56.6316 C35.1588,56.4397 35.4786,56.3132 35.8017,56.377 C36.2799,56.4734 36.6952,56.6968 37.0467,57.0177 C37.7182,57.626 38.1361,58.3607 38.3883,59.2261 C38.5494,59.7077 38.5196,60.1556 38.2917,60.6021 L37.8478,61.114 C37.5275,61.3377 37.2069,61.2739 36.852,60.987 L36.3757,60.7614 L35.9574,60.8594 L35.8953,61.3059 C35.9902,61.5293 36.1507,61.7558 36.2799,61.9791 C36.7916,62.7788 37.335,63.6119 37.8478,64.4447 C38.0697,64.7968 38.3288,65.148 38.5494,65.5009 L38.485,65.9831 L38.1015,66.2708 L37.7534,66.4939 C37.3687,66.7518 36.9852,66.9755 36.6017,67.198 C35.8953,67.645 35.19,68.1272 34.4581,68.6088 L33.9102,68.7996 C33.4617,68.8945 33.0782,68.7653 32.8254,68.3843 C32.5348,67.9985 32.5005,67.5827 32.7888,67.1671 L33.0782,66.7518 L33.0782,66.4939 L32.7276,66.2708 C32.3729,66.173 32.0197,66.2708 31.7334,66.4 C31.0942,66.622 30.4528,66.878 30.0063,67.4557 C29.7795,67.7434 29.5885,68.0311 29.5885,68.4138 C29.5885,68.6709 29.6854,68.7653 29.9425,68.7035 C30.1662,68.6709 30.3881,68.6397 30.6146,68.6397 C31.2861,68.6397 31.8315,69.4073 31.575,70.0491 C31.4457,70.3992 31.2209,70.6566 30.9069,70.8813 C30.3558,71.2637 29.7498,71.6155 29.1752,72.0019 C28.566,72.414 27.8968,72.8336 27.2541,73.2488 C26.9015,73.4728 26.7425,73.4407 26.518,73.0589 C25.7189,71.8414 24.9209,70.5928 24.1173,69.3747 L23.6714,68.992 L23.2499,69.0896 C23.03,69.3129 23.0943,69.5675 23.1904,69.7911 C23.3163,70.0797 23.2213,70.3348 23.0943,70.6259 L22.9316,70.785 C22.4554,71.0752 21.944,71.0752 21.4284,70.785 C21.014,70.5616 20.6613,70.2399 20.3767,69.9207 C20.2126,69.6644 20.0241,69.3747 19.862,69.1185 L19.7976,68.992 Z" id="Fill-7" fill="#EBB62A"></path>
                                <path d="M66.5497,103.3457 C65.8816,100.75 68.2471,101.0094 67.8636,97.264 L63.5132,100.2729 C63.4801,102.1622 61.2038,102.1276 61.2038,102.1276 L61.2038,102.4497 C61.1106,103.3137 60.3123,103.9242 59.4483,103.8276 C58.5832,103.6983 57.978,102.8967 58.0699,102.031 C58.166,101.2965 58.7771,100.75 59.4812,100.6882 C59.4812,100.6882 59.8608,98.5106 62.1364,98.48 L66.9344,94.509 C61.9468,88.9052 57.0811,92.5556 56.5964,92.9085 C56.1539,93.2926 52.438,96.4632 55.4478,101.9043 C60.0246,108.9172 69.2763,108.5337 66.5497,103.3457 Z M60.9856,92.6531 C61.8156,92.7812 62.4253,93.5486 62.3295,94.3797 C62.1994,95.2139 61.4315,95.7897 60.6043,95.6947 C59.7667,95.5977 59.1609,94.829 59.2865,93.9644 C59.3812,93.1333 60.1494,92.5556 60.9856,92.6531 Z M57.2419,99.2491 C56.4056,99.1178 55.801,98.3505 55.896,97.5194 C56.021,96.6857 56.7909,96.0779 57.6251,96.2049 C58.4534,96.3019 59.0671,97.0692 58.9339,97.8998 C58.838,98.7649 58.0699,99.344 57.2419,99.2491 Z M63.8659,105.8444 C63.0004,105.7463 62.4253,104.979 62.522,104.1479 C62.6484,103.3137 63.4157,102.7065 64.2485,102.8346 C65.078,102.9298 65.6888,103.6983 65.5598,104.5283 C65.4618,105.3625 64.6958,105.9726 63.8659,105.8444 L63.8659,105.8444 Z" id="Fill-8" fill="#EBB62A"></path>
                                <path d="M66.5497,103.3457 C65.8816,100.75 68.2471,101.0094 67.8636,97.264 L63.5132,100.2729 C63.4801,102.1622 61.2038,102.1276 61.2038,102.1276 L61.2038,102.4497 C61.1106,103.3137 60.3123,103.9242 59.4483,103.8276 C58.5832,103.6983 57.978,102.8967 58.0699,102.031 C58.166,101.2965 58.7771,100.75 59.4812,100.6882 C59.4812,100.6882 59.8608,98.5106 62.1364,98.48 L66.9344,94.509 C61.9468,88.9052 57.0811,92.5556 56.5964,92.9085 C56.1539,93.2926 52.438,96.4632 55.4478,101.9043 C60.0246,108.9172 69.2763,108.5337 66.5497,103.3457 Z M60.9856,92.6531 C61.8156,92.7812 62.4253,93.5486 62.3295,94.3797 C62.1994,95.2139 61.4315,95.7897 60.6043,95.6947 C59.7667,95.5977 59.1609,94.829 59.2865,93.9644 C59.3812,93.1333 60.1494,92.5556 60.9856,92.6531 Z M57.2419,99.2491 C56.4056,99.1178 55.801,98.3505 55.896,97.5194 C56.021,96.6857 56.7909,96.0779 57.6251,96.2049 C58.4534,96.3019 59.0671,97.0692 58.9339,97.8998 C58.838,98.7649 58.0699,99.344 57.2419,99.2491 Z M63.8659,105.8444 C63.0004,105.7463 62.4253,104.979 62.522,104.1479 C62.6484,103.3137 63.4157,102.7065 64.2485,102.8346 C65.078,102.9298 65.6888,103.6983 65.5598,104.5283 C65.4618,105.3625 64.6958,105.9726 63.8659,105.8444 Z" id="Stroke-9" stroke="#EBB62A" stroke-width="0.3711"></path>
                                <path d="M65.4323,98.5106 L64.3781,97.1667 L70.5559,92.4286 C71.4174,91.7551 77.113,88.5219 71.5778,93.7725 L65.4323,98.5106 Z" id="Fill-10" fill="#EBB62A"></path>
                                <path d="M65.4323,98.5106 L64.3781,97.1667 L70.5559,92.4286 C71.4174,91.7551 77.113,88.5219 71.5778,93.7725 L65.4323,98.5106 Z" id="Stroke-11" stroke="#EBB62A" stroke-width="0.3711"></path>
                                <path d="M65.0153,98.8309 L63.9634,97.4862 L62.4565,99.1844 C61.5267,98.7031 59.0665,99.9535 59.8934,102.6416 C59.8934,102.6416 59.7389,101.6803 61.3666,101.5216 C63.035,101.3294 63.0004,99.8883 63.0004,99.8883 L65.0153,98.8309 Z" id="Fill-12" fill="#EBB62A"></path>
                                <path d="M65.0153,98.8309 L63.9634,97.4862 L62.4565,99.1844 C61.5267,98.7031 59.0665,99.9535 59.8934,102.6416 C59.8934,102.6416 59.7389,101.6803 61.3666,101.5216 C63.035,101.3294 63.0004,99.8883 63.0004,99.8883 L65.0153,98.8309 Z" id="Stroke-13" stroke="#EBB62A" stroke-width="0.3711"></path>
                                <path d="M35.0279,105.6488 L35.0279,105.6488 L35.6053,95.1819 L35.7011,93.4859 L35.8624,92.7481 L28.7902,90.6995 L28.7902,90.7613 L28.4078,90.6357 L28.2783,93.2614 L27.7323,102.6095 C27.1901,101.9686 26.0715,101.7455 24.9516,102.1622 C23.6377,102.6413 22.8386,103.8276 23.1904,104.8183 C23.5396,105.8113 24.9204,106.1959 26.2609,105.7152 C27.3511,105.3319 28.0524,104.4654 28.083,103.6017 L28.1799,103.6017 L28.7562,93.2932 L28.7562,93.0673 L35.1282,94.9268 L35.1282,95.1487 L34.5843,104.6587 C34.0357,104.0172 32.9178,103.7953 31.7998,104.2111 C30.4868,104.6921 29.6854,105.875 30.0403,106.8672 C30.3887,107.8281 31.7663,108.2445 33.1131,107.7657 C34.2007,107.3794 34.9023,106.5148 34.9329,105.6488 L35.0279,105.6488 Z" id="Fill-14" fill="#EBB62A"></path>
                                <path d="M65.815,55.6712 C66.1384,54.7125 65.5916,53.6869 64.6315,53.3652 C63.7054,53.0483 62.6472,53.5602 62.3255,54.5192 C62.0094,55.4793 62.554,56.5046 63.5138,56.8249 C64.4728,57.1438 65.4932,56.6327 65.815,55.6712 Z M58.1033,56.1851 C58.0415,56.377 58.0415,56.5998 58.1373,56.8249 L59.9268,60.4093 C60.4708,61.5026 61.3357,61.0222 61.3357,61.0222 L63.5444,59.8965 L65.1468,63.7414 L62.0094,65.3084 C62.0094,65.3084 61.3357,65.5973 61.3357,66.622 L60.6922,72.9617 C60.6329,73.5059 60.9493,74.0162 61.4978,74.2106 C62.133,74.4031 62.8074,74.0811 62.9968,73.4402 L63.0642,73.1519 L63.5745,67.969 L67.0976,66.2382 L68.5671,69.5666 C68.5671,69.5666 68.7933,70.1747 69.7849,70.4641 L74.4541,72.005 C74.9675,72.1932 75.5766,72.005 75.8655,71.4897 C76.1824,70.9448 76.0237,70.2095 75.4482,69.8878 L75.1934,69.76 L71.1625,68.4475 L67.4812,59.5793 L69.0456,60.0904 L70.7121,64.1255 C70.809,64.3503 70.9995,64.5723 71.2861,64.6366 C71.7669,64.7959 72.2794,64.5397 72.4381,64.0617 C72.5342,63.8038 72.5053,63.5498 72.378,63.3259 L70.5556,59.0033 C70.459,58.7482 70.2668,58.5535 70.0066,58.4585 L65.7824,57.082 C65.4643,56.9519 65.1468,56.9836 64.8914,57.1132 L61.305,58.9373 L59.8293,55.9606 C59.7035,55.769 59.5436,55.6406 59.3191,55.5768 C58.8089,55.3849 58.2615,55.6712 58.1033,56.1851 L58.1033,56.1851 Z" id="Fill-15" fill="#EBB62A"></path>
                                <path d="M56.021,71.8417 C56.021,72.7352 56.7305,73.4396 57.5925,73.4396 C58.4576,73.4396 59.1918,72.7352 59.1918,71.8417 C59.1918,70.9763 58.4576,70.2722 57.5925,70.2722 C56.7305,70.2722 56.021,70.9763 56.021,71.8417" id="Fill-16" fill="#EBB62A"></path>
                                <polygon id="Fill-17" fill="#EBB62A" points="16.6305 49.8111 12.8252 44.1135 13.9733 43.3462 15.4779 45.5864 17.7204 44.0823 16.2101 41.8424 17.3626 41.0733 21.1758 46.7713 20.0241 47.5417 18.3559 45.0384 16.1174 46.5479 17.7833 49.0438"></polygon>
                                <path d="M19.3197,39.984 L20.563,39.4066 L22.1353,42.7699 C22.389,43.2827 22.5801,43.6353 22.6779,43.7609 C22.8355,44.0188 23.0614,44.145 23.3489,44.2085 C23.6057,44.2745 23.9229,44.2085 24.2783,44.0497 C24.631,43.8896 24.8847,43.667 24.9805,43.4403 C25.1111,43.2169 25.1111,42.9944 25.046,42.7699 C24.9805,42.5445 24.854,42.1593 24.631,41.6808 L22.9985,38.2523 L24.2454,37.6482 L25.7827,40.9118 C26.1333,41.6491 26.3558,42.1933 26.4219,42.5445 C26.518,42.8969 26.518,43.1843 26.4219,43.5057 C26.3235,43.7926 26.1673,44.0812 25.9414,44.3389 C25.6891,44.626 25.3042,44.884 24.8226,45.1065 C24.2454,45.3942 23.7355,45.5217 23.3854,45.5217 C22.9985,45.5217 22.6779,45.4594 22.389,45.3324 C22.1353,45.2012 21.9086,45.0435 21.7161,44.8188 C21.4621,44.4982 21.1752,43.9862 20.8504,43.2827 L19.3197,39.984 Z" id="Fill-18" fill="#EBB62A"></path>
                                <polygon id="Fill-19" fill="#EBB62A" points="30.0063 42.8969 25.5908 37.1037 27.0294 36.6201 30.2319 40.9446 30.2932 35.5962 31.7006 35.1475 31.4126 42.4496"></polygon>
                                <polygon id="Fill-20" fill="#EBB62A" points="34.3246 41.6808 32.7922 34.9556 34.1338 34.6687 35.6691 41.3602"></polygon>
                                <path d="M40.0565,37.8705 L38.7758,35.4707 L38.1967,38.1267 L40.0565,37.8705 Z M42.9351,40.2085 L41.4617,40.4321 L40.6351,38.9576 L37.9096,39.3125 L37.5918,40.9446 L36.1206,41.1366 L37.8489,33.9961 L39.2872,33.7721 L42.9351,40.2085 Z" id="Fill-21" fill="#EBB62A"></path>
                                <polygon id="Fill-22" fill="#EBB62A" points="43.3527 40.238 43.3195 33.4198 44.6954 33.4198 44.7283 39.0545 48.1486 39.0545 48.1835 40.2091"></polygon>
                                <path d="M52.7263,37.998 L52.0865,35.3397 L50.8421,37.7741 L52.7263,37.998 Z M54.9024,41.009 L53.4029,40.8171 L53.0157,39.2155 L50.2936,38.8626 L49.5262,40.3346 L48.0877,40.1748 L51.5746,33.6755 L53.0157,33.8671 L54.9024,41.009 Z" id="Fill-23" fill="#EBB62A"></path>
                                <polygon id="Fill-24" fill="#EBB62A" points="55.4478 41.1677 57.1429 34.5083 58.4874 34.8612 57.7201 37.8064 61.2044 35.5347 63.0004 36.0155 59.8319 37.9674 61.4334 42.7061 59.7054 42.2562 58.6768 38.6713 57.3051 39.5038 56.7914 41.5204"></polygon>
                                <path d="M64.2814,40.1115 C63.9937,40.8474 63.9299,41.456 64.1204,41.9674 C64.2814,42.4807 64.6312,42.8331 65.1468,43.0239 C65.6599,43.2495 66.1373,43.2169 66.6157,42.9932 C67.0985,42.7699 67.5129,42.2888 67.8006,41.5532 C68.0875,40.8168 68.1538,40.2091 67.9925,39.6957 C67.8006,39.2152 67.4491,38.8626 66.9344,38.6381 C66.3898,38.4468 65.9147,38.4468 65.4323,38.6707 C64.9527,38.8943 64.57,39.3757 64.2814,40.1115 Z M62.9378,39.6305 C63.1918,38.9576 63.5132,38.4791 63.8993,38.0941 C64.1831,37.8376 64.4733,37.6482 64.8569,37.485 C65.2055,37.3268 65.5632,37.2619 65.8821,37.2298 C66.3603,37.2298 66.8388,37.3268 67.3513,37.5507 C68.3089,37.9354 68.9226,38.5414 69.2732,39.3442 C69.5927,40.1444 69.5289,41.0733 69.1131,42.0969 C68.6958,43.1222 68.0875,43.8266 67.2881,44.1781 C66.4873,44.5288 65.6276,44.4976 64.6981,44.145 C63.7658,43.7297 63.1306,43.1531 62.8071,42.3535 C62.4871,41.5532 62.5203,40.6249 62.9378,39.6305 L62.9378,39.6305 Z" id="Fill-25" fill="#EBB62A"></path>
                                <path d="M71.3204,43.3138 C70.9377,43.9862 70.7779,44.5951 70.8728,45.1065 C70.9717,45.6513 71.2566,46.0354 71.7388,46.324 C72.2173,46.612 72.6949,46.6769 73.2063,46.5139 C73.7174,46.3543 74.1681,45.9384 74.5828,45.2675 C75.0006,44.5951 75.1262,44.0188 75.0619,43.5057 C74.9675,42.9944 74.6477,42.576 74.1681,42.2894 C73.6868,42.0017 73.1797,41.9388 72.6949,42.0657 C72.1847,42.2231 71.7388,42.6412 71.3204,43.3138 Z M70.0726,42.6086 C70.4232,42.0326 70.8428,41.5841 71.2566,41.2658 C71.5769,41.0742 71.9307,40.9118 72.278,40.8171 C72.6637,40.7213 73.0155,40.6873 73.371,40.7213 C73.8169,40.7845 74.2948,40.9764 74.7758,41.2658 C75.6398,41.7758 76.1841,42.481 76.3777,43.3138 C76.5696,44.1781 76.3777,45.0736 75.7986,46.0354 C75.2223,46.9958 74.523,47.5712 73.6868,47.7946 C72.8236,48.0208 71.9928,47.8603 71.1311,47.3467 C70.2325,46.8325 69.7234,46.1303 69.5283,45.2992 C69.3376,44.4344 69.5283,43.569 70.0726,42.6086 L70.0726,42.6086 Z" id="Fill-26" fill="#EBB62A"></path>
                                <polygon id="Fill-27" fill="#EBB62A" points="74.7123 49.5566 79.0669 44.3057 80.1206 45.2017 76.5044 49.5566 79.1627 51.7333 78.4212 52.6302"></polygon>
                                <polygon id="Fill-28" fill="#EBB62A" points="29.3019 32.0427 27.3502 25.5454 28.661 25.127 30.2957 30.5378 33.5893 29.5457 33.9439 30.6662"></polygon>
                                <path d="M37.8143,27.1439 L36.4367,24.8076 L35.9574,27.4965 L37.8143,27.1439 Z M40.7901,29.385 L39.3178,29.6415 L38.4544,28.2015 L35.738,28.7134 L35.4786,30.3456 L34.0363,30.6016 L35.4471,23.3662 L36.8874,23.1105 L40.7901,29.385 Z" id="Fill-29" fill="#EBB62A"></path>
                                <path d="M44.7901,26.3766 L43.4794,24.0076 L42.936,26.6654 L44.7901,26.3766 Z M47.703,28.6828 L46.2298,28.9059 L45.397,27.4651 L42.68,27.8826 L42.3571,29.5165 L40.9157,29.7058 L42.5204,22.535 L43.9896,22.3088 L47.703,28.6828 Z" id="Fill-30" fill="#EBB62A"></path>
                                <path d="M51.3191,26.9832 L51.4481,25.8635 L54.4248,26.1844 L54.1022,28.9053 C53.7825,29.129 53.3349,29.3524 52.7926,29.4813 C52.2157,29.6421 51.6409,29.7053 51.0941,29.6421 C50.3599,29.5443 49.7496,29.3206 49.2691,28.9686 C48.7592,28.6165 48.4077,28.1374 48.2141,27.562 C47.9935,26.9832 47.9255,26.3454 47.9935,25.7036 C48.0871,24.9995 48.3102,24.3912 48.6648,23.8466 C49.0154,23.3355 49.4979,22.9503 50.1039,22.7269 C50.5518,22.535 51.1281,22.5058 51.7656,22.5662 C52.6296,22.6609 53.2717,22.9189 53.6866,23.3018 C54.1371,23.7191 54.3896,24.2307 54.4537,24.8728 L53.0449,24.9995 C53.014,24.6469 52.8533,24.3603 52.6018,24.1341 C52.3768,23.9121 52.0533,23.7814 51.6409,23.7497 C51.0337,23.6865 50.5518,23.8157 50.1374,24.1669 C49.7496,24.4858 49.4979,25.0621 49.4316,25.8006 C49.3383,26.6011 49.4627,27.2408 49.7848,27.6884 C50.0705,28.1374 50.5518,28.3928 51.1281,28.4577 C51.415,28.4912 51.7027,28.4577 51.989,28.3608 C52.313,28.2996 52.5658,28.1689 52.7926,28.0411 L52.8915,27.1782 L51.3191,26.9832 Z" id="Fill-31" fill="#EBB62A"></path>
                                <path d="M57.3368,26.5367 L58.3278,26.7924 C59.0013,26.9534 59.386,27.018 59.5768,26.9826 L60.0232,26.7924 L60.2797,26.3448 C60.3441,26.1209 60.3104,25.927 60.2129,25.7663 L59.7987,25.3518 C59.6737,25.3192 59.3528,25.2243 58.8089,25.0964 L57.7538,24.8402 L57.3368,26.5367 Z M55.0657,30.0573 L56.6979,23.4016 L59.5107,24.0709 C60.2491,24.2656 60.7282,24.4547 61.0462,24.6463 C61.3357,24.8402 61.5267,25.127 61.6534,25.48 C61.7866,25.8323 61.7866,26.2158 61.6886,26.6005 C61.5573,27.081 61.305,27.4651 60.9493,27.7202 C60.5666,27.9767 60.087,28.0731 59.4829,28.0093 C59.7035,28.2644 59.8934,28.4903 60.0584,28.7455 C60.1808,29.0034 60.3441,29.4187 60.538,30.0256 L61.0462,31.5291 L59.4455,31.1147 L58.8089,29.4502 C58.6169,28.8421 58.4534,28.4586 58.3598,28.2984 L58.0083,27.9118 C57.8794,27.8174 57.6577,27.7516 57.3691,27.6567 L57.0817,27.5929 L56.409,30.3774 L55.0657,30.0573 Z" id="Fill-32" fill="#EBB62A"></path>
                                <polygon id="Fill-33" fill="#EBB62A" points="61.5573 31.787 63.8004 25.3198 65.0791 25.7663 62.8689 32.2689"></polygon>
                            </g>
                        </g>
                    </g>
                </g>
            </g>
        </g>
    </g>
</svg>