<?xml version="1.0" encoding="UTF-8"?>
<svg width="223px" height="50px" viewBox="0 0 223 50" version="1.1" xmlns="http://www.w3.org/2000/svg" xmlns:xlink="http://www.w3.org/1999/xlink">
    <!-- Generator: Sketch 46.2 (44496) - http://www.bohemiancoding.com/sketch -->
    <title>newox</title>
    <desc>Created with Sketch.</desc>
    <defs>
        <filter x="-0.5%" y="-4.6%" width="100.9%" height="107.9%" filterUnits="objectBoundingBox" id="filter-1">
            <feOffset dx="0" dy="-1" in="SourceAlpha" result="shadowOffsetOuter1"></feOffset>
            <feGaussianBlur stdDeviation="2" in="shadowOffsetOuter1" result="shadowBlurOuter1"></feGaussianBlur>
            <feColorMatrix values="0 0 0 0 0   0 0 0 0 0   0 0 0 0 0  0 0 0 0.2 0" type="matrix" in="shadowBlurOuter1" result="shadowMatrixOuter1"></feColorMatrix>
            <feMerge>
                <feMergeNode in="shadowMatrixOuter1"></feMergeNode>
                <feMergeNode in="SourceGraphic"></feMergeNode>
            </feMerge>
        </filter>
        <polygon id="path-2" points="0 60.4878049 240 60.4878049 240 0 0 0"></polygon>
    </defs>
    <g id="web" stroke="none" stroke-width="1" fill="none" fill-rule="evenodd">
        <g id="Desktop-HD" transform="translate(-1046.000000, -934.000000)">
            <g id="Group-2" filter="url(#filter-1)" transform="translate(0.000000, 880.000000)">
                <g id="Group" transform="translate(164.000000, 21.000000)">
                    <g id="newox" transform="translate(873.000000, 30.000000)">
                        <path d="M16.043607,48.1440689 C16.2129587,48.2140434 16.3456937,48.3098496 16.4413961,48.4314874 C16.5375147,48.5531253 16.5853659,48.7032107 16.5853659,48.8820707 C16.5853659,49.0439275 16.5275283,49.1959748 16.4135176,49.3372317 C16.2986747,49.4791425 16.1368128,49.5841042 15.9270997,49.6527708 C15.7178027,49.7217643 15.4564935,49.7560976 15.1440044,49.7560976 C14.6887938,49.7560976 14.339272,49.6733707 14.0954389,49.5082441 C13.8511897,49.3427904 13.7059717,49.1021306 13.6585366,48.7856105 L14.3654861,48.7316583 C14.407928,48.9180389 14.4940602,49.0550449 14.6247148,49.1426765 C14.7545372,49.2303081 14.9301303,49.2737969 15.151078,49.2737969 C15.3853409,49.2737969 15.5617662,49.2345589 15.680354,49.1570638 C15.7989417,49.0792417 15.8584437,48.9883403 15.8584437,48.8840326 C15.8584437,48.817001 15.8334778,48.7604328 15.7835461,48.7133472 C15.7336144,48.6662616 15.646234,48.6257156 15.5218208,48.5907284 C15.436937,48.5675126 15.2430356,48.5266396 14.9401166,48.4674556 C14.5506495,48.3912685 14.2772735,48.2980782 14.1199886,48.1875577 C13.8990409,48.0319136 13.788359,47.8422632 13.788359,47.6182795 C13.788359,47.4744067 13.8403712,47.3396895 13.9443955,47.2141279 C14.0484199,47.0888932 14.1977988,46.993087 14.3937807,46.9276903 C14.5893465,46.8619666 14.8252738,46.8292683 15.1019785,46.8292683 C15.5538603,46.8292683 15.894228,46.9070904 16.1222494,47.0627345 C16.3502708,47.2180517 16.470523,47.4260132 16.4821737,47.6859651 L15.7552515,47.7108158 C15.7240442,47.5653081 15.6574686,47.4610004 15.5551086,47.3975656 C15.4527487,47.3338038 15.2996248,47.3020864 15.0949049,47.3020864 C14.8835274,47.3020864 14.7179206,47.3360927 14.5985007,47.4044323 C14.5219387,47.4479211 14.4832417,47.5064511 14.4832417,47.5796954 C14.4832417,47.646727 14.5194422,47.7039491 14.591427,47.7516887 C14.6829684,47.8118537 14.9059967,47.8749615 15.2592634,47.9403582 C15.6129462,48.0064089 15.8742554,48.0740945 16.043607,48.1440689 Z" id="Fill-1" fill="#020201"></path>
                        <path d="M37.1666679,47.9654871 C37.108361,48.0304526 37.0284099,48.0784999 36.9254894,48.1092909 C36.8230106,48.1397434 36.6198199,48.1549697 36.3154756,48.1549697 L35.8931924,48.1549697 L35.8931924,47.3242916 L36.2660031,47.3242916 C36.544286,47.3242916 36.7293662,47.3310588 36.8212437,47.3445933 C36.9462502,47.3618497 37.0496124,47.40516 37.1313304,47.4741858 C37.2130484,47.5432116 37.2536865,47.6311857 37.2536865,47.7377696 C37.2536865,47.8243902 37.2249748,47.9001833 37.1666679,47.9654871 M37.2775393,46.8732553 C37.1353059,46.8441562 36.8291947,46.8292683 36.3600892,46.8292683 L35.1219512,46.8292683 L35.1219512,49.7560976 L35.8931924,49.7560976 L35.8931924,48.6523615 L36.3967519,48.6523615 C36.7457098,48.6523615 37.012508,48.6381503 37.1962631,48.6100663 C37.3323125,48.587396 37.4657116,48.5413788 37.5969021,48.4713379 C37.7280926,48.4016354 37.8363137,48.3055407 37.9211237,48.1830537 C38.0059338,48.0602284 38.0487805,47.909319 38.0487805,47.7296489 C38.0487805,47.4968561 37.9750134,47.3066967 37.8274793,47.1598477 C37.6795035,47.0126604 37.4961902,46.9172424 37.2775393,46.8732553" id="Fill-3" fill="#020201"></path>
                        <path d="M58.648552,49.0216093 C58.4929846,49.1855196 58.2934677,49.2676384 58.0506989,49.2676384 C57.8079301,49.2676384 57.6077156,49.1851925 57.4497066,49.0196463 C57.2916976,48.8544274 57.2132163,48.6113429 57.2132163,48.2910471 C57.2132163,47.9655167 57.2896047,47.7217778 57.4434281,47.5601577 C57.5969026,47.3985376 57.7995588,47.3177275 58.0506989,47.3177275 C58.3018391,47.3177275 58.5031,47.3975561 58.6548305,47.5572132 C58.8062122,47.7168703 58.8822519,47.9586462 58.8822519,48.2831951 C58.8822519,48.6113429 58.8041194,48.857699 58.648552,49.0216093 M58.0447692,46.8292683 C57.7988611,46.8292683 57.581904,46.8668924 57.3938976,46.9418135 C57.2529801,46.9967774 57.1228756,47.0818406 57.0039328,47.1963488 C56.8853388,47.310857 56.7918589,47.4404148 56.7231441,47.584368 C56.6314082,47.7800134 56.5853659,48.0217893 56.5853659,48.3103499 C56.5853659,48.7608578 56.717912,49.1141974 56.9826556,49.3710229 C57.2470504,49.6278484 57.6042275,49.7560976 58.0527918,49.7560976 C58.4957751,49.7560976 58.849813,49.6271941 59.1149053,49.3690599 C59.3796489,49.1109257 59.5121951,48.7536602 59.5121951,48.2966089 C59.5121951,47.8359588 59.3786025,47.476076 59.1114173,47.2176146 C58.8449297,46.9588261 58.4891478,46.8292683 58.0447692,46.8292683" id="Fill-5" fill="#020201"></path>
                        <path d="M77.2412712,48.0669956 L76.7550344,48.0669956 L76.7550344,47.3242916 L77.2679916,47.3242916 C77.5344433,47.3242916 77.6943896,47.3276752 77.7478305,47.3344424 C77.854336,47.3503454 77.9367553,47.3885803 77.9954651,47.449147 C78.0537984,47.5097138 78.0827769,47.5888905 78.0827769,47.6876921 C78.0827769,47.7756661 78.060949,47.8487523 78.0165403,47.9072889 C77.9717554,47.9658255 77.9104113,48.0071056 77.8317553,48.0311293 C77.7534757,48.055153 77.5566477,48.0669956 77.2412712,48.0669956 M78.2528845,48.709883 C78.1603038,48.6205555 78.0428844,48.5390103 77.9010026,48.4642323 C78.1866479,48.4270125 78.4011642,48.3370083 78.5449277,48.1938813 C78.6886912,48.0507543 78.7601966,47.8697307 78.7601966,47.6497956 C78.7601966,47.4768927 78.7127772,47.3232765 78.6179384,47.1886085 C78.523476,47.0539405 78.3970244,46.9605527 78.2393361,46.9081066 C78.0816479,46.8553221 77.8291209,46.8292683 77.4813788,46.8292683 L76.097561,46.8292683 L76.097561,49.7560976 L76.7550344,49.7560976 L76.7550344,48.5342732 L76.8882603,48.5342732 C77.0391743,48.5342732 77.1494432,48.5454392 77.2190669,48.5670943 C77.2886905,48.5890878 77.3545508,48.6296912 77.4170239,48.6889046 C77.4791207,48.7481179 77.5942821,48.8919216 77.7632606,49.1189624 L78.2382071,49.7560976 L79.0243902,49.7560976 L78.6273471,49.1852813 C78.4704115,48.9575638 78.3454652,48.7992105 78.2528845,48.709883" id="Fill-7" fill="#020201"></path>
                        <path d="M100.663501,48.8306781 C100.615877,48.9619625 100.554128,49.0563654 100.47906,49.1132102 C100.403186,49.1703933 100.308746,49.2113351 100.19453,49.2350204 C100.106951,49.2536303 99.9648877,49.2627661 99.7679362,49.2627661 L99.2420594,49.2627661 L99.2420594,47.3242916 L99.5584734,47.3242916 C99.8458289,47.3242916 100.038745,47.3334273 100.13722,47.3523756 C100.26879,47.3763993 100.37776,47.4224165 100.46332,47.4900888 C100.549285,47.5580995 100.615877,47.6525025 100.663501,47.773636 C100.711124,47.8947695 100.734936,48.0683491 100.734936,48.2947131 C100.734936,48.5210771 100.711124,48.6997321 100.663501,48.8306781 M101.015834,47.1544339 C100.869735,47.0258565 100.694174,46.9355139 100.489554,46.885098 C100.336997,46.8478782 100.11583,46.8292683 99.8252459,46.8292683 L98.5365854,46.8292683 L98.5365854,49.7560976 L99.8635868,49.7560976 C100.123902,49.7560976 100.33175,49.7354575 100.487132,49.6941774 C100.695384,49.6383477 100.860049,49.5605245 100.98274,49.4607077 C101.144176,49.329085 101.269288,49.1565205 101.356463,48.9433526 C101.427899,48.7690963 101.463415,48.5616805 101.463415,48.3204286 C101.463415,48.0463556 101.425477,47.8159312 101.349199,47.6288171 C101.273324,47.4420414 101.161933,47.2836881 101.015834,47.1544339" id="Fill-9" fill="#020201"></path>
                        <mask id="mask-3" fill="white">
                            <use xlink:href="#path-2"></use>
                        </mask>
                        <g id="Clip-12"></g>
                        <polygon id="Fill-11" fill="#020201" mask="url(#mask-3)" points="122.926829 49.7560976 123.902439 49.7560976 123.902439 46.8292683 122.926829 46.8292683"></polygon>
                        <polygon id="Fill-13" fill="#020201" mask="url(#mask-3)" points="144.323827 46.8292683 143.442402 46.8292683 142.118574 48.1289158 142.118574 46.8292683 141.463415 46.8292683 141.463415 49.7560976 142.118574 49.7560976 142.118574 48.8716199 142.649906 48.3826872 143.542214 49.7560976 144.390244 49.7560976 143.101689 47.9692091"></polygon>
                        <polygon id="Fill-14" fill="#020201" mask="url(#mask-3)" points="164.741697 46.8292683 163.902439 46.8292683 163.902439 49.7560976 166.829268 49.7560976 166.829268 49.2587413 164.741697 49.2587413"></polygon>
                        <path d="M185.600209,48.4212744 C185.600209,48.6491792 185.589602,48.8118732 185.567538,48.9103547 C185.546323,49.0085035 185.482254,49.091015 185.37533,49.1585546 C185.268406,49.2257616 185.109717,49.2596977 184.899688,49.2596977 C184.692205,49.2596977 184.529273,49.224098 184.40962,49.1525659 C184.290392,49.0813664 184.214866,48.9865447 184.183468,48.8687662 C184.165223,48.7955706 184.155464,48.6355382 184.155464,48.3880037 L184.155464,46.8292683 L183.414634,46.8292683 L183.414634,48.3643814 C183.414634,48.6864424 183.438819,48.9296517 183.487614,49.0946747 C183.520709,49.2061318 183.590295,49.3122655 183.695097,49.4137414 C183.800748,49.5152172 183.943313,49.5977287 184.12449,49.6612759 C184.305242,49.7244903 184.571279,49.7560976 184.921752,49.7560976 C185.212398,49.7560976 185.447461,49.727152 185.627789,49.6689282 C185.808117,49.6107043 185.951955,49.532518 186.059727,49.4340365 C186.1675,49.3362205 186.241328,49.2157803 186.281213,49.0730487 C186.321521,48.9306499 186.341463,48.6864424 186.341463,48.3407592 L186.341463,46.8292683 L185.600209,46.8292683 L185.600209,48.4212744 Z" id="Fill-15" fill="#020201" mask="url(#mask-3)"></path>
                        <path d="M206.976431,49.1284365 C206.910592,49.1903567 206.82496,49.2292683 206.720344,49.2451713 C206.652081,49.257014 206.490915,49.2627661 206.236443,49.2627661 L205.583703,49.2627661 L205.583703,48.4801353 L206.153235,48.4801353 C206.47395,48.4801353 206.682375,48.4943465 206.778913,48.5224306 C206.875046,48.5505146 206.94856,48.59484 206.999455,48.6560835 C207.049945,48.7173269 207.075392,48.7917665 207.075392,48.8797406 C207.075392,48.9832793 207.042271,49.0661779 206.976431,49.1284365 L206.976431,49.1284365 Z M205.583703,47.3165092 L205.988838,47.3165092 C206.320863,47.3165092 206.521613,47.3198929 206.591896,47.3266601 C206.709438,47.3381644 206.797897,47.3726773 206.857274,47.4291837 C206.917458,47.4860285 206.946945,47.559453 206.946945,47.6497956 C206.946945,47.7445369 206.912611,47.8206683 206.843136,47.8785281 C206.774065,47.936388 206.679143,47.9712392 206.55837,47.9834203 C206.491319,47.9898491 206.320863,47.9932328 206.045791,47.9932328 L205.583703,47.9932328 L205.583703,47.3165092 Z M207.14204,48.2006485 C207.293107,48.1438038 207.412668,48.0578599 207.501128,47.9434936 C207.589183,47.8287889 207.633211,47.7032567 207.633211,47.5662202 C207.633211,47.4396729 207.597261,47.3253066 207.526171,47.2237981 C207.454676,47.1216129 207.365409,47.040406 207.257562,46.9788242 C207.150926,46.9179191 207.028941,46.877654 206.893223,46.8583674 C206.757101,46.8387424 206.5511,46.8292683 206.274816,46.8292683 L204.878049,46.8292683 L204.878049,49.7560976 L206.067603,49.7560976 C206.516766,49.7533907 206.800724,49.7469618 206.917862,49.7361342 C207.105687,49.7192161 207.263217,49.6725222 207.39126,49.5974059 C207.519304,49.5222896 207.620285,49.4217961 207.693799,49.2962639 C207.767717,49.1703933 207.804878,49.0408008 207.804878,48.9078246 C207.804878,48.7386437 207.747521,48.5917947 207.633211,48.4662625 C207.5189,48.341407 207.355311,48.2530946 207.14204,48.2006485 L207.14204,48.2006485 Z" id="Fill-16" fill="#020201" mask="url(#mask-3)"></path>
                        <polygon id="Fill-17" fill="#020201" mask="url(#mask-3)" points="226.341463 49.7560976 227.317073 49.7560976 227.317073 46.8292683 226.341463 46.8292683"></polygon>
                        <polygon id="Fill-18" fill="#020201" mask="url(#mask-3)" points="43.3584424 35.5528948 42.5607534 35.5528948 28.2352767 16.5853659 13.6585366 16.5853659 13.6585366 41.9512195 22.0074113 41.9512195 22.0074113 22.9830552 22.9281326 22.9830552 36.9942594 41.9512195 51.7073171 41.9512195 51.7073171 16.5853659 43.3584424 16.5853659"></polygon>
                        <polygon id="Fill-19" fill="#020201" mask="url(#mask-3)" points="65.7308071 31.9738738 88.5197483 31.9738738 88.5197483 26.5627116 65.7308071 26.5627116 65.7308071 22.447564 89.3062284 22.447564 89.3062284 16.5853659 56.5853659 16.6227936 56.5853659 41.9512195 89.7560976 41.9512195 89.7560976 36.088387 65.7308071 36.088387"></polygon>
                        <polygon id="Fill-20" fill="#020201" mask="url(#mask-3)" points="212.905081 29.274346 226.340717 16.5853659 214.176398 16.5853659 205.366165 25.6073238 196.555932 16.5853659 184.391613 16.5853659 197.827249 29.274346 183.414634 41.9512195 196.168252 41.9512195 205.366165 32.7903544 214.563455 41.9512195 227.317073 41.9512195"></polygon>
                        <path d="M174.107868,32.4975753 C174.107868,32.499434 174.104882,32.5006732 174.104882,32.502532 C174.104882,33.8798718 173.204946,35.062042 171.915655,35.4176844 C171.705451,35.4585771 171.349537,35.5143398 170.973917,35.5093832 L167.581391,35.5093832 L159.247279,35.5093832 L155.855947,35.5093832 C155.480327,35.5143398 155.124413,35.4585771 154.913612,35.4176844 C153.624321,35.062042 152.724385,33.8798718 152.724385,32.502532 C152.724385,32.5006732 152.721399,32.499434 152.721399,32.4975753 L152.721399,26.0390101 C152.721399,26.0371513 152.724385,26.0359122 152.724385,26.0340534 C152.724385,24.6567136 153.624321,23.4745434 154.913612,23.1189009 C155.124413,23.0780083 155.480327,23.0222455 155.855947,23.0272022 L159.247279,23.0272022 L167.581391,23.0272022 L170.973917,23.0272022 C171.349537,23.0222455 171.705451,23.0780083 171.915655,23.1189009 C173.204946,23.4745434 174.104882,24.6567136 174.104882,26.0340534 C174.104882,26.0359122 174.107868,26.0371513 174.107868,26.0390101 L174.107868,32.4975753 Z M181.072668,38.9189653 C181.706266,37.9908254 182.083081,37.1556233 182.277161,36.3377697 C182.441383,35.6419746 182.442577,34.8997105 182.4378,34.6617894 L182.438994,34.6617894 L182.438994,33.1425644 L182.438994,25.3946406 L182.438994,23.874796 L182.4378,23.874796 C182.442577,23.6368749 182.441383,22.8946108 182.277161,22.1988156 C182.083081,21.380962 181.706266,20.54576 181.072668,19.6176201 C180.473109,18.6969152 179.631098,17.9515531 178.638004,17.4651781 C178.638004,17.4639389 178.642184,17.4596018 178.642184,17.4596018 C178.41287,17.3412609 178.153698,17.2402683 177.879,17.1516675 C177.797188,17.1244057 177.713584,17.1002419 177.62998,17.0766976 C177.503977,17.0413812 177.374391,17.0079236 177.242416,16.9769442 C177.221515,16.9719876 177.200614,16.9664113 177.179116,16.9620742 C175.893408,16.6708687 174.417202,16.6008555 173.521446,16.5884638 L173.521446,16.5853659 L167.581391,16.5853659 L159.247279,16.5853659 L153.30782,16.5853659 L153.30782,16.5884638 C152.412662,16.6008555 150.935859,16.6708687 149.650748,16.9620742 C149.62925,16.9664113 149.608349,16.9719876 149.586851,16.9769442 C149.455473,17.0079236 149.325887,17.0413812 149.199287,17.0766976 C149.115683,17.1002419 149.032676,17.1244057 148.950864,17.1516675 C148.675568,17.2402683 148.416396,17.3412609 148.18768,17.4596018 C148.18768,17.4596018 148.191263,17.4639389 148.19186,17.4651781 C147.198168,17.9515531 146.356158,18.6969152 145.756599,19.6176201 C145.123001,20.54576 144.746186,21.380962 144.552703,22.1988156 C144.387884,22.8946108 144.386689,23.6368749 144.391467,23.874796 L144.390272,23.874796 L144.390272,25.3946406 L144.390272,33.1425644 L144.390272,34.6617894 L144.391467,34.6617894 C144.386689,34.8997105 144.387884,35.6419746 144.552703,36.3377697 C144.746186,37.1556233 145.123001,37.9908254 145.756599,38.9189653 C146.356158,39.8402898 147.198168,40.5850322 148.19186,41.0714073 C148.191263,41.0726465 148.18768,41.0776032 148.18768,41.0776032 C148.416396,41.1953245 148.675568,41.296317 148.950864,41.3849178 C149.032676,41.41156 149.115683,41.4363435 149.199287,41.4598878 C149.325887,41.4958238 149.454876,41.5286618 149.586253,41.5596411 C149.608349,41.5639782 149.62925,41.5701741 149.650748,41.5745112 C150.935859,41.8663362 152.412662,41.9357299 153.30782,41.9481216 L153.30782,41.9512195 L159.247279,41.9512195 L167.581391,41.9512195 L173.521446,41.9512195 L173.521446,41.9481216 C174.417202,41.9357299 175.893408,41.8663362 177.179116,41.5745112 C177.200614,41.5701741 177.221515,41.5639782 177.243013,41.5596411 C177.374988,41.5286618 177.503977,41.4958238 177.62998,41.4598878 C177.713584,41.4363435 177.79659,41.41156 177.879,41.3849178 C178.153698,41.296317 178.41287,41.1953245 178.642184,41.0776032 C178.642184,41.0776032 178.638004,41.0726465 178.638004,41.0714073 C179.631098,40.5850322 180.473109,39.8402898 181.072668,38.9189653 L181.072668,38.9189653 Z" id="Fill-21" fill="#020201" mask="url(#mask-3)"></path>
                        <path d="M130.11707,37.0051169 L127.157412,32.0939118 L129.060353,28.5137984 L131.627534,33.3452377 L130.11707,37.0051169 Z M118.872915,33.990219 L116.79527,30.0798254 L118.871096,26.6318241 L120.949954,30.0829412 L118.872915,33.990219 Z M107.625727,37.0051169 L106.101312,33.3128329 L108.652114,28.5137984 L110.568401,32.1207081 L107.625727,37.0051169 Z M141.769475,8.7804878 L132.272969,31.7829498 L129.798599,27.125375 L133.10706,20.8986574 L131.63178,20.8986574 L129.060353,25.7375747 L126.489532,20.8986574 L125.013646,20.8986574 L128.322713,27.125375 L126.373669,30.7933554 L120.416136,20.9061354 L117.326662,20.9061354 L111.35275,30.8195285 L109.389754,27.125375 L112.698821,20.8986574 L111.223541,20.8986574 L108.652114,25.7375747 L106.080687,20.8986574 L104.604801,20.8986574 L107.914474,27.125375 L105.456484,31.7505449 L95.9733224,8.7804878 L13.6585366,8.7804878 L13.6585366,13.1171299 L93.6512127,13.1171299 L105.600251,41.9300317 L109.65909,41.9300317 L116.010921,31.3816281 L118.135276,35.3780192 L114.642405,41.9512195 L116.117685,41.9512195 L118.872915,36.7664426 L121.628146,41.9512195 L123.103426,41.9512195 L119.611162,35.3780192 L121.73309,31.384744 L128.083101,41.9300317 L132.143154,41.9300317 L144.090978,13.1171299 L226.341463,13.1171299 L226.341463,8.7804878 L141.769475,8.7804878 Z" id="Fill-22" fill="#D8232A" mask="url(#mask-3)"></path>
                    </g>
                </g>
            </g>
        </g>
    </g>
</svg>