<?xml version="1.0" encoding="UTF-8"?>
<svg width="100px" height="100px" viewBox="0 0 100 100" version="1.1" xmlns="http://www.w3.org/2000/svg" xmlns:xlink="http://www.w3.org/1999/xlink">
    <!-- Generator: Sketch 46.2 (44496) - http://www.bohemiancoding.com/sketch -->
    <title>rae</title>
    <desc>Created with Sketch.</desc>
    <defs></defs>
    <g id="web" stroke="none" stroke-width="1" fill="none" fill-rule="evenodd">
        <g id="Desktop-HD" transform="translate(-676.000000, -787.000000)">
            <g id="Group-8" transform="translate(380.000000, 641.000000)">
                <g id="Group-7">
                    <g id="rae" transform="translate(296.000000, 146.000000)">
                        <circle id="Oval-2-Copy" fill="#FFFFFF" cx="50" cy="50" r="50"></circle>
                        <g id="Group-381" transform="translate(10.000000, 16.000000)">
                            <path d="M39.999456,14 C25.1130519,14 13,26.1143073 13,41 C13,55.8873244 25.1130519,68 39.999456,68 C54.888852,68 67,55.8873244 67,41 C67,26.1143073 54.888852,14 39.999456,14" id="Fill-345" fill="#FFFFFE"></path>
                            <path d="M65,39.9991939 C65,53.8042777 53.8078192,65 40.0002687,65 C26.1927182,65 15,53.8042777 15,39.9991939 C15,26.1924979 26.1927182,15 40.0002687,15 C53.8078192,15 65,26.1924979 65,39.9991939" id="Fill-347" fill="#710C3C"></path>
                            <path d="M39.9858603,23.035324 C37.4568072,22.6721899 35.2243782,25.1765812 33.4525185,27.4342344 C31.6803869,29.6908148 30.7097656,33.4661753 31.0770792,35.8233283 C31.4416739,38.1810177 32.9171814,41 32.9171814,41 C32.8837398,40.9860539 32.9011403,40.6376705 32.7717242,39.2342137 C32.6148478,37.5475446 34.5212895,34.3439728 35.8782561,33.0046142 C37.2319602,31.6668648 39.8322465,29.7573268 41.1098234,28.0140688 C42.3860409,26.2708108 42.5160008,23.4008718 39.9858603,23.035324" id="Fill-349" fill="#FFFFFE"></path>
                            <path d="M36.6147949,45.9608106 C36.6147949,45.9608106 40.1094081,52.1055252 44.639793,52.8431159 C49.1699072,53.5844562 50.0795567,52.1615007 51.6885619,50.8558526 C53.2983791,49.5550254 54.3449768,48.8576085 55.5693905,49.9650659 C56.7943455,51.0746658 58.2271585,52.393973 58.2271585,52.393973 C58.2271585,52.393973 57.5965476,49.0841886 54.867599,47.1737912 C52.1378384,45.2631259 48.4023481,49.5518115 46.305905,49.1918544 C44.2108151,48.8343077 41.8212597,42.6416524 40.9384044,40.4117394 C39.6604022,37.1895339 44.4489858,29.4726852 47.0434221,26.8150553 C47.0434221,26.8150553 48.9552829,29.4847373 52.4780436,31.581809 C56.0048639,33.6804876 57.7464868,34.5019076 56.0487089,37.0138406 C51.6604145,43.5059245 47.278345,44.8362124 47.278345,44.8362124 C47.278345,44.8362124 51.0452305,45.7186966 56.6774253,42.0719881 C62.3125973,38.4309039 64.7449152,36.1364451 61.632999,32.2085201 C58.5172937,28.2811307 52.8648002,27.4176621 52.1914268,23.4503668 C51.5185947,19.4849462 51.8715203,17.7314944 48.9552829,17.1229954 C47.9024604,16.9023074 47.4642805,16.8179425 47.0777944,18.3116038 C46.6872487,19.8012478 45.9083224,24.1252864 43.6549031,27.8057409 C41.4022958,31.4824458 36.2602454,42.5516631 34.2176613,46.4436996 C32.1764305,50.3317186 31.1135939,51.5784451 30.4358901,52.9055192 C30.4358901,52.9055192 30.904112,50.8354979 27.2847299,48.1714402 C24.3942041,46.041426 15.8509142,45.5748745 17.1294577,51.433016 C18.4077304,57.2884793 26.9870166,59.2071793 29.2003798,57.2732133 C31.4640837,55.2969308 33.2403497,50.7313139 36.6147949,45.9608106" id="Fill-351" fill="#FFFFFE"></path>
                            <path d="M40.4986247,13.1568103 C25.4434447,13.1568103 13.1930601,25.2013668 13.1930601,40.0013519 C13.1930601,54.8029592 25.4434447,66.8458935 40.4986247,66.8458935 C55.5568304,66.8458935 67.8052896,54.8029592 67.8052896,40.0013519 C67.8052896,25.2013668 55.5568304,13.1568103 40.4986247,13.1568103 M40.4986247,69 C24.2337271,69 11,55.9934363 11,40.0013519 C11,24.0106194 24.2337271,11 40.4986247,11 C56.7665479,11 70,24.0106194 70,40.0013519 C70,55.9934363 56.7665479,69 40.4986247,69" id="Fill-353" fill="#710C3C"></path>
                            <path d="M4.0330576,37.5458957 L4.17757436,36.1780164 C4.25448574,35.4697868 3.75086674,35.1305462 3.30308375,35.0827851 C2.85174259,35.0358427 2.29037163,35.2618212 2.21537619,35.9708695 L2.06894349,37.3384759 L4.0330576,37.5458957 Z M8.76433915,35.4697868 L5.90438538,36.7186726 L5.79408187,37.7314819 L8.49309653,38.0177759 L8.2812481,40 L0,39.1231053 L0.328447175,36.0442852 C0.549601606,33.969268 1.81658658,32.8385569 3.52122742,33.0186847 C4.63356852,33.1365865 5.40541938,33.7547522 5.75275227,34.7580093 L9,33.2528508 L8.76433915,35.4697868 Z" id="Fill-355" fill="#710C3C"></path>
                            <path d="M7.84313167,27.0106383 L6.05039146,27.0117294 C5.52199288,27.0139116 4.71402135,26.9574468 4.70918149,26.9680851 L4.70576512,26.9798145 C4.70064057,26.9909984 5.35572954,27.4484452 5.75544484,27.7779596 L7.12170819,28.8908893 L7.84313167,27.0106383 Z M9.77964413,27.0106383 L8.59900356,30.0921986 L9.70448399,30.9860884 L8.93409253,33 L2,27.0250955 L2.67644128,25.2561375 L12,25 L11.2270463,27.0139116 L9.77964413,27.0106383 Z" id="Fill-357" fill="#710C3C"></path>
                            <polygon id="Fill-359" fill="#710C3C" points="13.4945638 19.6486601 15 20.720828 11.7093609 26 5 21.2159365 8.25245293 16 9.75709361 17.0716007 7.57783081 20.5674181 8.68045611 21.3534666 10.3869 18.6167588 11.7958101 19.6208706 10.089101 22.3581455 11.2781756 23.2054445"></polygon>
                            <path d="M18.0012108,10.0650971 C17.4004197,9.6347748 16.7039273,9.76127857 16.2535998,10.1166939 C15.8016773,10.4713235 15.7208629,10.9008601 15.9236964,11.1486294 C16.2535998,11.557213 17.0077787,11.2120123 17.9998816,10.8835739 C19.2107681,10.4815381 20.6194371,10.2314116 21.4863308,11.2979196 C22.4090502,12.435144 22.0732984,14.0254771 20.6026894,15.1841783 C19.2849365,16.2221378 17.763021,16.2409955 16.4032659,15.403661 L17.546364,13.8777584 C18.0897344,14.2208639 18.924196,14.3366292 19.5911805,13.8107088 C20.1334875,13.3840532 20.183199,12.935397 19.9380975,12.6336737 C19.5342914,12.1363017 18.6934497,12.5941249 17.517122,12.9676122 C16.5290067,13.2795501 15.3213103,13.5605823 14.434213,12.4673592 C13.6478678,11.4985446 13.9261989,9.8369713 15.2965875,8.75710578 C16.5056131,7.80452977 18.0538464,7.77886234 19.1443089,8.52269404 L18.0012108,10.0650971 Z" id="Fill-361" fill="#710C3C"></path>
                            <path d="M24.8830363,7.78971313 C25.6376011,7.46179667 25.9138205,6.9480433 25.6183369,6.41188406 C25.3252243,5.87598842 24.6983961,5.75288795 23.9459059,6.07948642 L22.8327301,6.56134438 L23.7713424,8.27157109 L24.8830363,7.78971313 Z M23.0929453,4.44675765 C25.0851625,3.58241835 26.7973074,3.98704196 27.6446369,5.53225605 C28.4943374,7.07720654 27.7966761,8.52752518 25.804459,9.39133729 L24.6583858,9.88927475 L25.9031511,12.155167 L23.9580572,13 L20,5.78900093 L23.0929453,4.44675765 Z" id="Fill-363" fill="#710C3C"></path>
                            <path d="M33.4245856,7.13045124 C34.6531905,6.88206436 35.2845463,5.8476239 35.0286185,4.58953428 C34.7726908,3.31983308 33.7896553,2.62238091 32.5623137,2.87076779 C31.347099,3.11688283 30.7129641,4.14021656 30.9706604,5.40941291 C31.2248196,6.66800738 32.2093709,7.37606143 33.4245856,7.13045124 M32.2005284,1.08460363 C34.365177,0.647149916 36.453022,1.93855973 36.9138435,4.20786664 C37.3726439,6.47767841 35.9512722,8.4784044 33.7868763,8.91560569 C31.6222277,9.35255455 29.5460043,8.06038747 29.0872039,5.79032327 C28.626635,3.5205115 30.037901,1.52230977 32.2005284,1.08460363" id="Fill-365" fill="#710C3C"></path>
                            <path d="M41.3141522,3.63224181 L42.7321486,3.70302267 C43.4663926,3.74005038 43.7916264,3.26322418 43.8178594,2.84710327 C43.8446567,2.43224181 43.5814797,1.92619647 42.8469536,1.88916877 L41.4278288,1.81838791 L41.3141522,3.63224181 Z M43.6982592,7.88488665 L42.2636202,5.31435768 L41.2109123,5.26120907 L41.0549242,7.75239295 L39,7.64962217 L39.4795293,0 L42.6729126,0.158942065 C44.8268456,0.26675063 46.0586718,1.38186398 45.9602273,2.95516373 C45.896196,3.98312343 45.2967843,4.71889169 44.279618,5.08513854 L46,8 L43.6982592,7.88488665 Z" id="Fill-367" fill="#710C3C"></path>
                            <path d="M50.0161469,8.0452072 C51.1429756,8.3980645 52.3759292,7.93696225 52.8115855,6.61865555 C53.2458812,5.30087945 52.5424636,4.15953201 51.4159071,3.80508287 L49.8610413,3.31798062 L48.4612812,7.55704372 L50.0161469,8.0452072 Z M51.9843555,2.08138823 C54.238285,2.78789875 55.5438933,4.93157317 54.7816989,7.23681909 C54.020865,9.54365684 51.7005395,10.4754124 49.4474264,9.76863653 L46,8.68777891 L48.5374734,1 L51.9843555,2.08138823 Z" id="Fill-369" fill="#710C3C"></path>
                            <polygon id="Fill-371" fill="#710C3C" points="55 12.0672765 59.1780627 5 61 5.93245841 56.8219373 13"></polygon>
                            <path d="M61.9912894,16.5385982 L62.2357037,12.3551716 L61.2602116,12.4504746 L59.5273868,14.537503 L58,13.2974933 L63.225812,7 L64.7531988,8.24027744 L63.9022146,9.26612314 C63.0366142,10.3088343 62.7556594,10.5936724 62.7637795,10.5998296 L62.773253,10.6078608 C62.7827264,10.6150888 63.1437992,10.5465563 64.3198573,10.4319786 L67.1275098,10.1669506 L69,11.6880506 L64.0738189,12.1752738 L63.7947589,18 L61.9912894,16.5385982 Z" id="Fill-373" fill="#710C3C"></path>
                            <path d="M67.2628506,19.2871316 C68.0060907,20.2860939 69.204022,20.4155192 70.2300302,19.6537947 C71.2648357,18.8845309 71.4774773,17.7066349 70.7349912,16.7066673 C69.9972807,15.7167521 68.8086494,15.5807927 67.7738439,16.3498052 C66.7470816,17.1117811 66.5263968,18.2967138 67.2628506,19.2871316 M72.1887961,15.6260287 C73.4990805,17.3874695 73.2190773,19.8133774 71.3704025,21.1872962 C69.5199682,22.5614663 67.1180733,22.1297135 65.8077889,20.3690267 C64.4992639,18.6068319 64.7847968,16.1904739 66.632969,14.8160524 C68.4836546,13.441631 70.8800198,13.8643366 72.1887961,15.6260287" id="Fill-375" fill="#710C3C"></path>
                            <path d="M70.985258,27.7950222 C71.4445549,28.9551187 72.5730192,29.3920447 73.764218,28.9200941 C74.9644869,28.4431039 75.4751806,27.3565844 75.0158838,26.1964879 C74.5598623,25.0449585 73.4414757,24.6045049 72.2412069,25.081747 C71.050008,25.5542016 70.5287326,26.6439969 70.985258,27.7950222 M76.7046752,25.5257283 C77.5164439,27.5710158 76.6169981,29.8481209 74.4701696,30.7015629 C72.3220814,31.553493 70.1062198,30.5115731 69.294703,28.4647738 C68.4831862,26.4194864 69.3856554,24.1517044 71.5339955,23.3002782 C73.6820838,22.4478442 75.8936623,23.4789291 76.7046752,25.5257283" id="Fill-377" fill="#710C3C"></path>
                            <polygon id="Fill-379" fill="#710C3C" points="74.4899113 38.7482802 72.7515743 39 72 33.1217949 79.745791 32 80 33.9787367 73.9899756 34.8488118"></polygon>
                        </g>
                    </g>
                </g>
            </g>
        </g>
    </g>
</svg>