<?xml version="1.0" encoding="UTF-8"?>
<svg width="108px" height="95px" viewBox="0 0 108 95" version="1.1" xmlns="http://www.w3.org/2000/svg" xmlns:xlink="http://www.w3.org/1999/xlink">
    <!-- Generator: Sketch 46.2 (44496) - http://www.bohemiancoding.com/sketch -->
    <title>rae</title>
    <desc>Created with Sketch.</desc>
    <defs>
        <filter x="-0.5%" y="-4.6%" width="100.9%" height="107.9%" filterUnits="objectBoundingBox" id="filter-1">
            <feOffset dx="0" dy="-1" in="SourceAlpha" result="shadowOffsetOuter1"></feOffset>
            <feGaussianBlur stdDeviation="2" in="shadowOffsetOuter1" result="shadowBlurOuter1"></feGaussianBlur>
            <feColorMatrix values="0 0 0 0 0   0 0 0 0 0   0 0 0 0 0  0 0 0 0.2 0" type="matrix" in="shadowBlurOuter1" result="shadowMatrixOuter1"></feColorMatrix>
            <feMerge>
                <feMergeNode in="shadowMatrixOuter1"></feMergeNode>
                <feMergeNode in="SourceGraphic"></feMergeNode>
            </feMerge>
        </filter>
    </defs>
    <g id="web" stroke="none" stroke-width="1" fill="none" fill-rule="evenodd">
        <g id="Desktop-HD" transform="translate(-511.000000, -914.000000)">
            <g id="Group-2" filter="url(#filter-1)" transform="translate(0.000000, 880.000000)">
                <g id="Group" transform="translate(164.000000, 21.000000)">
                    <g id="rae" transform="translate(351.000000, 18.000000)">
                        <path d="M50.5256372,16.8421053 C31.9539049,16.8421053 16.8421053,31.9554711 16.8421053,50.5263158 C16.8421053,69.0991961 31.9539049,84.2105263 50.5256372,84.2105263 C69.1011019,84.2105263 84.2105263,69.0991961 84.2105263,50.5263158 C84.2105263,31.9554711 69.1011019,16.8421053 50.5256372,16.8421053" id="Fill-267" fill="#FFF101"></path>
                        <path d="M82.1052632,50.5252976 C82.1052632,67.9632982 67.9677717,82.1052632 50.5266552,82.1052632 C33.0855388,82.1052632 18.9473684,67.9632982 18.9473684,50.5252976 C18.9473684,33.0852604 33.0855388,18.9473684 50.5266552,18.9473684 C67.9677717,18.9473684 82.1052632,33.0852604 82.1052632,50.5252976" id="Fill-269" fill="#1A1919"></path>
                        <path d="M50.1259506,28.4664987 C46.9797601,27.9993087 44.2025757,31.2213325 41.9983484,34.1259156 C39.7937828,37.0291185 38.5863113,41.8863074 39.0432564,44.9189019 C39.4968192,47.9521865 41.3323788,51.5789474 41.3323788,51.5789474 C41.2907768,51.5610051 41.3124234,51.1127925 41.1514272,49.3071756 C40.95627,47.1371918 43.3279199,43.0156375 45.0160124,41.2924861 C46.7000462,39.5714051 49.9348521,37.1146895 51.5241822,34.8719014 C53.1118212,32.6291134 53.2734939,28.9367941 50.1259506,28.4664987" id="Fill-271" fill="#FFF101"></path>
                        <path d="M45.7394444,57.4860006 C45.7394444,57.4860006 50.1376989,65.2161934 55.8395563,66.1440996 C61.5410731,67.0767228 62.685941,65.2866119 64.7110047,63.6440765 C66.7370904,62.0076058 68.0543186,61.1302392 69.5953427,62.5234461 C71.1370481,63.9193485 72.9403597,65.5790674 72.9403597,65.5790674 C72.9403597,65.5790674 72.1466846,61.4152822 68.7120811,59.0119581 C65.2764557,56.608297 60.5750377,62.0035626 57.9364937,61.5507282 C55.2996529,61.1009262 52.2922033,53.3104228 51.1810581,50.5051407 C49.5725886,46.4515318 55.59941,36.7435578 58.8647189,33.400198 C58.8647189,33.400198 61.2709511,36.7587196 65.7046315,39.3968842 C70.1434214,42.0370704 72.3353953,43.0704358 70.1986039,46.2305055 C64.6755789,54.397697 59.1603884,56.07123 59.1603884,56.07123 C59.1603884,56.07123 63.9013199,57.1814155 70.9898946,52.593772 C78.0822163,48.0132039 81.143486,45.1267217 77.2268866,40.1853012 C73.3055184,35.2445547 66.1913962,34.1582912 65.343901,29.167342 C64.4970871,24.1787514 64.9412727,21.9728684 61.2709511,21.2073627 C59.9458883,20.9297321 59.3944033,20.823599 58.9079793,22.7026595 C58.4164457,24.5766661 57.4361037,30.0164065 54.5999925,34.6465033 C51.7649032,39.2718831 45.293215,53.1972142 42.722457,58.093486 C40.1534022,62.9847038 38.8157361,64.5531145 37.9627908,66.2226044 C37.9627908,66.2226044 38.552086,63.6184697 33.9967996,60.2670236 C30.3588382,57.5874166 19.6064138,57.0004839 21.2155646,64.3701613 C22.8243747,71.7364695 33.6221032,74.1502385 36.4078007,71.7172644 C39.2568559,69.2310554 41.4924309,63.4874038 45.7394444,57.4860006" id="Fill-273" fill="#FFF101"></path>
                        <path d="M49.9983069,16.3851163 C31.4647223,16.3851163 16.3839633,31.4681363 16.3839633,50.0016929 C16.3839633,68.5372811 31.4647223,83.6182695 49.9983069,83.6182695 C68.5356163,83.6182695 83.614005,68.5372811 83.614005,50.0016929 C83.614005,31.4681363 68.5356163,16.3851163 49.9983069,16.3851163 M49.9983069,86.3157895 C29.9755071,86.3157895 13.6842105,70.0280782 13.6842105,50.0016929 C13.6842105,29.9770006 29.9755071,13.6842105 49.9983069,13.6842105 C70.0248315,13.6842105 86.3157895,29.9770006 86.3157895,50.0016929 C86.3157895,70.0280782 70.0248315,86.3157895 49.9983069,86.3157895" id="Fill-275" fill="#1A1919"></path>
                        <path d="M5.18872908,46.5213783 L5.37465707,44.8758093 C5.47360738,44.0238037 4.8256765,43.6156947 4.24958144,43.5582377 C3.6689086,43.5017656 2.94667695,43.7736194 2.85019159,44.6266099 L2.66179865,46.2718507 L5.18872908,46.5213783 Z M11.275758,44.0238037 L7.59628528,45.5262227 L7.45437433,46.7446399 L10.9267909,47.0890537 L10.6542373,49.4736842 L0,48.4187733 L0.422563617,44.7149296 C0.707089785,42.2186683 2.33712894,40.8584144 4.53023411,41.0751094 C5.96131622,41.2169462 6.95434072,41.9606042 7.40120175,43.1675299 L11.5789474,41.356813 L11.275758,44.0238037 Z" id="Fill-277" fill="#1A1919"></path>
                        <path d="M9.92362615,33.9599664 L7.84782169,33.9612585 C7.23599176,33.9638427 6.30044578,33.8969765 6.29484173,33.9095745 L6.29088593,33.9234646 C6.28495224,33.9367086 7.04347631,34.4784219 7.50630455,34.8686364 L9.08829369,36.1865794 L9.92362615,33.9599664 Z M12.1659037,33.9599664 L10.7988462,37.6091825 L12.0788762,38.6677362 L11.186844,41.0526316 L3.15789474,33.9770867 L3.94114254,31.8822681 L14.7368421,31.5789474 L13.841843,33.9638427 L12.1659037,33.9599664 Z" id="Fill-279" fill="#1A1919"></path>
                        <polygon id="Fill-281" fill="#1A1919" points="17.0457648 24.2247644 18.9473684 25.4662219 14.7907717 31.5789474 6.31578947 26.0395054 10.4241511 20 12.3247498 21.2408009 9.57199682 25.2885894 10.9647867 26.1987508 13.1202948 23.0299313 14.8999707 24.192587 12.7441276 27.3620632 14.2461165 28.3431463"></polygon>
                        <path d="M22.1068563,13.2435489 C21.3163417,12.6773353 20.3999044,12.8437876 19.8073682,13.3114394 C19.2127333,13.7780573 19.1063986,14.343237 19.3732847,14.6692493 C19.8073682,15.2068593 20.7997089,14.7526477 22.1051073,14.320492 C23.698379,13.7914975 25.5518909,13.4623837 26.6925405,14.8656837 C27.906645,16.3620315 27.4648663,18.4545751 25.5298544,19.9791819 C23.7959691,21.3449181 21.7934487,21.3697309 20.0042973,20.267975 L21.5083737,18.2602084 C22.2233347,18.711663 23.3213105,18.8639858 24.1989217,18.1719852 C24.9124835,17.6105963 24.9778934,17.0202592 24.6553914,16.6232549 C24.1240676,15.9688181 23.017697,16.571217 21.4698974,17.0626477 C20.1697457,17.4730922 18.5806714,17.8428714 17.4134381,16.40442 C16.3787735,15.129664 16.7449986,12.9433833 18.5481414,11.5225076 C20.1389646,10.2691181 22.1761137,10.2353452 23.6109327,11.2140711 L22.1068563,13.2435489 Z" id="Fill-283" fill="#1A1919"></path>
                        <path d="M31.0457009,10.1388122 C31.9392645,9.71693138 32.2663663,9.05596214 31.9164516,8.36616663 C31.5693446,7.67671025 30.827048,7.51833537 29.9359412,7.93852054 L28.6177067,8.55845476 L29.7292212,10.7587464 L31.0457009,10.1388122 Z M28.9258563,5.83793382 C31.2850608,4.72591834 33.3126009,5.24648674 34.3160174,7.23448147 C35.3222417,9.22213706 34.4960638,11.0880441 32.1368593,12.1993813 L30.7796674,12.8400026 L32.2537315,15.7551856 L29.9503308,16.8421053 L25.2631579,7.56479652 L28.9258563,5.83793382 Z" id="Fill-285" fill="#1A1919"></path>
                        <path d="M41.6112969,9.11901479 C43.2278822,8.79218995 44.0586136,7.43108408 43.7218665,5.775703 C43.3851195,4.10504353 42.0916518,3.1873433 40.4767286,3.51416814 C38.8777619,3.83800372 38.0433738,5.18449547 38.3824478,6.85449067 C38.7168679,8.51053603 40.0123302,9.44218609 41.6112969,9.11901479 M40.0006953,1.16395214 C42.8489171,0.588355152 45.5960816,2.28757859 46.2024257,5.27350874 C46.8061105,8.26010318 44.9358845,10.8926374 42.0879951,11.4679022 C39.2397733,12.0428349 36.5079004,10.3426151 35.9042156,7.35568851 C35.2982039,4.36909408 37.1551328,1.73988128 40.0006953,1.16395214" id="Fill-287" fill="#1A1919"></path>
                        <path d="M51.2049951,4.77926554 L52.9108555,4.87239825 C53.7941566,4.92111892 54.1854152,4.29371603 54.2169738,3.74618852 C54.249211,3.20031818 53.9326071,2.53446904 53.0489667,2.48574838 L51.341749,2.39261567 L51.2049951,4.77926554 Z M54.0730938,10.3748509 L52.3472123,6.9925759 L51.0807968,6.92264351 L50.8931419,10.200517 L48.4210526,10.0652923 L48.99793,0 L52.8395941,0.209134297 C55.4307917,0.350987671 56.9126879,1.81824208 56.7942584,3.88837333 C56.7172283,5.24095188 55.9961315,6.20906801 54.7724728,6.69097176 L56.8421053,10.5263158 L54.0730938,10.3748509 Z" id="Fill-289" fill="#1A1919"></path>
                        <path d="M63.0617095,10.1166408 C64.5114306,10.5706093 66.0976867,9.97737834 66.6581802,8.28131123 C67.2169232,6.58592678 66.3119415,5.11752656 64.8625705,4.66151013 L62.8621584,4.03482887 L61.0612974,9.48859426 L63.0617095,10.1166408 Z M65.5939077,2.44389129 C68.4937,3.35285219 70.17343,6.11079589 69.192829,9.07660935 C68.2139784,12.0444708 65.2287642,13.2432206 62.3300222,12.3339183 L57.8947368,10.9433413 L61.1593225,1.05263158 L65.5939077,2.44389129 Z" id="Fill-291" fill="#1A1919"></path>
                        <polygon id="Fill-293" fill="#1A1919" points="68.4210526 15.6148375 73.5520068 6.31578947 75.7894737 7.54270843 70.6585195 16.8421053"></polygon>
                        <path d="M77.5968193,21.3398829 L77.9008755,16.1356201 L76.6873446,16.2541789 L74.5316774,18.8504823 L72.6315789,17.3078864 L79.1325891,9.47368421 L81.0326875,11.0166131 L79.9740468,12.2927848 C78.8972234,13.5899374 78.5477103,13.9442815 78.5578119,13.9519412 L78.569597,13.9619321 C78.5813821,13.9709239 79.0305636,13.8856682 80.4936024,13.7431313 L83.9863759,13.4134314 L86.3157895,15.3057089 L80.1875259,15.9118239 L79.8403699,23.1578947 L77.5968193,21.3398829 Z" id="Fill-295" fill="#1A1919"></path>
                        <path d="M84.0300665,24.8514889 C85.0080141,26.1659131 86.5842395,26.3362095 87.9342503,25.3339404 C89.2958365,24.3217512 89.575628,22.771888 88.5986726,21.4561411 C87.6280009,20.1536212 86.0640123,19.9747272 84.7024262,20.9865858 C83.3514232,21.9891856 83.0610485,23.5483076 84.0300665,24.8514889 M90.5115738,20.0342483 C92.2356323,22.3519336 91.867207,25.5439176 89.4347401,27.3517055 C86.9999581,29.1598241 83.8395701,28.5917283 82.1155117,26.2750351 C80.3937683,23.9563578 80.7694695,20.7769393 83.201275,18.96849 C85.6363876,17.1600408 88.7894997,17.7162324 90.5115738,20.0342483" id="Fill-297" fill="#1A1919"></path>
                        <path d="M88.9279711,34.7302924 C89.532309,36.2567352 91.0171305,36.8316378 92.5844974,36.2106501 C94.1637985,35.5830315 94.835764,34.1534005 94.231426,32.6269577 C93.6313977,31.1117876 92.1598365,30.5322433 90.5805353,31.1601934 C89.0131685,31.7818442 88.3272797,33.2157853 88.9279711,34.7302924 M96.45352,31.7443794 C97.5216367,34.435547 96.3381554,37.431738 93.5133811,38.554688 C90.6869492,39.6756487 87.7713418,38.3047015 86.7035566,35.6115445 C85.6357713,32.9203769 86.8232307,29.9364532 89.6499941,28.8161556 C92.476426,27.6945318 95.3863977,29.0512224 96.45352,31.7443794" id="Fill-299" fill="#1A1919"></path>
                        <polygon id="Fill-301" fill="#1A1919" points="92.7498833 48.1182318 90.4625978 48.4210526 89.4736842 41.3495277 99.6655145 40 100 42.3804351 92.0920731 43.427142"></polygon>
                    </g>
                </g>
            </g>
        </g>
    </g>
</svg>