<?xml version="1.0" encoding="UTF-8"?>
<svg width="140px" height="140px" viewBox="0 0 140 140" version="1.1" xmlns="http://www.w3.org/2000/svg" xmlns:xlink="http://www.w3.org/1999/xlink">
    <!-- Generator: Sketch 46.2 (44496) - http://www.bohemiancoding.com/sketch -->
    <title>rae</title>
    <desc>Created with Sketch.</desc>
    <defs>
        <rect id="path-1" x="0" y="0" width="140" height="140" rx="70"></rect>
    </defs>
    <g id="web" stroke="none" stroke-width="1" fill="none" fill-rule="evenodd">
        <g id="Desktop-HD" transform="translate(-269.000000, -794.000000)">
            <g id="Group-17" transform="translate(0.000000, 514.000000)">
                <g id="klubid" transform="translate(269.000000, 108.000000)">
                    <g id="rae" transform="translate(0.000000, 172.000000)">
                        <mask id="mask-2" fill="white">
                            <use xlink:href="#path-1"></use>
                        </mask>
                        <use id="Rectangle-4-Copy-5" fill="#FFFFFF" xlink:href="#path-1"></use>
                        <g id="Group-94" mask="url(#mask-2)">
                            <g transform="translate(26.000000, 39.000000)">
                                <path d="M17.5138909,13.7984915 C20.1894427,13.7984915 22.1713735,13.4856325 23.4599574,12.8593708 C24.0168274,12.5924485 24.5273828,12.2385454 24.9916238,11.7971178 C25.4555907,11.3559621 25.6877112,11.0221733 25.6877112,10.7962951 C25.6877112,9.64706134 24.9124233,8.53832803 23.3618475,7.47091059 C21.8874576,6.46519516 20.3366077,5.88514199 18.7095718,5.7310229 C18.6221498,5.72096574 17.9833389,5.67992168 16.793139,5.60789071 L16.793139,13.7829981 C17.066093,13.7933271 17.306435,13.7984915 17.5138909,13.7984915 Z M25.3709092,12.1896187 C24.8674791,12.6685567 24.30458,13.0586112 23.6983811,13.3489096 C22.3240195,14.016759 20.300159,14.3421215 17.5138909,14.3421215 C17.2979394,14.3421215 17.0485538,14.3366852 16.7720371,14.3263562 L16.2450387,14.3062419 L16.2450387,13.7829981 L16.2450387,5.60789071 L16.2450387,5.03028388 L16.8265731,5.06534801 C18.6243422,5.174074 18.7284813,5.18603386 18.7728774,5.19092653 C20.475003,5.35211281 22.1269774,5.96886101 23.6723463,7.02295951 C25.3741978,8.19448208 26.2358116,9.46358622 26.2358116,10.7962951 C26.2358116,11.1909704 25.9691607,11.6207099 25.3709092,12.1896187 Z M30.4781081,24.0741851 C30.8209449,23.7635006 30.9875674,23.4085102 30.9875674,22.9896433 C30.9875674,22.6254113 30.8475278,22.2978742 30.5597751,21.9882769 C29.144306,20.4598613 26.9949305,18.9333484 24.1702955,17.4505976 L23.080946,16.8786989 L24.2385339,16.4595602 C26.1028972,15.7838282 27.5115151,14.9523461 28.4251983,13.9882184 C29.3117506,13.0523594 29.7428315,12.0085899 29.7428315,10.7962951 C29.7428315,7.77534337 27.4942499,5.17978212 23.0601182,3.08109864 C22.048051,2.5959089 20.7956417,2.2656537 19.3349543,2.09903112 L19.3242663,2.09767204 L19.3237182,2.09767204 C19.2267045,2.0878867 18.557474,2.03678549 15.2806561,1.80873272 C15.2009075,1.80275279 15.1238994,1.80003464 15.0499059,1.80003464 C14.3647805,1.80003464 13.837782,2.04303723 13.439039,2.54290498 C13.089625,2.98922518 12.9183437,3.47441492 12.9183437,4.02212211 L12.8857317,16.448144 C12.8857317,17.2187395 12.8747697,18.3840103 12.8531198,19.9105232 C12.8311957,21.4291535 12.8202337,22.5895317 12.8202337,23.3593117 C12.8202337,23.7912257 12.9778126,24.1473033 13.3017399,24.4479307 C13.6363551,24.7586152 14.0496228,24.9094725 14.5653852,24.9094725 C15.0811476,24.9094725 15.4944153,24.7583434 15.8293046,24.4479307 C16.1529578,24.1473033 16.3105367,23.7909539 16.3105367,23.3593117 C16.3105367,23.0418318 16.2502456,21.3758778 16.1310338,18.40793 L16.1008883,17.6560898 L16.8298617,17.8640282 C20.8551106,19.0105438 24.5969916,21.0904721 27.9519137,24.0459163 C28.3424352,24.3884032 28.7540585,24.5552976 29.2095299,24.5552976 C29.7058348,24.5552976 30.1207467,24.3979167 30.4781081,24.0741851 Z M24.4265324,16.9700288 C27.3202281,18.4892027 29.4989269,20.0390917 30.9623548,21.619424 C31.3443807,22.0301364 31.5356677,22.4870574 31.5356677,22.9896433 C31.5356677,23.5648038 31.3062878,24.0597789 30.8478018,24.475384 C30.3890418,24.8912609 29.8428599,25.0989276 29.2095299,25.0989276 C28.620048,25.0989276 28.079347,24.8833783 27.5879751,24.4522797 C24.2790934,21.5376077 20.6427217,19.5155761 16.678586,18.3864566 C16.79862,21.3731596 16.858637,23.0309592 16.858637,23.3593117 C16.858637,23.9442575 16.640219,24.4395044 16.2036571,24.8450524 C15.7665471,25.2503285 15.2206391,25.4531025 14.5653852,25.4531025 C13.9101312,25.4531025 13.3639493,25.2503285 12.9273874,24.8450524 C12.4902773,24.4395044 12.2721334,23.9442575 12.2721334,23.3593117 C12.2721334,22.5895317 12.2830954,21.4375798 12.3050194,19.9029124 C12.3266694,18.3685168 12.3376314,17.2162931 12.3376314,16.4465131 L12.3702434,4.02212211 C12.3702434,3.35508815 12.5834544,2.74975618 13.0090543,2.20558259 C13.5141288,1.5725255 14.1945953,1.25640467 15.0499059,1.25640467 C15.137876,1.25640467 15.2272164,1.25966645 15.3190232,1.26646183 C17.9726509,1.4510242 19.3322138,1.54887759 19.3977118,1.55893475 C20.9266377,1.73343997 22.2259095,2.07728592 23.2963495,2.5904726 C27.959039,4.79733844 30.2909319,7.53234078 30.2909319,10.7962951 C30.2909319,12.1409638 29.8020264,13.3287953 28.8247635,14.3603331 C27.8472265,15.391871 26.3810582,16.2619507 24.4265324,16.9700288 Z" id="Fill-2" fill="#FFFFFE"></path>
                                <path d="M47.2985127,13.6279276 C46.9817107,13.6689717 46.6002328,13.7255092 45.3771469,13.7972684 C44.339593,13.8589704 43.9641443,13.9410585 43.4724983,14.0435328 C44.9685381,11.6727625 45.7539659,10.9554427 46.6057138,9.58005894 C47.0644738,11.7148938 47.0365207,12.2938597 47.2985127,13.6279276 M47.6133963,12.1443615 C47.5218635,11.4920055 47.4179985,10.752397 47.141756,9.4667121 L46.8561957,8.13699321 L46.1387323,9.29546866 C45.7747937,9.88313265 45.4190766,10.3522853 45.0069052,10.8950998 C44.4662042,11.6075269 43.853428,12.4150892 43.0079832,13.7551371 L42.3245021,14.8385916 L43.5851329,14.5754747 L43.6215816,14.5681357 C44.0778751,14.4727286 44.4382511,14.3977077 45.4094849,14.3400829 C46.5698133,14.2721292 46.9948651,14.2161353 47.3050899,14.175363 L47.3697657,14.1669368 L47.9480116,14.0919158 L47.8364731,13.5240943 C47.7326081,12.995686 47.6747835,12.5822554 47.6133963,12.1443615 M53.9743747,24.3920727 C53.6460626,24.6687804 52.9247626,24.8340439 52.4172217,24.8340439 C52.3928312,24.8340439 52.3692629,24.8335003 52.3470648,24.8329566 C51.9894294,24.8201813 51.2377098,24.4722581 50.2179691,22.2795267 C49.6717871,21.1368165 49.195762,19.4523791 48.7627627,17.8024621 L48.6397142,17.3335813 L48.1557416,17.4012632 C47.4325232,17.5023784 46.5037672,17.6200743 44.6204944,17.7358675 C42.8830164,17.8497579 41.5305788,17.9864809 40.6010006,18.1425027 L40.3102334,18.1914294 L40.1910216,18.4588953 C40.1197685,18.6192662 40.0411161,18.798664 39.9547903,18.9951863 C39.4360134,20.1770378 38.652778,21.961775 37.6004253,23.8813324 C37.2205918,24.4564929 36.7347009,24.7247743 36.0731438,24.7247743 C35.5971186,24.7247743 35.1794662,24.575276 34.7957959,24.2681251 C34.4430934,23.9854375 34.2786633,23.652736 34.2786633,23.220822 C34.2808557,22.9397653 34.8366294,21.1240412 36.6080897,17.760059 L36.7349749,17.5192309 L36.6168593,17.2743256 C36.5064171,17.0449138 36.4576361,16.8377908 36.4716127,16.6630137 C36.495181,16.3988096 36.8673411,15.8160382 37.6601683,15.5996735 L37.8695426,15.5423206 L37.9827253,15.3583018 C38.8755808,13.9040917 39.8369488,12.6670617 40.8547711,11.3571853 C41.5881293,10.4134437 42.3467002,9.43735608 43.1408976,8.30497487 C46.5720057,3.41583879 47.5347439,2.7773454 47.7613834,2.70313991 C48.3541539,2.70803258 49.1760303,2.89368221 49.611222,4.33701977 C49.8288178,5.43025962 50.1746692,7.08697193 50.6411025,9.26747171 C51.0979442,11.2954833 51.8929637,14.704315 53.0867262,19.4330802 C53.1407141,19.6363978 53.2889753,20.0770099 53.9505324,21.5467135 C54.3997006,22.5543316 54.4936998,23.0634411 54.4936998,23.3129673 C54.4936998,23.7505894 54.3287216,24.0933481 53.9743747,24.3920727 M53.6167393,19.2947264 C52.4720317,14.760037 51.6772862,11.373766 51.1760485,9.14896038 C50.7063265,6.95269533 50.3623935,5.30522473 50.1439755,4.20682039 C49.7400256,2.84203737 48.9370586,2.15923813 47.7361708,2.15923813 C47.1025668,2.15923813 45.4207209,4.10434614 42.6909072,7.99429034 C40.7906433,10.7040139 39.0652235,12.5507249 37.5146476,15.0756142 C36.4990177,15.3525937 35.9692787,16.1229174 35.9257048,16.6154461 C35.9035067,16.8926974 35.9692787,17.1903348 36.1221987,17.5083583 C34.5275008,20.5363772 33.7305629,22.6973063 33.7305629,23.220822 C33.7305629,23.8160968 33.9709049,24.3061792 34.4515889,24.6910692 C34.9319989,25.0759592 35.4724258,25.2684042 36.0731438,25.2684042 C36.9248917,25.2684042 37.5908336,24.8987359 38.0715176,24.1599427 C39.3165275,21.8916467 40.1901994,19.8076413 40.6925334,18.6785218 C41.6097793,18.5246745 42.9309751,18.3912134 44.656395,18.2781383 C46.4911609,18.1653351 47.4240276,18.0525319 48.2322016,17.9394569 C48.6471135,19.5203328 49.1436924,21.3015364 49.7227604,22.5124721 C50.5964324,24.3907137 51.4646233,25.3453279 52.3273332,25.376043 C52.3566566,25.3771302 52.3865281,25.3776739 52.4172217,25.3776739 C53.0168434,25.3776739 53.877361,25.1871315 54.3292697,24.8063188 C54.8041986,24.4062071 55.0418001,23.9085139 55.0418001,23.3129673 C55.0418001,22.8718115 54.8453062,22.2099421 54.4520442,21.327087 C53.9716342,20.2596696 53.6929252,19.5823066 53.6167393,19.2947264" id="Fill-4" fill="#FFFFFE"></path>
                                <path d="M74.944118,5.01851429 C74.7728366,5.01851429 74.5875787,4.99323549 74.3930031,4.94322154 C72.5870125,4.48249514 70.8048643,4.24873426 69.0964355,4.24873426 C68.2570199,4.24873426 67.345529,4.31233897 66.3871756,4.4381893 C65.4343032,4.56295238 64.4079853,4.75267924 63.3364491,5.00193357 L62.9133157,5.1003306 L62.9133157,5.53142916 C62.9133157,6.92067553 62.8617942,8.59804578 62.7664248,11.2077414 L62.7442267,11.8103552 L63.3509738,11.7698548 C63.9659424,11.7288107 66.0657147,11.5420738 69.7703249,11.1990433 C71.8311822,11.0063265 73.1474451,10.9087449 73.6829391,10.9087449 C74.1981534,10.9087449 74.6234793,11.055525 74.9833072,11.3575115 C75.3203889,11.6404709 75.4771456,11.9951894 75.4771456,12.4743992 C75.4771456,13.1398023 75.2885991,13.842444 73.8925875,14.0115129 C73.0180934,14.0734868 71.7393753,14.1740583 69.9717518,14.3202948 C68.4340563,14.4831119 66.0807875,14.6847987 62.9774434,14.9191032 L62.499774,14.9552546 L62.4720949,15.4295717 C62.3953609,16.7359145 62.3564457,17.8084964 62.3564457,18.6174178 C62.3564457,21.5943355 62.6233706,22.1382373 62.8722081,22.4124986 C63.073361,22.6359305 63.3682389,22.7943986 65.3452368,22.7943986 C66.0229629,22.7943986 67.0577763,22.7789052 68.4209019,22.7481901 C69.7752578,22.717475 70.8015757,22.7019815 71.4716283,22.7019815 C71.7185475,22.7019815 72.0608362,22.6699074 72.5171297,22.6038563 C73.0126124,22.532369 73.2644645,22.5171473 73.3880612,22.5171473 C73.9027274,22.5171473 74.3244906,22.6470749 74.681852,22.917259 C75.0570267,23.1950539 75.2315966,23.5652659 75.2315966,24.0828016 C75.2315966,24.6737274 75.0649741,25.3812618 73.7662504,25.6109455 C72.710061,25.7993132 70.4554503,25.8947203 67.0651757,25.8947203 C62.8173981,25.8947203 61.1267826,25.2274145 60.45673,24.6680193 C59.4013628,23.7854361 58.8661428,21.7498137 58.8661428,18.6174178 C58.8661428,17.2599738 58.9730224,15.1890154 59.1837669,12.4621676 C59.3920451,9.76712201 59.5049537,8.03865055 59.5049537,6.6243972 C59.5049537,6.23515814 59.4490475,5.68690733 59.3347686,4.94811421 C59.2303555,4.2767312 59.1771897,3.768709 59.1771897,3.43763836 C59.1771897,2.17831955 59.6992553,1.64094133 60.9223412,1.64094133 C61.2991602,1.64094133 61.6365159,1.73879472 61.953866,1.94020962 L62.1495379,2.06442907 L62.3756292,2.01142515 C63.6187208,1.71922404 64.8154979,1.4971512 65.9325264,1.35145837 C67.0459922,1.20658099 68.110403,1.13291913 69.0964355,1.13291913 C71.7706171,1.13291913 73.9287621,1.42240208 75.5116759,1.99375717 C76.3034068,2.27698838 76.6566575,2.72222132 76.6566575,3.43763836 C76.6566575,3.830411 76.5130552,4.17126699 76.211326,4.48630055 C75.8799993,4.84428088 75.4653614,5.01851429 74.944118,5.01851429 M75.697756,1.48220138 C74.0485221,0.887198384 71.8481733,0.589289164 69.0964355,0.589289164 C68.0808056,0.589289164 67.0021442,0.663766469 65.8612733,0.812449264 C64.7198544,0.961403874 63.515952,1.18483579 62.2492921,1.48220138 C61.8450681,1.22587985 61.4027511,1.09731136 60.9223412,1.09731136 C59.3934153,1.09731136 58.6290894,1.87742036 58.6290894,3.43763836 C58.6290894,3.79697776 58.6836254,4.32810423 58.7929714,5.03101778 C58.9020434,5.73420313 58.9568534,6.26532961 58.9568534,6.6243972 C58.9568534,7.98972385 58.8502479,9.66464777 58.6373109,12.4205799 C58.4243739,15.176512 58.3180425,17.242034 58.3180425,18.6174178 C58.3180425,21.9327451 58.9130054,24.0882379 60.1034793,25.0836244 C61.1846072,25.9865938 63.50499,26.4383503 67.0651757,26.4383503 C70.5050534,26.4383503 72.7709002,26.3407687 73.8632641,26.1458774 C75.140886,25.9199991 75.779697,25.2323072 75.779697,24.0828016 C75.779697,23.3953816 75.522912,22.8615369 75.00989,22.4818114 C74.561818,22.1428581 74.021117,21.9735174 73.3880612,21.9735174 C73.1803311,21.9735174 72.8640772,22.0045043 72.4379292,22.0659345 C72.0120553,22.1276365 71.6897723,22.1583516 71.4716283,22.1583516 C70.7941763,22.1583516 69.7733394,22.173845 68.4082956,22.2045601 C67.0429776,22.2352752 66.0221408,22.2507687 65.3452368,22.2507687 C64.0892649,22.2507687 63.401125,22.184174 63.281091,22.0507128 C63.029787,21.7734616 62.9045461,20.6291205 62.9045461,18.6174178 C62.9045461,17.8166509 62.942639,16.7647269 63.019099,15.4611022 C66.1421747,15.2251668 68.4792746,15.025111 70.0301245,14.860663 C71.7665063,14.7171446 73.0712592,14.6143986 73.9449311,14.5529684 C75.331899,14.3887921 76.0252459,13.6959358 76.0252459,12.4743992 C76.0252459,11.8380804 75.7958659,11.32734 75.33738,10.94245 C74.87862,10.55756 74.3272311,10.365115 73.6829391,10.365115 C73.1260692,10.365115 71.8045993,10.4629684 69.7190775,10.6578597 C66.0602337,10.9965412 63.9253829,11.1865398 63.313977,11.2273121 C63.412361,8.5385183 63.461416,6.89648399 63.461416,5.53142916 C64.5203458,5.28489297 65.5195328,5.1003306 66.4592508,4.97719841 C67.3981467,4.85406622 68.2772996,4.79236422 69.0964355,4.79236422 C70.7673194,4.79236422 72.4872583,5.01824247 74.2562521,5.46972716 C74.49632,5.53142916 74.7257,5.56214425 74.944118,5.56214425 C75.621296,5.56214425 76.1781659,5.32620885 76.6152759,4.85406622 C77.0082639,4.4436256 77.2047578,3.97121116 77.2047578,3.43763836 C77.2047578,2.49335311 76.7024239,1.84154078 75.697756,1.48220138" id="Fill-6" fill="#FFFFFE"></path>
                                <path d="M18.9459102,59.3452062 C17.218572,59.3452062 14.9044924,58.406629 12.0683472,56.5561126 C11.2078297,55.9926402 9.12943321,54.4413921 5.89070834,51.9464024 L5.00963705,51.2676804 L5.0066225,52.3742392 L4.98716494,58.8572983 C4.98716494,59.179399 4.87124172,59.4726874 4.63501048,59.7507541 C4.28915916,60.1511376 3.7796999,60.3460289 3.07730933,60.3460289 C2.2156956,60.3460289 1.5656486,60.0842711 1.09044561,59.5468929 C0.725410792,59.1321032 0.548100334,58.7102464 0.548100334,58.256859 C0.548100334,55.992912 0.63908499,52.544939 0.818587849,48.0091624 C0.998912859,43.4527278 1.09017156,39.9906204 1.09017156,37.7187908 C1.09017156,37.308622 1.27077062,36.9737459 1.65909971,36.6649641 C2.07894457,36.3311753 2.59963988,36.16863 3.25133118,36.16863 C3.90165223,36.16863 4.41823679,36.3303599 4.83150444,36.6630614 C5.21490063,36.9718432 5.39358134,37.3072629 5.39358134,37.7187908 C5.39358134,38.625022 5.3354827,39.8704782 5.22092973,41.4181927 C5.07897175,43.2415276 4.99401619,44.50737 4.96798143,45.1806557 L4.9241334,46.3268995 L5.84631221,45.6348585 C6.76766887,44.943633 10.0631221,42.1357843 15.9198483,37.0509414 C16.4147829,36.6231046 16.9678161,36.4151662 17.6110118,36.4151662 C18.228995,36.4151662 18.7507865,36.5807015 19.2059838,36.9210138 C19.6184293,37.2300675 19.8105385,37.5668462 19.8110866,37.9699478 C19.7927252,38.1061272 19.4929143,38.9647907 15.3931238,42.5280133 C13.143446,44.4704031 10.7370115,46.4160548 8.24068852,48.3106052 L7.66929392,48.7444219 L8.24233282,49.1755205 C9.63615197,50.223639 11.0625831,51.2913283 12.4857256,52.3508631 C14.1440032,53.5672351 15.656486,54.5821923 16.9869996,55.3704557 C17.6855535,55.7738291 18.4485091,56.0828828 19.2558609,56.2894622 C20.742035,56.6653823 20.9138644,57.3199127 20.9138644,57.7795519 C20.9138644,58.0918673 20.7850609,58.3952128 20.5227949,58.7042664 C20.1509088,59.1356368 19.6354204,59.3452062 18.9459102,59.3452062 M19.3912417,55.7626847 C18.6302044,55.5680652 17.9206885,55.2804849 17.26242,54.9004876 C15.9467052,54.1206504 14.4629976,53.1249921 12.8115713,51.9137846 C11.3922654,50.8566961 9.97926278,49.7996077 8.57365948,48.7422474 C11.089166,46.8332908 13.482172,44.8987835 15.7532258,42.9381821 C18.8234098,40.2695026 20.3586388,38.6171393 20.3586388,37.9805486 C20.3586388,37.3956028 20.0843146,36.8979096 19.5362143,36.4871971 C18.9875658,36.0767565 18.3462884,35.8715362 17.6110118,35.8715362 C16.8370942,35.8715362 16.1530649,36.1281295 15.5597463,36.6413162 C9.76659985,41.6707088 6.41880301,44.5239507 5.51580771,45.2013136 C5.54156843,44.5342796 5.62542778,43.2871925 5.76738577,41.4600522 C5.88358304,39.8897771 5.94168167,38.6426899 5.94168167,37.7187908 C5.94168167,37.1441739 5.68681502,36.6516452 5.17708171,36.2409327 C4.66707434,35.8304921 4.02524885,35.625 3.25133118,35.625 C2.47713946,35.625 1.83202537,35.8304921 1.3159889,36.2409327 C0.799952438,36.6516452 0.54207123,37.1441739 0.54207123,37.7187908 C0.54207123,39.9974158 0.451634675,43.4206537 0.271035615,47.9879608 C0.090162505,52.5555398 0,55.978234 0,58.256859 C0,58.8418048 0.225543287,59.3908711 0.677452013,59.9043296 C1.25816432,60.5610346 2.0578427,60.8896589 3.07730933,60.8896589 C3.94111545,60.8896589 4.5991099,60.6279011 5.05129268,60.1043854 C5.37384973,59.7246599 5.53526527,59.308783 5.53526527,58.8572983 L5.55472284,52.3755982 C8.81866033,54.8904304 10.8891093,56.435155 11.766618,57.0097719 C14.7079984,58.9293293 17.1012785,59.8888361 18.9459102,59.8888361 C19.7973841,59.8888361 20.4616817,59.6115849 20.9393511,59.0573541 C21.2876689,58.6471853 21.4619648,58.2209794 21.4619648,57.7795519 C21.4619648,56.7841654 20.7713584,56.1116952 19.3912417,55.7626847" id="Fill-8" fill="#FFFFFE"></path>
                                <path d="M55.8721522,60.3125957 C53.6548123,60.3125957 51.8962324,59.7330862 50.6419048,58.5879296 C49.6043508,57.6526143 49.0998245,56.6121065 49.0998245,55.4071507 C49.0998245,54.8314466 49.2365755,54.3756129 49.518025,54.0130117 C49.7687809,53.6903673 50.0976411,53.5397818 50.5533866,53.5397818 C50.9323979,53.5397818 51.4829647,53.6612831 51.8902033,54.7126634 C52.5098307,56.2902776 53.8967986,57.0902291 56.0121918,57.0902291 C57.7030814,57.0902291 59.3605368,56.6504324 60.9365993,55.7847017 C62.6765438,54.838242 63.5587113,53.7390222 63.5587113,52.5172138 C63.5587113,50.9050792 62.9612819,49.816732 61.7864289,49.283431 C61.0201846,48.9295279 59.5893687,48.7292003 57.4128622,48.6715755 C55.8910617,48.6302596 54.5125893,48.2902191 53.3169084,47.6617828 C51.7731839,46.8449788 51.0348927,45.719393 51.0595572,44.2187025 C51.0853179,42.2347249 52.0069486,40.3793158 53.7989627,38.7035765 C55.5975539,37.0215854 57.5994904,36.16863 59.7491399,36.16863 C60.5940366,36.16863 61.6694094,36.4070117 62.9456611,36.8775234 C64.3307106,37.3890792 65.0936663,37.9645115 65.0936663,38.4980844 C65.0936663,38.9533744 64.9654108,39.3431571 64.699034,39.6918958 C64.4290946,40.0498761 64.1106483,40.2167705 63.6962845,40.2167705 C63.3046668,40.2167705 62.688328,40.1113063 61.8648072,39.9033678 C60.9387917,39.6698787 60.246815,39.5562601 59.744207,39.5562601 C58.443839,39.5682199 57.1938962,39.9406065 56.0327456,40.6606443 C54.7452579,41.445646 54.0924704,42.3513335 54.0924704,43.3526999 C54.0924704,43.9349276 54.3402118,44.4388726 54.8091116,44.8096282 C55.2284084,45.1417861 55.8129574,45.3646744 56.5959187,45.4910684 L56.6219535,45.4951456 L56.6482623,45.4970483 L60.2100923,45.7278192 C62.1383093,45.9034117 63.6757307,46.5451669 64.7774124,47.6332423 C65.9906325,48.8425471 66.605601,50.5579715 66.605601,52.7319477 C66.605601,55.380241 65.3540139,57.3354062 62.7795867,58.7094309 C60.7792945,59.7733148 58.4553491,60.3125957 55.8721522,60.3125957 M60.2528441,45.1858202 C59.0681252,45.1088965 57.8781994,45.0317011 56.6838888,44.9545056 C56.0026001,44.8446924 55.4917706,44.6549655 55.1511262,44.3847814 C54.8104819,44.1154128 54.6405707,43.7715668 54.6405707,43.3526999 C54.6405707,42.5494867 55.2001812,41.8063445 56.3199502,41.1235453 C57.4024483,40.4524341 58.5457856,40.1110345 59.7491399,40.09989 C60.1969379,40.09989 60.8571247,40.2099751 61.7297005,40.4301452 C62.6022762,40.6505872 63.2578042,40.7604004 63.6962845,40.7604004 C64.2841221,40.7604004 64.764532,40.512777 65.1380624,40.0172583 C65.4740479,39.5771898 65.6417666,39.0707985 65.6417666,38.4980844 C65.6417666,37.6948711 64.8067357,36.9846185 63.136674,36.3681422 C61.792732,35.8726234 60.6633713,35.625 59.7491399,35.625 C57.444378,35.625 55.3352879,36.5195431 53.4226918,38.3080857 C51.5095476,40.0971719 50.53941,42.0648405 50.5114569,44.2116353 C50.4832297,45.9178179 51.3322371,47.2279661 53.0587532,48.1415363 C54.3369232,48.8131911 55.7833599,49.1708996 57.3977895,49.2149336 C59.4783783,49.2701121 60.86425,49.4571208 61.5548565,49.7762316 C62.5252681,50.2165718 63.010611,51.1304138 63.010611,52.5172138 C63.010611,53.5302683 62.2312123,54.4604191 60.6732371,55.3079383 C59.170346,56.1334404 57.6167556,56.5465991 56.0121918,56.5465991 C54.1365925,56.5465991 52.9326901,55.869508 52.4007587,54.5153258 C52.008867,53.502815 51.3930763,52.9961518 50.5533866,52.9961518 C49.9282781,52.9961518 49.4380024,53.2247482 49.0836555,53.6813974 C48.7290346,54.1385902 48.5517241,54.7134789 48.5517241,55.4071507 C48.5517241,56.7610611 49.1255852,57.955688 50.2733073,58.9902158 C51.6356107,60.2340412 53.5018923,60.8562257 55.8721522,60.8562257 C58.5597622,60.8562257 60.9481094,60.300364 63.0385641,59.1883689 C65.7818062,57.7246453 67.1537014,55.5721424 67.1537014,52.7319477 C67.1537014,50.3984161 66.4910481,48.5707321 65.1660155,47.2497113 C63.9623872,46.0607926 62.3246634,45.3731007 60.2528441,45.1858202" id="Fill-10" fill="#FFFFFE"></path>
                                <path d="M75.5962901,60.3125957 C73.3789502,60.3125957 71.6203703,59.7330862 70.3660427,58.5879296 C69.3284888,57.6526143 68.8239624,56.6121065 68.8239624,55.4071507 C68.8239624,54.8314466 68.9607134,54.3756129 69.242163,54.0130117 C69.4929189,53.6903673 69.8217791,53.5397818 70.2775245,53.5397818 C70.6565359,53.5397818 71.2071027,53.6612831 71.6143412,54.7126634 C72.2339686,56.2902776 73.6209365,57.0902291 75.7363298,57.0902291 C77.4272193,57.0902291 79.0846747,56.6504324 80.6607372,55.7847017 C82.4006817,54.838242 83.2828492,53.7390222 83.2828492,52.5172138 C83.2828492,50.9050792 82.6854199,49.816732 81.5105668,49.283431 C80.7443225,48.9295279 79.3135066,48.7292003 77.1370002,48.6715755 C75.6151996,48.6302596 74.2367273,48.2902191 73.0410464,47.6617828 C71.4973218,46.8449788 70.7590306,45.719393 70.7836951,44.2187025 C70.8094559,42.2347249 71.7310866,40.3793158 73.5231006,38.7035765 C75.3216919,37.0215854 77.3236283,36.16863 79.4732778,36.16863 C80.3181745,36.16863 81.3935474,36.4070117 82.669799,36.8775234 C84.0548485,37.3890792 84.8178042,37.9645115 84.8178042,38.4980844 C84.8178042,38.9533744 84.6895487,39.3431571 84.423172,39.6918958 C84.1532325,40.0498761 83.8347863,40.2167705 83.4204224,40.2167705 C83.0288047,40.2167705 82.4124659,40.1113063 81.5889451,39.9033678 C80.6629296,39.6698787 79.9709529,39.5562601 79.4683449,39.5562601 C78.1679769,39.5682199 76.9180341,39.9406065 75.7568835,40.6606443 C74.4693958,41.445646 73.8166083,42.3513335 73.8166083,43.3526999 C73.8166083,43.9349276 74.0643497,44.4388726 74.5332495,44.8096282 C74.9525463,45.1417861 75.5370953,45.3646744 76.3200566,45.4910684 L76.3460914,45.4951456 L76.3724002,45.4970483 L79.9342302,45.7278192 C81.8624472,45.9034117 83.3998686,46.5451669 84.5015503,47.6332423 C85.7147704,48.8425471 86.329739,50.5579715 86.329739,52.7319477 C86.329739,55.380241 85.0781519,57.3354062 82.5037246,58.7094309 C80.5034324,59.7733148 78.179487,60.3125957 75.5962901,60.3125957 M84.8901534,47.2497113 C83.6865251,46.0607926 82.0488013,45.3731007 79.9769821,45.1858202 C78.7922632,45.1088965 77.6023374,45.0317011 76.4080267,44.9545056 C75.726738,44.8446924 75.2159085,44.6549655 74.8752641,44.3847814 C74.5346198,44.1154128 74.3647087,43.7715668 74.3647087,43.3526999 C74.3647087,42.5494867 74.9243191,41.8063445 76.0440881,41.1235453 C77.1265863,40.4524341 78.2699236,40.1110345 79.4732778,40.09989 C79.9210758,40.09989 80.5812627,40.2099751 81.4538384,40.4301452 C82.3264141,40.6505872 82.9819421,40.7604004 83.4204224,40.7604004 C84.00826,40.7604004 84.48867,40.512777 84.8622003,40.0172583 C85.1981858,39.5771898 85.3659045,39.0707985 85.3659045,38.4980844 C85.3659045,37.6948711 84.5308737,36.9846185 82.860812,36.3681422 C81.5168699,35.8726234 80.3875092,35.625 79.4732778,35.625 C77.1685159,35.625 75.0594259,36.5195431 73.1468297,38.3080857 C71.2336855,40.0971719 70.2635479,42.0648405 70.2355948,44.2116353 C70.2073676,45.9178179 71.0563751,47.2279661 72.7828911,48.1415363 C74.0610611,48.8131911 75.5074979,49.1708996 77.1219274,49.2149336 C79.2025163,49.2701121 80.588388,49.4571208 81.2789944,49.7762316 C82.249406,50.2165718 82.7347489,51.1304138 82.7347489,52.5172138 C82.7347489,53.5302683 81.9553502,54.4604191 80.397375,55.3079383 C78.8944839,56.1334404 77.3408935,56.5465991 75.7363298,56.5465991 C73.8607304,56.5465991 72.656828,55.869508 72.1248967,54.5153258 C71.7330049,53.502815 71.1172142,52.9961518 70.2775245,52.9961518 C69.6524161,52.9961518 69.1621403,53.2247482 68.8077934,53.6813974 C68.4531725,54.1385902 68.2758621,54.7134789 68.2758621,55.4071507 C68.2758621,56.7610611 68.8497231,57.955688 69.9974452,58.9902158 C71.3597486,60.2340412 73.2260302,60.8562257 75.5962901,60.8562257 C78.2839001,60.8562257 80.6722473,60.300364 82.762702,59.1883689 C85.5059442,57.7246453 86.8778393,55.5721424 86.8778393,52.7319477 C86.8778393,50.3984161 86.215186,48.5707321 84.8901534,47.2497113" id="Fill-12" fill="#FFFFFE"></path>
                                <path d="M16.7721742,14.3263291 L16.2451757,14.3062148 L16.2451757,13.7829709 L16.2451757,5.60786353 L16.2451757,5.03025669 L16.8264361,5.06532083 C18.6242052,5.17404682 18.7283443,5.18600668 18.7730144,5.19117116 C20.474866,5.35208563 22.1271144,5.96883383 23.6724833,7.02293232 C25.3740608,8.19445489 26.2359486,9.46355904 26.2359486,10.7962679 C26.2359486,11.1909432 25.9692978,11.6206827 25.3710463,12.1895915 C24.8673421,12.6685295 24.304443,13.058584 23.698244,13.3488824 C22.3238825,14.0167318 20.300022,14.3420943 17.514028,14.3420943 C17.2980764,14.3420943 17.0484167,14.3369298 16.7721742,14.3263291 M24.1701584,17.4505705 L23.0810831,16.8786717 L24.238671,16.459533 C26.1027602,15.783801 27.5116521,14.952319 28.4253354,13.9881912 C29.3118877,13.0523322 29.7426945,12.0085627 29.7426945,10.7962679 C29.7426945,7.77531619 27.494387,5.17975493 23.0602553,3.08107146 C22.0479139,2.59588172 20.7955047,2.26562652 19.3350913,2.09900393 L19.3244034,2.09764486 L19.3238553,2.09764486 C19.2268415,2.08813134 18.557337,2.0367583 15.2805191,1.80870553 C15.2010446,1.8027256 15.1237624,1.80000745 15.0497689,1.80000745 C14.3649175,1.80000745 13.837919,2.04301005 13.438902,2.5428778 C13.0897621,2.989198 12.9184807,3.47438774 12.9184807,4.02209493 L12.8855947,16.4481168 C12.8855947,17.2187123 12.8746327,18.3839831 12.8529827,19.910496 C12.8313328,21.4291263 12.8203708,22.5895045 12.8203708,23.3592845 C12.8203708,23.7911985 12.9776756,24.1472762 13.3018769,24.4479035 C13.6364922,24.758588 14.0494858,24.9094454 14.5655222,24.9094454 C15.0810106,24.9094454 15.4942782,24.7583162 15.8291675,24.4479035 C16.1530948,24.1472762 16.3103996,23.7909267 16.3103996,23.3592845 C16.3103996,23.0418046 16.2501086,21.3761224 16.1308968,18.4081746 L16.1007513,17.6560626 L16.8299988,17.864001 C20.8549736,19.0105166 24.5971286,21.0904449 27.9517767,24.0458892 C28.3425722,24.3886479 28.7541956,24.5552704 29.2096669,24.5552704 C29.7056978,24.5552704 30.1206097,24.3978896 30.4779711,24.0741579 C30.8208079,23.7634734 30.9877044,23.4087549 30.9877044,22.989888 C30.9877044,22.6253841 30.8476648,22.297847 30.5596381,21.9882498 C29.144443,20.4598341 26.9947935,18.9333212 24.1701584,17.4505705" id="Fill-14" fill="#CA2D2D"></path>
                                <path d="M47.3697109,14.1669096 L47.3053091,14.1753358 C46.9948103,14.2161081 46.5697585,14.272102 45.4097041,14.3400557 C44.4384703,14.3976805 44.0778203,14.4727014 43.6215268,14.5681085 L43.5850781,14.5754475 L42.3244473,14.8385644 L43.0079284,13.7551099 C43.8533732,12.415062 44.4661494,11.6074997 45.0068503,10.8950726 C45.4190218,10.3522581 45.7747389,9.88310547 46.1386775,9.29544148 L46.8561409,8.13696603 L47.1417011,9.46668491 C47.4179437,10.7523698 47.5218087,11.4919783 47.6133415,12.1443343 C47.6747287,12.5822282 47.7328274,12.9956588 47.8364183,13.5240671 L47.9479567,14.0918886 L47.3697109,14.1669096 Z M53.0866714,19.433053 C51.8929089,14.7045596 51.0978894,11.2957279 50.6413218,9.26744453 C50.1746143,7.08694475 49.828763,5.43023244 49.6111672,4.33699258 C49.1759755,2.89365503 48.3540991,2.7080054 47.7616026,2.70311273 C47.5349631,2.77731822 46.5719509,3.41581161 43.1408428,8.30494768 C42.3466454,9.4373289 41.5880745,10.4134165 40.8549903,11.3571581 C39.837168,12.6670345 38.875526,13.9040645 37.9826705,15.3582746 L37.8694878,15.5425652 L37.6601135,15.5996463 C36.8675604,15.8160111 36.4951262,16.3987824 36.4715579,16.6629865 C36.4578554,16.8377636 36.5063623,17.0448866 36.6168045,17.2742984 L36.7349201,17.5192037 L36.6080349,17.7600318 C34.8365746,21.124014 34.2808009,22.9397381 34.2786085,23.2207948 C34.2786085,23.6527088 34.4430386,23.9856821 34.7957411,24.2680979 C35.1794114,24.5752488 35.5970638,24.7247471 36.073089,24.7247471 C36.7346461,24.7247471 37.220537,24.4564657 37.6003705,23.8813052 C38.6527232,21.9617478 39.4359586,20.1770106 39.9547355,18.9951591 C40.0410613,18.7986369 40.1197137,18.619239 40.1909668,18.4591399 L40.3101786,18.1914022 L40.6009458,18.1424755 C41.530524,17.9864537 42.8829616,17.8497308 44.6204396,17.7358403 C46.5037124,17.6200471 47.4324684,17.5023512 48.1556868,17.401236 L48.6396594,17.3335541 L48.7627079,17.802435 C49.1957072,19.4523519 49.6717323,21.1367893 50.2181883,22.2794995 C51.2376549,24.472231 51.9893746,24.8201541 52.34701,24.8329294 C52.3692081,24.8334731 52.3930505,24.8340167 52.4171669,24.8340167 C52.9249818,24.8340167 53.6460078,24.6687532 53.9743199,24.3920455 C54.3286668,24.0935927 54.493919,23.7505622 54.493919,23.3129401 C54.493919,23.0634139 54.3996458,22.5543045 53.9507516,21.5466863 C53.2891945,20.0769827 53.1406593,19.6363706 53.0866714,19.433053 L53.0866714,19.433053 Z" id="Fill-16" fill="#CA2D2D"></path>
                                <path d="M75.5117581,1.99364845 C73.9288443,1.42229336 71.7706993,1.1328104 69.0962437,1.1328104 C68.1104852,1.1328104 67.0460744,1.20647226 65.9326086,1.35162146 C64.8155801,1.49731429 63.618803,1.71938713 62.3754374,2.01131642 L62.1496201,2.06432034 L61.9539482,1.9401009 C61.6365982,1.73868599 61.2992424,1.64110442 60.9224234,1.64110442 C59.6990635,1.64110442 59.177272,2.17821082 59.177272,3.43752963 C59.177272,3.76860028 59.2301636,4.27689429 59.3348508,4.94800548 C59.4491297,5.6867986 59.5047619,6.23504942 59.5047619,6.62456029 C59.5047619,8.03854182 59.3921273,9.7672851 59.1838492,12.4620588 C58.9731046,15.1889067 58.866225,17.2601369 58.866225,18.6173091 C58.866225,21.7497049 59.4011709,23.7853273 60.4565381,24.6679106 C61.1265908,25.2275776 62.8172063,25.8948834 67.0652579,25.8948834 C70.4555325,25.8948834 72.7098692,25.7992045 73.7660585,25.6108367 C75.0650563,25.3811531 75.2316788,24.6736187 75.2316788,24.0829647 C75.2316788,23.565429 75.0568348,23.1949452 74.6819342,22.9174221 C74.3242987,22.6469662 73.9028096,22.5173104 73.3881434,22.5173104 C73.2642727,22.5173104 73.0126946,22.5322603 72.5172119,22.6040194 C72.0606444,22.6697986 71.7186297,22.7021446 71.4714365,22.7021446 C70.8013838,22.7021446 69.775066,22.7176381 68.42071,22.7480814 C67.0578586,22.7787964 66.0230451,22.7942899 65.345045,22.7942899 C63.3683212,22.7942899 63.0731691,22.6360936 62.8720163,22.4123899 C62.6234528,22.1381285 62.3565279,21.5944986 62.3565279,18.6173091 C62.3565279,17.8086595 62.3954431,16.7360776 62.4719031,15.4297348 L62.4998562,14.9554177 L62.9775256,14.9192663 C66.0808697,14.6846899 68.4338644,14.483275 69.971834,14.320186 C71.7391835,14.1739496 73.0179016,14.073378 73.8926697,14.0114042 C75.2886813,13.8423353 75.4772278,13.1399654 75.4772278,12.4745623 C75.4772278,11.9953525 75.320197,11.6403621 74.9833894,11.3576746 C74.6235615,11.0556881 74.1982357,10.908908 73.6830213,10.908908 C73.1475273,10.908908 71.8309903,11.0064896 69.7704071,11.1989346 C66.0655229,11.5419651 63.9660246,11.728702 63.351056,11.7697461 L62.7443089,11.8102465 L62.766507,11.2076327 C62.8616024,8.59820887 62.9133979,6.9205668 62.9133979,5.53132043 L62.9133979,5.10049369 L63.3362573,5.00209666 C64.4077934,4.75284232 65.4343854,4.56311547 66.3872578,4.43808058 C67.3456112,4.31250205 68.2571021,4.24862553 69.0962437,4.24862553 C70.8049465,4.24862553 72.5870947,4.48238642 74.3928113,4.94338463 C74.5876609,4.99339858 74.7729189,5.01840556 74.9442002,5.01840556 C75.4654436,5.01840556 75.8800815,4.84444397 76.2114082,4.48619183 C76.5131374,4.17115826 76.6567397,3.83030228 76.6567397,3.43752963 C76.6567397,2.72238441 76.303489,2.27687966 75.5117581,1.99364845" id="Fill-18" fill="#CA2D2D"></path>
                                <path d="M18.7077606,57.2666655 C17.9004088,57.0600861 17.1377272,56.7510325 16.4388993,56.3476591 C15.1083857,55.5591238 13.5959028,54.5441667 11.9376253,53.3280664 C10.5147568,52.2685316 9.08805164,51.2008424 7.69423249,50.1527238 L7.12119359,49.7213535 L7.69258819,49.2878086 C10.1889112,47.3932581 12.5953457,45.4476065 14.8450235,43.5052166 C18.944814,39.941994 19.2446249,39.0833305 19.2629862,38.9471512 C19.2624381,38.5440496 19.070329,38.2072708 18.6578835,37.8982172 C18.2026861,37.5579048 17.6808946,37.3920977 17.0629115,37.3920977 C16.4197158,37.3920977 15.8666825,37.6000362 15.3717479,38.0281448 C9.5150218,43.1127158 6.21984259,45.9208364 5.29821188,46.6120619 L4.37603307,47.3041028 L4.41988109,46.1575872 C4.44591586,45.4845733 4.53114546,44.218731 4.6728294,42.3953961 C4.78738237,40.8476816 4.845481,39.6022253 4.845481,38.6959942 C4.845481,38.2844663 4.66707434,37.9490466 4.28340411,37.639993 C3.87013646,37.3075632 3.35355189,37.1458333 2.70323085,37.1458333 C2.05153955,37.1458333 1.53084423,37.3081069 1.11099938,37.6421675 C0.722944341,37.9509493 0.54207123,38.2858254 0.54207123,38.6959942 C0.54207123,40.9678238 0.450812525,44.4299312 0.270761565,48.9863657 C0.0909846555,53.5221423 0,56.9698436 0,59.2340624 C0,59.6874497 0.177310458,60.1093066 0.542345281,60.5238244 C1.01754827,61.0612027 1.66759527,61.3229605 2.52920899,61.3229605 C3.23159957,61.3229605 3.74105883,61.128341 4.08691014,60.7279575 C4.32314138,60.449619 4.43933866,60.1563306 4.43933866,59.8345017 L4.45852217,53.3511707 L4.46181077,52.2446119 L5.34260801,52.9233339 C8.58133288,55.4185955 10.6597293,56.9695717 11.5202469,57.533316 C14.3563921,59.3838324 16.6704717,60.3224095 18.3978099,60.3224095 C19.0873201,60.3224095 19.6030825,60.1125684 19.9746945,59.681198 C20.2369605,59.3724162 20.3657641,59.0687988 20.3657641,58.7567552 C20.3657641,58.2971161 20.1939347,57.6425856 18.7077606,57.2666655" id="Fill-20" fill="#CA2D2D"></path>
                                <path d="M59.661992,46.7050226 L56.1001619,46.4742517 L56.0738531,46.4726208 L56.0478184,46.4682718 C55.264857,46.3421496 54.680308,46.1192613 54.2610113,45.7868316 C53.7921114,45.416076 53.5443701,44.912131 53.5443701,44.3301751 C53.5443701,43.3288087 54.1971576,42.4228494 55.4846453,41.6378477 C56.6457958,40.9178098 57.8957386,40.5454233 59.1961067,40.5334634 C59.6987147,40.5334634 60.3906914,40.6470821 61.3167069,40.8805712 C62.1402276,41.0885096 62.7565664,41.1939739 63.1481841,41.1939739 C63.5622739,41.1939739 63.8809943,41.0270795 64.1509337,40.6690991 C64.4173105,40.3203605 64.5455659,39.9308496 64.5455659,39.4752877 C64.5455659,38.9417149 63.7826103,38.3662826 62.3972867,37.8547268 C61.1213091,37.3842151 60.0459362,37.1458333 59.2010396,37.1458333 C57.0513901,37.1458333 55.0494536,37.9987887 53.2505883,39.6810517 C51.4588483,41.3565192 50.5372176,43.2119283 50.5114569,45.1959058 C50.4867924,46.6965963 51.2250835,47.8221822 52.7688081,48.639258 C53.964489,49.2674224 55.3429613,49.607463 56.8647619,49.6487789 C59.0412683,49.7064036 60.4720843,49.9067313 61.2383285,50.2609062 C62.4131816,50.7939354 63.010611,51.8822826 63.010611,53.494689 C63.010611,54.7162255 62.1284435,55.8157171 60.388499,56.7619051 C58.8124364,57.6279076 57.154981,58.0674325 55.4640915,58.0674325 C53.3486983,58.0674325 51.9617304,57.267481 51.3421029,55.6901386 C50.9348644,54.6384865 50.3842976,54.517257 50.0052862,54.517257 C49.5495408,54.517257 49.2204065,54.6675707 48.9699247,54.9902151 C48.6884752,55.3528162 48.5517241,55.8089218 48.5517241,56.3843541 C48.5517241,57.5893099 49.0562505,58.6300895 50.0938044,59.5654048 C51.348132,60.7102895 53.106712,61.2897991 55.3240519,61.2897991 C57.9072487,61.2897991 60.2311942,60.7505181 62.2314863,59.6866343 C64.8059136,58.3128814 66.0575007,56.3574444 66.0575007,53.7094229 C66.0575007,51.5354466 65.4425321,49.8197505 64.229312,48.6104456 C63.1276304,47.5223703 61.5902089,46.8806151 59.661992,46.7050226" id="Fill-22" fill="#CA2D2D"></path>
                                <path d="M85.4706914,48.6104456 C84.3687356,47.5223703 82.8315882,46.8806151 80.9033713,46.7050226 L77.3415412,46.4742517 L77.3152324,46.472349 L77.2891977,46.4682718 C76.5062363,46.3418778 75.9216873,46.1189895 75.5023906,45.7868316 C75.0334907,45.416076 74.7857494,44.912131 74.7857494,44.3299033 C74.7857494,43.3285369 75.4385369,42.4228494 76.7260246,41.6378477 C77.8871751,40.9178098 79.1371179,40.5454233 80.437486,40.5334634 C80.940094,40.5334634 81.6320707,40.6470821 82.5580862,40.8805712 C83.3816069,41.0885096 83.9979458,41.1939739 84.3895634,41.1939739 C84.8036532,41.1939739 85.1223736,41.0270795 85.392313,40.6690991 C85.6586898,40.3200887 85.7869452,39.9305778 85.7869452,39.4752877 C85.7869452,38.9417149 85.0239896,38.3662826 83.638666,37.8547268 C82.3626884,37.3842151 81.2873156,37.1458333 80.4424189,37.1458333 C78.2927694,37.1458333 76.2908329,37.9987887 74.4919676,39.6807799 C72.7002276,41.3565192 71.7785969,43.2119283 71.7528362,45.195634 C71.7281717,46.6965963 72.4664628,47.8221822 74.0101874,48.6389862 C75.2058683,49.2674224 76.5843406,49.6071912 78.1061412,49.6487789 C80.2826476,49.7064036 81.7134636,49.9067313 82.4797078,50.2606344 C83.6545609,50.7939354 84.2519903,51.8822826 84.2519903,53.4944172 C84.2519903,54.7162255 83.3698228,55.8154453 81.6298783,56.7619051 C80.0538158,57.6276358 78.3963603,58.0674325 76.7054708,58.0674325 C74.5900776,58.0674325 73.2031097,57.267481 72.5834822,55.6898668 C72.1762437,54.6384865 71.6254029,54.5169852 71.2466655,54.5169852 C70.7909201,54.5169852 70.4617859,54.6675707 70.211304,54.9902151 C69.9298545,55.3528162 69.7931034,55.80865 69.7931034,56.3843541 C69.7931034,57.5893099 70.2976298,58.6298177 71.3351837,59.565133 C72.5895114,60.7102895 74.3480913,61.2897991 76.5654312,61.2897991 C79.1486281,61.2897991 81.4725735,60.7505181 83.4728656,59.6866343 C86.0472929,58.3126096 87.29888,56.3574444 87.29888,53.709151 C87.29888,51.5351748 86.6839114,49.8197505 85.4706914,48.6104456" id="Fill-24" fill="#CA2D2D"></path>
                                <path d="M33.9920118,34.1041667 C26.1245796,34.1041667 19.7241379,40.4524056 19.7241379,48.25567 C19.7241379,56.0586627 26.1245796,62.4069016 33.9920118,62.4069016 C41.8591699,62.4069016 48.2598856,56.0586627 48.2598856,48.25567 C48.2598856,40.4524056 41.8591699,34.1041667 33.9920118,34.1041667" id="Fill-26" fill="#F1E937"></path>
                                <path d="M34.6353321,57.2410427 C29.7597056,57.2410427 25.7931034,53.3067926 25.7931034,48.4712041 C25.7931034,48.0958276 26.0997656,47.7916667 26.4782289,47.7916667 C26.8566921,47.7916667 27.1633543,48.0958276 27.1633543,48.4712041 C27.1633543,52.5576706 30.5152619,55.8819678 34.6353321,55.8819678 C38.7551282,55.8819678 42.1070358,52.5576706 42.1070358,48.4712041 C42.1070358,48.0958276 42.413698,47.7916667 42.7921613,47.7916667 C43.1706245,47.7916667 43.4772867,48.0958276 43.4772867,48.4712041 C43.4772867,53.3067926 39.5106846,57.2410427 34.6353321,57.2410427" id="Fill-28" fill="#1A1919"></path>
                                <path d="M31.9716641,44.0198479 C31.9716641,45.2965629 30.9280811,46.3313625 29.6411415,46.3313625 C28.3539279,46.3313625 27.3103448,45.2965629 27.3103448,44.0198479 C27.3103448,42.7434048 28.3539279,41.7083333 29.6411415,41.7083333 C30.9280811,41.7083333 31.9716641,42.7434048 31.9716641,44.0198479" id="Fill-30" fill="#1A1919"></path>
                                <path d="M41.0751124,44.0198479 C41.0751124,45.2965629 40.0315294,46.3313625 38.7445898,46.3313625 C37.4573761,46.3313625 36.4137931,45.2965629 36.4137931,44.0198479 C36.4137931,42.7434048 37.4573761,41.7083333 38.7445898,41.7083333 C40.0315294,41.7083333 41.0751124,42.7434048 41.0751124,44.0198479" id="Fill-32" fill="#1A1919"></path>
                            </g>
                        </g>
                    </g>
                </g>
            </g>
        </g>
    </g>
</svg>