<?xml version="1.0" encoding="UTF-8"?>
<svg width="140px" height="140px" viewBox="0 0 140 140" version="1.1" xmlns="http://www.w3.org/2000/svg" xmlns:xlink="http://www.w3.org/1999/xlink">
    <!-- Generator: Sketch 46.2 (44496) - http://www.bohemiancoding.com/sketch -->
    <title>rim</title>
    <desc>Created with Sketch.</desc>
    <defs>
        <rect id="path-1" x="0" y="0" width="140" height="140" rx="70"></rect>
    </defs>
    <g id="web" stroke="none" stroke-width="1" fill="none" fill-rule="evenodd">
        <g id="Desktop-HD" transform="translate(-270.000000, -622.000000)">
            <g id="Group-17" transform="translate(0.000000, 514.000000)">
                <g id="klubid" transform="translate(269.000000, 108.000000)">
                    <g id="rim" transform="translate(1.000000, 0.000000)">
                        <mask id="mask-2" fill="white">
                            <use xlink:href="#path-1"></use>
                        </mask>
                        <use id="Rectangle-4-Copy-4" fill="#FFFFFF" xlink:href="#path-1"></use>
                        <g id="Asset-1" mask="url(#mask-2)">
                            <g transform="translate(34.000000, 28.000000)">
                                <path d="M20.2280647,89.1367916 L20.2280647,94.5416962 C19.1096181,95.5108515 18.7740841,94.8026226 19.0536958,92.6592984 C19.5197152,91.503767 19.9111715,90.3295981 20.2280647,89.1367916 L20.2280647,89.1367916 Z M20.2280647,34.0626771 L20.2280647,47.7799523 C18.7927249,47.5749387 17.4319482,47.3512875 16.1457346,47.0530858 C17.5997152,48.9354837 18.9604919,51.5074728 20.2280647,54.2658379 L20.2280647,62.3545572 C18.7181618,56.4091621 16.1457346,51.5261104 13.6478706,47.2580995 C13.4055405,46.8480722 12.9581618,46.4753202 12.7531133,46.1025681 C10.9076764,45.4875272 9.32321036,44.704748 8.07427832,43.7728678 C7.58961812,43.4187534 7.25408414,43.0460014 7.0490356,42.6732493 L7.0490356,40.8467643 C8.20476375,38.5357016 13.3682589,36.1128134 20.2280647,34.0626771 L20.2280647,34.0626771 Z M23.4156375,55.8313965 L23.4156375,58.9252384 L21.9989385,59.5030041 L23.4156375,67.5544482 L23.4156375,85.7074728 C23.0801036,87.7948842 22.707288,89.9195708 22.4649579,91.8951567 C21.5142783,93.1997888 20.787288,94.0757561 20.2280647,94.5416962 L20.2280647,89.1367916 C21.7566084,83.4336853 21.6820453,77.4323774 21.5329191,71.4497071 C21.4210744,68.1508515 20.9364142,65.1315599 20.2280647,62.3545572 L20.2280647,54.2658379 C20.6008803,55.0486172 20.9364142,55.8500341 21.290589,56.6328134 C22.0175793,56.5955381 22.707288,56.1855109 23.4156375,55.8313965 L23.4156375,55.8313965 Z M23.4156375,33.1680722 L23.4156375,38.8711785 C22.9868997,39.877609 23.0055405,40.7349387 23.4156375,41.4618052 L23.4156375,48.1154292 C23.1173851,48.0967916 22.8191327,48.078154 22.5022395,48.0408787 C22.8004919,48.637282 23.1173851,49.2523229 23.4156375,49.8487262 L23.4156375,53.4271458 C22.5581618,51.544748 21.7006861,49.7928134 20.8432104,47.8545027 C20.6381618,47.8358651 20.4331133,47.7985899 20.2280647,47.7799523 L20.2280647,34.0626771 C21.2533074,33.7458379 22.3158317,33.4476362 23.4156375,33.1680722 L23.4156375,33.1680722 Z M26.211754,66.8834946 L26.211754,69.7723229 L23.7325307,71.3751567 L23.9562201,79.8552657 L26.211754,78.2524319 L26.211754,80.731233 C25.4847638,81.3462738 24.7391327,81.9799523 23.8630162,82.7254564 C23.7325307,83.6946117 23.5834045,84.6824046 23.4156375,85.7074728 L23.4156375,67.5544482 L23.5647638,68.3745027 L26.211754,66.8834946 Z M26.211754,54.8436035 L26.211754,62.037718 L25.2424337,58.1610967 L23.4156375,58.9252384 L23.4156375,55.8313965 C23.71389,55.6822956 24.0121424,55.5331948 24.3290356,55.4400068 C24.0307832,54.7504155 23.71389,54.0794619 23.4156375,53.4271458 L23.4156375,49.8487262 C24.291754,51.5633856 25.1865113,53.2966826 25.9880647,54.9554292 C26.0626278,54.918154 26.1371909,54.8808787 26.211754,54.8436035 L26.211754,54.8436035 Z M26.211754,43.4001158 L26.211754,48.3018052 C25.2610744,48.26453 24.3290356,48.2086172 23.4156375,48.1154292 L23.4156375,41.4618052 C23.881657,42.2818597 24.8509773,42.9155381 26.211754,43.4001158 L26.211754,43.4001158 Z M26.211754,32.4598433 L26.211754,36.504203 C25.2237929,37.1378815 24.3290356,37.8274728 23.546123,38.5729768 C23.4902006,38.6848025 23.4529191,38.7779905 23.4156375,38.8711785 L23.4156375,33.1680722 C24.3290356,32.9257834 25.2610744,32.6834946 26.211754,32.4598433 L26.211754,32.4598433 Z M27.0692298,77.6746662 L27.0692298,80.0602793 C26.7709773,80.2839305 26.4913657,80.5075817 26.211754,80.731233 L26.211754,78.2524319 L27.0692298,77.6746662 Z M27.0692298,66.4175545 L27.0692298,69.25047 L26.211754,69.7723229 L26.211754,66.8834946 L27.0692298,66.4175545 Z M27.0692298,54.3776635 L27.0692298,57.117391 L26.8641812,57.2292166 L27.0692298,58.0492711 L27.0692298,65.4297616 L26.211754,62.037718 L26.211754,54.8436035 C26.4913657,54.6945027 26.7709773,54.5454019 27.0692298,54.3776635 L27.0692298,54.3776635 Z M27.0692298,43.6610422 L27.0692298,48.3390804 C26.7709773,48.3390804 26.4913657,48.3204428 26.211754,48.3018052 L26.211754,43.4001158 C26.4727249,43.4933038 26.7709773,43.5864918 27.0692298,43.6610422 L27.0692298,43.6610422 Z M27.0692298,32.2548297 L27.0692298,36.0009877 C26.7709773,36.1687262 26.4913657,36.3364646 26.211754,36.504203 L26.211754,32.4598433 C26.4913657,32.4039305 26.7709773,32.3293801 27.0692298,32.2548297 L27.0692298,32.2548297 Z M28.6164142,76.5750477 L28.6164142,78.8115599 C28.0758317,79.2402248 27.55389,79.650252 27.0692298,80.0416417 L27.0692298,80.0602793 L27.0692298,77.6746662 L27.0692298,77.6560286 L28.6164142,76.5750477 Z M28.6164142,64.7960831 L28.6164142,75.9227316 L27.7402977,68.8031676 L27.0692298,69.2318324 L27.0692298,69.25047 L27.0692298,66.4175545 L27.0692298,66.3989169 L27.2556375,66.2684537 L27.0692298,65.4670368 L27.0692298,65.4297616 L27.0692298,58.0492711 L27.0692298,58.0865463 L28.6164142,64.7960831 Z M28.6164142,53.3898706 L28.6164142,56.1109605 L27.0692298,57.0987534 L27.0692298,57.117391 L27.0692298,54.3776635 L27.0692298,54.3590259 C27.5725307,54.0608243 28.0944725,53.7253474 28.6164142,53.3898706 L28.6164142,53.3898706 Z M28.6164142,44.0151567 L28.6164142,48.4881812 C28.5977735,48.450906 28.5977735,48.4136308 28.5791327,48.3763556 C28.0758317,48.3763556 27.55389,48.357718 27.0692298,48.3390804 L27.0692298,43.6610422 C27.5352492,43.7915054 28.0571909,43.9033311 28.6164142,44.0151567 L28.6164142,44.0151567 Z M28.6164142,31.9193529 L28.6164142,35.1995708 C28.0758317,35.4604973 27.55389,35.7214237 27.0692298,36.0009877 L27.0692298,32.2548297 C27.5725307,32.1430041 28.0944725,32.0311785 28.6164142,31.9193529 L28.6164142,31.9193529 Z M31.9903948,62.0004428 L31.9903948,65.6347752 L31.971754,65.6347752 L29.2688414,68.0017507 L30.2008803,75.438154 L31.971754,73.8539578 L31.9903948,73.8539578 L31.9903948,76.0531948 L31.971754,76.0531948 C31.3752492,76.5750477 30.7787443,77.0782629 30.2754434,77.544203 C30.0890356,77.7119414 30.3500065,83.1727589 30.0890356,83.4336853 C29.8839871,83.6386989 29.3620453,78.1965191 29.1569968,78.4015327 C28.970589,78.5506335 28.802822,78.6810967 28.6164142,78.8115599 L28.6164142,76.5750477 L28.6909773,76.5191349 L28.6164142,75.9227316 L28.6164142,64.7960831 L28.6536958,64.9451839 L31.971754,62.0004428 L31.9903948,62.0004428 Z M31.9903948,44.4251839 L31.9903948,48.3949932 L30.5923366,48.3949932 C31.0024337,49.2895981 31.3752492,50.184203 31.8785502,51.0974455 C31.9158317,51.0788079 31.9531133,51.0601703 31.971754,51.0228951 L31.9903948,51.0228951 L31.9903948,57.6206063 L31.971754,57.5833311 L31.1142783,54.5081267 L28.6164142,56.1109605 L28.6164142,53.3898706 C29.2129191,53.0171185 29.8094239,52.6443665 30.3686472,52.3461649 C29.9212686,50.9669823 29.1569968,49.7928134 28.6164142,48.4881812 L28.6164142,44.0151567 C29.641657,44.2015327 30.7601036,44.3319959 31.9903948,44.4251839 L31.9903948,44.4251839 Z M31.9903948,31.2297616 L31.9903948,33.8576635 C30.7787443,34.2676907 29.6602977,34.6963556 28.6164142,35.1995708 L28.6164142,31.9193529 C29.7162201,31.677064 30.8533074,31.4347752 31.9903948,31.2297616 L31.9903948,31.2297616 Z M32.8478706,73.1084537 L32.8478706,75.3263283 C32.5496181,75.5872548 32.2700065,75.810906 31.9903948,76.0531948 L31.9903948,73.8539578 L32.8478706,73.1084537 Z M32.8478706,61.2549387 L32.8478706,64.9079087 L31.9903948,65.6347752 L31.9903948,62.0004428 L32.8478706,61.2549387 Z M32.8478706,44.4624591 L32.8478706,48.3763556 C32.5496181,48.3763556 32.2700065,48.3763556 31.9903948,48.3949932 L31.9903948,44.4251839 C32.2700065,44.4438215 32.5496181,44.4624591 32.8478706,44.4624591 L32.8478706,44.4624591 Z M32.8478706,31.0620232 L32.8478706,33.5780995 C32.5496181,33.6712875 32.2700065,33.7644755 31.9903948,33.8576635 L31.9903948,31.2297616 C32.2700065,31.1738488 32.5496181,31.117936 32.8478706,31.0620232 L32.8478706,31.0620232 Z M32.8478706,52.8307425 L32.6987443,52.9239305 L32.8478706,53.4457834 L32.8478706,60.5653474 L31.9903948,57.6206063 L31.9903948,51.0228951 C32.2700065,50.8365191 32.5496181,50.6687807 32.8478706,50.4824046 L32.8478706,52.8307425 Z M35.9608803,44.5370095 L35.9608803,48.2458924 C34.9169968,48.3018052 33.8731133,48.3390804 32.8478706,48.3763556 L32.8478706,44.4624591 C33.8358317,44.5183719 34.8797152,44.5370095 35.9608803,44.5370095 L35.9608803,44.5370095 Z M35.9608803,30.5028951 L35.9608803,32.7394074 C34.8797152,32.9816962 33.8358317,33.2612602 32.8478706,33.5780995 L32.8478706,31.0620232 C33.8731133,30.8570095 34.9169968,30.6892711 35.9608803,30.5028951 L35.9608803,30.5028951 Z M32.8478706,53.4457834 L32.8478706,53.464421 L34.5255405,59.6521049 L35.9608803,58.4220232 L35.9608803,60.9940123 C35.5880647,61.3481267 35.2152492,61.7022411 34.8424337,62.0563556 C35.1034045,64.8147207 35.5507832,67.4612602 35.811754,70.2196253 C35.8676764,70.1823501 35.9049579,70.1450749 35.9608803,70.1077997 L35.9608803,71.9529223 C35.9422395,71.9715599 35.9422395,71.9901975 35.9235987,72.0088351 C35.9422395,72.1020232 35.9422395,72.1952112 35.9608803,72.2883992 L35.9608803,77.8983174 C35.6626278,76.3700341 35.401657,74.8231131 34.9915599,73.3321049 C34.3577735,73.984421 33.5935016,74.6553747 32.8478706,75.3076907 L32.8478706,75.3263283 L32.8478706,73.1084537 L32.8478706,73.0898161 L34.6933074,71.4497071 L33.4443754,64.3674183 L32.8478706,64.8892711 L32.8478706,64.9079087 L32.8478706,61.2549387 L32.8478706,61.2363011 L32.978356,61.1058379 L32.8478706,60.583985 L32.8478706,60.5653474 L32.8478706,53.4457834 Z M32.8478706,52.8121049 L32.8478706,52.8307425 L32.8478706,50.4824046 L32.8478706,50.463767 C33.8731133,49.7741757 34.9356375,49.1032221 35.9608803,48.4136308 L35.9608803,50.4451294 L32.8478706,52.8121049 Z M35.9608803,32.7394074 C44.0323366,30.8197343 54.3406861,30.3537943 64.8913657,30.3724319 C59.2804919,28.117282 47.4622395,28.6204973 35.9608803,30.5028951 L35.9608803,32.7394074 Z M35.9608803,71.9529223 C37.0793269,70.4619142 38.1977735,68.9336308 39.3348608,67.423985 C38.1418511,68.3372275 37.1352492,69.1945572 35.9608803,70.1077997 L35.9608803,71.9529223 Z M35.9608803,77.8983174 L35.9608803,72.2883992 C36.2404919,74.9535763 36.2218511,77.7492166 36.5201036,80.3957561 C36.2964142,79.5757016 36.1286472,78.7370095 35.9608803,77.8983174 L35.9608803,77.8983174 Z M35.9608803,58.4220232 L39.2230162,55.5891076 L37.1352492,49.5318869 L35.9608803,50.4451294 L35.9608803,48.4136308 C36.0540841,48.357718 36.147288,48.3018052 36.2404919,48.2272548 C36.147288,48.2458924 36.0540841,48.2458924 35.9608803,48.2458924 L35.9608803,44.5370095 C54.6389385,44.3879087 85.731754,35.9637125 73.1678706,27.6699796 C69.5142783,25.2470913 64.7608803,25.0793529 60.0634045,24.5015872 C72.5154434,24.1661104 78.4618511,26.104421 79.7107832,28.9932493 L79.7107832,31.583876 C78.051754,36.2060014 68.3212686,41.9650204 55.3659288,45.357064 C50.5379676,46.6430586 44.7779676,47.5749387 38.906123,48.0408787 C41.907288,56.0550477 43.0443754,64.0319414 43.7900065,72.0088351 C42.4478706,67.1071458 41.1430162,62.1868188 39.8008803,57.2851294 C38.5146667,58.5152112 37.2284531,59.7452929 35.9608803,60.9940123 L35.9608803,58.4220232 Z" id="Fill-1" fill="#000000" fill-rule="evenodd"></path>
                                <path d="M27.0693074,65.4670368 L26.2118317,62.037718 L25.2425113,58.1610967 L21.9990162,59.5030041 L23.5648414,68.3745027 L26.2118317,66.8834946 L27.0693074,66.3989169 L27.2557152,66.2684537 L27.0693074,65.4670368 Z M27.0693074,57.0987534 L26.8642589,57.2292166 L27.0693074,58.0865463 L28.6537735,64.9451839 L31.9718317,62.0004428 L32.8479482,61.2363011 L32.9784337,61.1058379 L32.8479482,60.583985 L31.9718317,57.5833311 L31.114356,54.5081267 L27.0693074,57.0987534 Z M20.843288,47.8545027 C19.1842589,47.6494891 17.6184337,47.3885627 16.1458123,47.0530858 C18.00989,49.4573365 19.7062006,52.9984809 21.2906667,56.6328134 C22.3345502,56.5582629 23.2852298,55.756846 24.3291133,55.4400068 C23.1547443,52.7561921 21.9990162,50.463767 20.843288,47.8545027 Z M28.5792104,48.3763556 C26.4914434,48.3390804 24.4595987,48.2272548 22.5023172,48.0408787 C23.6580453,50.3333038 24.9069773,52.7002793 25.9881424,54.9554292 C26.0627055,54.918154 26.1372686,54.8808787 26.2118317,54.8436035 C26.4914434,54.6945027 26.771055,54.5267643 27.0693074,54.3590259 C28.1691133,53.6880722 29.3248414,52.8866553 30.3687249,52.3461649 C29.9213463,50.9297071 29.1197929,49.7369005 28.5792104,48.3763556 Z M36.2405696,48.2272548 C34.3578511,48.3390804 32.4564919,48.3949932 30.5924142,48.3949932 C31.0025113,49.2895981 31.3753269,50.184203 31.8786278,51.0974455 C31.9159094,51.0788079 31.9531909,51.0601703 31.9718317,51.0228951 C32.2700841,50.8365191 32.5496958,50.6501431 32.8479482,50.463767 C33.8731909,49.7741757 34.9357152,49.1032221 35.9609579,48.4136308 C36.0541618,48.357718 36.1473657,48.3018052 36.2405696,48.2272548 Z M60.0634822,24.5015872 C93.2254239,23.5883447 80.2328026,38.8339033 55.3660065,45.357064 C50.5380453,46.6430586 44.7780453,47.5749387 38.9062006,48.0408787 C41.9073657,56.0550477 43.0444531,64.0319414 43.7900841,72.0088351 C42.4479482,67.1071458 41.1430939,62.1868188 39.8009579,57.2851294 C38.5147443,58.5152112 37.2285307,59.7452929 35.9609579,60.9940123 C35.5881424,61.3481267 35.2153269,61.7022411 34.8425113,62.0563556 C35.1034822,64.8147207 35.5508608,67.4612602 35.8118317,70.2196253 C35.867754,70.1823501 35.9050356,70.1450749 35.9609579,70.1077997 C37.1353269,69.1945572 38.1419288,68.3372275 39.3349385,67.423985 C38.1978511,68.9336308 37.0794045,70.4619142 35.9609579,71.9529223 C35.9423172,71.9715599 35.9423172,71.9901975 35.9236764,72.0088351 C35.9423172,72.1020232 35.9423172,72.1952112 35.9609579,72.2883992 C36.2405696,74.9535763 36.2219288,77.7492166 36.5201812,80.3957561 C36.2964919,79.5757016 36.1287249,78.7370095 35.9609579,77.8983174 C35.6627055,76.3700341 35.4017346,74.8231131 34.9916375,73.3321049 C34.3578511,73.984421 33.5935793,74.6553747 32.8479482,75.3076907 C32.5496958,75.5686172 32.2700841,75.810906 31.9718317,76.0531948 C31.3753269,76.5750477 30.778822,77.0782629 30.275521,77.544203 C30.0891133,77.7119414 30.3500841,83.1727589 30.0891133,83.4336853 C29.8840647,83.6386989 29.362123,78.1965191 29.1570744,78.4015327 C28.4114434,78.9606608 27.7217346,79.5011512 27.0693074,80.0416417 C26.771055,80.2652929 26.4914434,80.4889441 26.2118317,80.731233 C25.4848414,81.3462738 24.7392104,81.9799523 23.8630939,82.7254564 C23.4902783,85.6329223 22.8192104,88.9504155 22.4650356,91.8951567 C19.5757152,95.8463283 18.6436764,95.8463283 19.0537735,92.6592984 C21.7939676,85.9124864 21.7194045,78.6810967 21.5329968,71.4497071 C21.1601812,61.1058379 17.3201812,53.5203338 13.6479482,47.2580995 C13.4056181,46.8480722 12.9582395,46.4753202 12.7531909,46.1025681 C10.907754,45.4875272 9.32328803,44.704748 8.07435599,43.7728678 C-1.95438188,36.3364646 50.8362977,24.7252384 64.8914434,30.3724319 C47.4436764,30.3351567 30.6669773,31.6397888 23.5462006,38.5729768 C16.5745502,52.2157016 91.547754,39.784421 73.1679482,27.6699796 C69.514356,25.2470913 64.7609579,25.0793529 60.0634822,24.5015872 Z M26.2118317,69.7723229 L23.7326084,71.3751567 L23.9562977,79.8552657 L26.2118317,78.2524319 L27.0693074,77.6560286 L28.691055,76.5191349 L27.7403754,68.8031676 L27.0693074,69.2318324 L26.2118317,69.7723229 Z M31.9718317,73.8539578 L32.8479482,73.0898161 L34.6933851,71.4497071 L33.4444531,64.3674183 L32.8479482,64.8892711 L31.9718317,65.6347752 L29.2689191,68.0017507 L30.2009579,75.438154 L31.9718317,73.8539578 Z M32.8479482,52.8121049 L32.698822,52.9239305 L32.8479482,53.464421 L34.5256181,59.6521049 L35.9609579,58.4220232 L39.2230939,55.5891076 L37.1353269,49.5318869 L35.9609579,50.4451294 L32.8479482,52.8121049 Z" id="Stroke-3" fill="none"></path>
                                <path d="M34.1713398,12.10753 C35.1965825,10.8215354 35.8303689,9.20006403 35.8303689,7.41085422 C35.8303689,5.67755722 35.2338641,4.09336104 34.2459029,2.80736649 C33.2020194,4.09336104 32.5868738,5.73347003 32.5868738,7.50404223 C32.5868738,9.23733924 33.1647379,10.840173 34.1713398,12.10753" id="Fill-5" fill="#000000" fill-rule="evenodd"></path>
                                <path d="M34.1713398,12.10753 C35.1965825,10.8215354 35.8303689,9.20006403 35.8303689,7.41085422 C35.8303689,5.67755722 35.2338641,4.09336104 34.2459029,2.80736649 C33.2020194,4.09336104 32.5868738,5.73347003 32.5868738,7.50404223 C32.5868738,9.23733924 33.1647379,10.840173 34.1713398,12.10753 Z" id="Stroke-7" fill="none"></path>
                                <path d="M34.954356,2.04325068 C36.1473657,3.51562125 36.8557152,5.37938147 36.8557152,7.41088011 C36.8557152,9.49829155 36.1100841,11.4179646 34.8611521,12.8903351 C36.0728026,14.0645041 37.6945502,14.8472834 39.4654239,14.9777466 L39.4654239,0.0303896458 C37.7318317,0.179490463 36.1473657,0.92499455 34.954356,2.04325068" id="Fill-13" fill="#000000" fill-rule="evenodd"></path>
                                <path d="M34.954356,2.04325068 C36.1473657,3.51562125 36.8557152,5.37938147 36.8557152,7.41088011 C36.8557152,9.49829155 36.1100841,11.4179646 34.8611521,12.8903351 C36.0728026,14.0645041 37.6945502,14.8472834 39.4654239,14.9777466 L39.4654239,0.0303896458 C37.7318317,0.179490463 36.1473657,0.92499455 34.954356,2.04325068 Z" id="Stroke-15" fill="none"></path>
                                <path d="M45.7473657,2.62101635 C44.6662006,3.9256485 43.9951327,5.5843951 43.9951327,7.41088011 C43.9951327,9.29327793 44.6848414,10.9892997 45.8219288,12.3125695 C46.9217346,11.0079373 47.5741618,9.33055313 47.5741618,7.50406812 C47.5741618,5.6403079 46.8844531,3.9256485 45.7473657,2.62101635" id="Fill-17" fill="#000000" fill-rule="evenodd"></path>
                                <path d="M45.7473657,2.62101635 C44.6662006,3.9256485 43.9951327,5.5843951 43.9951327,7.41088011 C43.9951327,9.29327793 44.6848414,10.9892997 45.8219288,12.3125695 C46.9217346,11.0079373 47.5741618,9.33055313 47.5741618,7.50406812 C47.5741618,5.6403079 46.8844531,3.9256485 45.7473657,2.62101635 Z" id="Stroke-19" fill="none"></path>
                                <path d="M45.1135275,13.0580736 C43.7713916,11.5484278 42.9698382,9.57284196 42.9698382,7.41088011 C42.9698382,5.30483106 43.73411,3.36652044 45.0203236,1.87551226 C43.7900324,0.813168937 42.2242071,0.123577657 40.5092557,0.0303896458 L40.5092557,14.9963842 C42.2614887,14.9031962 43.8832362,14.1763297 45.1135275,13.0580736" id="Fill-21" fill="#000000" fill-rule="evenodd"></path>
                                <path d="M45.1135275,13.0580736 C43.7713916,11.5484278 42.9698382,9.57284196 42.9698382,7.41088011 C42.9698382,5.30483106 43.73411,3.36652044 45.0203236,1.87551226 C43.7900324,0.813168937 42.2242071,0.123577657 40.5092557,0.0303896458 L40.5092557,14.9963842 C42.2614887,14.9031962 43.8832362,14.1763297 45.1135275,13.0580736 Z" id="Stroke-23" fill="none"></path>
                                <path d="M0.0400776699,36.2618624 L1.66182524,38.1628978 L13.3309515,28.6018079 C14.1884272,27.9122166 23.1173592,32.4970668 28.728233,23.2900913 C27.8334757,24.9674755 29.7534757,33.9135245 38.8688155,23.1782657 C39.1111456,23.3460041 38.5146408,25.0979387 38.3468738,25.5638787 C39.4653204,25.2843147 40.6769709,25.0606635 41.9259029,24.8556499 L43.007068,20.7553774 C43.584932,18.5375027 47.4808544,15.9655136 47.760466,17.0278569 C47.9841553,17.9224619 46.7538641,22.7496008 46.343767,24.3710722 C46.9961942,24.3151594 47.6486214,24.2778842 48.3196893,24.2592466 C48.7857087,24.2219714 49.2703689,24.2219714 49.7363883,24.2033338 L51.1717282,19.9353229 C52.5697864,15.7418624 57.7519223,13.0953229 56.0928932,18.854342 L54.4711456,24.3151594 C55.6455146,24.3897098 56.7639612,24.5015354 57.8078447,24.6506362 L60.3429903,17.2887834 C61.5173592,12.759846 58.4043495,12.4057316 51.4886214,16.7855681 C51.5072621,15.1081839 51.9546408,11.4365763 44.0323107,16.9719441 L44.4610485,14.8286199 C43.3053204,15.5368488 41.9445437,15.9655136 40.5092039,16.040064 L39.4280388,18.854342 C36.0167767,27.800391 30.4431845,30.2978297 35.0288155,17.5497098 L30.7041553,17.7174482 C26.0066796,24.2965218 20.8431845,28.3408815 16.4253204,25.7316172 C19.8738641,23.5510177 28.3740583,17.2515082 32.6614369,11.7161403 C31.9530874,10.4860586 31.5429903,9.03232561 31.5429903,7.50404223 C31.5429903,5.88257084 32.0090097,4.35428747 32.7919223,3.06829292 C31.0769709,2.32278883 28.3367767,1.96867439 24.3103689,2.15505041 C12.5480388,2.69554087 2.23968932,15.1268215 10.9822136,16.5246417 L11.112699,16.5432793 L15.9033786,16.1705272 C7.25405825,11.9770668 22.4090097,3.49695777 28.8214369,5.41663079 C31.9530874,7.03810218 24.9441553,16.8973937 16.0152233,23.6442057 C18.7181359,19.8421349 20.7872621,15.8909632 22.2039612,11.7720531 C21.6074563,11.4179387 20.9923107,11.0451866 20.3958058,10.6724346 C17.543767,19.6743965 10.4416311,28.0613174 0.0400776699,36.2618624" id="Fill-25" fill="#000000" fill-rule="evenodd"></path>
                                <path d="M0.0400776699,36.2618624 L1.66182524,38.1628978 L13.3309515,28.6018079 C14.1884272,27.9122166 23.1173592,32.4970668 28.728233,23.2900913 C27.8334757,24.9674755 29.7534757,33.9135245 38.8688155,23.1782657 C39.1111456,23.3460041 38.5146408,25.0979387 38.3468738,25.5638787 C39.4653204,25.2843147 40.6769709,25.0606635 41.9259029,24.8556499 L43.007068,20.7553774 C43.584932,18.5375027 47.4808544,15.9655136 47.760466,17.0278569 C47.9841553,17.9224619 46.7538641,22.7496008 46.343767,24.3710722 C46.9961942,24.3151594 47.6486214,24.2778842 48.3196893,24.2592466 C48.7857087,24.2219714 49.2703689,24.2219714 49.7363883,24.2033338 L51.1717282,19.9353229 C52.5697864,15.7418624 57.7519223,13.0953229 56.0928932,18.854342 L54.4711456,24.3151594 C55.6455146,24.3897098 56.7639612,24.5015354 57.8078447,24.6506362 L60.3429903,17.2887834 C61.5173592,12.759846 58.4043495,12.4057316 51.4886214,16.7855681 C51.5072621,15.1081839 51.9546408,11.4365763 44.0323107,16.9719441 L44.4610485,14.8286199 C43.3053204,15.5368488 41.9445437,15.9655136 40.5092039,16.040064 L39.4280388,18.854342 C36.0167767,27.800391 30.4431845,30.2978297 35.0288155,17.5497098 L30.7041553,17.7174482 C26.0066796,24.2965218 20.8431845,28.3408815 16.4253204,25.7316172 C19.8738641,23.5510177 28.3740583,17.2515082 32.6614369,11.7161403 C31.9530874,10.4860586 31.5429903,9.03232561 31.5429903,7.50404223 C31.5429903,5.88257084 32.0090097,4.35428747 32.7919223,3.06829292 C31.0769709,2.32278883 28.3367767,1.96867439 24.3103689,2.15505041 C12.5480388,2.69554087 2.23968932,15.1268215 10.9822136,16.5246417 L11.112699,16.5432793 L15.9033786,16.1705272 C7.25405825,11.9770668 22.4090097,3.49695777 28.8214369,5.41663079 C31.9530874,7.03810218 24.9441553,16.8973937 16.0152233,23.6442057 C18.7181359,19.8421349 20.7872621,15.8909632 22.2039612,11.7720531 C21.6074563,11.4179387 20.9923107,11.0451866 20.3958058,10.6724346 C17.543767,19.6743965 10.4416311,28.0613174 0.0400776699,36.2618624 Z" id="Stroke-27" fill="none"></path>
                            </g>
                        </g>
                    </g>
                </g>
            </g>
        </g>
    </g>
</svg>