<?xml version="1.0" encoding="UTF-8"?>
<svg width="100px" height="100px" viewBox="0 0 100 100" version="1.1" xmlns="http://www.w3.org/2000/svg" xmlns:xlink="http://www.w3.org/1999/xlink">
    <!-- Generator: Sketch 46.2 (44496) - http://www.bohemiancoding.com/sketch -->
    <title>rim</title>
    <desc>Created with Sketch.</desc>
    <defs></defs>
    <g id="web" stroke="none" stroke-width="1" fill="none" fill-rule="evenodd">
        <g id="Desktop-HD" transform="translate(-676.000000, -641.000000)">
            <g id="Group-8" transform="translate(380.000000, 641.000000)">
                <g id="Group-7">
                    <g id="rim" transform="translate(296.000000, 0.000000)">
                        <circle id="Oval-2-Copy-5" fill="#FFFFFF" cx="50" cy="50" r="50"></circle>
                        <g id="Asset-1" transform="translate(20.000000, 12.000000)">
                            <path d="M16.4044544,71.509666 L16.4044544,75.8286071 C15.509521,76.6030379 15.2410409,76.0371077 15.4647743,74.3244242 C15.8376632,73.4010644 16.1508899,72.4628116 16.4044544,71.509666 L16.4044544,71.509666 Z M16.4044544,27.5011462 L16.4044544,38.4623207 C15.2559565,38.2984988 14.1671207,38.119784 13.1379472,37.8814976 C14.3013608,39.3856805 15.3901965,41.4409007 16.4044544,43.6450499 L16.4044544,50.1085686 C15.1962942,45.3577334 13.1379472,41.4557936 11.1392625,38.0453195 C10.9453602,37.7176757 10.5873868,37.4198177 10.4233157,37.1219597 C8.94667543,36.630494 7.67885301,36.0049922 6.67951062,35.2603472 C6.29170611,34.9773821 6.02322607,34.6795241 5.85915493,34.3816661 L5.85915493,32.9221618 C6.78391953,31.0754422 10.9155291,29.1393652 16.4044544,27.5011462 L16.4044544,27.5011462 Z M18.9550149,44.8960535 L18.9550149,47.368275 L17.8214324,47.8299549 L18.9550149,54.2636877 L18.9550149,68.7693724 C18.6865348,70.4373772 18.3882236,72.1351678 18.1943214,73.7138153 C17.4336279,74.7563183 16.8519212,75.4562846 16.4044544,75.8286071 L16.4044544,71.509666 C17.6275302,66.9524386 17.567868,62.1569248 17.4485435,57.3763038 C17.3590501,54.7402605 16.9712456,52.3276107 16.4044544,50.1085686 L16.4044544,43.6450499 C16.7027656,44.2705517 16.9712456,44.9109464 17.2546412,45.5364482 C17.836348,45.5066624 18.3882236,45.1790186 18.9550149,44.8960535 L18.9550149,44.8960535 Z M18.9550149,26.786287 L18.9550149,31.3435144 C18.611957,32.147731 18.6268726,32.8328044 18.9550149,33.4136275 L18.9550149,38.7303929 C18.7163659,38.7155 18.477717,38.7006071 18.2241525,38.6708213 C18.4628014,39.1473941 18.7163659,39.6388598 18.9550149,40.1154326 L18.9550149,42.9748694 C18.2688992,41.4706865 17.5827835,40.0707539 16.8966678,38.5218923 C16.7325967,38.5069994 16.5685256,38.4772136 16.4044544,38.4623207 L16.4044544,27.5011462 C17.2248101,27.2479669 18.0749969,27.0096805 18.9550149,26.786287 L18.9550149,26.786287 Z M21.1923485,53.7275433 L21.1923485,56.0359428 L19.2085793,57.3167322 L19.387566,64.0930018 L21.1923485,62.8122124 L21.1923485,64.7929681 C20.6106418,65.2844338 20.0140195,65.7907924 19.3129882,66.3865084 C19.2085793,67.1609392 19.0892549,67.9502629 18.9550149,68.7693724 L18.9550149,54.2636877 L19.0743393,54.9189753 L21.1923485,53.7275433 Z M21.1923485,44.1067298 L21.1923485,49.8553893 L20.4167395,46.757666 L18.9550149,47.368275 L18.9550149,44.8960535 C19.1936638,44.7769103 19.4323127,44.6577671 19.6858772,44.5833026 C19.4472283,44.0322653 19.1936638,43.4961209 18.9550149,42.9748694 L18.9550149,40.1154326 C19.6560461,41.4855794 20.3719929,42.8706191 21.0133619,44.1960872 C21.0730241,44.1663014 21.1326863,44.1365156 21.1923485,44.1067298 L21.1923485,44.1067298 Z M21.1923485,34.9624892 L21.1923485,38.8793219 C20.4316551,38.8495361 19.6858772,38.8048574 18.9550149,38.7303929 L18.9550149,33.4136275 C19.3279038,34.0689151 20.1035128,34.5752738 21.1923485,34.9624892 L21.1923485,34.9624892 Z M21.1923485,26.2203568 L21.1923485,29.4521161 C20.401824,29.9584747 19.6858772,30.509512 19.0594238,31.105228 C19.0146771,31.1945854 18.984846,31.2690499 18.9550149,31.3435144 L18.9550149,26.786287 C19.6858772,26.5926793 20.4316551,26.3990716 21.1923485,26.2203568 L21.1923485,26.2203568 Z M21.8784642,62.3505325 L21.8784642,64.2568237 C21.6398153,64.4355385 21.4160819,64.6142533 21.1923485,64.7929681 L21.1923485,62.8122124 L21.8784642,62.3505325 Z M21.8784642,53.3552208 L21.8784642,55.6189416 L21.1923485,56.0359428 L21.1923485,53.7275433 L21.8784642,53.3552208 Z M21.8784642,43.7344073 L21.8784642,45.9236636 L21.7143931,46.013021 L21.8784642,46.6683086 L21.8784642,52.5658971 L21.1923485,49.8553893 L21.1923485,44.1067298 C21.4160819,43.9875866 21.6398153,43.8684434 21.8784642,43.7344073 L21.8784642,43.7344073 Z M21.8784642,35.1709898 L21.8784642,38.9091077 C21.6398153,38.9091077 21.4160819,38.8942148 21.1923485,38.8793219 L21.1923485,34.9624892 C21.4011664,35.0369537 21.6398153,35.1114182 21.8784642,35.1709898 L21.8784642,35.1709898 Z M21.8784642,26.0565349 L21.8784642,29.0500078 C21.6398153,29.1840439 21.4160819,29.31808 21.1923485,29.4521161 L21.1923485,26.2203568 C21.4160819,26.1756781 21.6398153,26.1161065 21.8784642,26.0565349 L21.8784642,26.0565349 Z M23.1164555,61.4718514 L23.1164555,63.2589994 C22.6839043,63.6015361 22.2662687,63.9291799 21.8784642,64.2419308 L21.8784642,64.2568237 L21.8784642,62.3505325 L21.8784642,62.3356396 L23.1164555,61.4718514 Z M23.1164555,52.0595385 L23.1164555,60.9505999 L22.4154243,55.261512 L21.8784642,55.6040487 L21.8784642,55.6189416 L21.8784642,53.3552208 L21.8784642,53.3403279 L22.0276198,53.2360776 L21.8784642,52.5956829 L21.8784642,52.5658971 L21.8784642,46.6683086 L21.8784642,46.6980944 L23.1164555,52.0595385 Z M23.1164555,42.9450836 L23.1164555,45.119447 L21.8784642,45.9087707 L21.8784642,45.9236636 L21.8784642,43.7344073 L21.8784642,43.7195144 C22.2811843,43.481228 22.6988199,43.2131558 23.1164555,42.9450836 L23.1164555,42.9450836 Z M23.1164555,35.4539549 L23.1164555,39.0282509 C23.10154,38.9984651 23.10154,38.9686793 23.0866244,38.9388935 C22.6839043,38.9388935 22.2662687,38.9240006 21.8784642,38.9091077 L21.8784642,35.1709898 C22.2513532,35.2752401 22.6689888,35.3645975 23.1164555,35.4539549 L23.1164555,35.4539549 Z M23.1164555,25.7884627 L23.1164555,28.4096131 C22.6839043,28.6181137 22.2662687,28.8266143 21.8784642,29.0500078 L21.8784642,26.0565349 C22.2811843,25.9671775 22.6988199,25.8778201 23.1164555,25.7884627 L23.1164555,25.7884627 Z M25.8161715,49.8256035 L25.8161715,52.729719 L25.801256,52.729719 L23.6385001,54.6211173 L24.384278,60.5633845 L25.801256,59.2974879 L25.8161715,59.2974879 L25.8161715,61.0548502 L25.801256,61.0548502 C25.3239581,61.4718514 24.8466603,61.8739597 24.4439402,62.2462822 C24.2947846,62.3803183 24.5036024,66.743938 24.2947846,66.9524386 C24.1307135,67.1162605 23.7130779,62.7675337 23.5490067,62.9313556 C23.3998511,63.0504988 23.2656111,63.1547491 23.1164555,63.2589994 L23.1164555,61.4718514 L23.1761178,61.4271727 L23.1164555,60.9505999 L23.1164555,52.0595385 L23.1462866,52.1786817 L25.801256,49.8256035 L25.8161715,49.8256035 Z M25.8161715,35.7815987 L25.8161715,38.9537864 L24.6975047,38.9537864 C25.025647,39.6686456 25.3239581,40.3835048 25.7266782,41.1132569 C25.7565093,41.098364 25.7863404,41.0834711 25.801256,41.0536853 L25.8161715,41.0536853 L25.8161715,46.3257719 L25.801256,46.2959861 L25.1151403,43.8386576 L23.1164555,45.119447 L23.1164555,42.9450836 C23.5937534,42.6472256 24.0710512,42.3493676 24.518518,42.1110812 C24.1605446,41.0090066 23.5490067,40.0707539 23.1164555,39.0282509 L23.1164555,35.4539549 C23.9368112,35.6028839 24.8317447,35.7071342 25.8161715,35.7815987 L25.8161715,35.7815987 Z M25.8161715,25.2374254 L25.8161715,27.3373243 C24.8466603,27.6649681 23.9517268,28.0075048 23.1164555,28.4096131 L23.1164555,25.7884627 C23.9964735,25.594855 24.9063225,25.4012473 25.8161715,25.2374254 L25.8161715,25.2374254 Z M26.5022872,58.7017719 L26.5022872,60.4740271 C26.2636383,60.6825277 26.0399049,60.8612425 25.8161715,61.0548502 L25.8161715,59.2974879 L26.5022872,58.7017719 Z M26.5022872,49.2298875 L26.5022872,52.1488959 L25.8161715,52.729719 L25.8161715,49.8256035 L26.5022872,49.2298875 Z M26.5022872,35.8113845 L26.5022872,38.9388935 C26.2636383,38.9388935 26.0399049,38.9388935 25.8161715,38.9537864 L25.8161715,35.7815987 C26.0399049,35.7964916 26.2636383,35.8113845 26.5022872,35.8113845 L26.5022872,35.8113845 Z M26.5022872,25.1033893 L26.5022872,27.1139308 C26.2636383,27.1883953 26.0399049,27.2628598 25.8161715,27.3373243 L25.8161715,25.2374254 C26.0399049,25.1927467 26.2636383,25.148068 26.5022872,25.1033893 L26.5022872,25.1033893 Z M26.5022872,42.4982966 L26.3829627,42.5727611 L26.5022872,42.9897623 L26.5022872,48.6788502 L25.8161715,46.3257719 L25.8161715,41.0536853 C26.0399049,40.9047563 26.2636383,40.7707202 26.5022872,40.6217912 L26.5022872,42.4982966 Z M28.9931854,35.8709561 L28.9931854,38.8346432 C28.1579141,38.8793219 27.3226429,38.9091077 26.5022872,38.9388935 L26.5022872,35.8113845 C27.2928118,35.8560632 28.128083,35.8709561 28.9931854,35.8709561 L28.9931854,35.8709561 Z M28.9931854,24.6566023 L28.9931854,26.4437503 C28.128083,26.637358 27.2928118,26.8607515 26.5022872,27.1139308 L26.5022872,25.1033893 C27.3226429,24.9395674 28.1579141,24.8055313 28.9931854,24.6566023 L28.9931854,24.6566023 Z M26.5022872,42.9897623 L26.5022872,43.0046552 L27.8446874,47.9490981 L28.9931854,46.9661666 L28.9931854,49.0213869 C28.6948742,49.304352 28.3965631,49.5873171 28.0982519,49.8702822 C28.3070697,52.0744314 28.6650431,54.1892232 28.8738609,56.3933724 C28.9186076,56.3635866 28.9484387,56.3338008 28.9931854,56.304015 L28.9931854,57.7784121 C28.9782698,57.793305 28.9782698,57.8081979 28.9633543,57.8230908 C28.9782698,57.8975553 28.9782698,57.9720198 28.9931854,58.0464843 L28.9931854,62.5292473 C28.7545365,61.3080295 28.5457186,60.0719188 28.2175764,58.8804867 C27.7104474,59.4017382 27.0989095,59.9378827 26.5022872,60.4591342 L26.5022872,60.4740271 L26.5022872,58.7017719 L26.5022872,58.686879 L27.9789274,57.3763038 L26.9795851,51.7170018 L26.5022872,52.134003 L26.5022872,52.1488959 L26.5022872,49.2298875 L26.5022872,49.2149946 L26.6066961,49.1107443 L26.5022872,48.6937431 L26.5022872,48.6788502 L26.5022872,42.9897623 Z M26.5022872,42.4834037 L26.5022872,42.4982966 L26.5022872,40.6217912 L26.5022872,40.6068983 C27.3226429,40.055861 28.1728297,39.5197166 28.9931854,38.9686793 L28.9931854,40.5920054 L26.5022872,42.4834037 Z M28.9931854,26.4437503 C35.451622,24.9097816 43.6999256,24.5374591 52.1421314,24.552352 C47.6525484,22.7503111 38.1960847,23.1524194 28.9931854,24.6566023 L28.9931854,26.4437503 Z M28.9931854,57.7784121 C29.8881189,56.5869801 30.7830523,55.3657623 31.6929014,54.1594374 C30.7383057,54.8891895 29.9328655,55.5742629 28.9931854,56.304015 L28.9931854,57.7784121 Z M28.9931854,62.5292473 L28.9931854,58.0464843 C29.2169188,60.1761691 29.2020032,62.4101041 29.4406521,64.5248959 C29.2616654,63.8696083 29.1274254,63.1994278 28.9931854,62.5292473 L28.9931854,62.5292473 Z M28.9931854,46.9661666 L31.603408,44.7024458 L29.9328655,39.8622533 L28.9931854,40.5920054 L28.9931854,38.9686793 C29.0677632,38.9240006 29.142341,38.8793219 29.2169188,38.8197503 C29.142341,38.8346432 29.0677632,38.8346432 28.9931854,38.8346432 L28.9931854,35.8709561 C43.9385745,35.7518129 68.8177252,29.020222 58.7646391,22.3928815 C55.8411898,20.4568044 52.0377225,20.3227683 48.2790019,19.8610884 C58.2425946,19.5930162 63.0006576,21.1418778 64,23.4502774 L64,25.5203905 C62.6725153,29.2138297 54.8865941,33.8157358 44.5202813,36.5262437 C40.6571517,37.5538538 36.0482443,38.2984988 31.3498435,38.6708213 C33.7512484,45.0747683 34.6610974,51.4489296 35.2577197,57.8230908 C34.1837996,53.9062581 33.1397105,49.9745325 32.0657903,46.0576997 C31.0366168,47.0406311 30.0074433,48.0235626 28.9931854,49.0213869 L28.9931854,46.9661666 Z" id="Fill-1" fill="#7A1443"></path>
                            <path d="M21.6306131,52.5989938 L20.9438003,49.8585315 L20.1674032,46.7606176 L17.5694591,47.8329724 L18.823639,54.9224293 L20.9438003,53.7309239 L21.6306131,53.3436847 L21.7799203,53.239428 L21.6306131,52.5989938 Z M21.6306131,45.91167 L21.4663753,46.0159267 L21.6306131,46.7010423 L22.8997238,52.181967 L25.5573907,49.8287439 L26.2591343,49.2180974 L26.3636492,49.1138407 L26.2591343,48.6968138 L25.5573907,46.2989093 L24.8705779,43.8414295 L21.6306131,45.91167 Z M16.6437549,38.5243368 C15.3149214,38.3605048 14.0607415,38.1519914 12.8812151,37.8839027 C14.3742864,39.8052051 15.7329814,42.6350303 17.002092,45.5393246 C17.8382119,45.4797493 18.5996783,44.8393152 19.4357983,44.5861203 C18.4951633,42.4414107 17.5694591,40.6094712 16.6437549,38.5243368 Z M22.8400009,38.9413637 C21.167761,38.9115761 19.5403133,38.8222132 17.9725884,38.673275 C18.8982926,40.5052145 19.8986504,42.3967292 20.7646318,44.1988811 C20.8243546,44.1690934 20.8840775,44.1393058 20.9438003,44.1095182 C21.167761,43.9903676 21.3917217,43.8563233 21.6306131,43.7222789 C22.5115252,43.1861015 23.4372294,42.5456674 24.2733494,42.1137467 C23.9150123,40.9818166 23.2729916,40.0286123 22.8400009,38.9413637 Z M28.9765241,38.8222132 C27.468522,38.9115761 25.9455893,38.9562575 24.4525179,38.9562575 C24.7809936,39.6711607 25.0796079,40.3860639 25.4827372,41.115861 C25.5125986,41.1009672 25.54246,41.0860733 25.5573907,41.0562857 C25.7962821,40.9073475 26.0202428,40.7584094 26.2591343,40.6094712 C27.0803235,40.0584 27.9313741,39.5222226 28.7525634,38.9711513 C28.8272169,38.9264699 28.9018705,38.8817884 28.9765241,38.8222132 Z M48.0579757,19.8623842 C74.6197147,19.1325872 64.2130075,31.3157294 44.295436,36.5285654 C40.4283812,37.5562387 35.8147908,38.3009296 31.1116161,38.673275 C33.5154609,45.0776163 34.4262344,51.4521699 35.023463,57.8267236 C33.9484516,53.9096497 32.9033017,49.977682 31.8282903,46.0606082 C30.7980711,47.0436001 29.7678519,48.026592 28.7525634,49.0244778 C28.4539491,49.3074603 28.1553348,49.5904428 27.8567206,49.8734253 C28.0657506,52.0777102 28.4240877,54.1926322 28.6331177,56.3969171 C28.6779098,56.3671295 28.7077712,56.3373419 28.7525634,56.3075542 C29.6931983,55.5777572 30.4994568,54.8926416 31.4550225,54.1628446 C30.544249,55.3692438 29.6484062,56.5905368 28.7525634,57.7820421 C28.7376327,57.7969359 28.7376327,57.8118298 28.722702,57.8267236 C28.7376327,57.9011927 28.7376327,57.9756617 28.7525634,58.0501308 C28.9765241,60.1799466 28.9615934,62.4140192 29.2004848,64.5289412 C29.0213162,63.8736132 28.8869398,63.2033915 28.7525634,62.5331697 C28.513672,61.3118767 28.304642,60.0756899 27.9761663,58.8841846 C27.468522,59.4054682 26.8563628,59.9416456 26.2591343,60.4629292 C26.0202428,60.6714426 25.7962821,60.8650622 25.5573907,61.0586818 C25.0796079,61.4757087 24.6018251,61.8778418 24.1986958,62.2501872 C24.0493887,62.3842316 24.2584187,66.7481199 24.0493887,66.9566333 C23.8851508,67.1204653 23.4670909,62.7714708 23.302853,62.9353028 C22.7056245,63.3821173 22.1531881,63.814038 21.6306131,64.2459587 C21.3917217,64.4246845 21.167761,64.6034103 20.9438003,64.7970299 C20.3615025,65.2885259 19.764274,65.7949156 19.0625304,66.3906683 C18.7639162,68.7141037 18.2264105,71.3652032 17.9427269,73.7184262 C15.6284664,76.8759154 14.8819307,76.8759154 15.2104064,74.3290727 C17.4052213,68.937511 17.3454984,63.15871 17.1961913,57.3799091 C16.897577,49.1138407 13.8218501,43.0520572 10.8804995,38.0477347 C10.6864003,37.7200707 10.3280631,37.4221944 10.1638253,37.124318 C8.68568467,36.6328221 7.41657404,36.0072818 6.41621625,35.2625909 C-1.61650752,29.319958 40.6672726,20.04111 51.9250305,24.5539365 C37.9498828,24.5241489 24.5122408,25.5667161 18.8087083,31.107216 C13.2246215,42.00949 73.2759505,32.0753141 58.5542672,22.3943331 C55.6278474,20.4581369 51.8205155,20.3240925 48.0579757,19.8623842 Z M20.9438003,56.0394655 L18.9580154,57.3203338 L19.137184,64.0970205 L20.9438003,62.8161522 L21.6306131,62.3395501 L22.9295852,61.4310273 L22.1681188,55.2649871 L21.6306131,55.6075448 L20.9438003,56.0394655 Z M25.5573907,59.3012114 L26.2591343,58.690565 L27.7372749,57.3799091 L26.7369171,51.7202586 L26.2591343,52.1372855 L25.5573907,52.7330382 L23.3924373,54.6245529 L24.138973,60.5671859 L25.5573907,59.3012114 Z M26.2591343,42.4860921 L26.1396885,42.575455 L26.2591343,43.0073757 L27.6028985,47.9521229 L28.7525634,46.969131 L31.3654382,44.7052708 L29.6931983,39.8647803 L28.7525634,40.5945774 L26.2591343,42.4860921 Z" id="Stroke-3"></path>
                            <path d="M27.4618747,9.91549296 C28.3166586,8.8560219 28.8450704,7.52016709 28.8450704,6.04612041 C28.8450704,4.61813768 28.3477416,3.31299218 27.5240408,2.25352113 C26.6537154,3.31299218 26.1408451,4.66420164 26.1408451,6.12289367 C26.1408451,7.5508764 26.6226323,8.87137656 27.4618747,9.91549296" id="Fill-5" fill="#7A1443"></path>
                            <path d="M27.4618747,9.91549296 C28.3166586,8.8560219 28.8450704,7.52016709 28.8450704,6.04612041 C28.8450704,4.61813768 28.3477416,3.31299218 27.5240408,2.25352113 C26.6537154,3.31299218 26.1408451,4.66420164 26.1408451,6.12289367 C26.1408451,7.5508764 26.6226323,8.87137656 27.4618747,9.91549296 Z" id="Stroke-7"></path>
                            <path d="M28.0166505,1.6387201 C28.9509038,2.83741351 29.5056167,4.35474694 29.5056167,6.00864037 C29.5056167,7.70805381 28.9217084,9.27090724 27.943662,10.4696006 C28.892513,11.4255207 30.1625135,12.0628007 31.5492958,12.1690141 L31.5492958,0 C30.191709,0.121386674 28.9509038,0.728320045 28.0166505,1.6387201" id="Fill-13" fill="#7A1443"></path>
                            <path d="M28.0166505,1.6387201 C28.9509038,2.83741351 29.5056167,4.35474694 29.5056167,6.00864037 C29.5056167,7.70805381 28.9217084,9.27090724 27.943662,10.4696006 C28.892513,11.4255207 30.1625135,12.0628007 31.5492958,12.1690141 L31.5492958,0 C30.191709,0.121386674 28.9509038,0.728320045 28.0166505,1.6387201 Z" id="Stroke-15"></path>
                            <path d="M36.4788732,2.25352113 C35.6619718,3.28494041 35.1549296,4.59631636 35.1549296,6.04030336 C35.1549296,7.52849404 35.6760563,8.86933911 36.5352113,9.91549296 C37.3661972,8.88407367 37.8591549,7.55796316 37.8591549,6.11397616 C37.8591549,4.64052004 37.3380282,3.28494041 36.4788732,2.25352113" id="Fill-17" fill="#7A1443"></path>
                            <path d="M36.4788732,2.25352113 C35.6619718,3.28494041 35.1549296,4.59631636 35.1549296,6.04030336 C35.1549296,7.52849404 35.6760563,8.86933911 36.5352113,9.91549296 C37.3661972,8.88407367 37.8591549,7.55796316 37.8591549,6.11397616 C37.8591549,4.64052004 37.3380282,3.28494041 36.4788732,2.25352113 Z" id="Stroke-19"></path>
                            <path d="M36.056338,10.5929525 C35.0053031,9.36544297 34.3776016,7.75907249 34.3776016,6.00115763 C34.3776016,4.28870608 34.9761077,2.71264448 35.9833495,1.50028941 C35.0199008,0.636486415 33.7936933,0.0757721923 32.4507042,0 L32.4507042,12.1690141 C33.8228887,12.0932419 35.0928893,11.5022188 36.056338,10.5929525" id="Fill-21" fill="#7A1443"></path>
                            <path d="M36.056338,10.5929525 C35.0053031,9.36544297 34.3776016,7.75907249 34.3776016,6.00115763 C34.3776016,4.28870608 34.9761077,2.71264448 35.9833495,1.50028941 C35.0199008,0.636486415 33.7936933,0.0757721923 32.4507042,0 L32.4507042,12.1690141 C33.8228887,12.0932419 35.0928893,11.5022188 36.056338,10.5929525 Z" id="Stroke-23"></path>
                            <path d="M0,29.1270802 L1.29174654,30.6478873 L10.5863825,22.9991221 C11.269375,22.4474567 18.3814048,26.1152857 22.8505508,18.749808 C22.1378631,20.0916967 23.6671722,27.2484361 30.9276786,18.6603488 C31.1206982,18.7945377 30.645573,20.1960658 30.5119441,20.5688126 C31.4028038,20.3451645 32.3679017,20.166246 33.3626951,20.0022374 L34.2238594,16.7220652 C34.6841369,14.9477902 37.7872981,12.8902276 38.0100131,13.7400904 C38.188185,14.4557644 37.2082393,18.3174217 36.8815908,19.6145807 C37.4012589,19.5698511 37.9209271,19.5400314 38.4554429,19.5251215 C38.8266344,19.4953017 39.2126736,19.4953017 39.5838652,19.4803919 L40.7271351,16.0660308 C41.8407097,12.7113092 45.9683595,10.5941071 44.6469177,15.2012581 L43.3551711,19.5698511 C44.2905738,19.6294906 45.1814335,19.7189498 46.0129025,19.8382288 L48.0321845,13.9488287 C48.9675871,10.3257293 46.4880277,10.0424417 40.9795453,13.5462621 C40.994393,12.2043734 41.3507369,9.26712831 35.0404808,13.6953608 L35.381977,11.9807253 C34.461422,12.5473005 33.3775427,12.8902276 32.2342728,12.9498671 L31.3731084,15.2012581 C28.6559864,22.3579975 24.2165357,24.3559206 27.8690604,14.1575669 L24.4244029,14.2917558 C20.6827923,19.5549412 16.5699901,22.7903838 13.0510943,20.7030015 C15.7979117,18.9585463 22.5684453,13.9190089 25.9834074,9.49077642 C25.4191962,8.50672475 25.0925477,7.34375459 25.0925477,6.12114494 C25.0925477,4.82398592 25.4637392,3.60137627 26.087341,2.57259498 C24.7213562,1.97620003 22.5387499,1.69291242 19.3316551,1.84201116 C9.96278077,2.2743975 1.75202404,12.2192833 8.71557721,13.3375239 L8.81951084,13.3524337 L12.6353598,13.0542363 C5.74604494,9.69951465 17.8171936,2.91552207 22.9247891,4.45123908 C25.4191962,5.74839809 19.8364756,13.6357213 12.7244458,19.0330956 C14.8773567,15.9914814 16.5254471,12.8305881 17.6538693,9.53550604 C17.1787442,9.25221844 16.6887714,8.95402096 16.2136462,8.65582348 C13.941954,15.8572925 8.28499503,22.5667357 0,29.1270802" id="Fill-25" fill="#7A1443"></path>
                            <path d="M0,29.1270802 L1.29174654,30.6478873 L10.5863825,22.9991221 C11.269375,22.4474567 18.3814048,26.1152857 22.8505508,18.749808 C22.1378631,20.0916967 23.6671722,27.2484361 30.9276786,18.6603488 C31.1206982,18.7945377 30.645573,20.1960658 30.5119441,20.5688126 C31.4028038,20.3451645 32.3679017,20.166246 33.3626951,20.0022374 L34.2238594,16.7220652 C34.6841369,14.9477902 37.7872981,12.8902276 38.0100131,13.7400904 C38.188185,14.4557644 37.2082393,18.3174217 36.8815908,19.6145807 C37.4012589,19.5698511 37.9209271,19.5400314 38.4554429,19.5251215 C38.8266344,19.4953017 39.2126736,19.4953017 39.5838652,19.4803919 L40.7271351,16.0660308 C41.8407097,12.7113092 45.9683595,10.5941071 44.6469177,15.2012581 L43.3551711,19.5698511 C44.2905738,19.6294906 45.1814335,19.7189498 46.0129025,19.8382288 L48.0321845,13.9488287 C48.9675871,10.3257293 46.4880277,10.0424417 40.9795453,13.5462621 C40.994393,12.2043734 41.3507369,9.26712831 35.0404808,13.6953608 L35.381977,11.9807253 C34.461422,12.5473005 33.3775427,12.8902276 32.2342728,12.9498671 L31.3731084,15.2012581 C28.6559864,22.3579975 24.2165357,24.3559206 27.8690604,14.1575669 L24.4244029,14.2917558 C20.6827923,19.5549412 16.5699901,22.7903838 13.0510943,20.7030015 C15.7979117,18.9585463 22.5684453,13.9190089 25.9834074,9.49077642 C25.4191962,8.50672475 25.0925477,7.34375459 25.0925477,6.12114494 C25.0925477,4.82398592 25.4637392,3.60137627 26.087341,2.57259498 C24.7213562,1.97620003 22.5387499,1.69291242 19.3316551,1.84201116 C9.96278077,2.2743975 1.75202404,12.2192833 8.71557721,13.3375239 L8.81951084,13.3524337 L12.6353598,13.0542363 C5.74604494,9.69951465 17.8171936,2.91552207 22.9247891,4.45123908 C25.4191962,5.74839809 19.8364756,13.6357213 12.7244458,19.0330956 C14.8773567,15.9914814 16.5254471,12.8305881 17.6538693,9.53550604 C17.1787442,9.25221844 16.6887714,8.95402096 16.2136462,8.65582348 C13.941954,15.8572925 8.28499503,22.5667357 0,29.1270802 Z" id="Stroke-27"></path>
                        </g>
                    </g>
                </g>
            </g>
        </g>
    </g>
</svg>