<?xml version="1.0" encoding="UTF-8"?>
<svg width="80px" height="94px" viewBox="0 0 80 94" version="1.1" xmlns="http://www.w3.org/2000/svg" xmlns:xlink="http://www.w3.org/1999/xlink">
    <!-- Generator: Sketch 46.2 (44496) - http://www.bohemiancoding.com/sketch -->
    <title>rim</title>
    <desc>Created with Sketch.</desc>
    <defs>
        <filter x="-0.5%" y="-4.6%" width="100.9%" height="107.9%" filterUnits="objectBoundingBox" id="filter-1">
            <feOffset dx="0" dy="-1" in="SourceAlpha" result="shadowOffsetOuter1"></feOffset>
            <feGaussianBlur stdDeviation="2" in="shadowOffsetOuter1" result="shadowBlurOuter1"></feGaussianBlur>
            <feColorMatrix values="0 0 0 0 0   0 0 0 0 0   0 0 0 0 0  0 0 0 0.2 0" type="matrix" in="shadowBlurOuter1" result="shadowMatrixOuter1"></feColorMatrix>
            <feMerge>
                <feMergeNode in="shadowMatrixOuter1"></feMergeNode>
                <feMergeNode in="SourceGraphic"></feMergeNode>
            </feMerge>
        </filter>
    </defs>
    <g id="web" stroke="none" stroke-width="1" fill="none" fill-rule="evenodd">
        <g id="Desktop-HD" transform="translate(-399.000000, -914.000000)">
            <g id="Group-2" filter="url(#filter-1)" transform="translate(0.000000, 880.000000)">
                <g id="Group" transform="translate(164.000000, 21.000000)">
                    <g id="rim" transform="translate(239.000000, 18.000000)">
                        <path d="M18.4550112,80.4483743 L18.4550112,85.307183 C17.4482111,86.1784176 17.146171,85.5417461 17.3978711,83.6149772 C17.8173711,82.5761974 18.1697512,81.5206631 18.4550112,80.4483743 L18.4550112,80.4483743 Z M18.4550112,30.9387895 L18.4550112,43.2701108 C17.162951,43.0858111 15.9380108,42.884757 14.7801906,42.6166848 C16.0890309,44.3088906 17.3139711,46.6210133 18.4550112,49.1006812 L18.4550112,56.3721396 C17.095831,51.0274501 14.7801906,46.6377678 12.5316703,42.8009844 C12.3135302,42.4323851 11.9108102,42.0972949 11.7262301,41.7622046 C10.0650099,41.2093057 8.63870963,40.5056162 7.51444945,39.6678906 C7.07816938,39.3495548 6.77612933,39.0144646 6.5915493,38.6793743 L6.5915493,37.0374321 C7.63190947,34.9598725 12.2799702,32.7817859 18.4550112,30.9387895 L18.4550112,30.9387895 Z M21.3243917,50.5080602 L21.3243917,53.2893093 L20.0491115,53.8086992 L21.3243917,61.0466487 L21.3243917,77.365544 C21.0223517,79.2420494 20.6867516,81.1520638 20.4686116,82.9280422 C19.6128314,84.1008581 18.9584113,84.8883201 18.4550112,85.307183 L18.4550112,80.4483743 C19.8309715,75.3214934 19.7638515,69.9265404 19.6296114,64.5483418 C19.5289314,61.5827931 19.0926513,58.868562 18.4550112,56.3721396 L18.4550112,49.1006812 C18.7906113,49.8043707 19.0926513,50.5248147 19.4114714,51.2285043 C20.0658915,51.1949952 20.6867516,50.826396 21.3243917,50.5080602 L21.3243917,50.5080602 Z M21.3243917,30.1345729 L21.3243917,35.2614537 C20.9384516,36.1661974 20.9552316,36.936905 21.3243917,37.590331 L21.3243917,43.571692 C21.0559117,43.5549375 20.7874316,43.538183 20.5021716,43.5046739 C20.7706516,44.0408183 21.0559117,44.5937173 21.3243917,45.1298617 L21.3243917,48.3467281 C20.5525116,46.6545223 19.7806315,45.0795981 19.0087513,43.3371288 C18.8241713,43.3203743 18.6395913,43.2868653 18.4550112,43.2701108 L18.4550112,30.9387895 C19.3779114,30.6539628 20.3343715,30.3858906 21.3243917,30.1345729 L21.3243917,30.1345729 Z M23.8413921,60.4434862 L23.8413921,63.0404357 L21.6096518,64.4813238 L21.8110118,72.104627 L23.8413921,70.6637389 L23.8413921,72.8920891 C23.186972,73.444988 22.5157719,74.0146414 21.7271118,74.684822 C21.6096518,75.5560566 21.4754117,76.4440458 21.3243917,77.365544 L21.3243917,61.0466487 L21.4586317,61.7838472 L23.8413921,60.4434862 Z M23.8413921,49.6200711 L23.8413921,56.0873129 L22.968832,52.6023743 L21.3243917,53.2893093 L21.3243917,50.5080602 C21.5928718,50.3740241 21.8613518,50.239988 22.1466118,50.1562155 C21.8781318,49.5362985 21.5928718,48.933136 21.3243917,48.3467281 L21.3243917,45.1298617 C22.1130518,46.6712768 22.918492,48.2294465 23.6400321,49.7205981 C23.7071521,49.6870891 23.7742721,49.6535801 23.8413921,49.6200711 L23.8413921,49.6200711 Z M23.8413921,39.3328003 L23.8413921,43.7392371 C22.985612,43.7057281 22.1466118,43.6554646 21.3243917,43.571692 L21.3243917,37.590331 C21.7438918,38.3275295 22.6164519,38.897183 23.8413921,39.3328003 L23.8413921,39.3328003 Z M23.8413921,29.4979014 L23.8413921,33.1336306 C22.952052,33.7032841 22.1466118,34.323201 21.4418517,34.9933815 C21.3915117,35.0939086 21.3579517,35.1776812 21.3243917,35.2614537 L21.3243917,30.1345729 C22.1466118,29.9167642 22.985612,29.6989555 23.8413921,29.4979014 L23.8413921,29.4979014 Z M24.6132722,70.144349 L24.6132722,72.2889266 C24.3447922,72.4899808 24.0930922,72.6910349 23.8413921,72.8920891 L23.8413921,70.6637389 L24.6132722,70.144349 Z M24.6132722,60.0246234 L24.6132722,62.5713093 L23.8413921,63.0404357 L23.8413921,60.4434862 L24.6132722,60.0246234 Z M24.6132722,49.2012082 L24.6132722,51.6641216 L24.4286922,51.7646487 L24.6132722,52.5018472 L24.6132722,59.1366342 L23.8413921,56.0873129 L23.8413921,49.6200711 C24.0930922,49.486035 24.3447922,49.3519989 24.6132722,49.2012082 L24.6132722,49.2012082 Z M24.6132722,39.5673635 L24.6132722,43.7727461 C24.3447922,43.7727461 24.0930922,43.7559916 23.8413921,43.7392371 L23.8413921,39.3328003 C24.0763122,39.4165729 24.3447922,39.5003454 24.6132722,39.5673635 L24.6132722,39.5673635 Z M24.6132722,29.3136017 L24.6132722,32.6812588 C24.3447922,32.8320494 24.0930922,32.98284 23.8413921,33.1336306 L23.8413921,29.4979014 C24.0930922,29.4476378 24.3447922,29.3806198 24.6132722,29.3136017 L24.6132722,29.3136017 Z M26.0060125,69.1558328 L26.0060125,71.1663743 C25.5193924,71.5517281 25.0495523,71.9203274 24.6132722,72.2721721 L24.6132722,72.2889266 L24.6132722,70.144349 L24.6132722,70.1275945 L26.0060125,69.1558328 Z M26.0060125,58.5669808 L26.0060125,68.5694248 L25.2173523,62.169201 L24.6132722,62.5545548 L24.6132722,62.5713093 L24.6132722,60.0246234 L24.6132722,60.0078689 L24.7810723,59.8905873 L24.6132722,59.1701433 L24.6132722,59.1366342 L24.6132722,52.5018472 L24.6132722,52.5353563 L26.0060125,58.5669808 Z M26.0060125,48.3132191 L26.0060125,50.7593779 L24.6132722,51.6473671 L24.6132722,51.6641216 L24.6132722,49.2012082 L24.6132722,49.1844537 C25.0663323,48.9163815 25.5361724,48.6148003 26.0060125,48.3132191 L26.0060125,48.3132191 Z M26.0060125,39.8856992 L26.0060125,43.9067822 C25.9892325,43.8732732 25.9892325,43.8397642 25.9724525,43.8062552 C25.5193924,43.8062552 25.0495523,43.7895007 24.6132722,43.7727461 L24.6132722,39.5673635 C25.0327723,39.6846451 25.5026124,39.7851721 26.0060125,39.8856992 L26.0060125,39.8856992 Z M26.0060125,29.0120205 L26.0060125,31.9608147 C25.5193924,32.1953779 25.0495523,32.4299411 24.6132722,32.6812588 L24.6132722,29.3136017 C25.0663323,29.2130747 25.5361724,29.1125476 26.0060125,29.0120205 L26.0060125,29.0120205 Z M29.043193,56.0538039 L29.043193,59.3209339 L29.026413,59.3209339 L26.5933126,61.448757 L27.4323127,68.1338075 L29.026413,66.7096739 L29.043193,66.7096739 L29.043193,68.6867064 L29.026413,68.6867064 C28.4894529,69.1558328 27.9524928,69.6082046 27.4994327,70.0270674 C27.3316327,70.1778581 27.5665527,75.0869303 27.3316327,75.3214934 C27.1470527,75.5057931 26.6772126,70.6134754 26.4926326,70.797775 C26.3248325,70.9318111 26.1738125,71.0490927 26.0060125,71.1663743 L26.0060125,69.1558328 L26.0731325,69.1055692 L26.0060125,68.5694248 L26.0060125,58.5669808 L26.0395725,58.7010169 L29.026413,56.0538039 L29.043193,56.0538039 Z M29.043193,40.2542985 L29.043193,43.8230097 L27.7846928,43.8230097 C28.1538528,44.6272263 28.4894529,45.4314429 28.942513,46.252414 C28.976073,46.2356595 29.009633,46.218905 29.026413,46.185396 L29.043193,46.185396 L29.043193,52.1164934 L29.026413,52.0829844 L28.2545328,49.3184898 L26.0060125,50.7593779 L26.0060125,48.3132191 C26.5429726,47.9781288 27.0799326,47.6430386 27.5833327,47.3749664 C27.1806127,46.1351324 26.4926326,45.0795981 26.0060125,43.9067822 L26.0060125,39.8856992 C26.9289126,40.0532443 27.9357128,40.1705259 29.043193,40.2542985 L29.043193,40.2542985 Z M29.043193,28.3921036 L29.043193,30.7544898 C27.9524928,31.1230891 26.9456926,31.5084429 26.0060125,31.9608147 L26.0060125,29.0120205 C26.9960326,28.7942119 28.0196128,28.5764032 29.043193,28.3921036 L29.043193,28.3921036 Z M29.8150731,66.0394934 L29.8150731,68.0332804 C29.5465931,68.2678436 29.294893,68.4688978 29.043193,68.6867064 L29.043193,66.7096739 L29.8150731,66.0394934 Z M29.8150731,55.3836234 L29.8150731,58.6675079 L29.043193,59.3209339 L29.043193,56.0538039 L29.8150731,55.3836234 Z M29.8150731,40.2878075 L29.8150731,43.8062552 C29.5465931,43.8062552 29.294893,43.8062552 29.043193,43.8230097 L29.043193,40.2542985 C29.294893,40.271053 29.5465931,40.2878075 29.8150731,40.2878075 L29.8150731,40.2878075 Z M29.8150731,28.2413129 L29.8150731,30.5031721 C29.5465931,30.5869447 29.294893,30.6707173 29.043193,30.7544898 L29.043193,28.3921036 C29.294893,28.34184 29.5465931,28.2915765 29.8150731,28.2413129 L29.8150731,28.2413129 Z M29.8150731,47.8105837 L29.6808331,47.8943563 L29.8150731,48.3634826 L29.8150731,54.7637064 L29.043193,52.1164934 L29.043193,46.185396 C29.294893,46.0178508 29.5465931,45.8670602 29.8150731,45.6995151 L29.8150731,47.8105837 Z M32.6173336,40.3548256 L32.6173336,43.6889736 C31.6776534,43.7392371 30.7379732,43.7727461 29.8150731,43.8062552 L29.8150731,40.2878075 C30.7044132,40.3380711 31.6440934,40.3548256 32.6173336,40.3548256 L32.6173336,40.3548256 Z M32.6173336,27.7386776 L32.6173336,29.7492191 C31.6440934,29.9670277 30.7044132,30.2183454 29.8150731,30.5031721 L29.8150731,28.2413129 C30.7379732,28.0570133 31.6776534,27.9062227 32.6173336,27.7386776 L32.6173336,27.7386776 Z M29.8150731,48.3634826 L29.8150731,48.3802371 L31.3252733,53.9427353 L32.6173336,52.8369375 L32.6173336,55.1490602 C32.2817335,55.467396 31.9461334,55.7857317 31.6105334,56.1040674 C31.8454534,58.5837353 32.2481735,60.9628761 32.4830935,63.442544 C32.5334335,63.409035 32.5669935,63.3755259 32.6173336,63.3420169 L32.6173336,65.0007137 C32.6005536,65.0174682 32.6005536,65.0342227 32.5837735,65.0509772 C32.6005536,65.1347498 32.6005536,65.2185223 32.6173336,65.3022949 L32.6173336,70.3454032 C32.3488535,68.9715331 32.1139335,67.5809086 31.7447734,66.2405476 C31.1742533,66.8269555 30.4862732,67.430118 29.8150731,68.0165259 L29.8150731,68.0332804 L29.8150731,66.0394934 L29.8150731,66.0227389 L31.4762934,64.5483418 L30.3520332,58.181627 L29.8150731,58.6507534 L29.8150731,58.6675079 L29.8150731,55.3836234 L29.8150731,55.3668689 L29.9325331,55.2495873 L29.8150731,54.7804609 L29.8150731,54.7637064 L29.8150731,48.3634826 Z M29.8150731,47.7938292 L29.8150731,47.8105837 L29.8150731,45.6995151 L29.8150731,45.6827606 C30.7379732,45.0628436 31.6944334,44.4596812 32.6173336,43.8397642 L32.6173336,45.6660061 L29.8150731,47.7938292 Z M32.6173336,29.7492191 C39.8830747,28.0235043 49.1624163,27.6046415 58.6598978,27.621396 C53.609117,25.5940999 42.9705952,26.0464718 32.6173336,27.7386776 L32.6173336,29.7492191 Z M32.6173336,65.0007137 C33.6241337,63.6603526 34.6309339,62.2864826 35.6545141,60.9293671 C34.5805939,61.7503382 33.6744737,62.5210458 32.6173336,63.3420169 L32.6173336,65.0007137 Z M32.6173336,70.3454032 L32.6173336,65.3022949 C32.8690336,67.6981902 32.8522536,70.2113671 33.1207336,72.5905079 C32.9193736,71.8533093 32.7683536,71.0993562 32.6173336,70.3454032 L32.6173336,70.3454032 Z M32.6173336,52.8369375 L35.553834,50.2902516 L33.6744737,44.845035 L32.6173336,45.6660061 L32.6173336,43.8397642 C32.7012336,43.7895007 32.7851336,43.7392371 32.8690336,43.6722191 C32.7851336,43.6889736 32.7012336,43.6889736 32.6173336,43.6889736 L32.6173336,40.3548256 C49.4308963,40.2207895 77.4199409,32.6477498 66.110219,25.1919916 C62.8213385,23.013905 58.5424378,22.8631144 54.3138771,22.3437245 C65.5229189,22.0421433 70.8757398,23.7846126 72,26.381562 L72,28.7104393 C70.5065798,32.8655584 61.7474183,38.0427028 50.0853164,41.0920241 C45.7392957,42.2480855 40.5542749,43.0858111 35.268574,43.5046739 C37.9701544,50.7091144 38.9937346,57.8800458 39.6649347,65.0509772 C38.4567745,60.6445404 37.2821743,56.221349 36.0740141,51.8149122 C34.9161939,52.92071 33.7583737,54.0265079 32.6173336,55.1490602 L32.6173336,52.8369375 Z" id="Fill-1" fill="#1A1919"></path>
                        <path d="M24.3344398,59.1738681 L23.5617754,56.0908479 L22.6883286,52.6056948 L19.7656415,53.812094 L21.1765939,61.7877329 L23.5617754,60.4472894 L24.3344398,60.0116453 L24.5024103,59.8943564 L24.3344398,59.1738681 Z M24.3344398,51.6506288 L24.1496722,51.7679176 L24.3344398,52.5386726 L25.7621892,58.7047128 L28.7520646,56.0573369 L29.541526,55.3703596 L29.6591054,55.2530707 L29.541526,54.7839155 L28.7520646,52.0862729 L27.9794002,49.3216082 L24.3344398,51.6506288 Z M18.7242242,43.3398789 C17.2292866,43.1555679 15.8183342,42.9209903 14.491367,42.6193905 C16.1710723,44.7808557 17.699604,47.9644091 19.1273535,51.2317402 C20.0679884,51.164718 20.9246381,50.4442296 21.865273,50.1593854 C20.8070587,47.746587 19.7656415,45.6856551 18.7242242,43.3398789 Z M25.695001,43.8090342 C23.8137311,43.7755231 21.9828524,43.6749898 20.2191619,43.5074344 C21.2605792,45.5683663 22.3859817,47.6963204 23.3602107,49.7237412 C23.4273989,49.6902301 23.4945871,49.656719 23.5617754,49.6232079 C23.8137311,49.4891636 24.0656869,49.3383637 24.3344398,49.1875638 C25.3254659,48.5843642 26.3668831,47.8638758 27.3075181,47.377965 C26.9043888,46.1045437 26.1821155,45.0321889 25.695001,43.8090342 Z M32.5985896,43.6749898 C30.9020873,43.7755231 29.1887879,43.8257897 27.5090827,43.8257897 C27.8786178,44.6300558 28.2145589,45.4343219 28.6680793,46.2553436 C28.7016734,46.238588 28.7352675,46.2218325 28.7520646,46.1883214 C29.0208174,46.020766 29.2727732,45.8532105 29.541526,45.6856551 C30.4653639,45.0657 31.4227959,44.4625004 32.3466338,43.8425452 C32.4306191,43.7922786 32.5146043,43.742012 32.5985896,43.6749898 Z M54.0652227,22.3451822 C83.9471791,21.5241606 72.2396335,35.2301956 49.8323654,41.094636 C45.4819289,42.2507686 40.2916396,43.0885458 35.0005681,43.5074344 C37.7048935,50.7123183 38.7295137,57.8836912 39.4013958,65.055064 C38.1920081,60.6483559 37.0162144,56.2248923 35.8068266,51.8181842 C34.64783,52.9240501 33.4888334,54.029916 32.3466338,55.1525375 C32.0106928,55.4708928 31.6747517,55.7892482 31.3388107,56.1076035 C31.5739694,58.587424 31.9770986,60.9667113 32.2122574,63.4465318 C32.2626485,63.4130207 32.2962426,63.3795096 32.3466338,63.3459985 C33.4048481,62.5249769 34.3118889,61.7542218 35.3869003,60.9332002 C34.3622801,62.2903992 33.354457,63.6643539 32.3466338,65.0047974 C32.3298368,65.0215529 32.3298368,65.0383085 32.3130397,65.055064 C32.3298368,65.1388417 32.3298368,65.2226195 32.3466338,65.3063972 C32.5985896,67.70244 32.5817925,70.2157716 32.8505454,72.5950588 C32.6489807,71.8578149 32.4978073,71.1038154 32.3466338,70.3498159 C32.077881,68.9758613 31.8427222,67.5851512 31.4731871,66.2447076 C30.9020873,66.8311517 30.2134081,67.4343513 29.541526,68.0207953 C29.2727732,68.2553729 29.0208174,68.473195 28.7520646,68.6910171 C28.2145589,69.1601723 27.6770532,69.612572 27.2235328,70.0314606 C27.0555623,70.1822605 27.290721,75.0916349 27.0555623,75.3262125 C26.8707947,75.5105235 26.4004772,70.6179046 26.2157096,70.8022156 C25.5438275,71.3048819 24.9223366,71.7907927 24.3344398,72.2767035 C24.0656869,72.47777 23.8137311,72.6788366 23.5617754,72.8966586 C22.9066903,73.4495916 22.2348082,74.0192801 21.4453467,74.6895018 C21.1094057,77.3033667 20.5047118,80.2858536 20.1855678,82.9332295 C17.5820247,86.4854049 16.742172,86.4854049 17.1117072,83.6202068 C19.5808739,77.5546999 19.5136857,71.0535488 19.3457152,64.5523977 C19.0097741,55.2530707 15.5495813,48.4335643 12.240562,42.8037015 C12.0222003,42.4350795 11.619071,42.0999687 11.4343035,41.7648578 C9.77139526,41.2119248 8.34364579,40.508192 7.21824328,39.6704148 C-1.81857096,32.9849527 45.7506817,22.5462488 58.4156593,27.6231786 C42.6936181,27.5896675 27.5762709,28.7625556 21.1597968,34.995618 C14.8776992,47.2606762 82.4354443,36.0847284 65.8735506,25.1936247 C62.5813283,23.015404 58.2980799,22.8646041 54.0652227,22.3451822 Z M23.5617754,63.0443987 L21.3277674,64.4853755 L21.529332,72.1091481 L23.5617754,70.6681713 L24.3344398,70.1319939 L25.7957833,69.1099057 L24.9391337,62.1731104 L24.3344398,62.558488 L23.5617754,63.0443987 Z M28.7520646,66.7138629 L29.541526,66.0268856 L31.2044342,64.5523977 L30.0790317,58.185291 L29.541526,58.6544462 L28.7520646,59.3246679 L26.316492,61.452622 L27.1563446,68.1380841 L28.7520646,66.7138629 Z M29.541526,47.7968536 L29.4071496,47.8973869 L29.541526,48.3832977 L31.0532608,53.9461383 L32.3466338,52.8402724 L35.286118,50.2934297 L33.4048481,44.8478779 L32.3466338,45.6688995 L29.541526,47.7968536 Z" id="Stroke-3"></path>
                        <path d="M30.894609,11.1549296 C31.8562409,9.96302464 32.4507042,8.46018798 32.4507042,6.80188546 C32.4507042,5.19540489 31.8912093,3.7271162 30.9645459,2.53521127 C29.9854298,3.7271162 29.4084507,5.24722685 29.4084507,6.88825538 C29.4084507,8.49473595 29.9504614,9.98029863 30.894609,11.1549296" id="Fill-5" fill="#1A1919"></path>
                        <path d="M30.894609,11.1549296 C31.8562409,9.96302464 32.4507042,8.46018798 32.4507042,6.80188546 C32.4507042,5.19540489 31.8912093,3.7271162 30.9645459,2.53521127 C29.9854298,3.7271162 29.4084507,5.24722685 29.4084507,6.88825538 C29.4084507,8.49473595 29.9504614,9.98029863 30.894609,11.1549296 Z" id="Stroke-7"></path>
                        <path d="M31.5187318,1.84356011 C32.5697668,3.1920902 33.1938188,4.8990903 33.1938188,6.75972042 C33.1938188,8.67156054 32.5369219,10.4297706 31.4366197,11.7783007 C32.5040771,12.8537108 33.9328277,13.5706508 35.4929577,13.6901408 L35.4929577,0 C33.9656726,0.136560008 32.5697668,0.819360051 31.5187318,1.84356011" id="Fill-13" fill="#1A1919"></path>
                        <path d="M31.5187318,1.84356011 C32.5697668,3.1920902 33.1938188,4.8990903 33.1938188,6.75972042 C33.1938188,8.67156054 32.5369219,10.4297706 31.4366197,11.7783007 C32.5040771,12.8537108 33.9328277,13.5706508 35.4929577,13.6901408 L35.4929577,0 C33.9656726,0.136560008 32.5697668,0.819360051 31.5187318,1.84356011 Z" id="Stroke-15"></path>
                        <path d="M41.0387324,2.53521127 C40.1197183,3.69555796 39.5492958,5.1708559 39.5492958,6.79534128 C39.5492958,8.4695558 40.1355634,9.9780065 41.1021127,11.1549296 C42.0369718,9.99458288 42.5915493,8.50270856 42.5915493,6.87822319 C42.5915493,5.22058505 42.0052817,3.69555796 41.0387324,2.53521127" id="Fill-17" fill="#1A1919"></path>
                        <path d="M41.0387324,2.53521127 C40.1197183,3.69555796 39.5492958,5.1708559 39.5492958,6.79534128 C39.5492958,8.4695558 40.1355634,9.9780065 41.1021127,11.1549296 C42.0369718,9.99458288 42.5915493,8.50270856 42.5915493,6.87822319 C42.5915493,5.22058505 42.0052817,3.69555796 41.0387324,2.53521127 Z" id="Stroke-19"></path>
                        <path d="M40.5633803,11.9170715 C39.380966,10.5361233 38.6748018,8.72895655 38.6748018,6.75130233 C38.6748018,4.82479435 39.3481211,3.05172505 40.4812682,1.68782558 C39.3973884,0.716047217 38.017905,0.0852437163 36.5070423,0 L36.5070423,13.6901408 C38.0507498,13.6048971 39.4795005,12.9399961 40.5633803,11.9170715" id="Fill-21" fill="#1A1919"></path>
                        <path d="M40.5633803,11.9170715 C39.380966,10.5361233 38.6748018,8.72895655 38.6748018,6.75130233 C38.6748018,4.82479435 39.3481211,3.05172505 40.4812682,1.68782558 C39.3973884,0.716047217 38.017905,0.0852437163 36.5070423,0 L36.5070423,13.6901408 C38.0507498,13.6048971 39.4795005,12.9399961 40.5633803,11.9170715 Z" id="Stroke-23"></path>
                        <path d="M0,32.7679652 L1.45321485,34.4788732 L11.9096804,25.8740123 C12.6780468,25.2533888 20.6790803,29.3796964 25.7068697,21.093534 C24.905096,22.6031588 26.6255687,30.6544906 34.7936384,20.9928924 C35.0107855,21.1438549 34.4762697,22.720574 34.3259371,23.1399142 C35.3281542,22.8883101 36.4138895,22.6870268 37.5330319,22.5025171 L38.5018418,18.8123234 C39.019654,16.816264 42.5107104,14.5015061 42.7612647,15.4576018 C42.9617081,16.2627349 41.8592693,20.6070994 41.4917896,22.0664033 C42.0764163,22.0160825 42.661043,21.9825353 43.2623733,21.9657617 C43.6799637,21.9322144 44.1142578,21.9322144 44.5318483,21.9154408 L45.818027,18.0742846 C47.0707984,14.3002228 51.7144045,11.9183705 50.2277824,17.1014153 L48.7745675,22.0160825 C49.8268955,22.0831769 50.8291127,22.1838186 51.7645153,22.3180074 L54.0362075,15.6924323 C55.0885355,11.6164455 52.2990312,11.297747 46.1019885,15.2395448 C46.1186921,13.7299201 46.519579,10.4255193 39.4205409,15.4072809 L39.8047241,13.478316 C38.7690997,14.1157131 37.5497356,14.5015061 36.2635569,14.5686005 L35.294747,17.1014153 C32.2379847,25.1527472 27.2436026,27.4004107 31.3526929,15.9272628 L27.4774533,16.0782252 C23.2681413,21.9993089 18.6412388,25.6391818 14.6824811,23.2908767 C17.7726506,21.3283646 25.3895009,15.658885 29.2313333,10.6771235 C28.5965958,9.57006534 28.2291161,8.26172391 28.2291161,6.88628806 C28.2291161,5.42698416 28.6467066,4.0515483 29.3482586,2.89416935 C27.8115257,2.22322503 25.3560937,1.90452648 21.748112,2.07226256 C11.2081284,2.55869719 1.97102704,13.7466937 9.80502437,15.0047143 L9.9219497,15.0214879 L14.2147798,14.6860158 C6.46430056,10.911954 20.0443428,3.27996233 25.7903878,5.00764396 C28.5965958,6.46694786 22.316035,15.3401865 14.3150015,21.4122326 C16.7370263,17.9904166 18.591128,14.4344117 19.860603,10.7274443 C19.3260872,10.4087457 18.7748678,10.0732736 18.240352,9.73780142 C15.6846983,17.8394541 9.32061941,25.3875777 0,32.7679652" id="Fill-25" fill="#1A1919"></path>
                        <path d="M0,32.7679652 L1.45321485,34.4788732 L11.9096804,25.8740123 C12.6780468,25.2533888 20.6790803,29.3796964 25.7068697,21.093534 C24.905096,22.6031588 26.6255687,30.6544906 34.7936384,20.9928924 C35.0107855,21.1438549 34.4762697,22.720574 34.3259371,23.1399142 C35.3281542,22.8883101 36.4138895,22.6870268 37.5330319,22.5025171 L38.5018418,18.8123234 C39.019654,16.816264 42.5107104,14.5015061 42.7612647,15.4576018 C42.9617081,16.2627349 41.8592693,20.6070994 41.4917896,22.0664033 C42.0764163,22.0160825 42.661043,21.9825353 43.2623733,21.9657617 C43.6799637,21.9322144 44.1142578,21.9322144 44.5318483,21.9154408 L45.818027,18.0742846 C47.0707984,14.3002228 51.7144045,11.9183705 50.2277824,17.1014153 L48.7745675,22.0160825 C49.8268955,22.0831769 50.8291127,22.1838186 51.7645153,22.3180074 L54.0362075,15.6924323 C55.0885355,11.6164455 52.2990312,11.297747 46.1019885,15.2395448 C46.1186921,13.7299201 46.519579,10.4255193 39.4205409,15.4072809 L39.8047241,13.478316 C38.7690997,14.1157131 37.5497356,14.5015061 36.2635569,14.5686005 L35.294747,17.1014153 C32.2379847,25.1527472 27.2436026,27.4004107 31.3526929,15.9272628 L27.4774533,16.0782252 C23.2681413,21.9993089 18.6412388,25.6391818 14.6824811,23.2908767 C17.7726506,21.3283646 25.3895009,15.658885 29.2313333,10.6771235 C28.5965958,9.57006534 28.2291161,8.26172391 28.2291161,6.88628806 C28.2291161,5.42698416 28.6467066,4.0515483 29.3482586,2.89416935 C27.8115257,2.22322503 25.3560937,1.90452648 21.748112,2.07226256 C11.2081284,2.55869719 1.97102704,13.7466937 9.80502437,15.0047143 L9.9219497,15.0214879 L14.2147798,14.6860158 C6.46430056,10.911954 20.0443428,3.27996233 25.7903878,5.00764396 C28.5965958,6.46694786 22.316035,15.3401865 14.3150015,21.4122326 C16.7370263,17.9904166 18.591128,14.4344117 19.860603,10.7274443 C19.3260872,10.4087457 18.7748678,10.0732736 18.240352,9.73780142 C15.6846983,17.8394541 9.32061941,25.3875777 0,32.7679652 Z" id="Stroke-27"></path>
                    </g>
                </g>
            </g>
        </g>
    </g>
</svg>