<?xml version="1.0" encoding="UTF-8"?>
<svg width="100px" height="100px" viewBox="0 0 100 100" version="1.1" xmlns="http://www.w3.org/2000/svg" xmlns:xlink="http://www.w3.org/1999/xlink">
    <!-- Generator: Sketch 46.2 (44496) - http://www.bohemiancoding.com/sketch -->
    <title>tabasalu</title>
    <desc>Created with Sketch.</desc>
    <defs></defs>
    <g id="web" stroke="none" stroke-width="1" fill="none" fill-rule="evenodd">
        <g id="Desktop-HD" transform="translate(-531.000000, -641.000000)">
            <g id="Group-8" transform="translate(380.000000, 641.000000)">
                <g id="Group-7">
                    <g id="tabasalu" transform="translate(151.000000, 0.000000)">
                        <circle id="Oval-2-Copy-4" fill="#FFFFFF" cx="50" cy="50" r="50"></circle>
                        <g id="tabasalu_pl" transform="translate(18.000000, 16.000000)" fill="#7A1443">
                            <path d="M4.6640342,31.5455848 C4.6640342,31.715542 4.66388219,31.8854993 4.6640342,32.0556086 C4.66433824,32.3347154 4.65658527,32.6144304 4.67087506,32.8929292 C4.6743715,32.9614898 4.73685131,33.0495088 4.79750689,33.0841691 C4.83353539,33.1048437 4.93158765,33.0528532 4.98023373,33.0093758 C5.13392494,32.8721026 5.27986318,32.7257083 5.42443325,32.5785539 C5.63954014,32.3596466 5.81527411,32.1141359 5.90359715,31.8157226 C6.09711734,31.1620409 6.04831924,30.4933093 6.02004371,29.8265539 C6.01654727,29.7440076 5.98568741,29.6596371 5.9536114,29.5818033 C5.8592076,29.3519506 5.74671354,29.2987439 5.52947838,29.4153425 C5.32744513,29.5238841 5.14380618,29.6661739 4.95135012,29.7925017 C4.73897957,29.9317511 4.65293682,30.1252713 4.66053777,30.3800551 C4.67209121,30.7683116 4.66357815,31.1570242 4.6640342,31.5455848 M34.3928703,57.6899648 C34.3708276,57.6899648 34.3487848,57.6899648 34.326742,57.6899648 C34.326742,59.2819078 34.3305425,60.8738508 34.3249178,62.4657938 C34.3224855,63.1340694 34.2952741,63.8021929 34.2893454,64.4706204 C34.286457,64.80339 34.3694594,64.8790955 34.6950841,64.8930812 C34.7315686,64.8946014 34.7680532,64.8933853 34.8045378,64.8929292 C35.5456304,64.8851762 36.286723,64.8692143 37.0278157,64.8716466 C37.6830176,64.8739268 38.3382195,64.9028105 38.9934214,64.9082831 C39.3565948,64.9113235 39.7278252,64.9341264 40.0808133,64.8689102 C40.4538679,64.8000456 40.8216019,64.755352 41.1998252,64.7495753 C41.414628,64.7463829 41.6285188,64.6902879 41.8431696,64.6597321 C42.022704,64.6341929 42.2031506,64.6139743 42.382533,64.5863069 C42.8332694,64.5166822 43.2837017,64.4444732 43.734134,64.3722641 C43.7575449,64.3684637 43.7785235,64.3514375 43.8019344,64.3459648 C43.9536494,64.3113045 44.1059724,64.2790765 44.2578394,64.2442641 C44.3862955,64.2149245 44.5147515,64.1845207 44.6425995,64.1519886 C44.7359392,64.1284257 44.8276067,64.0981739 44.9210983,64.075371 C45.2597967,63.9926727 45.6041197,63.9286727 45.9367373,63.8266679 C46.526419,63.6459173 47.1119962,63.4505729 47.694077,63.2464114 C48.2402812,63.0548675 48.7860295,62.859219 49.3200722,62.6366632 C49.7005758,62.4781074 50.0619249,62.2736418 50.430571,62.0871145 C50.766229,61.9171572 50.8077302,61.7932618 50.614058,61.4551715 C50.4757207,61.2137653 50.3130603,60.9863449 50.1613454,60.7525397 C49.4395591,59.6394565 48.6619819,58.5662024 47.7416589,57.6096988 C47.0095354,56.8486917 46.2459439,56.1167202 45.4730793,55.3967582 C44.6150841,54.5975943 43.6240722,53.9731002 42.6134499,53.3926917 C41.6985995,52.867314 40.7455924,52.4057843 39.7539724,52.0360741 C38.9689463,51.7434375 38.1875686,51.4346869 37.3859724,51.1958651 C36.526761,50.9397131 35.6458109,50.7563781 34.774134,50.5423354 C34.5416969,50.4851762 34.4290508,50.5622499 34.3977349,50.7990955 C34.3898299,50.858991 34.3930223,50.9204067 34.3930223,50.9812143 C34.3928703,53.2174138 34.3928703,55.4536133 34.3928703,57.6899648 M32.2115496,57.7536608 C32.1884428,57.7536608 32.1654879,57.7536608 32.142533,57.7536608 C32.142533,56.1364827 32.142533,54.5191525 32.142533,52.9019743 C32.142533,52.2332428 32.1467895,51.5643591 32.1408608,50.8956276 C32.1376684,50.5353425 32.0376399,50.4780314 31.6870841,50.5707629 C31.1004428,50.7259743 30.5138014,50.8843781 29.9204713,51.0099458 C29.0490983,51.1941929 28.2110176,51.4881976 27.3835781,51.7998366 C26.5219344,52.1243971 25.6827895,52.5141739 24.8510936,52.9118556 C23.6186755,53.5010812 22.4748846,54.2420219 21.4150081,55.1012333 C20.8593786,55.5516656 20.3412979,56.0524162 19.8367468,56.5607677 C19.2210698,57.1813093 18.5970318,57.8010907 18.0500675,58.4804637 C17.3577729,59.3404352 16.7372314,60.2583259 16.0917587,61.155542 C15.9932504,61.2925112 15.9163287,61.4483306 15.8494404,61.6039981 C15.7673501,61.7944779 15.8114356,61.9398081 16.0011553,62.0291952 C16.7463525,62.379599 17.4869891,62.7436846 18.2498204,63.051523 C18.854552,63.2953615 19.4851268,63.4782404 20.1119012,63.6626394 C20.6308941,63.8154185 21.1316447,64.0401026 21.6810413,64.08358 C21.7631316,64.0899648 21.8414214,64.1355705 21.9227515,64.1589815 C22.0265805,64.1886252 22.1302575,64.2223734 22.2363667,64.2400076 C22.6393691,64.3067439 23.0435876,64.3666394 23.446742,64.4321596 C23.4937159,64.4397606 23.5362812,64.4718366 23.5831031,64.4823259 C23.7468276,64.5192665 23.910248,64.5597036 24.0761007,64.5832665 C24.2439297,64.6069815 24.4274166,64.5768817 24.5812599,64.6328247 C24.9353121,64.7617368 25.2957492,64.7568722 25.6602907,64.7568722 C25.7934594,64.7568722 25.934077,64.7506394 26.0585805,64.7887962 C26.4843857,64.9189245 26.9191601,64.9259173 27.3577349,64.9280456 C27.5757302,64.9291097 27.7931173,64.9724352 28.0112646,64.9841406 C28.4103145,65.0054233 28.8096684,65.0241216 29.2090223,65.0308105 C29.4882812,65.035523 29.7679962,65.0226014 30.0472551,65.0098318 C30.6662765,64.9818603 31.2856019,64.9535848 31.9041672,64.9158841 C32.166552,64.8997701 32.2340485,64.8096228 32.2269036,64.5382689 C32.2243192,64.4411287 32.2121577,64.3439886 32.2121577,64.2470005 C32.2112456,62.0825539 32.2115496,59.9181074 32.2115496,57.7536608 M32.150742,45.1129767 L32.1355401,45.1129767 C32.1355401,44.1523686 32.1387325,43.1916086 32.13402,42.2310005 C32.1320437,41.8389435 32.0476732,41.7690147 31.6533359,41.7741834 C31.2039677,41.7801121 30.7541435,41.7720551 30.3049273,41.7854328 C29.0293359,41.8232855 27.7526803,41.8466964 26.4789131,41.9189055 C25.4976304,41.9743924 24.5190841,42.0858223 23.5412979,42.1905634 C22.9380865,42.2551715 22.3382195,42.3507914 21.7377444,42.4386584 C21.4019344,42.4879126 21.0641482,42.5335183 20.7336589,42.6089197 C20.16602,42.7385919 19.6043097,42.8936513 19.038495,43.0321406 C17.8579154,43.3208247 16.7144285,43.7282356 15.5789986,44.1519126 C14.7836352,44.4485017 14.0191316,44.8283971 13.2417064,45.1731762 C11.7391506,45.8394755 10.3199012,46.6582499 8.92999145,47.530991 C8.56970641,47.7571952 8.22781568,48.0253568 7.84290356,48.1965302 C7.35294632,48.4142214 6.99509359,48.8026299 6.55347838,49.0779363 C6.46302708,49.1341834 6.37394394,49.2171857 6.32529786,49.3094613 C6.27254727,49.4093378 6.22314109,49.5466109 6.25004846,49.6466394 C6.36223848,50.0657558 6.49479905,50.4800076 6.63663278,50.8903069 C6.81023848,51.3925777 6.99630974,51.890896 7.18526936,52.3876941 C7.34808171,52.8162356 7.49204371,53.2558746 7.69818147,53.6632855 C8.0751886,54.4081786 8.42422423,55.1658413 8.87556865,55.8762261 C9.26732162,56.4928152 9.66454727,57.0926822 10.1718347,57.6206442 C10.4228181,57.8821169 10.630324,58.1847867 10.8715781,58.4562926 C10.998362,58.5988865 11.1535734,58.7167012 11.2996637,58.8412048 C11.3636637,58.8957796 11.4416494,58.9340884 11.5054974,58.9889672 C11.918685,59.3440836 12.2809463,59.755143 12.7567658,60.0416988 C13.2113026,60.315485 13.6363477,60.6380694 14.0820675,60.9270575 C14.2687468,61.0480646 14.3838252,60.9985064 14.4812694,60.7840076 C14.5413169,60.651599 14.5797777,60.5091572 14.6434736,60.378877 C15.118685,59.4065634 15.6361577,58.4616133 16.2673406,57.5762546 C16.9705805,56.5901074 17.798476,55.722839 18.6763857,54.8998081 C19.1541815,54.4519601 19.6521957,54.0244827 20.1590271,53.6096228 C20.6471601,53.2102689 21.1386375,52.8092428 21.6638632,52.4626394 C22.4744285,51.9276846 23.2921387,51.3986584 24.1808418,50.9956561 C24.8328513,50.7001311 25.4792361,50.3900124 26.142495,50.1221549 C26.7723097,49.8676751 27.4188466,49.6536323 28.062039,49.4336608 C28.4515116,49.3003401 28.846001,49.1802451 29.2429226,49.0707914 C29.5927183,48.9742594 29.9481387,48.8976418 30.302343,48.8176798 C30.7366613,48.7196276 31.1694594,48.6104779 31.6080342,48.5373568 C32.0309511,48.466972 32.150286,48.3546299 32.15059,47.9219838 C32.1511981,46.9856988 32.150742,46.0494138 32.150742,45.1129767 M34.3954546,45.1290907 L34.3852694,45.1290907 C34.3852694,46.0776893 34.3848133,47.0262879 34.3854214,47.9747344 C34.3857254,48.3002071 34.4751126,48.4298793 34.766685,48.5046727 C35.046704,48.5765777 35.3291553,48.6396656 35.6116067,48.7012333 C36.2257634,48.83501 36.8516257,48.9278936 37.4524048,49.1063639 C38.3473406,49.3720931 39.2330033,49.6747629 40.1069606,50.003124 C41.0272836,50.3489672 41.9381815,50.7239981 42.7942005,51.2162356 C43.2152931,51.4584019 43.6459629,51.6858223 44.0535259,51.9491192 C44.654609,52.3375278 45.2524998,52.7336893 45.8262195,53.1608627 C46.3409558,53.5439506 46.8325853,53.9604827 47.3134214,54.3859838 C47.7316257,54.7558461 48.1122812,55.1675135 48.5239487,55.5451287 C49.3726708,56.323314 50.0716542,57.2261549 50.694476,58.1850907 C51.2241102,59.0005207 51.694305,59.8531952 52.0635591,60.7574043 C52.1734689,61.0266299 52.2535829,61.051409 52.5076067,60.898934 C52.7873216,60.731105 53.0647563,60.5570432 53.3295734,60.3667154 C53.7315116,60.0778793 54.1252409,59.7770337 54.5159297,59.4731477 C54.8020295,59.2505919 55.0832646,59.0208912 55.3559867,58.7822214 C55.4915876,58.6634945 55.6075781,58.5213568 55.7243287,58.3828675 C55.8334784,58.2536513 55.9202812,58.1043686 56.0368798,57.9830575 C56.5087468,57.4929482 56.982134,56.9997986 57.3433311,56.4231905 C57.7413169,55.7880551 58.1473596,55.1552 58.4573264,54.4679221 C58.6072171,54.1359126 58.8077302,53.8257938 58.9436352,53.4889197 C59.214533,52.8171477 59.4659724,52.1371667 59.7078347,51.4542974 C59.9174689,50.8624874 60.1046043,50.2627724 60.2976684,49.6651857 C60.3520912,49.4967487 60.2987325,49.3438176 60.1644998,49.2392285 C59.7630176,48.9263734 59.3613834,48.6127582 58.9448513,48.3207297 C58.7075496,48.1544209 58.43802,48.035086 58.1881007,47.8858033 C57.2709701,47.3379268 56.3699534,46.7611667 55.4370128,46.2417178 C53.6398442,45.2409767 51.7538964,44.4317796 49.8188466,43.7370527 C49.4766518,43.6142214 49.1324808,43.4956466 48.7846613,43.3899933 C48.2852789,43.2385824 47.7842242,43.09082 47.2790651,42.9599316 C46.72678,42.8168817 46.1737349,42.6663829 45.6123287,42.5703069 C44.7158727,42.4169197 43.8134879,42.2933283 42.910647,42.1803781 C42.1279012,42.0824779 41.342723,41.9867059 40.5555686,41.9432285 C39.1963667,41.8682831 37.8350366,41.8298223 36.4741625,41.7857368 C35.9157967,41.7676466 35.3563667,41.770991 34.7975449,41.7722071 C34.5233026,41.7728152 34.4231221,41.8707154 34.398647,42.1376608 C34.3910461,42.2220314 34.3956067,42.3077701 34.3956067,42.3927487 C34.3954546,43.3048627 34.3954546,44.2169767 34.3954546,45.1290907 M62.1076067,27.4018508 C62.2001862,27.4711715 62.2979344,27.5348675 62.3845853,27.611181 C62.7588561,27.9403021 63.1200532,28.2852333 63.5057254,28.6002166 C63.7364903,28.7887202 63.8117397,29.0027629 63.8108276,29.2941834 C63.8024665,32.3342594 63.8052029,35.3743354 63.8048988,38.4144114 C63.8047468,38.9980124 63.806267,39.5817653 63.8044428,40.1653663 C63.8026185,40.723276 63.822229,41.2784494 63.6829796,41.8316466 C63.598001,42.1694328 63.6215639,42.5330622 63.5706375,42.8813378 C63.3123572,44.6479506 63.0745995,46.4183639 62.7698014,48.1770717 C62.6211268,49.035067 62.3546375,49.8739078 62.1179439,50.714877 C61.9533074,51.29939 61.7713406,51.8811667 61.5571458,52.4492618 C61.0261435,53.8583259 60.5130793,55.2768152 59.7310936,56.5755135 C59.4618679,57.0227534 59.2055639,57.4786584 58.918096,57.9138888 C58.7388656,58.1853948 58.5115971,58.4251287 58.3074356,58.6803686 C58.0125188,59.0491667 57.7248988,59.4240456 57.4219249,59.7861549 C57.2987895,59.9331572 57.1444903,60.0541644 57.0029606,60.1856608 C56.9140295,60.2682071 56.8100485,60.3379838 56.734343,60.4310195 C56.3156827,60.9460599 55.8014024,61.3543829 55.2611268,61.7268295 C54.3617824,62.3466109 53.4478442,62.9451097 52.5396827,63.5521216 C52.4892124,63.5857178 52.4388941,63.6217463 52.3838632,63.6460694 C51.0961102,64.2138603 49.8475781,64.8733188 48.5054024,65.3141739 C47.9401957,65.4997891 47.3771173,65.6937653 46.8056779,65.8580979 C46.3055354,66.0019078 45.7993121,66.1323401 45.2880722,66.2272 C44.7292504,66.3307249 44.1614594,66.3852998 43.5979249,66.4638936 C43.4898394,66.4789435 43.3828181,66.5026584 43.2764048,66.5275895 C42.2454119,66.7685397 41.2022575,66.94701 40.1467895,67.011466 C39.4937159,67.051295 38.8350176,66.9882071 38.1789036,66.9913995 C36.7689273,66.9980884 35.3572789,66.9806062 33.950343,67.051143 C33.4264855,67.0774423 32.9147895,67.0558556 32.3999012,67.0158746 C31.0286898,66.9091572 29.6565663,66.891371 28.2820105,66.9094613 C27.7488798,66.9164542 27.2149891,66.8413568 26.6809463,66.8158176 C25.8796542,66.7773568 25.0766898,66.7667154 24.2770698,66.7086442 C23.9678632,66.6861454 23.6679297,66.554953 23.3594831,66.4947534 C23.1478727,66.4534043 22.9289653,66.4483876 22.7130983,66.4289292 C22.6527468,66.4234565 22.5896589,66.4342499 22.5314356,66.4210242 C21.7879107,66.251371 21.0296399,66.1721691 20.2853549,65.9815373 C19.590476,65.803371 18.9241767,65.5446347 18.2314261,65.3670765 C17.8097254,65.258839 17.3942575,65.1059078 16.9968798,64.9266774 C16.2895354,64.6075895 15.542666,64.371048 14.8883762,63.9362736 C14.7698014,63.8573758 14.6284238,63.8005207 14.4893264,63.7676846 C14.2214689,63.7042926 14.0036257,63.5613948 13.7806138,63.4090717 C13.2496114,63.0466584 12.6989986,62.7132808 12.1686043,62.3501074 C11.3168418,61.7668105 10.4605188,61.1894423 9.76944038,60.4036561 C9.4743715,60.0681501 9.13004846,59.7759696 8.82525036,59.4482166 C8.63629074,59.2451192 8.47925511,59.0125302 8.30868979,58.7924067 C8.27174917,58.7446727 8.24544988,58.6872095 8.20303658,58.6455563 C7.6575924,58.1090812 7.30901283,57.4376133 6.92303658,56.7913805 C6.14029074,55.4805207 5.6032076,54.0579268 5.046362,52.6453663 C4.84615297,52.1373188 4.70827173,51.6049482 4.52949739,51.0880836 C4.05124561,49.7048627 3.76271354,48.2761881 3.51674679,46.8386964 C3.41018147,46.2167867 3.35089406,45.58682 3.26895582,44.9606537 C3.18382518,44.3101644 3.10234299,43.659067 3.00991544,43.0096418 C2.95017197,42.5894613 2.87188219,42.1717131 2.80575392,41.7522926 C2.79268029,41.6688342 2.7935924,41.5826394 2.79404846,41.4976608 C2.81578717,37.6073425 2.84208646,33.7170242 2.85333587,29.8267059 C2.85424798,29.5051857 2.94257102,29.2763971 3.18215297,29.0652428 C4.10262803,28.2534613 4.97749739,27.387409 5.99830499,26.6964827 C6.2375829,26.5344304 6.4999677,26.3977653 6.76782518,26.2887677 C7.21065653,26.1084732 7.56926936,26.2728057 7.72752114,26.7215658 C7.79927411,26.9252713 7.85476105,27.1461549 7.85901758,27.3603496 C7.88090831,28.4901549 7.89595819,29.6205682 7.89078955,30.7505254 C7.88516485,31.9859838 7.36297957,33.0118081 6.51486556,33.8736038 C6.02977292,34.3662974 5.50485131,34.8215943 4.98038575,35.2732428 C4.75828599,35.4644827 4.65354489,35.6666679 4.65932162,35.9626489 C4.68698907,37.3846347 4.68972542,38.8070765 4.72286556,40.2289102 C4.73305083,40.6652048 4.78899382,41.0960266 4.71420048,41.5356656 C4.66616247,41.8184209 4.66965891,42.1157701 4.80754014,42.3935088 C4.85344988,42.4862404 4.84645701,42.6057273 4.86150689,42.7132048 C4.878381,42.8329957 4.89054252,42.9533948 4.9087848,43.0728817 C4.94891781,43.3346584 4.98905083,43.5965872 5.03435249,43.8576038 C5.06293207,44.0225444 5.09880855,44.1864209 5.13544513,44.3498413 C5.14593444,44.3965112 5.19047601,44.4422689 5.18576342,44.4848342 C5.13529311,44.9411952 5.33413397,45.3622879 5.36894632,45.8064874 C5.37821948,45.9252143 5.41911259,46.0415088 5.44434774,46.1591715 C5.47703183,46.3114945 5.50697957,46.4642736 5.54072779,46.6162926 C5.57189169,46.7556941 5.61050451,46.8935753 5.63847601,47.0337368 C5.66675154,47.1748105 5.68408171,47.3180124 5.7096209,47.4596941 C5.7439772,47.65139 5.86528836,47.7049007 6.01882755,47.5887582 C6.10532637,47.52339 6.17510309,47.4361311 6.2559772,47.3627059 C7.0776399,46.6178128 7.98701758,45.9901264 8.90582043,45.3738413 C9.84529786,44.7435705 10.8153311,44.163314 11.8289938,43.6639316 C12.5898489,43.2890527 13.374267,42.9602356 14.1557967,42.6288342 C14.7807468,42.3638651 15.4076732,42.0975278 16.0508656,41.883029 C16.8793691,41.6066584 17.7248988,41.3812143 18.5632836,41.1340314 C18.7146945,41.0894898 18.8647373,41.0378033 19.0187325,41.0040551 C19.3735449,40.9263734 19.7304855,40.8581169 20.086362,40.7851477 C20.4647373,40.7076181 20.8425045,40.626896 21.2213359,40.5519506 C21.422761,40.5121216 21.6254024,40.4791335 21.8281957,40.4466014 C22.3994831,40.355086 22.9701625,40.2584019 23.5431221,40.1776798 C23.830438,40.1370907 24.1221625,40.1296418 24.4114546,40.1021264 C24.6881292,40.0758271 24.9643477,40.0440551 25.2404143,40.0127392 C25.4093074,39.9935848 25.5772884,39.9581644 25.7466375,39.9513235 C27.142324,39.8958366 28.5381625,39.8391335 29.934305,39.7959601 C30.5283952,39.7775658 31.1232456,39.7722451 31.7095829,39.9187914 C32.0002432,39.9914565 32.118514,39.8842831 32.13478,39.5922546 C32.1367563,39.5559221 32.1350841,39.5192855 32.1353881,39.482801 C32.1537824,36.8695943 32.1717207,34.2562356 32.1913311,31.643029 C32.1928513,31.4364352 32.1930033,31.2286252 32.2156542,31.0238556 C32.2427135,30.7781929 32.302761,30.7173853 32.5348941,30.7132808 C33.0212029,30.7047677 33.5078157,30.7043116 33.9939724,30.715257 C34.2264095,30.7204257 34.2818964,30.7877701 34.3059154,31.0310005 C34.3177729,31.1517036 34.3139724,31.2739268 34.3139724,31.395542 C34.3147325,33.2317796 34.3063715,35.0680171 34.318685,36.9041026 C34.3247658,37.8017748 34.366723,38.699447 34.3972789,39.5968152 C34.4064,39.866953 34.5331838,39.9840076 34.7961767,39.9257843 C35.8209368,39.699124 36.8525378,39.802953 37.8830746,39.8405017 C38.7687373,39.8727297 39.654552,39.9020694 40.5396067,39.946915 C40.8532219,39.962877 41.1647088,40.0214043 41.4774119,40.058801 C41.6216779,40.0759791 41.766096,40.1003021 41.9108181,40.1024304 C42.3595781,40.1092713 42.8112266,40.0718746 43.2432646,40.2465444 C43.318666,40.2769482 43.4109416,40.2720836 43.4956162,40.2731477 C44.4107705,40.2845492 45.3078347,40.410877 46.1938014,40.6475705 C46.5782575,40.7501834 46.9829321,40.7757226 47.3774214,40.8415468 C48.1714166,40.9739553 48.9363762,41.2092808 49.6905425,41.4868675 C50.0093264,41.6042261 50.3458964,41.6740029 50.6630081,41.794858 C51.8099914,42.2322166 52.9458774,42.6987629 54.0975734,43.123048 C55.4902195,43.6362641 56.7191411,44.4459173 57.9798347,45.2009957 C58.8483192,45.7212048 59.6327373,46.3532998 60.4138109,46.9911715 C60.5142955,47.0732618 60.6099154,47.1988295 60.7623905,47.1292048 C60.918514,47.0579078 61.0042527,46.9226109 60.9968038,46.7487012 C60.9861625,46.5004542 61.0252314,46.2683211 61.1438062,46.0457653 C61.1810508,45.9759886 61.1574879,45.8765682 61.1804428,45.7961501 C61.3298774,45.275485 61.2876162,44.7195515 61.4756637,44.2064874 C61.4840247,44.1836846 61.4961862,44.1598176 61.4955781,44.1367107 C61.4822005,43.6719886 61.5881577,43.2245967 61.6767848,42.7727962 C61.9043572,41.6128912 61.7494499,40.419542 61.9732219,39.2576608 C62.0074261,39.0805587 61.9996732,38.8941834 61.9998252,38.7120646 C62.0007373,35.0762261 61.9999772,31.4402356 61.9995211,27.8043971 C61.9995211,27.6871905 61.9995211,27.5701359 61.9995211,27.4529292 C62.0355496,27.4359031 62.0715781,27.418877 62.1076067,27.4018508" id="Fill-1"></path>
                            <path d="M19.3525815,6.47272589 C19.3399639,6.47166176 19.3274983,6.47044561 19.3148808,6.46938147 C19.3148808,6.29957625 19.3302347,6.12809881 19.3122964,5.96011781 C19.2303582,5.19302993 18.9314888,5.00939097 18.2101587,5.27177577 C17.8150613,5.41543373 17.7813131,5.45936722 17.7802489,5.87802755 C17.7784247,6.63082565 17.7796409,7.38362375 17.780553,8.13642185 C17.780705,8.22124846 17.7776646,8.30789929 17.7934746,8.39044561 C17.8214461,8.53729596 17.9207145,8.60737672 18.0593558,8.54459287 C18.3237169,8.42449786 18.5912703,8.30425083 18.8360209,8.14995154 C19.045047,8.01830309 19.1846005,7.81642185 19.2151563,7.55479715 C19.2572656,7.19375202 19.3063677,6.83331496 19.3525815,6.47272589 M17.7799449,12.9028257 C17.7799449,13.4003838 17.7796409,13.897942 17.7802489,14.3956523 C17.780401,14.4804789 17.7767525,14.5663696 17.7872418,14.6501321 C17.8153653,14.8784646 17.8953273,14.9303031 18.0987287,14.8295145 C18.3370945,14.7115477 18.5701397,14.5809634 18.796648,14.441562 C19.0348618,14.2950157 19.1774556,14.0777805 19.2315743,13.7983696 C19.396819,12.9431107 19.3513653,12.0842033 19.2832608,11.2246879 C19.2776361,11.1530869 19.2551373,11.081638 19.2335506,11.0123173 C19.156629,10.7648304 19.0392703,10.6742271 18.7759734,10.7009824 C18.5721159,10.721657 18.3673463,10.7625501 18.1707857,10.8207734 C17.8314793,10.9211059 17.7840494,10.9893625 17.781009,11.3371819 C17.7764485,11.8589112 17.7799449,12.3809444 17.7799449,12.9028257 M14.9630328,18.433277 C14.9502632,18.2616475 14.9339971,18.145809 14.9339971,18.0298185 C14.932933,13.6180751 14.9362774,9.20633159 14.9274603,4.79458812 C14.9268523,4.47975677 15.0363059,4.30432684 15.3187572,4.18331971 C16.5341492,3.66250261 17.725066,3.07844561 18.9997454,2.7104076 C19.4282869,2.58666413 19.8776551,2.49925321 20.3221587,2.47386603 C21.1198024,2.42826033 21.7430803,2.92125796 21.9695886,3.6912342 C22.2277169,4.56838385 22.2141872,5.46377577 22.1872798,6.36509644 C22.1588523,7.31977577 21.7596504,8.04004181 20.9382917,8.53015107 C20.8753558,8.56769976 20.7994983,8.65860713 20.8060352,8.71607031 C20.81242,8.77322945 20.9126005,8.82339572 20.9772086,8.86869739 C21.005028,8.88815582 21.0465292,8.89058812 21.0824057,8.89530071 C21.7674033,8.98423183 22.0486385,9.47631734 22.1228238,10.0807449 C22.2819876,11.3760988 22.2721064,12.6798138 22.1147667,13.9733435 C21.9867667,15.0247069 21.4318974,15.8033482 20.4241634,16.2113672 C19.6701492,16.5166214 18.90899,16.8042413 18.157104,17.1145121 C17.2376931,17.4939515 16.324971,17.889657 15.4081444,18.2757853 C15.2798404,18.329904 15.1454556,18.369277 14.9630328,18.433277" id="Fill-3"></path>
                            <path d="M27.7655411,3.25223373 C27.7415221,3.25420998 27.7173511,3.25633824 27.6933321,3.25831449 C27.668857,3.32018622 27.6310043,3.38023373 27.6220352,3.44423373 C27.5543867,3.92522185 27.493123,4.40697007 27.428515,4.88841425 C27.3315268,5.61035249 27.2324105,6.3319867 27.1361824,7.05407696 C27.0174556,7.94521235 26.8969045,8.83619572 26.7850185,9.72824323 C26.7450375,10.046267 26.8318404,10.1231886 27.1521444,10.0803192 C27.5492181,10.0271126 27.9453796,9.96691306 28.3421492,9.91188219 C28.7252371,9.85867553 28.7785957,9.77065653 28.7220447,9.37707933 C28.5374936,8.0903905 28.3637359,6.80233349 28.1817691,5.5151886 C28.0949663,4.90224798 28.0037549,4.28976342 27.9037264,3.67879905 C27.8800114,3.53286081 27.812819,3.39421948 27.7655411,3.25223373 M23.268515,15.4513026 C23.3179211,15.0492124 23.3547097,14.702305 23.4039639,14.3570698 C23.5599354,13.262381 23.7225957,12.1687563 23.8788713,11.0740675 C24.0558214,9.83435249 24.2300352,8.59418147 24.4027287,7.35385843 C24.49318,6.7039772 24.5764865,6.05318385 24.6655696,5.40315059 C24.725009,4.96989644 24.788553,4.53709834 24.8514888,4.10414822 C24.9842014,3.190362 25.1146337,2.27611971 25.2522109,1.36309359 C25.3163629,0.936680285 25.348743,0.912205226 25.7718119,0.846533017 C26.7682964,0.691777672 27.7635648,0.528813302 28.7617216,0.386067458 C29.1580352,0.32951639 29.5608855,0.319635154 29.9603914,0.284518765 C30.1476789,0.267948694 30.2162394,0.360224228 30.2417786,0.534742043 C30.4217691,1.76062328 30.6081444,2.98574442 30.7923914,4.2111696 C30.9605245,5.32911734 31.1303297,6.44706508 31.2966385,7.56531686 C31.4504817,8.59904608 31.5962679,9.63399145 31.7537596,10.6671126 C31.9019781,11.6398822 32.0558214,12.6118917 32.2166575,13.582533 C32.3367525,14.3075116 32.268952,14.2447278 31.6876314,14.27878 C30.9472988,14.3219534 30.2077264,14.3774404 29.4681539,14.430343 C29.196952,14.4498014 29.1420732,14.4128608 29.1495221,14.13421 C29.1624437,13.6480532 29.1905672,13.1623525 29.213066,12.6764998 C29.2165625,12.6036827 29.2300922,12.5310176 29.2297881,12.4583525 C29.22842,12.190799 29.1413131,12.1056684 28.8717834,12.134552 C28.4487145,12.1798537 28.0267097,12.2336684 27.605161,12.2909796 C27.3040114,12.3320247 27.0042299,12.3834071 26.7041444,12.4322052 C26.3184722,12.4951411 26.2745387,12.5433311 26.2883724,12.9268751 C26.3055506,13.4008703 26.3286575,13.8745615 26.3532846,14.3481007 C26.3753273,14.7699534 26.4514888,14.846723 25.9099971,14.9383905 C25.1556789,15.0662385 24.4106337,15.2489653 23.660876,15.4046328 C23.5494461,15.4277397 23.4342157,15.4321482 23.268515,15.4513026" id="Fill-5"></path>
                            <path d="M45.868876,4.65169026 C45.6340067,4.77786603 45.6574176,4.93642185 45.6394793,5.07399905 C45.5718309,5.5911677 45.5128475,6.10940048 45.4417026,6.62611306 C45.3161349,7.53898717 45.1847905,8.45125321 45.0546622,9.36351924 C44.9930945,9.79570926 44.9236219,10.2268352 44.8675268,10.6597853 C44.820401,11.0240228 44.8628143,11.0834622 45.2042489,11.1850109 C45.4718024,11.2645169 45.74118,11.337334 46.0088855,11.4162318 C46.1482869,11.457429 46.2878404,11.5001463 46.4237454,11.5513767 C46.6482774,11.6363553 46.8247715,11.5436238 46.7782537,11.2829112 C46.7337121,11.0328399 46.7255031,10.7763838 46.6908428,10.5241843 C46.6032798,9.88737672 46.5002109,9.25269739 46.420857,8.61497767 C46.2726385,7.42345273 46.1388618,6.23025558 45.9926195,5.0384266 C45.9775696,4.91711544 45.9179781,4.80127696 45.868876,4.65169026 M50.188648,17.5562793 C49.9052846,17.4471297 49.7094841,17.3691439 49.5120114,17.2958708 C48.8630423,17.0553767 48.2152893,16.8110822 47.5632798,16.5789492 C47.2064912,16.4518613 47.1715268,16.4182651 47.1914413,16.0269682 C47.2162204,15.5414195 47.2479924,15.0561748 47.2707952,14.5706261 C47.2904057,14.1540941 47.2417596,14.0850774 46.8533511,13.9706071 C46.1779306,13.7714622 45.5034223,13.5680608 44.8242014,13.3829017 C44.4145102,13.2713197 44.364952,13.3220941 44.3827382,13.7611249 C44.4018926,14.2346641 44.428496,14.7080513 44.4493226,15.1815905 C44.4544912,15.2986451 44.4500827,15.4161558 44.4500827,15.5525169 C44.3269473,15.5525169 44.2433368,15.5663506 44.1659591,15.5502366 C43.3455126,15.3795192 42.5256741,15.2051534 41.7062917,15.0292675 C41.4022537,14.9640513 41.3583202,14.8891059 41.405142,14.5691059 C41.5846765,13.3427686 41.756458,12.1153672 41.9425292,10.8900941 C42.0901397,9.91793254 42.2616171,8.94926746 42.4098356,7.97695392 C42.6440969,6.43988979 42.8669568,4.90100143 43.0962014,3.3631772 C43.1839164,2.7744076 43.2710233,2.18533397 43.3684675,1.59823658 C43.4195458,1.29115819 43.4873463,1.25193729 43.7878879,1.32992304 C45.1625957,1.68686366 46.5222537,2.09275439 47.8661017,2.55321995 C48.1055316,2.63531021 48.2140732,2.7560133 48.2461492,3.01155724 C48.4332846,4.50666413 48.6331895,5.99994679 48.8362869,7.49292542 C48.9852656,8.58807031 49.1506622,9.68093492 49.3000969,10.7760798 C49.4413226,11.8107211 49.5696266,12.8471867 49.7065957,13.8824361 C49.8453891,14.9303031 49.9882869,15.977714 50.1284485,17.025429 C50.1472988,17.1666546 50.1606765,17.3084884 50.188648,17.5562793" id="Fill-7"></path>
                            <path d="M34.0529406,8.80497102 C34.4176342,8.80497102 34.7824798,8.80056247 35.1470214,8.80618717 C35.5167316,8.81181188 35.5564086,8.85407316 35.560057,9.23594489 C35.5649216,9.74657672 35.5554964,10.2575126 35.5690261,10.7678404 C35.5748029,10.9846195 35.608399,11.2035268 35.6553729,11.4155933 C35.7186128,11.700629 35.9098527,11.8777311 36.1903278,11.9572371 C36.544076,12.0574176 36.8938717,12.1273463 37.2651021,12.0142442 C37.6656722,11.8923249 37.8751544,11.6173226 37.9251686,11.2276979 C37.9896247,10.7263392 37.9193919,10.2306052 37.7491306,9.75554584 C37.6474299,9.47157435 37.4280665,9.268781 37.1868124,9.10034394 C36.5495487,8.6552323 35.9080285,8.21589739 35.264228,7.78036295 C34.8013302,7.46735582 34.3230784,7.17654347 33.8674774,6.85335107 C33.1648456,6.35472874 32.7934632,5.65270499 32.6564941,4.81006366 C32.528038,4.01926081 32.5754679,3.23165036 32.6970831,2.44920855 C32.8387648,1.5367905 33.3611021,0.896790499 34.2023753,0.528904513 C34.8671544,0.238244181 35.5641615,0.0731515439 36.2943088,0.158434204 C37.2331781,0.268191924 38.1296342,0.513854632 38.9056912,1.08711829 C39.5309454,1.54895202 39.9435249,2.14471449 40.0152779,2.93536532 C40.0754774,3.60060048 40.1204751,4.26735582 40.159696,4.93426318 C40.1745938,5.18904703 40.1127221,5.24666223 39.864171,5.21990689 C39.0542138,5.1328 38.2457767,5.03292352 37.4362755,4.94201615 C37.23181,4.91906128 37.1778432,4.79258147 37.1776912,4.61411116 C37.1773872,4.28590214 37.1825558,3.95738907 37.1706983,3.62948409 C37.1637055,3.43611591 37.1491116,3.23864323 37.1015297,3.05226793 C37.00819,2.68666223 36.7614632,2.51047221 36.3821758,2.50287126 C36.0145938,2.49557435 35.7243895,2.67054822 35.6342423,3.01973587 C35.4840475,3.60151259 35.5314774,4.16489501 35.9825178,4.61395914 C36.2046176,4.83514679 36.4662423,5.01832969 36.7187458,5.20698527 C37.4779287,5.77386413 38.2615867,6.31003515 38.9955344,6.90762185 C39.4344133,7.26517055 39.8311829,7.68854347 40.1869074,8.13061473 C40.6759525,8.73869074 40.8176342,9.4936171 40.8772257,10.2482394 C40.9220713,10.8160304 40.9106698,11.3914223 40.87981,11.9608855 C40.8615677,12.2965435 40.7860143,12.636762 40.6834014,12.9581302 C40.5350309,13.4225482 40.1904038,13.7309948 39.7528931,13.9316599 C39.1946793,14.1876599 38.6101663,14.3345102 37.9929691,14.3541207 C37.1881805,14.3798119 36.3876485,14.3614176 35.60019,14.1721539 C34.8837245,14.0000684 34.2114964,13.732667 33.6353444,13.2560874 C33.2286936,12.9196694 32.9562755,12.5035933 32.8186983,11.9922014 C32.6499572,11.3639069 32.6168171,10.7210185 32.5885416,10.0772181 C32.5747078,9.7616266 32.5713634,9.44497102 32.5765321,9.12907553 C32.5813967,8.83689501 32.623658,8.79584988 32.9222233,8.78992114 C33.2989264,8.78247221 33.6760855,8.78809691 34.0529406,8.78809691 C34.0529406,8.79372162 34.0529406,8.79934632 34.0529406,8.80497102" id="Fill-9"></path>
                            <path d="M9.72111354,10.0286024 C9.69299002,10.1873102 9.66182613,10.3110537 9.65072874,10.4364694 C9.62594964,10.7146641 9.62154109,10.9948352 9.59083325,11.2721178 C9.3856076,13.1311582 9.17445321,14.9894385 8.97074774,16.8484789 C8.96132257,16.9345216 9.00495202,17.0261891 9.02380238,17.1152722 C9.12261473,17.0915572 9.2360209,17.0911012 9.31780713,17.0400228 C9.70895202,16.7958803 10.0856551,16.5280228 10.4796884,16.2885929 C10.6999639,16.1549682 10.7686765,15.9883553 10.7279354,15.7413245 C10.6269948,15.1306641 10.5342632,14.5184836 10.4474603,13.905543 C10.3608095,13.2927544 10.2841919,12.6784456 10.2052941,12.0644409 C10.1387097,11.5469682 10.0789663,11.0285834 10.0078214,10.5118708 C9.98395439,10.3390252 9.96449596,10.1526499 9.72111354,10.0286024 M11.1093511,20.4841653 C11.1032703,20.3756238 11.0891325,20.273619 11.0932371,20.1725264 C11.1143677,19.6503411 11.1452276,19.1286119 11.1599734,18.6062746 C11.1627097,18.5085264 11.1342822,18.3581796 11.0707382,18.3241273 C11.0036979,18.2880988 10.8627762,18.3388732 10.7796219,18.3916238 C10.1233558,18.8083078 9.47575487,19.2382176 8.82009691,19.6556618 C8.58036295,19.8082888 8.47349359,19.9984646 8.49796865,20.2918613 C8.5415981,20.8122223 8.54539857,21.3359278 8.58309929,21.8568969 C8.59890926,22.0759563 8.52867648,22.2278233 8.35628694,22.3556713 C7.60531306,22.9131249 6.85829169,23.4758993 6.10853397,24.0348732 C6.0728095,24.0614765 6.02385938,24.0705976 5.92231069,24.1113387 C5.91927031,23.9523268 5.90346033,23.8275192 5.91668599,23.705752 C5.98129406,23.1142461 6.05335107,22.5235002 6.12327981,21.9324504 C6.32029644,20.2678423 6.51807316,18.6032342 6.71478575,16.9384741 C6.87151734,15.6115002 7.03007316,14.2846784 7.18194014,12.9569444 C7.32407791,11.7143411 7.4656076,10.4714337 7.59178337,9.22700618 C7.62613967,8.88769976 7.75109929,8.64644561 8.03963135,8.44532447 C9.22629169,7.61879715 10.4321064,6.82328171 11.6830708,6.09723895 C11.773066,6.04509644 11.8679259,6.00146698 12.0082394,5.92940998 C12.0556694,6.11228884 12.1034033,6.24545748 12.1234698,6.38273064 C12.236572,7.15209881 12.3387287,7.92313919 12.452591,8.69235534 C12.6055221,9.72532447 12.7681824,10.7569254 12.9215696,11.7898945 C13.0144532,12.4143886 13.0941112,13.0407069 13.1860827,13.665353 C13.3204675,14.5783791 13.4616931,15.4903411 13.5977501,16.4030632 C13.708876,17.1482603 13.8073843,17.8954337 13.9314318,18.6383506 C13.973085,18.8881178 13.88461,19.0191582 13.6774081,19.1322603 C12.8680589,19.5744836 12.0646385,20.0276523 11.2577216,20.4742841 C11.2303582,20.489486 11.1893131,20.4797568 11.1093511,20.4841653" id="Fill-11"></path>
                            <path d="M57.4559012,7.31716105 C57.582077,7.38283325 57.6600627,7.41338907 57.7271031,7.46005891 C58.3853454,7.91794014 59.0362907,8.38661473 59.7013739,8.83446271 C59.9534214,9.00426793 60.030799,9.21070974 60.030039,9.50699477 C60.0212219,12.8257216 60.022286,16.1446005 60.0271506,19.4633273 C60.0276067,19.8023297 60.0569463,20.1430043 60.0975354,20.4798784 C60.1560627,20.9670993 60.4646613,21.2896836 60.862343,21.5336741 C61.1378014,21.7027192 61.3381625,21.6052751 61.3703905,21.2816266 C61.4006423,20.9798689 61.4083952,20.6749188 61.4085473,20.3711848 C61.4109796,17.1497501 61.4099154,13.9281634 61.4097634,10.7067287 C61.4097634,10.5778166 61.4097634,10.4489045 61.4097634,10.2622252 C61.5453644,10.324401 61.6283667,10.3426432 61.6847658,10.3912893 C62.3656589,10.9788428 63.0438157,11.5695886 63.7198442,12.1626147 C63.8688228,12.293199 63.9522812,12.4420257 63.9513691,12.6650375 C63.9398157,15.8135031 63.9484808,18.9621207 63.9311506,22.1105862 C63.9278062,22.7037644 63.8572694,23.2999829 63.7687943,23.8873843 C63.7350461,24.1125245 63.598533,24.3458736 63.4484903,24.5248 C63.2124048,24.8063392 62.8797872,24.9103202 62.5248228,24.7677264 C62.166058,24.6236124 61.7957397,24.4826907 61.4761957,24.2712323 C60.0754926,23.3440684 58.9376304,22.1618166 58.1370983,20.6755268 C57.734248,19.9275933 57.4929938,19.1261492 57.4666945,18.2731705 C57.438723,17.3621207 57.4210888,16.4503107 57.4189606,15.5388048 C57.4127278,12.9616266 57.4160722,10.3844485 57.4182005,7.80727031 C57.4183525,7.65692352 57.4406993,7.50672874 57.4559012,7.31716105" id="Fill-13"></path>
                            <path d="M56.5295734,25.6497406 C56.5006898,25.8516219 56.4719582,25.9656361 56.470286,26.0801064 C56.4646613,26.4558974 56.4692219,26.8316884 56.4692219,27.2074793 C56.4693739,28.0967905 56.5136114,28.1659591 57.3293454,28.5422062 C57.3402907,28.5473748 57.350476,28.5545197 57.3615734,28.5590803 C57.6329273,28.6712703 57.8275116,28.5779306 57.8548751,28.2842299 C57.8875591,27.9359544 57.9038252,27.5823582 57.8823905,27.2339306 C57.8320722,26.4160684 57.2267325,26.0562394 56.5295734,25.6497406 M56.5326138,30.4707192 C56.5123952,30.5549378 56.4727183,30.6443249 56.4721102,30.7337121 C56.4672456,31.5825862 56.4690698,32.4313083 56.4684618,33.2800304 C56.4684618,33.4355458 56.5149796,33.5719069 56.654685,33.6512608 C56.886058,33.7829093 57.1159107,33.9213986 57.3599012,34.0256836 C57.6286708,34.140762 57.8036447,34.0346527 57.8684048,33.7526575 C57.8820865,33.6938261 57.8975924,33.6330185 57.8966803,33.5732751 C57.8872551,32.9680874 57.8829986,32.3624437 57.8568513,31.7577121 C57.8509226,31.6202869 57.790571,31.4700922 57.7131933,31.3536456 C57.4523287,30.9615886 57.0636162,30.7099971 56.6723192,30.4663107 C56.6473881,30.4508048 56.6023905,30.4673748 56.5326138,30.4707192 M54.4835496,22.2198879 C54.5969558,22.2437549 54.6746375,22.2411705 54.7310366,22.2746147 C55.7855924,22.8991088 56.8687278,23.476781 57.8445378,24.228667 C58.7365853,24.9159449 59.3058964,25.8174176 59.6082622,26.8832228 C59.8452599,27.7184152 59.8662385,28.5850755 59.8489083,29.4497596 C59.8444998,29.6682109 59.8355306,29.8874223 59.8137919,30.1046575 C59.7625615,30.6158974 59.5950366,30.7519544 59.0836447,30.7183582 C59.038495,30.7154698 58.9922812,30.7320399 58.8879962,30.7492181 C58.9492599,30.8779781 58.9817919,30.9901682 59.0474641,31.0772751 C59.5631126,31.7613606 59.8098394,32.5395458 59.8248893,33.3850755 C59.8419154,34.3321539 59.8343145,35.2798404 59.8153121,36.2269188 C59.8105995,36.4639164 59.7431031,36.7068428 59.6652694,36.9336551 C59.5447183,37.284667 59.2967753,37.4064342 58.9463715,37.2787382 C58.6858109,37.1838784 58.4345235,37.053142 58.1961577,36.9100922 C57.1761102,36.2977596 56.1642717,35.6718974 55.1458964,35.0565245 C54.3079677,34.5503012 54.4596827,34.8213511 54.4581625,33.8180257 C54.4525378,30.0756219 54.4549701,26.3333701 54.4558822,22.5909663 C54.4560342,22.4760399 54.4726043,22.3611135 54.4835496,22.2198879" id="Fill-15"></path>
                            <path d="M34.5906166,24.1593007 C34.5738945,24.281828 34.5427306,24.4042033 34.5425786,24.5267306 C34.5412105,25.9972105 34.5444029,27.4678423 34.5463791,28.9384741 C34.5465311,28.9871202 34.5442508,29.0357663 34.5468352,29.0842603 C34.5558043,29.2589302 34.4644409,29.3191297 34.3007164,29.3183696 C33.729581,29.3160893 33.1584456,29.3156333 32.5873102,29.321562 C32.4045834,29.3233862 32.3109397,29.2569539 32.3246214,29.0660181 C32.3290299,29.0055145 32.3259895,28.9445549 32.3259895,28.8837473 C32.3259895,25.0188162 32.3259895,21.153885 32.3259895,17.2889539 C32.3259895,17.2281463 32.3237093,17.1673387 32.3259895,17.1066831 C32.3363268,16.8309207 32.3708352,16.7840988 32.6426451,16.7783221 C33.1529729,16.7675287 33.6636048,16.7644884 34.1739325,16.7710252 C34.5114147,16.7754337 34.545923,16.817239 34.5460751,17.1579135 C34.5465311,18.4462746 34.5427306,19.7346356 34.5448589,21.0228447 C34.5450109,21.1573815 34.5737425,21.2919183 34.5892485,21.4266071 C34.6205644,21.4343601 34.6517283,21.4421131 34.6828922,21.449866 C34.7646784,21.3395002 34.8589302,21.2361273 34.9259705,21.1174005 C35.6488209,19.8380086 36.3736475,18.5595287 37.0820561,17.2720798 C37.2273862,17.0078708 37.4020561,16.9101226 37.6965169,16.9502556 C38.177961,17.0159278 38.6635097,17.049676 39.145714,17.1103316 C39.4444314,17.1478803 39.4800038,17.2349872 39.3310252,17.4905311 C38.3641843,19.1481463 37.4000798,20.8072817 36.4271582,22.4612485 C36.2970299,22.6824361 36.2839563,22.8680513 36.3975145,23.105657 C37.3762128,25.1547211 38.3433577,27.20941 39.3118708,29.2633387 C39.361277,29.3679278 39.3919848,29.4811819 39.4535525,29.6515952 C39.2548637,29.6515952 39.1153102,29.6629967 38.9783411,29.649467 C38.5193957,29.6040133 38.0622746,29.5363648 37.6025691,29.5039848 C37.3496095,29.4861986 37.2491249,29.3343316 37.1557853,29.1392912 C36.6795097,28.1423506 36.1989777,27.1475382 35.7196618,26.1521178 C35.4510442,25.5940561 35.1850109,25.0346261 34.9109207,24.4791487 C34.8508732,24.3576855 34.761638,24.2505121 34.6857805,24.1366499 L34.5906166,24.1593007 Z" id="Fill-17"></path>
                            <path d="M46.4525986,18.7266584 C46.7539002,18.8151335 46.9860333,18.8763971 47.2136057,18.9519506 C47.535734,19.05882 47.8551259,19.1748105 48.1746698,19.2895848 C48.551677,19.4251857 48.5802565,19.4689672 48.5802565,19.8678651 C48.5799525,22.6879696 48.5785843,25.5082261 48.5819287,28.3284827 C48.5822328,28.6072855 48.5934822,28.8886727 48.6330071,29.1641311 C48.7020238,29.6437511 49.1591449,30.043409 49.6377007,30.075333 C49.8167791,30.0873425 49.9535962,30.0158936 50.0191164,29.8544494 C50.0682185,29.7334423 50.0975582,29.5984494 50.1048551,29.4678651 C50.1217292,29.1647392 50.1249216,28.8605492 50.1249216,28.5566632 C50.1259857,25.8701834 50.1246176,23.1837036 50.1259857,20.4972238 C50.1259857,20.3812333 50.1446841,20.2652428 50.1571496,20.1221929 C50.2662993,20.1407392 50.3389644,20.139371 50.39962,20.1656703 C50.8894252,20.3784969 51.3769501,20.5967962 51.8653872,20.8131192 C52.0946318,20.9145159 52.2132067,21.059238 52.2116865,21.3406252 C52.1970926,24.1850527 52.1986128,27.0296323 52.191924,29.8740599 C52.1911639,30.2264399 52.1581758,30.57882 52.1606081,30.930896 C52.1627363,31.2460314 52.0651401,31.5307629 51.9333397,31.8048532 C51.6513444,32.3911905 51.1569786,32.635333 50.5318765,32.5727012 C50.1743278,32.5369767 49.8108504,32.451542 49.4754964,32.3226299 C48.4762755,31.9384779 47.6451876,31.3316181 47.07162,30.402934 C46.663753,29.7427154 46.4907553,29.019257 46.4574632,28.2561216 C46.4367886,27.7825824 46.4276675,27.3082831 46.4270594,26.8342879 C46.4232589,24.2694233 46.4234109,21.7045587 46.423867,19.139542 C46.424019,19.0226394 46.439677,18.9058888 46.4525986,18.7266584" id="Fill-19"></path>
                            <path d="M11.3923496,25.0704722 C11.3523686,25.2355648 11.3213568,25.3333131 11.3063069,25.4334936 C11.282896,25.589161 11.2774233,25.7477169 11.2523401,25.9030803 C11.0182309,27.3519734 10.7786489,28.7999544 10.5481881,30.2493036 C10.5083591,30.5002869 10.4936133,30.756591 10.4870765,31.0109188 C10.4819078,31.2118879 10.5959221,31.2780162 10.7667914,31.1782917 C11.3006822,30.8665007 11.8291002,30.5455886 12.3616228,30.2318214 C12.554991,30.1179591 12.6203591,29.9659401 12.5694328,29.7432323 C12.4234945,29.1047525 12.2862214,28.4641444 12.1504684,27.8233843 C11.9999696,27.1122394 11.8523591,26.4004865 11.7090052,25.6879734 C11.6681121,25.484724 11.6296513,25.2855791 11.3923496,25.0704722 M12.7535278,34.5721159 C12.7535278,34.4267857 12.7498793,34.3208285 12.7541359,34.2153273 C12.7742024,33.7051515 12.8024779,33.1952798 12.8153995,32.685104 C12.8226964,32.3892751 12.7208437,32.3204105 12.4640836,32.4672608 C11.7682926,32.8649425 11.0822309,33.2798024 10.3922166,33.6876694 C10.2155705,33.7919544 10.1579553,33.9462537 10.1652523,34.1482869 C10.1850147,34.6947952 10.1807582,35.2423677 10.2091857,35.78842 C10.2228675,36.0498926 10.1418413,36.2165055 9.91715724,36.3589473 C9.41473444,36.6774271 8.92964181,37.0234223 8.43558005,37.3554318 C8.36869169,37.4004295 8.29085796,37.429161 8.17973207,37.484496 C8.16833064,37.3716979 8.14537577,37.292952 8.15495297,37.2183107 C8.35014537,35.7124105 8.54381758,34.2062062 8.74873919,32.7016741 C8.89619762,31.6185387 9.06661093,30.5387477 9.21376532,29.4557644 C9.38387458,28.2034318 9.54030214,26.9494271 9.70144228,25.6960304 C9.76954679,25.1656361 9.84221188,24.6358499 9.89724276,24.1040874 C9.91974157,23.8879164 10.0200741,23.7357454 10.1947439,23.6314603 C11.0392095,23.1267572 11.8847392,22.6238784 12.7342214,22.1275363 C12.9329102,22.0115458 13.0338508,22.0627762 13.0864494,22.3163439 C13.1750765,22.7441254 13.2456133,23.1758594 13.3166062,23.6071373 C13.5022214,24.7339021 13.683276,25.8614271 13.867523,26.9883439 C14.0165017,27.8992418 14.163504,28.8104437 14.3191715,29.7201254 C14.4645017,30.5697596 14.6212333,31.4174176 14.77082,32.2662917 C14.8298033,32.6011895 14.8817938,32.9371515 14.939257,33.2723534 C14.9669245,33.4341017 14.9255753,33.5555648 14.7699078,33.6344627 C14.163352,33.9416931 13.5592285,34.2536361 12.9523686,34.5601064 C12.9143639,34.5794128 12.8602451,34.5669473 12.7535278,34.5721159" id="Fill-21"></path>
                            <path d="M51.2506831,3.95901568 C51.3800513,3.99093967 51.4639658,3.99717245 51.5343506,4.0312247 C52.2550727,4.38010831 52.9719943,4.73735297 53.6940846,5.08334822 C53.9351867,5.19903468 54.0081558,5.37248836 54.0073957,5.63548124 C53.9991867,8.96469739 54.0011629,12.2939135 54.0005549,15.6231297 C54.0005549,15.7445929 54.0048114,15.8662081 54.0007069,15.9875192 C53.99341,16.2056665 54.0872057,16.3449159 54.2840703,16.449809 C54.7554812,16.7009444 55.2104741,16.9826356 55.6832532,17.2308827 C55.9739135,17.3835097 56.1000893,17.5787021 56.0861036,17.9227211 C56.057372,18.6262651 56.0781986,19.3317853 56.0762223,20.0365454 C56.0759183,20.1648494 56.0636048,20.2931534 56.0534195,20.4891059 C55.8723648,20.4029112 55.7417805,20.3519848 55.6224456,20.281904 C54.3340846,19.5243933 53.0169919,18.8208494 51.649429,18.217486 C51.3265406,18.0750442 51.2032532,17.8924694 51.2041653,17.5321843 C51.2161748,13.1823126 51.2116143,8.83244086 51.2135905,4.48256912 C51.2137425,4.31930071 51.2360893,4.1560323 51.2506831,3.95901568" id="Fill-23"></path>
                            <path d="M6.21817007,9.85721615 C6.241581,10.0346223 6.26362375,10.1253777 6.26377577,10.216133 C6.26620808,10.9940143 6.25906318,11.7720475 6.26788029,12.5497767 C6.27031259,12.7653397 6.19627933,12.9158385 6.03073064,13.0496152 C5.56768076,13.423734 5.11968076,13.8168551 4.65328646,14.1865653 C4.42312969,14.3689881 4.33571876,14.5790784 4.33647886,14.8738432 C4.34499192,18.2770926 4.33891116,21.680342 4.34864038,25.0835914 C4.34940048,25.3775962 4.26335772,25.5803895 4.04597055,25.7777102 C3.40733872,26.3573587 2.78968551,26.960114 2.16230309,27.552228 C2.12201805,27.5902328 2.06972352,27.6154679 1.98808931,27.6701948 C1.96498242,27.5583088 1.93549074,27.4819952 1.93549074,27.4055297 C1.93457862,24.0630879 1.93670689,20.7204941 1.93655487,17.3780523 C1.93655487,17.239867 1.91664038,17.1015297 1.89915819,16.8747173 C1.72904893,16.991924 1.61351449,17.0472589 1.52975202,17.1336057 C1.17433159,17.4998195 0.828944418,17.8757625 0.478692637,18.2468409 C0.389457482,18.3413967 0.295509739,18.4315439 0.150179572,18.5774822 C0.118407601,18.4213587 0.0863315914,18.336228 0.0860275534,18.2507933 C0.0822270784,17.4487411 0.0869396675,16.6463848 0.0816190024,15.8443325 C0.0804028504,15.6739192 0.138778147,15.5486556 0.252944418,15.4233919 C1.99994679,13.5067363 3.86795629,11.7186888 5.88707268,10.0899572 C5.96916295,10.023677 6.05976627,9.968038 6.21817007,9.85721615" id="Fill-25"></path>
                            <path d="M40.6144304,23.6008589 C40.6147344,21.6799468 40.6147344,19.7588827 40.6145824,17.8379705 C40.6145824,17.7893245 40.6129102,17.7406784 40.6145824,17.6920323 C40.6252238,17.3849539 40.658972,17.3425406 40.9590575,17.3913387 C41.4622404,17.473277 41.9649672,17.5628162 42.4617653,17.6759183 C42.8162736,17.7566404 42.8220504,17.7862841 42.8225064,18.1502176 C42.8237226,19.3417425 42.8229625,20.5332675 42.8229625,21.7247924 C42.8229625,23.60922 42.8228105,25.4937995 42.8229625,27.3782271 C42.8229625,27.4876808 42.818858,27.5975905 42.8278271,27.7062841 C42.8485017,27.9610679 42.8933473,28.0112342 43.147067,28.0752342 C43.6412808,28.1998898 44.1357986,28.3228732 44.6303164,28.4464646 C45.0292143,28.5461891 45.0783164,28.6091249 45.0780124,29.0191202 C45.0777083,29.5175905 45.0821169,30.0162128 45.075428,30.5145311 C45.0714755,30.8079278 44.9978983,30.8544456 44.7166632,30.7715952 C43.5853378,30.4386736 42.4337938,30.193771 41.2737368,29.985961 C41.1899743,29.9709112 41.1059078,29.9578375 41.0222974,29.9414195 C40.6369292,29.8661701 40.6142784,29.8381986 40.6142784,29.4367164 C40.6141264,27.4914812 40.6141264,25.5460941 40.6144304,23.6008589" id="Fill-27"></path>
                            <path d="M22.043409,30.8405207 C22.0312475,30.6597701 22.0148295,30.5299458 22.0146774,30.3999696 C22.0131572,26.5207487 22.0134613,22.6415278 22.0123971,18.7623069 C22.0122451,18.371314 22.0224304,18.3320931 22.4087107,18.2446822 C22.9056608,18.1323401 23.3959221,17.9902024 23.890896,17.8678271 C24.1167962,17.8120361 24.1684827,17.8558176 24.1862689,18.0963116 C24.1943259,18.2051572 24.1893093,18.315067 24.1893093,18.4245207 C24.1893093,21.4039411 24.1893093,24.3832095 24.1894613,27.3626299 C24.1894613,27.4720836 24.1847487,27.5821454 24.1944779,27.690839 C24.218801,27.9659933 24.3005872,28.0196561 24.5780219,27.9652333 C25.0784684,27.867029 25.5784589,27.7665444 26.0807297,27.6780694 C26.4209482,27.6181739 26.4572808,27.6535943 26.4597131,28.0056703 C26.4633615,28.5163021 26.4644257,29.027086 26.4604732,29.5378698 C26.4578888,29.8498128 26.4239886,29.8905539 26.1197986,29.9512095 C25.5237321,30.0699363 24.923409,30.1692048 24.3306869,30.3022214 C23.7270195,30.4375183 23.130801,30.6059553 22.5300219,30.7547819 C22.3831715,30.7912665 22.2313045,30.8079886 22.043409,30.8405207" id="Fill-29"></path>
                            <path d="M20.6060694,29.0473045 C20.6233995,29.1851857 20.6469625,29.2888627 20.6477226,29.3926917 C20.6518271,29.915181 20.6516751,30.4378223 20.6493948,30.9603116 C20.6478746,31.2654138 20.6255278,31.3022024 20.3219458,31.3988865 C19.083599,31.7932238 17.875504,32.267523 16.6774423,32.7688817 C16.4161216,32.8783354 16.3527297,32.8386584 16.3349435,32.5615278 C16.3303829,32.4890147 16.3338793,32.4157416 16.3338793,32.3429245 C16.3337273,28.514934 16.3337273,24.6870955 16.3337273,20.859257 C16.3337273,20.7862879 16.3361596,20.7133188 16.3337273,20.6405017 C16.3271905,20.4459173 16.4170337,20.3209577 16.5970242,20.2490527 C17.0933663,20.050972 17.5862119,19.8437701 18.0842261,19.6500979 C18.3423544,19.5496133 18.4153235,19.603124 18.4297653,19.8731097 C18.4343259,19.9579363 18.4302214,20.043219 18.4302214,20.1283496 C18.4302214,23.1419743 18.4300694,26.1557511 18.4300694,29.1693758 C18.4300694,29.7544969 18.4372143,29.7596656 18.9893473,29.5696418 C19.4247297,29.419599 19.8587439,29.2652998 20.2948865,29.1169292 C20.3822974,29.0872855 20.4759411,29.0757321 20.6060694,29.0473045" id="Fill-31"></path>
                            <path d="M27.8797226,29.6711145 C27.8628485,29.5101264 27.8379173,29.3819743 27.8379173,29.2538223 C27.8357891,25.3505824 27.8357891,21.4473425 27.8368532,17.5439506 C27.8370052,17.1518936 27.8541834,17.1307629 28.234839,17.0875895 C28.7301169,17.0314945 29.2261549,16.9816323 29.7224969,16.9358746 C29.9971952,16.9106394 30.0388485,16.9527487 30.0535943,17.2286632 C30.0569387,17.2893188 30.0537463,17.3502784 30.0537463,17.411086 C30.0537463,21.2413568 30.0537463,25.0717796 30.0537463,28.9020504 C30.0537463,29.4730337 30.0531382,29.4651287 29.4690812,29.5049577 C29.1180694,29.5289767 28.7691857,29.5833995 28.419086,29.6217083 C28.2529292,29.6399506 28.0861644,29.6524162 27.8797226,29.6711145" id="Fill-33"></path>
                        </g>
                    </g>
                </g>
            </g>
        </g>
    </g>
</svg>