<?xml version="1.0" encoding="UTF-8"?>
<svg width="80px" height="84px" viewBox="0 0 80 84" version="1.1" xmlns="http://www.w3.org/2000/svg" xmlns:xlink="http://www.w3.org/1999/xlink">
    <!-- Generator: Sketch 46.2 (44496) - http://www.bohemiancoding.com/sketch -->
    <title>tabasalu</title>
    <desc>Created with Sketch.</desc>
    <defs>
        <filter x="-0.5%" y="-4.6%" width="100.9%" height="107.9%" filterUnits="objectBoundingBox" id="filter-1">
            <feOffset dx="0" dy="-1" in="SourceAlpha" result="shadowOffsetOuter1"></feOffset>
            <feGaussianBlur stdDeviation="2" in="shadowOffsetOuter1" result="shadowBlurOuter1"></feGaussianBlur>
            <feColorMatrix values="0 0 0 0 0   0 0 0 0 0   0 0 0 0 0  0 0 0 0.2 0" type="matrix" in="shadowBlurOuter1" result="shadowMatrixOuter1"></feColorMatrix>
            <feMerge>
                <feMergeNode in="shadowMatrixOuter1"></feMergeNode>
                <feMergeNode in="SourceGraphic"></feMergeNode>
            </feMerge>
        </filter>
    </defs>
    <g id="web" stroke="none" stroke-width="1" fill="none" fill-rule="evenodd">
        <g id="Desktop-HD" transform="translate(-651.000000, -914.000000)" fill="#000000">
            <g id="Group-2" filter="url(#filter-1)" transform="translate(0.000000, 880.000000)">
                <g id="Group" transform="translate(164.000000, 21.000000)">
                    <g id="tabasalu" transform="translate(491.000000, 18.000000)">
                        <path d="M5.24703848,35.4887829 C5.24703848,35.6799848 5.24686746,35.8711867 5.24703848,36.0625596 C5.24738052,36.3765549 5.23865843,36.6912342 5.25473444,37.0045454 C5.25866793,37.081676 5.32895772,37.1806974 5.39719525,37.2196903 C5.43772732,37.2429492 5.5480361,37.1844599 5.60276295,37.1355477 C5.77566556,36.9811154 5.93984608,36.8164219 6.10248741,36.6508732 C6.34448266,36.4046024 6.54218337,36.1284029 6.64154679,35.7926879 C6.85925701,35.057296 6.80435914,34.3049729 6.77254917,33.5548732 C6.76861568,33.4620086 6.73389834,33.3670917 6.69781283,33.2795287 C6.59160855,33.0209444 6.46505273,32.9610869 6.22066318,33.0922603 C5.99337577,33.2143696 5.78678195,33.3744456 5.57026888,33.5165644 C5.33135202,33.67322 5.23455392,33.8909302 5.24310499,34.177562 C5.25610261,34.6143506 5.24652542,35.0516523 5.24703848,35.4887829 M38.6919791,64.9012105 C38.667181,64.9012105 38.6423829,64.9012105 38.6175848,64.9012105 C38.6175848,66.6921463 38.6218603,68.4830822 38.6155325,70.2740181 C38.6127962,71.025828 38.5821834,71.777467 38.5755135,72.529448 C38.5722641,72.9038138 38.6656418,72.9889824 39.0319696,73.0047164 C39.0730147,73.0064266 39.1140599,73.0050584 39.155105,73.0045454 C39.9888342,72.9958233 40.8225634,72.977866 41.6562926,72.9806024 C42.3933948,72.9831677 43.1304969,73.0156618 43.867599,73.0218185 C44.2761691,73.025239 44.6938033,73.0508922 45.090915,72.977524 C45.5106014,72.9000513 45.9243021,72.849771 46.3498033,72.8432722 C46.5914565,72.8396808 46.8320836,72.7765739 47.0735658,72.7421986 C47.275542,72.713467 47.4785444,72.6907211 47.6803496,72.6595952 C48.187428,72.5812675 48.6941644,72.5000323 49.2009007,72.4187971 C49.227238,72.4145216 49.250839,72.3953672 49.2771762,72.3892105 C49.4478556,72.3502176 49.619219,72.313961 49.7900694,72.2747971 C49.9345824,72.24179 50.0790955,72.2075857 50.2229245,72.1709872 C50.3279316,72.1444789 50.4310575,72.1104456 50.5362356,72.0847924 C50.9172713,71.9917568 51.3046347,71.9197568 51.6788295,71.8050014 C52.3422214,71.601657 53.0009957,71.3818945 53.6558366,71.1522128 C54.2703164,70.9367259 54.8842831,70.7166214 55.4850812,70.4662461 C55.9131477,70.2878708 56.3196656,70.057847 56.7343924,69.8480038 C57.1120076,69.6568019 57.1586964,69.5174195 56.9408152,69.1370679 C56.7851857,68.865486 56.6021929,68.609638 56.4315135,68.3466071 C55.619504,67.0943886 54.7447297,65.8869777 53.7093663,64.8109112 C52.8857273,63.9547781 52.0266869,63.1313102 51.1572143,62.321353 C50.1919696,61.4222936 49.0770812,60.7197378 47.9401311,60.0667781 C46.9109245,59.4757283 45.8387914,58.9565074 44.723219,58.5405834 C43.8400646,58.2113672 42.9610147,57.8640228 42.059219,57.5953482 C41.0926062,57.3071772 40.1015373,57.1009254 39.1209007,56.8601273 C38.859409,56.7958233 38.7326822,56.8825311 38.6974518,57.1489824 C38.6885587,57.2163648 38.6921501,57.2854575 38.6921501,57.353866 C38.6919791,59.8695905 38.6919791,62.385315 38.6919791,64.9012105 M36.2379933,64.9728684 C36.2119981,64.9728684 36.1861739,64.9728684 36.1603496,64.9728684 C36.1603496,63.153543 36.1603496,61.3340466 36.1603496,59.5147211 C36.1603496,58.7623981 36.1651382,58.009904 36.1584684,57.257581 C36.154877,56.8522603 36.0423449,56.7877853 35.6479696,56.8921083 C34.9879981,57.0667211 34.3280266,57.2449254 33.6605302,57.3861891 C32.6802356,57.593467 31.7373948,57.9242223 30.8065254,58.2748162 C29.8371762,58.6399468 28.8931382,59.0784456 27.9574803,59.5258375 C26.57101,60.1887164 25.2842451,61.0222746 24.0918841,61.9888874 C23.466801,62.4956238 22.8839601,63.0589682 22.3163401,63.6308637 C21.6237036,64.3289729 20.9216608,65.0262271 20.3063259,65.7905216 C19.5274945,66.7579895 18.8293853,67.7906166 18.1032285,68.7999848 C17.9924067,68.9540751 17.9058698,69.129372 17.8306204,69.3044979 C17.7382689,69.5187876 17.7878651,69.6822841 18.0012998,69.7828447 C18.8396466,70.1770489 19.6728627,70.5866451 20.531048,70.9329634 C21.211371,71.2072817 21.9207677,71.4130204 22.6258888,71.6204694 C23.2097558,71.7923458 23.7731002,72.0451154 24.3911715,72.0940276 C24.483523,72.1012105 24.571599,72.1525169 24.6630955,72.1788542 C24.7799031,72.2122033 24.8965397,72.2501701 25.0159126,72.2700086 C25.4692903,72.3450869 25.9240361,72.4124694 26.3775848,72.4861796 C26.4304304,72.4947306 26.4783164,72.5308162 26.530991,72.5426166 C26.715181,72.5841748 26.899029,72.6296665 27.0856133,72.6561748 C27.2744209,72.6828542 27.4808437,72.6489919 27.6539173,72.7119278 C28.0522261,72.8569539 28.4577178,72.8514812 28.8678271,72.8514812 C29.0176418,72.8514812 29.1758366,72.8444694 29.3159031,72.8873957 C29.794934,73.03379 30.2840551,73.041657 30.7774518,73.0440513 C31.0226964,73.0452485 31.267257,73.0939895 31.5126727,73.1071582 C31.9616038,73.1311012 32.410877,73.1521368 32.8601501,73.1596618 C33.1743164,73.1649634 33.4889957,73.1504266 33.803162,73.1360608 C34.499561,73.1045929 35.1963021,73.0727829 35.8921881,73.0303696 C36.187371,73.0122413 36.2633045,72.9108257 36.2552665,72.6055525 C36.2523591,72.4962698 36.2386774,72.3869872 36.2386774,72.2778755 C36.2376513,69.8428732 36.2379933,67.4078708 36.2379933,64.9728684 M36.1695848,50.7520988 L36.1524827,50.7520988 C36.1524827,49.6714147 36.1560741,48.5905596 36.1507724,47.5098755 C36.1485492,47.0688114 36.0536323,46.9901416 35.6100029,46.9959563 C35.1044637,47.0026261 34.5984114,46.993562 34.0930432,47.0086119 C32.6580029,47.0511962 31.2217653,47.0775335 29.7887772,47.1587686 C28.6848342,47.2211914 27.5839696,47.3465501 26.4839601,47.4643838 C25.8053473,47.5370679 25.1304969,47.6446404 24.4549625,47.7434907 C24.0771762,47.7989017 23.6971667,47.8502081 23.3253663,47.9350347 C22.6867724,48.0809159 22.0548485,48.2553577 21.4183069,48.4111582 C20.0901549,48.7359278 18.8037321,49.1942651 17.5263734,49.6709017 C16.6315895,50.0045644 15.771523,50.4319468 14.8969197,50.8198233 C13.2065444,51.56941 11.6098888,52.4905311 10.0462404,53.4723648 C9.64091971,53.7268447 9.25629264,54.0285264 8.82326651,54.2210964 C8.27206461,54.465999 7.86948029,54.9029587 7.37266318,55.2126784 C7.27090546,55.2759563 7.17068694,55.369334 7.1159601,55.4731439 C7.05661568,55.585505 7.00103373,55.7399373 7.03130451,55.8524694 C7.15751829,56.3239753 7.30664893,56.7900086 7.46621188,57.2515952 C7.66151829,57.8166499 7.87084846,58.377258 8.08342803,58.9361558 C8.26659192,59.4182651 8.42854917,59.9128589 8.66045416,60.3711962 C9.08458717,61.209201 9.47725226,62.0615715 9.98501473,62.8607544 C10.4257368,63.5544171 10.8726157,64.2292675 11.443314,64.8232247 C11.7256703,65.1173815 11.9591145,65.457885 12.2305254,65.7633292 C12.3731572,65.9237473 12.5477701,66.0562888 12.7121216,66.1963553 C12.7841216,66.257752 12.8718556,66.3008494 12.9436846,66.3625881 C13.4085207,66.7620941 13.8160646,67.2245359 14.3513615,67.5469112 C14.8627154,67.8549207 15.3408912,68.217828 15.8423259,68.5429397 C16.0523401,68.6790727 16.1818033,68.6233197 16.291428,68.3820086 C16.3589815,68.2330489 16.4022499,68.0728019 16.4739078,67.9262366 C17.0085207,66.8323838 17.5906774,65.769315 18.3007582,64.7732865 C19.0919031,63.6638708 20.0232855,62.6881938 21.010934,61.7622841 C21.5484542,61.2584551 22.1087202,60.777543 22.6789055,60.3108257 C23.2280551,59.8615525 23.7809672,59.4103981 24.3718461,59.0204694 C25.2837321,58.4186451 26.2036561,57.8234907 27.203447,57.3701131 C27.9369577,57.0376475 28.6641406,56.6887639 29.4103069,56.3874242 C30.1188485,56.1011344 30.8462024,55.8603363 31.5697938,55.6128684 C32.0079506,55.4628827 32.4517511,55.3277758 32.8982879,55.2046404 C33.2918081,55.0960418 33.6916561,55.009847 34.0901359,54.9198898 C34.5787439,54.809581 35.0656418,54.6867876 35.5590385,54.6045264 C36.03482,54.5253435 36.1690717,54.3989587 36.1694138,53.9122318 C36.1700979,52.8589112 36.1695848,51.8055905 36.1695848,50.7520988 M38.6948865,50.7702271 L38.683428,50.7702271 C38.683428,51.8374005 38.682915,52.9045739 38.683599,53.9715762 C38.6839411,54.337733 38.7845017,54.4836143 39.1125207,54.5677568 C39.427542,54.6486499 39.7452998,54.7196238 40.0630575,54.7888874 C40.7539838,54.9393862 41.4580789,55.0438803 42.1339553,55.2446594 C43.1407582,55.5436048 44.1371287,55.8841083 45.1203306,56.2535145 C46.1556941,56.6425881 47.1804542,57.0644979 48.1434755,57.6182651 C48.6172048,57.8907021 49.1017083,58.1465501 49.5602166,58.4427591 C50.2364352,58.8797188 50.9090622,59.3254005 51.5544969,59.8059705 C52.1335753,60.2369444 52.6866584,60.705543 53.227599,61.1842318 C53.6980789,61.6003268 54.1263164,62.0634527 54.5894423,62.4882698 C55.5442546,63.3637283 56.3306109,64.3794242 57.0312855,65.4582271 C57.627124,66.3755857 58.1560931,67.3348447 58.571504,68.3520798 C58.6951525,68.6549587 58.7852808,68.6828352 59.0710575,68.5113007 C59.3857368,68.3224931 59.6978508,68.1266736 59.9957701,67.9125549 C60.4479506,67.5876143 60.890896,67.2491629 61.3304209,66.9072912 C61.6522831,66.6569159 61.9686727,66.3985026 62.275485,66.129999 C62.4280361,65.9964314 62.5585254,65.8365264 62.6898698,65.6807259 C62.8126632,65.5353577 62.9103164,65.3674147 63.0414898,65.2309397 C63.5723401,64.6795667 64.1049007,64.1247734 64.5112475,63.4760893 C64.9589815,62.761562 65.4157796,62.0496 65.7644922,61.2764124 C65.9331192,60.9029017 66.1586964,60.5540181 66.3115895,60.1750347 C66.6163496,59.4192912 66.899219,58.6543126 67.171314,57.8860846 C67.4071525,57.2202983 67.6176798,56.545619 67.834877,55.873334 C67.8961026,55.6838423 67.8360741,55.5117948 67.6850622,55.3941321 C67.2333948,55.0421701 66.7815563,54.689353 66.3129577,54.3608209 C66.0459933,54.1737235 65.7427724,54.0394717 65.4616133,53.8715287 C64.4298413,53.2551677 63.4161976,52.6063126 62.3666394,52.0219325 C60.3448247,50.8960988 58.2231335,49.985752 56.0462024,49.2041843 C55.6612333,49.065999 55.2740409,48.9326024 54.8827439,48.8137425 C54.3209387,48.6434052 53.7572523,48.4771724 53.1889482,48.329923 C52.5676276,48.1689919 51.9454518,47.9996808 51.3138698,47.8915952 C50.3053568,47.7190347 49.2901739,47.5799943 48.2744779,47.4529254 C47.3938888,47.3427876 46.5105634,47.2350442 45.6250147,47.1861321 C44.0959126,47.1018185 42.5644162,47.0585501 41.0334328,47.0089539 C40.4052713,46.9886024 39.7759126,46.9923648 39.147238,46.993733 C38.8387154,46.9944171 38.7260124,47.1045549 38.6984779,47.4048684 C38.6899268,47.4997853 38.6950575,47.5962413 38.6950575,47.6918423 C38.6948865,48.7179705 38.6948865,49.7440988 38.6948865,50.7702271 M69.8710575,30.8270822 C69.9752095,30.9050679 70.0851762,30.9767259 70.1826584,31.0625786 C70.6037131,31.4328399 71.0100599,31.8208874 71.4439411,32.1752437 C71.7035515,32.3873102 71.7882071,32.6281083 71.787181,32.9559563 C71.7777748,36.3760418 71.7808532,39.7961273 71.7805112,43.2162128 C71.7803401,43.8727639 71.7820504,44.529486 71.7799981,45.1860371 C71.7779458,45.8136855 71.8000076,46.4382556 71.643352,47.0606024 C71.5477511,47.4406119 71.5742594,47.849695 71.5169672,48.241505 C71.2264019,50.2289444 70.9589245,52.2206594 70.6160266,54.1992057 C70.4487677,55.1644504 70.1489672,56.1081463 69.8826869,57.0542366 C69.6974708,57.7118138 69.4927582,58.3663126 69.2517891,59.0054195 C68.6544114,60.5906166 68.0772143,62.1864171 67.1974803,63.6474527 C66.8946014,64.1505976 66.6062594,64.6634907 66.282858,65.1531249 C66.0812238,65.4585691 65.8255468,65.7282698 65.5958651,66.0154147 C65.2640836,66.4303126 64.9405112,66.8520513 64.5996656,67.2594242 C64.4611382,67.4248019 64.2875515,67.5609349 64.1283306,67.7088684 C64.0282831,67.801733 63.9113045,67.8802318 63.8261359,67.9848969 C63.355143,68.5643173 62.7765777,69.0236808 62.1687677,69.4426831 C61.1570052,70.1399373 60.1288247,70.8132485 59.107143,71.4961368 C59.0503639,71.5339325 58.9937558,71.5744646 58.9318461,71.601828 C57.483124,72.2405929 56.0785254,72.9824836 54.5685777,73.4784456 C53.9327202,73.6872627 53.299257,73.905486 52.6563876,74.0903601 C52.0937273,74.2521463 51.5242261,74.3988827 50.9490812,74.5056 C50.3204067,74.6220656 49.6816418,74.6834622 49.0476656,74.7718803 C48.9260694,74.7888114 48.8056703,74.8154907 48.6859553,74.8435382 C47.5260884,75.1146071 46.3525397,75.3153862 45.1651382,75.3878993 C44.4304304,75.4327069 43.6893948,75.361733 42.9512665,75.3653245 C41.3650432,75.3728494 39.7769387,75.3531819 38.1941359,75.4325359 C37.6047962,75.4621226 37.0291382,75.4378375 36.4498888,75.3928589 C34.907276,75.2728019 33.3636371,75.2527924 31.8172618,75.2731439 C31.2174898,75.2810109 30.6168627,75.1965264 30.0160646,75.1677948 C29.1146109,75.1245264 28.211276,75.1125549 27.3117036,75.0472247 C26.9638461,75.0219135 26.6264209,74.8743221 26.2794185,74.8065976 C26.0413568,74.7600798 25.795086,74.7544361 25.5522356,74.7325454 C25.4843401,74.7263886 25.4133663,74.7385311 25.3478651,74.7236523 C24.5113995,74.5327924 23.6583449,74.4436903 22.8210242,74.2292295 C22.0392855,74.0287924 21.2896988,73.737714 20.5103544,73.537961 C20.0359411,73.4161938 19.5685397,73.2441463 19.1214898,73.0425121 C18.3257273,72.6835382 17.4854993,72.417429 16.7494233,71.9283078 C16.6160266,71.8395477 16.4569767,71.7755857 16.3004922,71.7386451 C15.9991525,71.6673292 15.7540789,71.5065691 15.5031905,71.3352057 C14.9058128,70.9274907 14.2863734,70.5524409 13.6896798,70.1438708 C12.731447,69.4876618 11.7680836,68.8381226 10.9906204,67.9541131 C10.6586679,67.5766689 10.2713045,67.2479658 9.92840665,66.8792437 C9.71582708,66.6507591 9.539162,66.3890964 9.34727601,66.1414575 C9.30571781,66.0877568 9.27613112,66.0231107 9.22841615,65.9762508 C8.61479145,65.3727164 8.22263943,64.617315 7.78841615,63.8903031 C6.90782708,62.4155857 6.30360855,60.8151677 5.67715724,59.2260371 C5.45192209,58.6544836 5.2968057,58.0555667 5.09568456,57.4740941 C4.55765131,55.9179705 4.23305273,54.3107116 3.95634014,52.6935335 C3.83645416,51.993885 3.76975582,51.2851724 3.6775753,50.5807354 C3.58180333,49.8489349 3.49013587,49.1164504 3.38615487,48.385847 C3.31894347,47.9131439 3.23086746,47.4431772 3.15647316,46.9713292 C3.14176532,46.8774385 3.14279145,46.7804694 3.14330451,46.6848684 C3.16776057,42.3082603 3.19734727,37.9316523 3.21000285,33.5550442 C3.21102898,33.193334 3.3103924,32.9359468 3.57992209,32.6983981 C4.61545653,31.7851439 5.59968456,30.8108352 6.74809311,30.033543 C7.01728076,29.8512342 7.31246366,29.697486 7.61380333,29.5748637 C8.1119886,29.3720323 8.51542803,29.5569064 8.69346128,30.0617615 C8.77418337,30.2909302 8.83660618,30.5394242 8.84139477,30.7803933 C8.86602185,32.0514242 8.88295297,33.3231392 8.87713824,34.5943411 C8.87081045,35.9842318 8.28335202,37.1382841 7.32922375,38.1078043 C6.78349454,38.6620846 6.19295772,39.1742936 5.60293397,39.6823981 C5.35307173,39.897543 5.235238,40.1250014 5.24173682,40.45798 C5.27286271,42.057714 5.27594109,43.657961 5.31322375,45.257524 C5.32468219,45.7483553 5.38761805,46.2330299 5.30347553,46.7276238 C5.24943278,47.0457235 5.25336627,47.3802413 5.40848266,47.6926974 C5.46013112,47.7970204 5.45226413,47.9314432 5.46919525,48.0523553 C5.48817862,48.1871202 5.50186033,48.3225691 5.5223829,48.4569919 C5.56753254,48.7514907 5.61268219,49.0461606 5.66364656,49.3398043 C5.69579857,49.5253625 5.73615962,49.7097235 5.77737577,49.8935715 C5.78917625,49.9460751 5.83928551,49.9975525 5.83398385,50.0454385 C5.77720475,50.5588447 6.00090071,51.0325739 6.04006461,51.5322983 C6.05049691,51.665866 6.09650166,51.7966974 6.12489121,51.9290679 C6.16166081,52.1004314 6.19535202,52.2723078 6.23331876,52.4433292 C6.26837815,52.6001558 6.31181758,52.7552722 6.34328551,52.9129539 C6.37509549,53.0716618 6.39459192,53.2327639 6.42332352,53.3921558 C6.46197435,53.6078138 6.59844941,53.6680133 6.771181,53.537353 C6.86849216,53.4638138 6.94699097,53.3656475 7.03797435,53.2830442 C7.96234489,52.4450394 8.98539477,51.7388922 10.019048,51.0455715 C11.0759601,50.3365169 12.1672475,49.6837283 13.3076181,49.121923 C14.16358,48.7001843 15.0460504,48.3302651 15.9252713,47.9574385 C16.6283401,47.6593482 17.3336323,47.3597188 18.0572238,47.1184076 C18.9892903,46.8074907 19.9405112,46.553866 20.8836941,46.2757853 C21.0540314,46.225676 21.2228295,46.1675287 21.3960741,46.129562 C21.795238,46.0421701 22.1967962,45.9653815 22.5971572,45.8832912 C23.0228295,45.7960703 23.4478176,45.705258 23.8740029,45.6209444 C24.1006062,45.5761368 24.3285777,45.5390252 24.5567202,45.5024266 C25.1994185,45.3994717 25.8414328,45.2907021 26.4860124,45.1998898 C26.8092428,45.1542271 27.1374328,45.145847 27.4628865,45.1148922 C27.7741454,45.0853055 28.0848912,45.049562 28.395466,45.0143316 C28.5854708,44.9927829 28.7744494,44.9529349 28.9649672,44.945239 C30.5351145,44.8828162 32.1054328,44.8190252 33.6760931,44.7704551 C34.3444447,44.7497615 35.0136513,44.7437758 35.6732808,44.9086404 C36.0002736,44.9903886 36.1333283,44.8698185 36.1516276,44.5412865 C36.1538508,44.5004124 36.1519696,44.4591962 36.1523116,44.4181511 C36.1730052,41.4782936 36.1931857,38.5382651 36.2152475,35.5984076 C36.2169577,35.3659895 36.2171287,35.1322033 36.2426109,34.9018375 C36.2730527,34.625467 36.3406062,34.5570584 36.6017558,34.5524409 C37.1488532,34.5428637 37.6962926,34.5423506 38.243219,34.5546641 C38.5047107,34.5604789 38.5671335,34.6362413 38.5941549,34.9098755 C38.6074945,35.0456665 38.603219,35.1831677 38.603219,35.3199848 C38.6040741,37.385752 38.5946679,39.4515192 38.6085207,41.5171154 C38.6153615,42.5269967 38.6625634,43.5368779 38.6969387,44.5464171 C38.7072,44.8503221 38.8498318,44.9820086 39.1456988,44.9165074 C40.2985539,44.6615145 41.459105,44.7783221 42.6184589,44.8205644 C43.6148295,44.8568209 44.611371,44.889828 45.6070575,44.9402793 C45.9598746,44.9582366 46.3102974,45.0240798 46.6620884,45.0661511 C46.8243876,45.0854765 46.986858,45.1128399 47.1496703,45.1152342 C47.6545254,45.1229302 48.1626299,45.0808589 48.6486727,45.2773625 C48.7334993,45.3115667 48.8373093,45.3060941 48.9325682,45.3072912 C49.9621169,45.3201178 50.971314,45.4622366 51.9680266,45.7285169 C52.4005397,45.8439563 52.8557986,45.8726879 53.299599,45.9467401 C54.1928437,46.0956998 55.0534233,46.3604409 55.9018603,46.6727259 C56.2604922,46.8047544 56.6391335,46.8832532 56.9958841,47.0192152 C58.2862404,47.5112437 59.5641121,48.0361083 60.8597701,48.513429 C62.4264969,49.0907971 63.8090337,50.001657 65.227314,50.8511202 C66.2043591,51.4363553 67.0868295,52.1474622 67.9655373,52.8650679 C68.0785824,52.9574195 68.1861549,53.0986831 68.3576893,53.0203553 C68.5333283,52.9401463 68.6297843,52.7879373 68.6214043,52.5922888 C68.6094328,52.3130109 68.6533853,52.0518613 68.7867819,51.801486 C68.8286822,51.7229872 68.8021739,51.6111392 68.8279981,51.5206689 C68.9961121,50.9349207 68.9485682,50.3094955 69.1601216,49.7322983 C69.1695278,49.7066451 69.1832095,49.6797948 69.1825254,49.6537995 C69.1674755,49.1309872 69.2866774,48.6276713 69.3863829,48.1193957 C69.6424019,46.8145026 69.4681311,45.4719848 69.7198746,44.1648684 C69.7583544,43.9656285 69.7496323,43.7559563 69.7498033,43.5510727 C69.7508295,39.4607544 69.7499743,35.3702651 69.7494613,31.2799468 C69.7494613,31.1480893 69.7494613,31.0164029 69.7494613,30.8845454 C69.7899933,30.865391 69.8305254,30.8462366 69.8710575,30.8270822" id="Fill-1"></path>
                        <path d="M21.7716542,7.28181663 C21.7574594,7.28061948 21.7434356,7.27925131 21.7292409,7.27805416 C21.7292409,7.08702328 21.746514,6.89411116 21.7263335,6.70513254 C21.634153,5.84215867 21.2979249,5.63556485 20.4864285,5.93074774 C20.0419439,6.09236295 20.0039772,6.14178812 20.00278,6.612781 C20.0007278,7.45967886 20.002096,8.30657672 20.0031221,9.15347458 C20.0032931,9.24890451 19.9998727,9.3463867 20.0176589,9.43925131 C20.0491268,9.60445796 20.1608038,9.68329881 20.3167753,9.61266698 C20.6141815,9.4775601 20.9151791,9.34228219 21.1905235,9.16869549 C21.4256779,9.02059097 21.5826755,8.79347458 21.6170508,8.49914679 C21.6644238,8.09297102 21.7196637,7.68747933 21.7716542,7.28181663 M20.002438,14.5156789 C20.002438,15.0754318 20.002096,15.6351848 20.00278,16.1951088 C20.0029511,16.2905387 19.9988466,16.3871658 20.010647,16.4813986 C20.042286,16.7382727 20.1322432,16.796591 20.3610698,16.6832038 C20.6292314,16.5504912 20.8914071,16.4035838 21.146229,16.2467572 C21.4142195,16.0818926 21.5746375,15.8375031 21.6355211,15.5231658 C21.8214214,14.5609995 21.770286,13.5947287 21.6936684,12.6277739 C21.6873406,12.5472228 21.6620295,12.4668428 21.6377444,12.388857 C21.5512076,12.1104342 21.4191791,12.0085055 21.1229701,12.0386052 C20.8936304,12.0618641 20.6632646,12.1078689 20.442134,12.1733701 C20.0604143,12.2862442 20.0070556,12.3630328 20.0036352,12.7543297 C19.9985045,13.3412751 20.002438,13.9285625 20.002438,14.5156789 M16.8334119,20.7374366 C16.8190461,20.5443534 16.8007468,20.4140352 16.8007468,20.2835458 C16.7995496,15.3203344 16.8033121,10.357123 16.7933929,5.39391164 C16.7927088,5.03972637 16.9158442,4.8423677 17.2336019,4.70623468 C18.6009178,4.12031544 19.9406993,3.46325131 21.3747135,3.04920855 C21.8568228,2.90999715 22.362362,2.81165986 22.8624285,2.78309929 C23.7597777,2.73179287 24.4609653,3.2864152 24.7157872,4.15263848 C25.0061815,5.13943183 24.9909606,6.14674774 24.9606898,7.16073349 C24.9287088,8.23474774 24.4796067,9.04504703 23.5555781,9.59641995 C23.4847753,9.63866223 23.3994356,9.74093302 23.4067895,9.8055791 C23.4139724,9.86988314 23.5266755,9.92632019 23.5993596,9.97728456 C23.6306565,9.9991753 23.6773454,10.0019116 23.7177064,10.0072133 C24.4883287,10.1072608 24.8047183,10.660857 24.8881767,11.340838 C25.0672361,12.7981112 25.0561197,14.2647905 24.8791126,15.7200114 C24.7351126,16.9027952 24.1108846,17.7787667 22.9771838,18.2377881 C22.1289178,18.581199 21.2726138,18.9047715 20.426742,19.2538261 C19.3924048,19.6806955 18.3655924,20.1258641 17.3341625,20.5602584 C17.1898204,20.621142 17.0386375,20.6654366 16.8334119,20.7374366" id="Fill-3"></path>
                        <path d="M31.2362337,3.65876295 C31.2092124,3.66098622 31.18202,3.66338052 31.1549986,3.6656038 C31.1274641,3.7352095 31.0848798,3.80276295 31.0747895,3.87476295 C30.998685,4.41587458 30.9297634,4.95784133 30.8570793,5.49946603 C30.7479677,6.31164656 30.6364618,7.12348504 30.5282052,7.93583658 C30.3946375,8.9383639 30.2590176,9.94072019 30.1331458,10.9442736 C30.0881672,11.3020504 30.1858204,11.3885872 30.5461625,11.3403591 C30.9928703,11.2805017 31.438552,11.2127772 31.8849178,11.1508675 C32.3158917,11.09101 32.3759202,10.9919886 32.3123002,10.5492143 C32.1046803,9.10168931 31.9092029,7.65262518 31.7044903,6.20458717 C31.6068371,5.51502898 31.5042242,4.82598385 31.3916922,4.13864893 C31.3650128,3.97446841 31.2894214,3.81849691 31.2362337,3.65876295 M26.1770793,17.3827154 C26.2326613,16.9303639 26.2740485,16.5400931 26.3294594,16.1517036 C26.5049273,14.9201786 26.6879202,13.6898508 26.8637302,12.4583259 C27.062799,11.0636466 27.2587895,9.66845416 27.4530698,8.27309074 C27.5548276,7.54197435 27.6485473,6.80983183 27.7487658,6.07854442 C27.8156352,5.59113349 27.8871221,5.10423563 27.9579249,4.61716675 C28.1072266,3.58915724 28.2539629,2.56063468 28.4087373,1.53348029 C28.4809083,1.05376532 28.5173359,1.02623088 28.9932884,0.952349644 C30.1143335,0.778249881 31.2340105,0.594914964 32.3569368,0.434325891 C32.8027895,0.370705938 33.2559962,0.359589549 33.7054404,0.32008361 C33.9161387,0.30144228 33.9932694,0.405252257 34.022001,0.601584798 C34.2244903,1.98070119 34.4341625,3.35896247 34.6414404,4.7375658 C34.83059,5.99525701 35.0216209,7.25294822 35.2087183,8.51098147 C35.3817919,9.67392684 35.5458014,10.8382404 35.7229796,12.0005017 C35.8897254,13.0948675 36.062799,14.1883781 36.2437397,15.2803496 C36.3788466,16.0959506 36.302571,16.0253188 35.6485853,16.0636276 C34.8157112,16.1121976 33.9836922,16.1746204 33.1516732,16.2341359 C32.846571,16.2560266 32.7848323,16.2144684 32.7932124,15.9009862 C32.8077492,15.3540599 32.8393881,14.8076466 32.8646993,14.2610622 C32.8686328,14.179143 32.8838537,14.0973948 32.8835116,14.0156466 C32.8819724,13.7146489 32.7839772,13.618877 32.4807563,13.651371 C32.0048038,13.7023354 31.5300485,13.762877 31.0558062,13.827352 C30.7170128,13.8735278 30.3797587,13.931333 30.0421625,13.9862309 C29.6082812,14.0570337 29.5588561,14.1112475 29.574419,14.5427344 C29.5937444,15.0759791 29.6197397,15.6088817 29.6474451,16.1416133 C29.6722432,16.6161976 29.7579249,16.7025634 29.1487468,16.8056893 C28.3001387,16.9495183 27.4619629,17.155086 26.6184855,17.3302119 C26.4931268,17.3562071 26.3634926,17.3611667 26.1770793,17.3827154" id="Fill-5"></path>
                        <path d="M51.6024855,5.23315154 C51.3382575,5.37509929 51.3645948,5.55347458 51.3444143,5.70824893 C51.2683097,6.29006366 51.2019534,6.87307553 51.1219154,7.4543772 C50.9806518,8.48136057 50.8328893,9.50765986 50.686495,10.5339591 C50.6172314,11.0201729 50.5390746,11.5051895 50.4759677,11.9922584 C50.4229511,12.4020257 50.470666,12.468895 50.85478,12.5831373 C51.1557777,12.6725815 51.4588276,12.7545007 51.7599962,12.8432608 C51.9168228,12.8896076 52.0738204,12.9376646 52.2267135,12.9952988 C52.4793121,13.0908998 52.6778679,12.9865767 52.6255354,12.6932751 C52.5754261,12.4119449 52.566191,12.1234318 52.5271981,11.8397074 C52.4286898,11.1232988 52.3127373,10.4092846 52.2234641,9.69184988 C52.0567183,8.35138432 51.9062195,7.00903753 51.7416969,5.66822993 C51.7247658,5.53175487 51.6577254,5.40143658 51.6024855,5.23315154 M56.462229,19.7508143 C56.1434451,19.6280209 55.9231696,19.5402869 55.7010128,19.4578546 C54.9709226,19.1872988 54.2422005,18.9124675 53.5086898,18.6513178 C53.1073026,18.5083439 53.0679677,18.4705482 53.0903715,18.0303392 C53.118248,17.4840969 53.1539914,16.9381967 53.1796447,16.3919544 C53.2017064,15.9233558 53.1469796,15.8457121 52.71002,15.716933 C51.950172,15.492895 51.1913501,15.2640684 50.4272266,15.0557644 C49.966324,14.9302347 49.910571,14.9873558 49.9305805,15.4812656 C49.9521292,16.0139971 49.982058,16.5465577 50.0054879,17.0792893 C50.0113026,17.2109758 50.006343,17.3431753 50.006343,17.4965815 C49.8678157,17.4965815 49.7737539,17.5121444 49.686704,17.4940162 C48.7637017,17.3019591 47.8413834,17.1057976 46.9195781,16.9079259 C46.5775354,16.8345577 46.5281102,16.7502442 46.5807848,16.3902442 C46.782761,15.0106147 46.9760152,13.6297881 47.1853454,12.2513558 C47.3514071,11.1576741 47.5443192,10.0679259 47.7110651,8.97407316 C47.974609,7.24487601 48.2253264,5.5136266 48.4832266,3.78357435 C48.5819059,3.12120855 48.6799012,2.45850071 48.7895259,1.79801615 C48.8469891,1.45255297 48.9232646,1.40842945 49.2613739,1.49616342 C50.8079202,1.89772162 52.3375354,2.35434869 53.8493644,2.87237245 C54.118723,2.96472399 54.2408323,3.10051496 54.2769178,3.3880019 C54.4874451,5.06999715 54.7123382,6.74994014 54.9408228,8.42954109 C55.1084238,9.6615791 55.294495,10.8910518 55.462609,12.1230898 C55.6214879,13.2870613 55.7658299,14.453085 55.9199202,15.6177406 C56.0760627,16.796591 56.2368228,17.9749283 56.3945045,19.1536076 C56.4157112,19.3124865 56.430761,19.4720494 56.462229,19.7508143" id="Fill-7"></path>
                        <path d="M38.3095582,9.9055924 C38.7198385,9.9055924 39.1302898,9.90063278 39.540399,9.90696057 C39.956323,9.91328836 40.0009596,9.9608323 40.0050641,10.390438 C40.0105368,10.9648988 39.9999335,11.5397017 40.0151544,12.1138204 C40.0216532,12.3576969 40.0594489,12.6039677 40.1122945,12.8425425 C40.1834394,13.1632076 40.3985843,13.3624475 40.7141188,13.4518917 C41.1120855,13.5645948 41.5056057,13.6432646 41.9232399,13.5160247 C42.3738812,13.3788656 42.6095487,13.0694879 42.6658147,12.6311601 C42.7383278,12.0671316 42.6593159,11.5094309 42.467772,10.9749891 C42.3533587,10.6555211 42.1065748,10.4273786 41.8351639,10.2378869 C41.1182423,9.73713634 40.3965321,9.24288456 39.6722565,8.75290831 C39.1514964,8.4007753 38.6134632,8.0736114 38.1009121,7.71001995 C37.3104513,7.14906983 36.8926461,6.35929311 36.7385558,5.41132162 C36.5940428,4.52166841 36.6474014,3.63560665 36.7842185,2.75535962 C36.9436105,1.72888931 37.5312399,1.00888931 38.4776722,0.595017577 C39.2255487,0.268024703 40.0096817,0.0822954869 40.8310974,0.17823848 C41.8873254,0.301715914 42.8958385,0.578086461 43.7689026,1.22300808 C44.4723135,1.74257102 44.9364656,2.4128038 45.0171876,3.30228599 C45.0849121,4.05067553 45.1355344,4.8007753 45.179658,5.55104608 C45.1964181,5.83767791 45.1268124,5.90249501 44.8471924,5.87239525 C43.9359905,5.7744 43.0264988,5.66203895 42.11581,5.55976817 C41.8857862,5.53394394 41.8250736,5.39165416 41.8249026,5.19087506 C41.8245606,4.8216399 41.8303753,4.45206271 41.8170356,4.0831696 C41.8091686,3.8656304 41.7927506,3.64347363 41.7392209,3.43380143 C41.6342138,3.02249501 41.3566461,2.82428124 40.9299477,2.81573017 C40.5164181,2.80752114 40.1899382,3.00436675 40.0885226,3.39720285 C39.9195534,4.05170166 39.9729121,4.68550689 40.4803325,5.19070404 C40.7301948,5.43954014 41.0245226,5.6456209 41.3085891,5.85785843 C42.1626698,6.49559715 43.044285,7.09878955 43.8699762,7.77107458 C44.363715,8.17331686 44.8100808,8.6496114 45.2102708,9.14694157 C45.7604466,9.83102708 45.9198385,10.6803192 45.9868789,11.5292694 C46.0373302,12.1680342 46.0245036,12.8153501 45.9897862,13.4559962 C45.9692637,13.8336114 45.884266,14.2163572 45.7688266,14.5778964 C45.6019097,15.1003667 45.2142043,15.4473691 44.7220048,15.6731173 C44.0940143,15.9611173 43.4364371,16.126324 42.7420903,16.1483857 C41.8367031,16.1772884 40.9361045,16.1565948 40.0502138,15.9436732 C39.24419,15.750077 38.4879335,15.4492504 37.8397625,14.9130983 C37.3822803,14.534628 37.07581,14.0665425 36.9210356,13.4912266 C36.7312019,12.7843952 36.6939192,12.0611458 36.6621093,11.3368703 C36.6465463,10.9818299 36.6427838,10.6255924 36.6485986,10.27021 C36.6540713,9.94150689 36.7016152,9.89533112 37.0375012,9.88866128 C37.4612922,9.88028124 37.8855962,9.88660903 38.3095582,9.88660903 C38.3095582,9.89293682 38.3095582,9.89926461 38.3095582,9.9055924" id="Fill-9"></path>
                        <path d="M10.9362527,11.2821777 C10.9046138,11.460724 10.8695544,11.5999354 10.8570698,11.741028 C10.8291933,12.0539971 10.8242337,12.3691895 10.7896874,12.6811325 C10.5588086,14.772553 10.3212599,16.8631183 10.0920912,18.9545387 C10.0814879,19.0513368 10.130571,19.1544627 10.1517777,19.2546812 C10.2629416,19.2280019 10.3905235,19.2274888 10.482533,19.1700257 C10.922571,18.8953653 11.346362,18.5940257 11.7896494,18.324667 C12.0374594,18.1743392 12.114761,17.9868998 12.0689273,17.70899 C11.9553691,17.0219971 11.8510461,16.3332941 11.7533929,15.6437359 C11.6559107,14.9543487 11.5697159,14.2632513 11.4809558,13.572496 C11.4060485,12.9903392 11.3388371,12.4071563 11.258799,11.8258546 C11.2319487,11.6314033 11.210058,11.4217311 10.9362527,11.2821777 M12.49802,23.044686 C12.4911791,22.9225767 12.4752741,22.8078214 12.4798917,22.6940922 C12.5036637,22.1066337 12.538381,21.5196884 12.5549701,20.9320589 C12.5580485,20.8220922 12.5260675,20.652952 12.4545805,20.6146432 C12.3791601,20.5741112 12.2206233,20.6312323 12.1270746,20.6905767 C11.3887753,21.1593463 10.6602242,21.6429948 9.92260903,22.1126195 C9.65290831,22.2843249 9.53268029,22.4982727 9.56021473,22.8283439 C9.60929786,23.4137501 9.6135734,24.0029188 9.6559867,24.589009 C9.67377292,24.8354508 9.59476105,25.0063012 9.4008228,25.1501302 C8.5559772,25.7772656 7.71557815,26.4103867 6.87210071,27.0392323 C6.83191069,27.069161 6.77684181,27.0794223 6.66259952,27.1252561 C6.6591791,26.9463677 6.64139287,26.8059591 6.65627173,26.668971 C6.72895582,26.0035268 6.81001995,25.3389378 6.88868979,24.6740067 C7.11033349,22.8013226 7.3328323,20.9286385 7.55413397,19.0557834 C7.73045701,17.5629378 7.9088323,16.0702632 8.07968266,14.5765625 C8.23958765,13.1786337 8.39880855,11.7803629 8.54075629,10.3803819 C8.57940713,9.99866223 8.7199867,9.72725131 9.04458527,9.50099002 C10.3795781,8.57114679 11.7361197,7.67619192 13.1434546,6.85939382 C13.2446993,6.80073349 13.3514166,6.75165036 13.5092694,6.67058622 C13.562628,6.87632494 13.6163287,7.02613967 13.6389036,7.18057197 C13.7661435,8.04611116 13.8810698,8.91353159 14.0091648,9.77889976 C14.1812124,10.94099 14.3642052,12.1015411 14.5367658,13.2636314 C14.6412599,13.9661872 14.7308751,14.6707952 14.834343,15.3735221 C14.9855259,16.4006765 15.1444048,17.4266337 15.2974689,18.4534461 C15.4224855,19.2917929 15.5333074,20.1323629 15.6728608,20.9681444 C15.7197207,21.2491325 15.6201862,21.396553 15.3870841,21.5237929 C14.4765663,22.0212941 13.5727183,22.5311088 12.6649368,23.0335696 C12.634153,23.0506717 12.5879772,23.0397264 12.49802,23.044686" id="Fill-11"></path>
                        <path d="M64.6378888,8.23180618 C64.7798366,8.30568741 64.8675705,8.34006271 64.942991,8.39256627 C65.6835135,8.90768266 66.4158271,9.43494157 67.1640456,9.93877055 C67.447599,10.1298014 67.5346489,10.3620485 67.5337938,10.6953691 C67.5238746,14.4289368 67.5250717,18.1626755 67.5305444,21.8962432 C67.5310575,22.2776209 67.5640646,22.6608798 67.6097273,23.0398632 C67.6755705,23.5879867 68.0227439,23.9508941 68.4701359,24.2253834 C68.7800266,24.4155591 69.0054328,24.3059344 69.0416893,23.9418299 C69.0757226,23.6023525 69.0844447,23.2592836 69.0846157,22.9175829 C69.087352,19.2934689 69.0861549,15.6691838 69.0859838,12.0450698 C69.0859838,11.9000437 69.0859838,11.7550176 69.0859838,11.5450033 C69.2385349,11.6149511 69.3319126,11.6354736 69.3953615,11.6902005 C70.1613663,12.3511981 70.9242926,13.0157872 71.6848247,13.6829416 C71.8524257,13.8298489 71.9463164,13.9972789 71.9452903,14.2481672 C71.9322926,17.790191 71.9420409,21.3323857 71.9225444,24.8744095 C71.9187819,25.5417349 71.839428,26.2124808 71.7398936,26.8733074 C71.7019268,27.12659 71.5483496,27.3891078 71.3795515,27.5904 C71.1139553,27.9071316 70.7397606,28.0241102 70.3404257,27.8636922 C69.9368152,27.7015639 69.5202071,27.5430271 69.1607202,27.3051363 C67.5849292,26.262077 66.3048342,24.9320437 65.4042356,23.2599677 C64.951029,22.4185425 64.6796181,21.5169178 64.6500314,20.5573169 C64.6185634,19.5323857 64.5987249,18.5065995 64.5963306,17.4811553 C64.5893188,14.5818299 64.5930812,11.6825045 64.5954755,8.7831791 C64.5956466,8.61403895 64.6207867,8.44506983 64.6378888,8.23180618" id="Fill-13"></path>
                        <path d="M63.5957701,28.8559582 C63.563276,29.0830746 63.530953,29.2113406 63.5290717,29.3401197 C63.5227439,29.7628846 63.5278746,30.1856494 63.5278746,30.6084143 C63.5280456,31.6088893 63.5778128,31.686704 64.4955135,32.1099819 C64.5078271,32.1157967 64.5192855,32.1238347 64.5317701,32.1289653 C64.8370432,32.2551791 65.0559506,32.150172 65.0867344,31.8197587 C65.123504,31.4279487 65.1418033,31.030153 65.1176893,30.638172 C65.0610812,29.718077 64.3800741,29.3132694 63.5957701,28.8559582 M63.5991905,34.2795591 C63.5764447,34.374305 63.5318081,34.4748656 63.531124,34.5754261 C63.5256513,35.5304095 63.5277036,36.4852219 63.5270195,37.4400342 C63.5270195,37.6149891 63.579352,37.7683952 63.7365207,37.8576684 C63.9968152,38.0057729 64.2553995,38.1615734 64.5298888,38.2788941 C64.8322546,38.4083572 65.0291002,38.2889843 65.1019553,37.9717397 C65.1173473,37.9055544 65.1347914,37.8371458 65.1337653,37.7699344 C65.123162,37.0890983 65.1183734,36.4077492 65.0889577,35.7274261 C65.0822879,35.5728228 65.0143924,35.4038537 64.9273425,35.2728513 C64.6338698,34.8317872 64.1965682,34.5487468 63.7563591,34.2745995 C63.7283116,34.2571553 63.6776893,34.2757967 63.5991905,34.2795591 M61.2939933,24.9973739 C61.4215753,25.0242242 61.5089672,25.0213169 61.5724162,25.0589416 C62.7587914,25.7614974 63.9773188,26.4113786 65.075105,27.2572504 C66.0786584,28.030438 66.7191335,29.0445948 67.059295,30.2436257 C67.3259173,31.1832171 67.3495183,32.15821 67.3300219,33.1309796 C67.3250622,33.3767373 67.314972,33.6233501 67.2905159,33.8677397 C67.2328817,34.4428846 67.0444162,34.5959487 66.4691002,34.558153 C66.4183069,34.5549036 66.3663164,34.5735449 66.2489957,34.5928703 C66.3179173,34.7377254 66.3545159,34.8639392 66.4283971,34.9619344 C67.0085017,35.7315306 67.2860694,36.6069891 67.3030005,37.55821 C67.3221549,38.6236732 67.3136038,39.6898204 67.2922261,40.7552836 C67.2869245,41.0219059 67.210991,41.2951981 67.123428,41.550362 C66.9878081,41.9452504 66.7088722,42.0822385 66.3146679,41.9385805 C66.0215373,41.8318632 65.738839,41.6847848 65.4706774,41.5238537 C64.323124,40.8349796 63.1848057,40.1308846 62.0391335,39.43859 C61.0964637,38.8690888 61.267143,39.17402 61.2654328,38.0452789 C61.259105,33.8350746 61.2618413,29.6250413 61.2628675,25.4148371 C61.2630385,25.2855449 61.2816798,25.1562527 61.2939933,24.9973739" id="Fill-15"></path>
                        <path d="M38.9144437,27.1792133 C38.8956314,27.3170565 38.860572,27.4547287 38.860401,27.592572 C38.8588618,29.2468618 38.8624532,30.9013226 38.8646765,32.5557834 C38.8648475,32.6105102 38.8622822,32.6652371 38.8651895,32.7197929 C38.8752798,32.9162964 38.772496,32.9840209 38.5883059,32.9831658 C37.9457786,32.9806005 37.3032513,32.9800874 36.660724,32.9867572 C36.4551563,32.9888095 36.3498071,32.9140732 36.365199,32.6992703 C36.3701587,32.6312038 36.3667382,32.5626242 36.3667382,32.4942157 C36.3667382,28.1461682 36.3667382,23.7981207 36.3667382,19.4500732 C36.3667382,19.3816646 36.3641729,19.3132561 36.3667382,19.2450185 C36.3783677,18.9347857 36.4171895,18.8821112 36.7229758,18.8756124 C37.2970945,18.8634698 37.8715553,18.8600494 38.4456741,18.8674033 C38.8253416,18.8723629 38.8641634,18.9193938 38.8643344,19.3026527 C38.8648475,20.7520589 38.860572,22.2014651 38.8629663,23.6507002 C38.8631373,23.8020542 38.8954603,23.9534081 38.9129045,24.104933 C38.9481349,24.1136551 38.9831943,24.1223772 39.0182537,24.1310993 C39.1102632,24.0069378 39.2162964,23.8906432 39.2917169,23.7570755 C40.1049235,22.3177596 40.9203534,20.8794698 41.7173131,19.4310898 C41.8808095,19.1338546 42.0773131,19.0238879 42.4085815,19.0690375 C42.9502062,19.1429188 43.4964485,19.1808855 44.0389283,19.249123 C44.3749853,19.2913653 44.4150043,19.3893606 44.2474033,19.6768475 C43.1597074,21.5416646 42.0750898,23.4081919 40.980553,25.2689045 C40.8341587,25.5177406 40.8194508,25.7265577 40.9472038,25.9938641 C42.0482394,28.2990613 43.1362774,30.6105862 44.2258546,32.9212561 C44.2814366,33.0389188 44.3159829,33.1663297 44.3852466,33.3580447 C44.1617216,33.3580447 44.004724,33.3708713 43.8506337,33.3556504 C43.3343202,33.304515 42.8200589,33.2284105 42.3028903,33.1919829 C42.0183107,33.1719734 41.9052656,33.001123 41.8002584,32.7817026 C41.2644485,31.6601444 40.7238499,30.5409805 40.1846195,29.4211325 C39.8824247,28.7933131 39.5831373,28.1639544 39.2747857,27.5390423 C39.2072323,27.4023962 39.1068428,27.2818261 39.0215031,27.1537311 L38.9144437,27.1792133 Z" id="Fill-17"></path>
                        <path d="M52.2591734,21.0674907 C52.5981378,21.1670252 52.8592874,21.2359468 53.1153064,21.3209444 C53.4777007,21.4411724 53.8370166,21.5716618 54.1965036,21.7007829 C54.6206366,21.853334 54.6527886,21.9025881 54.6527886,22.3513482 C54.6524466,25.5239658 54.6509074,28.6967544 54.6546698,31.869543 C54.6550119,32.1831962 54.6676675,32.4997568 54.712133,32.8096475 C54.7897767,33.34922 55.304038,33.7988352 55.8424133,33.8347496 C56.0438765,33.8482603 56.1977957,33.7678803 56.2715059,33.5862556 C56.3267458,33.4501226 56.359753,33.2982556 56.367962,33.1513482 C56.3869454,32.8103316 56.3905368,32.4681178 56.3905368,32.1262461 C56.391734,29.1039563 56.3901948,26.0816665 56.391734,23.0593767 C56.391734,22.9288874 56.4127696,22.7983981 56.4267933,22.637467 C56.5495867,22.6583316 56.6313349,22.6567924 56.6995724,22.6863791 C57.2506033,22.925809 57.7990689,23.1713957 58.3485606,23.4147591 C58.6064608,23.5288304 58.7398575,23.6916428 58.7381473,24.0082033 C58.7217292,27.2081843 58.7234394,30.4083363 58.7159145,33.6083173 C58.7150594,34.0047449 58.6779477,34.4011724 58.6806841,34.797258 C58.6830784,35.1517853 58.5732827,35.4721083 58.4250071,35.7804599 C58.1077625,36.4400893 57.551601,36.7147496 56.848361,36.6442888 C56.4461188,36.6040988 56.0372067,36.5079848 55.6599335,36.3629587 C54.53581,35.9307876 53.6008361,35.2480703 52.9555724,34.2033007 C52.4967221,33.4605549 52.3020998,32.6466641 52.2646461,31.7881368 C52.2413872,31.2554052 52.2311259,30.7218185 52.2304418,30.1885739 C52.2261663,27.3031012 52.2263373,24.4176285 52.2268504,21.5319848 C52.2270214,21.4004694 52.2446366,21.2691249 52.2591734,21.0674907" id="Fill-19"></path>
                        <path d="M12.8163933,28.2042812 C12.7714147,28.3900105 12.7365264,28.4999772 12.7195952,28.6126803 C12.693258,28.7878062 12.6871012,28.9661815 12.6588827,29.1409653 C12.3955097,30.7709701 12.12598,32.3999487 11.8667116,34.0304665 C11.821904,34.3128228 11.805315,34.6011648 11.797961,34.8872836 C11.7921463,35.1133739 11.9204124,35.1877682 12.1126404,35.0755781 C12.7132675,34.7248133 13.3077378,34.3637872 13.9068257,34.010799 C14.1243648,33.882704 14.197904,33.7116827 14.1406119,33.4611363 C13.9764314,32.7428466 13.821999,32.0221625 13.669277,31.3013074 C13.4999658,30.5012694 13.333904,29.7005473 13.1726309,28.8989701 C13.1266261,28.6703145 13.0833577,28.4462765 12.8163933,28.2042812 M14.3477188,38.8936304 C14.3477188,38.730134 14.3436143,38.6109321 14.3484029,38.4922432 C14.3709777,37.9182955 14.4027876,37.3446898 14.4173245,36.770742 C14.4255335,36.4379344 14.3109492,36.3604618 14.0220941,36.5256684 C13.2393292,36.9730603 12.4675097,37.4397777 11.6912437,37.898628 C11.4925169,38.0159487 11.4276998,38.1895354 11.4359088,38.4168228 C11.4581416,39.0316447 11.453353,39.6476637 11.485334,40.2619724 C11.5007259,40.5561292 11.4095715,40.7435686 11.1568019,40.9038157 C10.5915762,41.2621055 10.045847,41.6513501 9.49002755,42.0248608 C9.41477815,42.0754831 9.3272152,42.1078062 9.20219857,42.170058 C9.18937197,42.0431601 9.16354774,41.954571 9.17432209,41.8705995 C9.39391354,40.1764618 9.61179477,38.4819819 9.84233159,36.7893834 C10.0082223,35.5708561 10.1999373,34.3560912 10.365486,33.1377349 C10.5568589,31.7288608 10.7328399,30.3181055 10.9141226,28.9080342 C10.9907401,28.3113406 11.0724884,27.7153311 11.1343981,27.1170983 C11.1597093,26.8739059 11.2725834,26.7027135 11.4690869,26.5853929 C12.4191107,26.0176019 13.3703316,25.4518632 14.325999,24.8934784 C14.549524,24.7629891 14.6630822,24.8206233 14.7222556,25.1058869 C14.821961,25.5871411 14.901315,26.0728418 14.9811819,26.5580295 C15.189999,27.8256399 15.3936855,29.0941055 15.6009634,30.3618869 C15.7685644,31.386647 15.933942,32.4117492 16.1090679,33.4351411 C16.2725644,34.3909796 16.4488874,35.3445948 16.6171724,36.2995781 C16.6835287,36.6763382 16.7420181,37.0542955 16.8066641,37.4313976 C16.83779,37.6133644 16.7912722,37.7500105 16.6161463,37.8387705 C15.933771,38.1844048 15.2541321,38.5353406 14.5714147,38.8801197 C14.5286594,38.9018394 14.4677758,38.8878157 14.3477188,38.8936304" id="Fill-21"></path>
                        <path d="M57.6570185,4.45389264 C57.8025577,4.48980713 57.8969615,4.496819 57.9761444,4.53512779 C58.7869568,4.92762185 59.5934936,5.32952209 60.4058451,5.71876675 C60.677085,5.84891401 60.7591753,6.04404941 60.7583202,6.33991639 C60.749085,10.0852846 60.7513083,13.8306527 60.7506242,17.5760209 C60.7506242,17.712667 60.7554128,17.8494841 60.7507952,17.9859591 C60.7425862,18.2313748 60.8481064,18.3880304 61.0695791,18.5060352 C61.5999164,18.7885625 62.1117834,19.1054651 62.6436599,19.384743 C62.9706527,19.5564485 63.1126005,19.7760399 63.0968665,20.1630613 C63.0645435,20.9545482 63.0879734,21.7482584 63.0857501,22.5411135 C63.0854081,22.6854556 63.0715553,22.8297976 63.0600969,23.0502442 C62.8564105,22.9532751 62.7095031,22.8959829 62.5752513,22.817142 C61.1258451,21.9649425 59.6441159,21.1734556 58.1056076,20.4946717 C57.7423582,20.3344247 57.6036599,20.129028 57.604686,19.7237074 C57.6181967,14.8301017 57.613066,9.93649596 57.6152893,5.04289026 C57.6154603,4.8592133 57.6406005,4.67553634 57.6570185,4.45389264" id="Fill-23"></path>
                        <path d="M6.99544133,11.0893682 C7.02177862,11.2889501 7.04657672,11.3910499 7.04674774,11.4931496 C7.04948409,12.368266 7.04144608,13.2435534 7.05136532,14.1184988 C7.05410166,14.3610071 6.97081425,14.5303183 6.78457197,14.6808171 C6.26364086,15.1017007 5.75964086,15.543962 5.23494727,15.959886 C4.9760209,16.1651116 4.87768361,16.4014632 4.87853872,16.7330736 C4.88811591,20.5617292 4.88127506,24.3903848 4.89222043,28.2190404 C4.89307553,28.5497957 4.79627743,28.7779382 4.55171686,28.999924 C3.83325606,29.6520285 3.1383962,30.3301283 2.43259097,30.9962565 C2.38727031,31.0390119 2.32843895,31.0674014 2.23660048,31.1289691 C2.21060523,31.0030974 2.17742708,30.9172447 2.17742708,30.8312209 C2.17640095,27.0709739 2.17879525,23.3105558 2.17862423,19.5503088 C2.17862423,19.3948504 2.15622043,19.2392209 2.13655297,18.984057 C1.94518005,19.1159145 1.8152038,19.1781663 1.72097102,19.2753064 C1.32112304,19.6872969 0.93256247,20.1102328 0.538529216,20.527696 C0.438139667,20.6340713 0.332448456,20.7354869 0.168952019,20.8996675 C0.133208551,20.7240285 0.0971230404,20.6282565 0.0967809976,20.5321425 C0.0925054632,19.6298337 0.0978071259,18.7271829 0.0918213777,17.8248741 C0.0904532067,17.6331591 0.156125416,17.4922375 0.28456247,17.3513159 C2.24994014,15.1950784 4.35145083,13.1835249 6.62295677,11.3512019 C6.71530831,11.2766366 6.81723705,11.2140428 6.99544133,11.0893682" id="Fill-25"></path>
                        <path d="M45.6912342,26.5509663 C45.6915762,24.3899401 45.6915762,22.228743 45.6914052,20.0677169 C45.6914052,20.01299 45.689524,19.9582632 45.6914052,19.9035363 C45.7033767,19.5580732 45.7413435,19.5103582 46.0789397,19.5652561 C46.6450204,19.6574366 47.2105881,19.7581682 47.769486,19.8854081 C48.1683078,19.9762204 48.1748067,20.0095696 48.1753197,20.4189948 C48.1766879,21.7594603 48.1758328,23.0999259 48.1758328,24.4403914 C48.1758328,26.5603724 48.1756618,28.6805245 48.1758328,30.8005055 C48.1758328,30.9236409 48.1712152,31.0472893 48.1813055,31.1695696 C48.2045644,31.4562014 48.2550157,31.5126385 48.5404504,31.5846385 C49.0964409,31.724876 49.6527734,31.8632323 50.2091059,32.0022727 C50.657866,32.1144627 50.7131059,32.1852656 50.7127639,32.6465102 C50.7124219,33.2072893 50.7173815,33.7682394 50.7098565,34.3288475 C50.70541,34.6589188 50.6226356,34.7112513 50.3062461,34.6180447 C49.033505,34.2435078 47.7380181,33.9679924 46.4329539,33.7342062 C46.3387211,33.7172751 46.2441463,33.7025672 46.1500846,33.6840969 C45.7165454,33.5994413 45.6910632,33.5679734 45.6910632,33.1163059 C45.6908922,30.9279164 45.6908922,28.7393558 45.6912342,26.5509663" id="Fill-27"></path>
                        <path d="M24.7988352,34.6955857 C24.7851534,34.4922413 24.7666831,34.3461891 24.7665121,34.1999658 C24.7648019,29.8358423 24.7651439,25.4717188 24.7639468,21.1075952 C24.7637758,20.6677283 24.7752342,20.6236048 25.2097995,20.5252675 C25.7688684,20.3988827 26.3204124,20.2389777 26.877258,20.1013055 C27.1313957,20.0385406 27.189543,20.0877948 27.2095525,20.3583506 C27.2186166,20.4808019 27.2129729,20.6044504 27.2129729,20.7275857 C27.2129729,24.0794337 27.2129729,27.4311107 27.2131439,30.7829587 C27.2131439,30.9060941 27.2078423,31.0299135 27.2187876,31.1521938 C27.2461511,31.4617425 27.3381606,31.5221131 27.6502746,31.4608874 C28.213277,31.3504076 28.7757663,31.2373625 29.3408209,31.137828 C29.7235667,31.0704456 29.7644409,31.1102936 29.7671772,31.5063791 C29.7712817,32.0808399 29.7724789,32.6554717 29.7680323,33.2301036 C29.7651249,33.5810394 29.7269872,33.6268732 29.3847734,33.6951107 C28.7141986,33.8286784 28.0388352,33.9403553 27.3720228,34.089999 C26.6928969,34.2422081 26.0221511,34.4316998 25.3462746,34.5991297 C25.1810679,34.6401748 25.0102176,34.6589872 24.7988352,34.6955857" id="Fill-29"></path>
                        <path d="M23.181828,32.6782176 C23.2013245,32.833334 23.2278328,32.9499705 23.2286879,33.0667781 C23.2333055,33.6545786 23.2331344,34.2425501 23.2305691,34.8303506 C23.2288589,35.1735905 23.2037188,35.2149777 22.8621891,35.3237473 C21.4690489,35.7673767 20.109942,36.3009634 18.7621226,36.8649919 C18.4681368,36.9881273 18.3968209,36.9434907 18.3768114,36.6317188 C18.3716808,36.5501416 18.3756143,36.4677093 18.3756143,36.38579 C18.3754432,32.0793007 18.3754432,27.7729824 18.3754432,23.4666641 C18.3754432,23.3845739 18.3781796,23.3024836 18.3754432,23.2205644 C18.3680893,23.001657 18.4691629,22.8610774 18.6716523,22.7801843 C19.2300371,22.5573435 19.7844884,22.3242413 20.3447544,22.1063601 C20.6351487,21.993315 20.717239,22.0535145 20.733486,22.3572485 C20.7386166,22.4526784 20.733999,22.5486214 20.733999,22.6443933 C20.733999,26.0347211 20.733828,29.42522 20.733828,32.8155477 C20.733828,33.473809 20.741866,33.4796238 21.3630157,33.265847 C21.8528209,33.0970489 22.3410869,32.9234622 22.8317473,32.7565454 C22.9300846,32.7231962 23.0354337,32.7101986 23.181828,32.6782176" id="Fill-31"></path>
                        <path d="M31.3646879,33.3800038 C31.3457045,33.1988922 31.317657,33.0547211 31.317657,32.9105501 C31.3152627,28.5194052 31.3152627,24.1282603 31.3164599,19.7369444 C31.3166309,19.2958803 31.3359563,19.2721083 31.7641938,19.2235382 C32.3213815,19.1604314 32.8794242,19.1043363 33.437809,19.0528589 C33.7468447,19.0244694 33.7937045,19.0718423 33.8102936,19.3822461 C33.8140561,19.4504836 33.8104646,19.5190632 33.8104646,19.5874717 C33.8104646,23.8965264 33.8104646,28.205752 33.8104646,32.5148067 C33.8104646,33.1571629 33.8097805,33.1482698 33.1527164,33.1930774 C32.757828,33.2200988 32.365334,33.2813245 31.9714717,33.3244219 C31.7845454,33.3449444 31.5969349,33.3589682 31.3646879,33.3800038" id="Fill-33"></path>
                    </g>
                </g>
            </g>
        </g>
    </g>
</svg>