<?xml version="1.0" encoding="UTF-8"?>
<svg width="140px" height="140px" viewBox="0 0 140 140" version="1.1" xmlns="http://www.w3.org/2000/svg" xmlns:xlink="http://www.w3.org/1999/xlink">
    <!-- Generator: Sketch 46.2 (44496) - http://www.bohemiancoding.com/sketch -->
    <title>tabasalu</title>
    <desc>Created with Sketch.</desc>
    <defs>
        <rect id="path-1" x="0" y="0" width="140" height="140" rx="70"></rect>
    </defs>
    <g id="web" stroke="none" stroke-width="1" fill="none" fill-rule="evenodd">
        <g id="Desktop-HD" transform="translate(-458.000000, -622.000000)">
            <g id="Group-17" transform="translate(0.000000, 514.000000)">
                <g id="klubid" transform="translate(269.000000, 108.000000)">
                    <g id="tabasalu" transform="translate(189.000000, 0.000000)">
                        <mask id="mask-2" fill="white">
                            <use xlink:href="#path-1"></use>
                        </mask>
                        <use id="Rectangle-4-Copy-2" fill="#FFFFFF" xlink:href="#path-1"></use>
                        <g id="tabasalu_pl" mask="url(#mask-2)" fill="#000000">
                            <g transform="translate(30.000000, 28.000000)">
                                <path d="M6.37851661,39.0105535 C6.37851661,39.2212346 6.37832739,39.4319156 6.37851661,39.6427851 C6.37889506,39.9887694 6.36924474,40.3355075 6.38703159,40.680738 C6.3913837,40.7657265 6.46915386,40.8748359 6.54465336,40.9178013 C6.58949892,40.9434297 6.71154699,40.8789817 6.77209796,40.8250865 C6.96340121,40.6549211 7.14505414,40.4734489 7.32500407,40.2910345 C7.59275293,40.0196743 7.81149333,39.7153363 7.9214312,39.3454196 C8.16231056,38.5351078 8.10157036,37.7061401 8.0663751,36.8796221 C8.062023,36.7772967 8.02361097,36.6727099 7.98368517,36.5762263 C7.86617843,36.291298 7.7261543,36.2253424 7.45575634,36.3698794 C7.20428056,36.5044289 6.97570063,36.680813 6.73614582,36.8374105 C6.47180296,37.0100257 6.36470342,37.2499157 6.37416451,37.5657488 C6.38854537,38.0470363 6.37794895,38.5288891 6.37851661,39.0105535 M43.3827325,71.4194432 C43.3552954,71.4194432 43.3278582,71.4194432 43.300421,71.4194432 C43.300421,73.392835 43.3051516,75.3662268 43.2981504,77.3396185 C43.2951228,78.168021 43.2612521,78.996235 43.2538725,79.8248258 C43.2502772,80.2373311 43.3535924,80.3311765 43.7589055,80.3485134 C43.8043187,80.3503978 43.8497319,80.3488903 43.8951452,80.3483249 C44.8176014,80.3387143 45.7400577,80.3189276 46.662514,80.3219427 C47.47806,80.3247694 48.293606,80.3605738 49.109152,80.3673578 C49.5612028,80.3711267 50.0232825,80.3993934 50.4626555,80.3185507 C50.9270058,80.2331853 51.3847334,80.1777826 51.8555172,80.1706217 C52.1228876,80.1666643 52.3891227,80.0971283 52.6563039,80.0592509 C52.8797748,80.0275922 53.1043811,80.0025291 53.3276628,79.9682322 C53.8887055,79.8819246 54.4493697,79.7924134 55.0100339,79.7029022 C55.0391741,79.6981911 55.0652867,79.6770853 55.0944268,79.6703013 C55.2832702,79.6273359 55.4728704,79.5873857 55.661903,79.5442318 C55.8217954,79.507862 55.9816879,79.4701731 56.1408234,79.429846 C56.2570056,79.4006371 56.3711063,79.3631366 56.4874777,79.3348699 C56.9090639,79.232356 57.3376513,79.1530209 57.7516686,79.0265745 C58.48566,78.8025139 59.2145424,78.5603626 59.9390727,78.3072815 C60.6189466,78.0698413 61.2982529,77.8273132 61.9629891,77.5514303 C62.4366112,77.3548826 62.8863915,77.1014246 63.3452543,76.8702031 C63.7630561,76.659522 63.8147136,76.5059397 63.5736451,76.0868389 C63.4014532,75.7875889 63.1989859,75.5056758 63.0101425,75.215848 C62.1117174,73.8360567 61.1438479,72.5056378 59.9982991,71.3199444 C59.0870069,70.3765908 58.1365458,69.4692301 57.1745421,68.5767565 C56.1065742,67.5861033 54.8730373,66.8119729 53.6150908,66.0924914 C52.4763539,65.4412269 51.2901225,64.8691091 50.0558286,64.4108119 C49.0786872,64.048056 48.1060872,63.6653251 47.1083206,63.3692786 C46.038839,63.0517495 44.9422986,62.8244853 43.8573008,62.5591553 C43.5679807,62.4883001 43.4277673,62.5838415 43.3887876,62.8774382 C43.3789481,62.9516854 43.3829217,63.027817 43.3829217,63.1031948 C43.3827325,65.8752148 43.3827325,68.6472348 43.3827325,71.4194432 M40.6675889,71.4984015 C40.6388271,71.4984015 40.6102546,71.4984015 40.5816822,71.4984015 C40.5816822,69.4937279 40.5816822,67.4888659 40.5816822,65.4841923 C40.5816822,64.6552245 40.5869804,63.8260683 40.5796007,62.9971005 C40.5756271,62.5504868 40.4511191,62.4794432 40.0147736,62.5943944 C39.2845667,62.7867964 38.5543598,62.9831556 37.8158271,63.1388109 C36.7312077,63.3672057 35.6880279,63.7316575 34.6580936,64.117969 C33.5855844,64.5202982 32.5410801,65.0034701 31.5058476,65.4964412 C29.9718264,66.2268524 28.5481216,67.1453314 27.2288671,68.2104202 C26.5372615,68.7687815 25.8923935,69.389518 25.2643664,70.0196768 C24.4980181,70.7889076 23.7212626,71.5571962 23.0404425,72.3993551 C22.1787264,73.4653861 21.406323,74.6032146 20.6028873,75.7154146 C20.4802715,75.8852032 20.3845253,76.0783589 20.3012677,76.2713261 C20.1990879,76.5074472 20.2539622,76.6876003 20.4901111,76.7984057 C21.4176763,77.2327705 22.339565,77.6840953 23.28908,78.0656956 C24.0418043,78.3679607 24.8266963,78.5946595 25.6068578,78.8232428 C26.2528611,79.0126297 26.8761577,79.2911508 27.5600053,79.3450459 C27.6621851,79.3529606 27.7596343,79.409494 27.860868,79.4385144 C27.9901065,79.4752611 28.1191557,79.5170958 28.2512325,79.5389554 C28.7528596,79.6216826 29.2560003,79.6959297 29.7578165,79.7771494 C29.8162861,79.7865716 29.8692682,79.8263334 29.9275485,79.8393361 C30.1313404,79.8851281 30.3347538,79.9352544 30.5411948,79.9644633 C30.7500957,79.9938606 30.9784864,79.9565486 31.1699789,80.0258962 C31.6106764,80.1856972 32.0593213,80.179667 32.5130752,80.179667 C32.6788335,80.179667 32.8538637,80.1719408 33.0088364,80.2192404 C33.5388466,80.380549 34.080021,80.3892174 34.6259259,80.3918556 C34.89727,80.3931747 35.1678571,80.4468815 35.4393904,80.4613917 C35.9360977,80.4877739 36.4331833,80.5109526 36.930269,80.5192442 C37.2778695,80.525086 37.6260376,80.5090682 37.973638,80.4932388 C38.7441492,80.458565 39.5150388,80.4235143 40.2849824,80.3767801 C40.6115792,80.3568049 40.6955937,80.2450573 40.6867003,79.9086837 C40.6834835,79.7882676 40.6683457,79.6678515 40.6683457,79.5476239 C40.6672104,76.8645497 40.6675889,74.1814756 40.6675889,71.4984015 M40.5919001,55.8288566 L40.572978,55.8288566 C40.572978,54.6380752 40.5769516,53.4471054 40.5710857,52.256324 C40.5686259,51.7703254 40.4636077,51.6836409 39.9727664,51.690048 C39.4134267,51.6973974 38.8535194,51.6874098 38.294369,51.7039929 C36.7066088,51.7509156 35.1175241,51.7799361 33.5320346,51.8694473 C32.3106079,51.9382295 31.0925872,52.0763594 29.8755125,52.2061978 C29.1246804,52.2862867 28.3780112,52.4048184 27.630585,52.5137393 C27.2125941,52.5747954 26.7921432,52.6313288 26.380775,52.7247973 C25.6742208,52.8855405 24.9750462,53.077754 24.2707627,53.249427 C22.8012662,53.6072833 21.3779398,54.1123148 19.9646421,54.6375099 C18.9746336,55.0051653 18.0230372,55.4760883 17.0553569,55.9034807 C15.1850886,56.7294333 13.4185138,57.7443959 11.6884589,58.8262563 C11.2400032,59.1066619 10.8144434,59.4390782 10.3353337,59.6512668 C9.72547187,59.9211194 9.28004375,60.4025954 8.73035441,60.7438685 C8.61776744,60.813593 8.50688346,60.9164838 8.44633248,61.0308696 C8.38067252,61.1546777 8.31917543,61.3248432 8.35266769,61.4488397 C8.49231338,61.9683815 8.65731479,62.481893 8.83385874,62.990505 C9.04995004,63.6131259 9.28155752,64.2308473 9.51676022,64.8466842 C9.71941678,65.3779095 9.89860982,65.9228913 10.1551946,66.4279228 C10.6244647,67.3513013 11.0589179,68.2905092 11.6207175,69.1711107 C12.108342,69.935442 12.6027786,70.6790444 13.2342118,71.3335125 C13.546617,71.6576372 13.8049047,72.0328303 14.1051997,72.3693924 C14.2630107,72.5461534 14.4562062,72.692198 14.6380483,72.8465341 C14.7177107,72.9141857 14.8147815,72.9616737 14.8942547,73.0297022 C15.4085595,73.4699088 15.8594751,73.979463 16.4517393,74.3346811 C17.0175125,74.6740698 17.5465767,75.0739492 18.101375,75.4321824 C18.3337394,75.5821843 18.4769803,75.5207513 18.5982715,75.254856 C18.6730141,75.0907208 18.7208872,74.9141482 18.8001711,74.7526512 C19.3916785,73.5473595 20.0357895,72.375988 20.8214384,71.2784866 C21.6967785,70.0560466 22.7272804,68.9809702 23.8200364,67.9607311 C24.4147605,67.4055733 25.0346511,66.8756672 25.6655166,66.3614019 C26.2731078,65.8663579 26.8848619,65.3692411 27.5386232,64.9395874 C28.5475539,64.2764509 29.565378,63.6206637 30.6715686,63.1210971 C31.483141,62.7547608 32.2877121,62.3703338 33.1132868,62.0382944 C33.8972327,61.7228382 34.7019931,61.4575082 35.5025905,61.1848289 C35.9873768,61.019563 36.4784073,60.8706917 36.9724655,60.7350116 C37.4078648,60.6153493 37.8502654,60.5203732 38.2911522,60.4212514 C38.8317589,60.2997046 39.3704734,60.1644014 39.9163783,60.0737595 C40.4427934,59.9865097 40.5913325,59.8472491 40.5917109,59.3109358 C40.5924678,58.1503056 40.5919001,56.9896753 40.5919001,55.8288566 M43.3859493,55.8488318 L43.3732714,55.8488318 C43.3732714,57.024726 43.3727038,58.2006203 43.3734606,59.3763261 C43.3738391,59.779786 43.4851015,59.9405292 43.8480289,60.033244 C44.1965755,60.1223782 44.5481496,60.2005828 44.8997237,60.2769028 C45.6641798,60.4427341 46.443206,60.5578737 47.1910105,60.7791077 C48.3049593,61.1085088 49.4073655,61.483702 50.4952017,61.8907423 C51.6407505,62.3194538 52.7745675,62.7843466 53.8400755,63.3945302 C54.3642199,63.6947224 54.9002852,63.9766355 55.4075889,64.3030216 C56.1557719,64.7844975 56.8999813,65.2755841 57.6141044,65.8051134 C58.2548094,66.2799938 58.8667527,66.796332 59.4652613,67.3237884 C59.9858104,67.7822741 60.4596218,68.2925821 60.9720345,68.7606784 C62.0284598,69.7253263 62.8985017,70.8444987 63.6737434,72.0332072 C64.3329922,73.044024 64.9182552,74.1010098 65.377875,75.2218782 C65.5146823,75.5556136 65.6144022,75.58633 65.9305918,75.3973201 C66.27876,75.1892773 66.6240898,74.9735082 66.9537141,74.7375756 C67.4540166,74.3795309 67.9441011,74.006599 68.4304011,73.6298983 C68.7865165,73.3540154 69.1365769,73.0692756 69.4760408,72.7734176 C69.6448266,72.6262424 69.7892029,72.4500467 69.9345252,72.2783737 C70.0703865,72.1181957 70.1784321,71.9331432 70.3235652,71.7827644 C70.9109097,71.175219 71.5001464,70.5639047 71.9497374,69.8491344 C72.4451201,69.0618129 72.9505315,68.277318 73.3363548,67.42536 C73.5229275,67.013797 73.772511,66.6293701 73.9416753,66.2117768 C74.2788686,65.3790402 74.5918415,64.5361275 74.8928933,63.6896344 C75.1538302,62.9560196 75.3867623,62.2126057 75.6270739,61.47183 C75.6948153,61.2630334 75.6283985,61.0734581 75.4613156,60.9438082 C74.9615809,60.5559893 74.4616569,60.1672281 73.9431891,59.805226 C73.6478139,59.5990676 73.3123236,59.4511386 73.001243,59.266086 C71.8596678,58.5869317 70.7381502,57.8719729 69.576896,57.2280577 C67.3399158,55.987527 64.9924301,54.9844364 62.5838258,54.1232446 C62.1578875,53.9709814 61.7294894,53.8239946 61.2965499,53.6930256 C60.6749563,53.5053348 60.0512812,53.3221666 59.4224971,53.1599158 C58.7350543,52.9825895 58.0466654,52.7960293 57.3478693,52.6769324 C56.2320283,52.4867918 55.1088077,52.3335863 53.9850194,52.193572 C53.0107163,52.0722137 52.0333857,51.9534936 51.0535952,51.8995984 C49.3617631,51.8066952 47.6672818,51.7590187 45.9733682,51.7043698 C45.2783565,51.6819449 44.5820203,51.6860907 43.886441,51.6875982 C43.5450848,51.688352 43.4203877,51.8097103 43.3899229,52.140619 C43.3804619,52.2452058 43.3861385,52.3514885 43.3861385,52.4568291 C43.3859493,53.5874966 43.3859493,54.7181642 43.3859493,55.8488318 M77.8799487,33.8739308 C77.9951848,33.9598615 78.1168544,34.0388198 78.2247109,34.133419 C78.6905749,34.5414015 79.1401659,34.9689823 79.6202217,35.3594395 C79.9074604,35.5931108 80.0011252,35.8584408 79.9999898,36.2196891 C79.9895826,39.9882041 79.9929886,43.7567191 79.9926102,47.525234 C79.992421,48.2486728 79.9943132,48.9723001 79.9920425,49.6957389 C79.9897718,50.3873305 80.0141815,51.0755302 79.8408543,51.7612801 C79.7350793,52.180004 79.7644087,52.6307634 79.7010194,53.06249 C79.3795315,55.2524046 79.0835886,57.4470304 78.7041989,59.6271459 C78.51914,60.6907271 78.1874342,61.7305644 77.8928158,62.7730399 C77.6878886,63.4976094 77.4613901,64.2187868 77.1947766,64.9230043 C76.5338248,66.6696972 75.8952012,68.4280737 74.9218443,70.0379559 C74.5867325,70.5923599 74.2677045,71.1575052 73.9098861,71.6970221 C73.6867936,72.0335841 73.403907,72.3307612 73.1497821,72.6471597 C72.7826918,73.1043263 72.4246841,73.5690307 72.0475651,74.0179057 C71.8942954,74.2001316 71.7022353,74.3501335 71.5260698,74.5131381 C71.415375,74.6154635 71.2859473,74.7019596 71.1917149,74.8172877 C70.670598,75.4557379 70.0304607,75.9619001 69.3579664,76.4235894 C68.2385302,77.191878 67.1009287,77.9337844 65.9705176,78.6862436 C65.907696,78.7278899 65.8450636,78.7725512 65.7765653,78.8027024 C64.1736674,79.5065429 62.6195887,80.3240156 60.9489494,80.8705049 C60.2454228,81.1005957 59.5445452,81.341051 58.8332604,81.5447597 C58.2107207,81.7230282 57.5806121,81.8847137 56.9442592,82.0023031 C56.2486798,82.1306339 55.5419364,82.1982855 54.8404912,82.2957114 C54.7059545,82.3143674 54.5727423,82.3437647 54.440287,82.3746696 C53.1569848,82.6733543 51.8585448,82.8945883 50.5447778,82.9744888 C49.7318809,83.0238613 48.9119828,82.9456568 48.0953015,82.9496141 C46.3402693,82.9579057 44.5831556,82.9362345 42.8319078,83.0236728 C42.1798495,83.0562737 41.5429289,83.0295146 40.9020347,82.9799537 C39.195254,82.8476656 37.487338,82.8256176 35.7763945,82.8480425 C35.1127936,82.8567109 34.4482466,82.7636193 33.7835104,82.7319606 C32.7861223,82.6842841 31.7866527,82.671093 30.791346,82.5991072 C30.4064689,82.5712174 30.0331343,82.4085897 29.6492032,82.3339656 C29.3858065,82.2827087 29.1133271,82.27649 28.8446321,82.2523691 C28.7695111,82.2455851 28.690984,82.2589647 28.6185121,82.24257 C27.6930282,82.0322658 26.7491899,81.9340862 25.8227599,81.6977767 C24.9578271,81.4769196 24.1284679,81.1561869 23.2661841,80.9360836 C22.7412829,80.8019111 22.2241397,80.6123358 21.7295139,80.3901596 C20.8490648,79.9946144 19.9194181,79.7013946 19.1050075,79.1624431 C18.9574144,79.0646404 18.7814382,78.9941621 18.6083002,78.953458 C18.2748914,78.8748767 18.0037366,78.6977387 17.7261482,78.5089173 C17.0651964,78.0596653 16.379835,77.6464063 15.7196402,77.1962122 C14.6594304,76.4731503 13.593544,75.7574377 12.7333417,74.7833676 C12.3660621,74.3674704 11.9374748,74.0052799 11.558085,73.5989934 C11.3228823,73.3472314 11.1274162,73.0589112 10.9151094,72.7860434 C10.8691285,72.7268718 10.8363931,72.6556397 10.7836002,72.6040059 C10.1046724,71.9389849 9.67078677,71.1066252 9.19035261,70.3055472 C8.21604955,68.6805895 7.54752892,66.917125 6.85440945,65.1660978 C6.60520433,64.536316 6.43358016,63.876383 6.21105532,63.2356714 C5.61576352,61.521014 5.25662054,59.7500117 4.95045966,57.9680797 C4.81781518,57.1971528 4.74401867,56.4162384 4.64202812,55.6400351 C4.53606391,54.8336807 4.43464103,54.0265725 4.31959417,53.2215372 C4.24523,52.7006764 4.14778077,52.1828306 4.06546929,51.662912 C4.04919621,51.5594559 4.05033154,51.4526078 4.05089921,51.3472673 C4.07795793,46.5247817 4.1106933,41.7022961 4.12469571,36.8798105 C4.12583104,36.4812502 4.23576891,36.1976411 4.53398247,35.9358915 C5.67972049,34.9295974 6.76869197,33.8560286 8.03931638,32.9995479 C8.3371515,32.7986659 8.66374833,32.6292543 8.99715715,32.4941395 C9.54836027,32.2706442 9.9947345,32.4743528 10.1917144,33.0306412 C10.2810271,33.283157 10.350093,33.556967 10.3553913,33.8224854 C10.3826392,35.2230056 10.4013722,36.6242796 10.3949386,38.0249883 C10.3879374,39.5564775 9.73796051,40.8281016 8.68229207,41.896394 C8.0784853,42.507143 7.42510241,43.0715345 6.77228719,43.6314034 C6.49583413,43.8684667 6.36546031,44.119098 6.37265074,44.4859996 C6.40708911,46.2487104 6.4104951,48.0119864 6.45174545,49.7745087 C6.46442331,50.3153447 6.53405694,50.8493967 6.44095981,51.3943784 C6.38116572,51.7448854 6.38551782,52.113483 6.557142,52.4577713 C6.61428698,52.5727225 6.60558278,52.7208399 6.62431574,52.8540703 C6.64531936,53.0025646 6.6604571,53.1518127 6.68316372,53.2999302 C6.73311827,53.6244318 6.78307283,53.9491218 6.83946093,54.2726812 C6.87503463,54.4771436 6.91969097,54.6802868 6.96529343,54.8828648 C6.97834973,54.9407173 7.03379172,54.9974391 7.02792584,55.0502036 C6.9651042,55.6159142 7.21260632,56.1379058 7.25593812,56.6885409 C7.26748065,56.8357161 7.31838131,56.9798762 7.34979213,57.1257323 C7.39047482,57.3145538 7.42775151,57.5039406 7.46975875,57.6923852 C7.50854922,57.8651889 7.55661156,58.0361082 7.59142837,58.2098541 C7.62662363,58.3847306 7.64819491,58.5622455 7.67998418,58.7378758 C7.72274831,58.9755045 7.8737473,59.0418369 8.06486133,58.8978653 C8.17252853,58.8168341 8.25938134,58.7086669 8.36004734,58.6176482 C9.38279119,57.6942697 10.514716,56.9161819 11.6583726,56.1522275 C12.8277633,55.3709363 14.0351877,54.6516432 15.2969187,54.0326028 C16.2439738,53.5678984 17.2203583,53.1602927 18.1931476,52.7494835 C18.9710384,52.4210246 19.7513891,52.0908697 20.5519866,51.8249743 C21.5832454,51.4823821 22.6356971,51.2029187 23.6792553,50.8965078 C23.8677202,50.8412936 24.0544822,50.7772224 24.2461639,50.7353877 C24.6878075,50.6390925 25.1321003,50.5544809 25.5750686,50.4640275 C26.0460417,50.3679207 26.5162578,50.2678567 26.9877986,50.1749535 C27.2385175,50.125581 27.4907501,50.0846885 27.743172,50.0443614 C28.4542675,49.9309177 29.1646062,49.811067 29.8777832,49.7110029 C30.2354124,49.6606882 30.598529,49.6514544 30.9586181,49.6173459 C31.3030018,49.584745 31.6468178,49.5453601 31.9904446,49.5065405 C32.20067,49.4827965 32.4097601,49.4388889 32.6205532,49.4304089 C34.3577986,49.3616266 36.0952332,49.2913368 37.8330462,49.2378185 C38.572525,49.2150167 39.31295,49.2084212 40.0427785,49.3900817 C40.4045705,49.4801583 40.5517851,49.3473048 40.5720318,48.9853028 C40.5744917,48.9402645 40.5724103,48.8948494 40.5727887,48.8496227 C40.5956846,45.6102601 40.6180127,42.3707091 40.6424224,39.1313465 C40.6443146,38.8752503 40.6445038,38.6176466 40.6726978,38.3638117 C40.7063793,38.0592852 40.7811219,37.9839074 41.0700636,37.9788194 C41.6753842,37.9682665 42.2810832,37.9677011 42.8862145,37.9812692 C43.1755346,37.9876763 43.2446006,38.0711572 43.2744976,38.3726686 C43.2892569,38.5222936 43.2845264,38.673803 43.2845264,38.8245587 C43.2854725,41.100781 43.2750653,43.3770032 43.2903923,45.653037 C43.2979611,46.7658023 43.3501864,47.8785677 43.3882199,48.9909561 C43.3995733,49.3258221 43.5573842,49.4709245 43.884738,49.3987502 C45.1602821,49.1177793 46.4443413,49.246487 47.7270759,49.2930328 C48.8294821,49.332983 49.9320776,49.3693528 51.0337269,49.424944 C51.4240915,49.4447307 51.811807,49.5172818 52.2010362,49.5636392 C52.3806077,49.5849335 52.5603684,49.6150846 52.7405076,49.6177228 C53.2990903,49.6262028 53.8612683,49.5798455 54.3990367,49.7963683 C54.4928907,49.8340572 54.6077483,49.828027 54.7131449,49.8293461 C55.8522601,49.8434794 56.968858,50.0000769 58.0716427,50.2934851 C58.5501846,50.4206852 59.0538931,50.4523439 59.5449236,50.5339404 C60.5332291,50.6980757 61.4853932,50.9897879 62.4241226,51.3338877 C62.8209207,51.479367 63.2398578,51.565863 63.6345745,51.7156765 C65.062253,52.2578316 66.4761183,52.836168 67.9096627,53.3621169 C69.6431236,53.9983058 71.1727927,55.0019617 72.7420091,55.937966 C73.8230333,56.5828234 74.7994178,57.3663761 75.7716394,58.1570896 C75.896715,58.2588497 76.0157355,58.4145049 76.205525,58.3281973 C76.3998558,58.2398168 76.5065769,58.0721011 76.497305,57.8565205 C76.4840595,57.5487904 76.5326895,57.2610355 76.6802825,56.9851527 C76.7266418,56.8986566 76.6973125,56.7754138 76.725885,56.6757266 C76.91189,56.0303039 76.8592863,55.341162 77.0933537,54.7051615 C77.1037609,54.6768948 77.1188986,54.647309 77.1181418,54.6186654 C77.1014902,54.0425903 77.2333778,53.4879979 77.3436941,52.9279406 C77.6269592,51.4901083 77.4341422,50.0108182 77.7126767,48.5705362 C77.7552516,48.3509983 77.7456013,48.1199652 77.7457905,47.8942086 C77.7469258,43.3871792 77.7459797,38.8799614 77.745412,34.3729321 C77.745412,34.2276413 77.745412,34.082539 77.745412,33.9372482 C77.7902576,33.9161424 77.8351032,33.8950366 77.8799487,33.8739308" id="Fill-1"></path>
                                <path d="M23.7448892,7.86159467 C23.7291582,7.860312 23.7136167,7.85884608 23.6978857,7.85756341 C23.6978857,7.65288533 23.7170283,7.44619162 23.6946637,7.24371241 C23.5925068,6.31908788 23.2198902,6.09773504 22.3205689,6.41400574 C21.8279796,6.58716669 21.7859039,6.64012279 21.7845772,7.14476329 C21.7823028,8.05216334 21.783819,8.95956339 21.7849562,9.86696344 C21.7851457,9.96921086 21.7813551,10.0736572 21.8010663,10.173156 C21.8359399,10.350165 21.9597032,10.4346382 22.1325548,10.3589604 C22.462148,10.2142015 22.7957214,10.0692594 23.1008652,9.88327172 C23.3614694,9.72458666 23.5354582,9.48124512 23.5735538,9.16589062 C23.6260537,8.73069775 23.687272,8.29623783 23.7448892,7.86159467 M21.7841981,15.6122424 C21.7841981,16.2119839 21.783819,16.8117255 21.7845772,17.4116504 C21.7847667,17.5138978 21.780218,17.6174279 21.7932955,17.7183926 C21.8283587,17.9936178 21.9280516,18.0561023 22.1816432,17.9346148 C22.4788267,17.7924212 22.7693767,17.6350188 23.0517768,17.4669886 C23.3487708,17.2903461 23.5265503,17.0284974 23.5940231,16.6917039 C23.8000425,15.6608007 23.743373,14.6254998 23.6584634,13.5894659 C23.6514508,13.5031602 23.6234003,13.4170379 23.596487,13.3334808 C23.5005846,13.0351676 23.3542672,12.9259571 23.0260007,12.9582071 C22.7718406,12.9831277 22.5165432,13.032419 22.2714805,13.1025996 C21.8484489,13.2235374 21.7893154,13.3058117 21.7855248,13.7250628 C21.7798389,14.3539394 21.7841981,14.9831825 21.7841981,15.6122424 M18.2722013,22.278481 C18.2562808,22.0716041 18.236001,21.9319759 18.236001,21.7921644 C18.2346743,16.4743823 18.238844,11.1566003 18.2278512,5.83881818 C18.2270931,5.45933 18.3635549,5.24787207 18.7157023,5.10201374 C20.2309972,4.47423656 21.7157776,3.77023192 23.3049893,3.32661005 C23.8392753,3.17745342 24.3995269,3.07209093 24.9537136,3.04149 C25.9481791,2.98651827 26.7252534,3.58076269 27.0076536,4.50886876 C27.3294761,5.56615839 27.3126079,6.64543673 27.279061,7.73186138 C27.2436188,8.88260297 26.7459122,9.75078985 25.7218799,10.3415527 C25.6434144,10.3868128 25.5488388,10.4963898 25.5569886,10.5656541 C25.5649488,10.6345521 25.6898493,10.695021 25.7703997,10.7496262 C25.8050837,10.7730808 25.8568255,10.7760126 25.9015547,10.7816931 C26.7555783,10.8888879 27.1062094,11.4820329 27.1987002,12.2105916 C27.3971384,13.771972 27.3848189,15.3434306 27.188655,16.9026121 C27.0290705,18.1698938 26.3372849,19.1084445 25.0808884,19.6002582 C24.140818,19.9682024 23.1918397,20.3148908 22.2544228,20.6888818 C21.1081435,21.1462466 19.9702034,21.623218 18.8271461,22.0886453 C18.6671825,22.1538784 18.4996377,22.2013373 18.2722013,22.278481" id="Fill-3"></path>
                                <path d="M34.9342723,4.58117787 C34.9045375,4.58355268 34.8746145,4.58611016 34.8448797,4.58848497 C34.8145803,4.66283475 34.7677198,4.7349924 34.7566162,4.81189966 C34.6728695,5.38989155 34.5970269,5.96879683 34.517044,6.54733676 C34.3969757,7.41487262 34.2742725,8.28204314 34.1551451,9.14976168 C34.0081648,10.2206177 33.8589262,11.2912911 33.7204147,12.3632431 C33.6709194,12.7454047 33.7783788,12.8378395 34.1749056,12.7863244 C34.6664709,12.7223873 35.156907,12.650047 35.6480958,12.5839177 C36.1223472,12.5199805 36.1884036,12.4142102 36.1183951,11.9412579 C35.8899264,10.3950748 35.6748195,8.8472476 35.4495501,7.30051645 C35.3420908,6.56396042 35.2291738,5.82795241 35.1053415,5.09377118 C35.0759831,4.9184007 34.9928009,4.75179874 34.9342723,4.58117787 M29.3670886,19.2405063 C29.428252,18.7573241 29.4737952,18.3404538 29.5347703,17.925593 C29.7278584,16.6101317 29.929227,15.2959492 30.1226914,13.9804878 C30.3417504,12.4907521 30.5574218,11.0004683 30.7712113,9.51000189 C30.8831873,8.7290552 30.9863182,7.94701244 31.0966004,7.16588307 C31.1701846,6.64525194 31.2488501,6.12516885 31.3267629,5.60490308 C31.4910571,4.50682809 31.6525284,3.40820507 31.8228448,2.31104347 C31.9022631,1.79863284 31.9423486,1.76922175 32.4660952,1.69030503 C33.6997133,1.50433924 34.9318258,1.30850887 36.167514,1.13697461 C36.6581383,1.06901855 37.1568549,1.05714451 37.6514313,1.01494598 C37.8832875,0.995034125 37.9681635,1.10591942 37.9997802,1.31563329 C38.2226031,2.78874537 38.4533301,4.26094406 38.6814224,5.7335081 C38.8895661,7.07691909 39.0997798,8.42033007 39.3056651,9.76410642 C39.4961185,11.006314 39.6765974,12.249983 39.8715674,13.4914599 C40.0550575,14.6604138 40.2455108,15.8284543 40.4446211,16.9948507 C40.5932951,17.8660402 40.5093602,17.7905943 39.7897026,17.8315141 C38.8731931,17.8833945 37.9576245,17.9500718 37.042056,18.0136436 C36.7063162,18.0370264 36.6383778,17.9926357 36.6475993,17.6577877 C36.6635959,17.0735848 36.698412,16.4899299 36.7262648,15.9060923 C36.7305933,15.8185897 36.7473427,15.7312699 36.7469663,15.64395 C36.7452725,15.3224374 36.6374368,15.220138 36.3037671,15.2548467 C35.7800205,15.3092846 35.2575913,15.3739525 34.7357266,15.4428219 C34.3629124,15.4921449 33.9917919,15.5538899 33.620295,15.6125294 C33.1428444,15.6881579 33.088456,15.7460667 33.1055817,16.2069623 C33.1268478,16.776551 33.1554534,17.3457744 33.185941,17.9148151 C33.2132293,18.4217454 33.307515,18.5139976 32.6371645,18.6241521 C31.703341,18.777784 30.7809974,18.9973625 29.8528198,19.1844243 C29.7148729,19.2121913 29.5722211,19.217489 29.3670886,19.2405063" id="Fill-5"></path>
                                <path d="M57.3163948,6.20573634 C57.0190728,6.36288904 57.0487088,6.56037128 57.0260007,6.73172452 C56.9403643,7.37586124 56.865697,8.02132333 56.7756344,8.66489203 C56.6166778,9.80188232 56.4504084,10.9381152 56.2856786,12.0743482 C56.2077398,12.6126435 56.119794,13.1496134 56.0487832,13.6888555 C55.9891263,14.1425155 56.0428175,14.2165477 56.4750409,14.3430272 C56.8137378,14.4420523 57.154744,14.5327465 57.4936333,14.6310143 C57.6701021,14.6823256 57.8467633,14.7355303 58.018806,14.7993381 C58.3030419,14.9051795 58.5264664,14.7896817 58.4675794,14.4649626 C58.411194,14.1534973 58.4008022,13.8340797 58.3569255,13.5199636 C58.2460793,12.7268159 58.115604,11.9363189 58.0151496,11.1420351 C57.8275192,9.65798346 57.6581707,8.17184911 57.4730421,6.68741882 C57.4539904,6.53632503 57.3785534,6.39204749 57.3163948,6.20573634 M62.7848101,22.278481 C62.4260993,22.1425345 62.1782348,22.0454027 61.9282534,21.9541406 C61.106721,21.6546037 60.2867281,21.3503334 59.4613468,21.0612103 C59.0096868,20.9029216 58.9654253,20.8610773 58.9906351,20.3737146 C59.0220031,19.7689607 59.0622233,19.1645855 59.0910895,18.5598317 C59.1159145,18.0410384 59.0543332,17.9550778 58.5626454,17.8125043 C57.7076282,17.5644681 56.8537656,17.3111304 55.9939374,17.0805136 C55.4753077,16.9415376 55.4125718,17.0047773 55.4350875,17.551593 C55.4593351,18.1413889 55.4930124,18.7309956 55.5193768,19.3207915 C55.5259198,19.4665838 55.520339,19.6129441 55.520339,19.7827826 C55.3644615,19.7827826 55.2586187,19.8000126 55.160666,19.7799425 C54.1220597,19.567313 53.0842231,19.3501393 52.0469639,19.1310723 C51.662081,19.0498451 51.6064655,18.9565002 51.6657374,18.5579383 C51.8930107,17.0305277 52.1104695,15.5017917 52.3460178,13.9757065 C52.5328785,12.7648733 52.7499524,11.558395 52.9375828,10.3473726 C53.234135,8.43294979 53.5162541,6.51625492 53.8064558,4.60088543 C53.9174945,3.8675693 54.0277634,3.13387448 54.1511183,2.40264109 C54.2157787,2.02017309 54.3016075,1.97132321 54.6820642,2.06845494 C56.422312,2.51302666 58.143508,3.01856606 59.8446901,3.59207873 C60.1477854,3.69432265 60.2851885,3.84465909 60.3257937,4.16294063 C60.5626891,6.02510541 60.8157495,7.8849981 61.0728513,9.74451212 C61.2614439,11.1085218 61.4708201,12.4696913 61.65999,13.833701 C61.8387681,15.1223531 62.0011887,16.4132773 62.1745784,17.7026868 C62.3502774,19.0078115 62.5311723,20.3123682 62.7086033,21.6173036 C62.7324661,21.7932011 62.7494009,21.9698558 62.7848101,22.278481" id="Fill-7"></path>
                                <path d="M42.4830665,10.4895371 C42.9705885,10.4895371 43.4583138,10.4842027 43.9456325,10.4910086 C44.4398608,10.4978146 44.4929009,10.5489511 44.4977781,11.0110188 C44.5042811,11.6288873 44.4916816,12.2471237 44.5097681,12.8646243 C44.5174904,13.1269287 44.5624017,13.3918083 44.6251964,13.6484105 C44.7097354,13.9933058 44.9653847,14.2076008 45.3403235,14.3038036 C45.8132137,14.4250228 46.2808203,14.5096371 46.7770807,14.3727826 C47.3125623,14.2252594 47.5925979,13.8925044 47.6594569,13.4210555 C47.7456217,12.8144076 47.6517346,12.2145656 47.4241295,11.63974 C47.2881761,11.2961323 46.9949313,11.0507508 46.672423,10.8469406 C45.8205296,10.3083521 44.9629461,9.77675339 44.1023143,9.24975331 C43.4835129,8.87101225 42.8441864,8.51912704 42.2351395,8.12806171 C41.295862,7.5247248 40.7993984,6.67527058 40.6162982,5.655668 C40.4445783,4.69879038 40.5079826,3.74577559 40.6705577,2.7990149 C40.8599576,1.69498193 41.5582176,0.920576939 42.6828307,0.475432026 C43.5715067,0.123730755 44.5032651,-0.0760326231 45.4793252,0.0271600614 C46.7344047,0.159967759 47.9327863,0.457221552 48.9702185,1.15087505 C49.8060576,1.70969747 50.3575935,2.43057471 50.4535128,3.38726838 C50.5339875,4.19220811 50.5941402,4.99898728 50.6465707,5.80595039 C50.6664861,6.11424084 50.5837761,6.18395568 50.2515133,6.15158151 C49.1687633,6.04618149 48.0880455,5.92533017 47.0059051,5.81533155 C46.7325758,5.78755598 46.6604331,5.63451442 46.6602299,5.41856395 C46.6598234,5.02142847 46.6667329,4.6239251 46.6508818,4.2271575 C46.6415337,3.99318051 46.6220247,3.75423702 46.5584172,3.52872146 C46.4336408,3.0863357 46.1038167,2.8731444 45.5967857,2.86394719 C45.1054025,2.85511787 44.7174577,3.06683762 44.5969489,3.4893574 C44.3961687,4.19331177 44.459573,4.8750089 45.0625233,5.41838001 C45.359426,5.68601879 45.7091657,5.90767152 46.0467122,6.13594625 C47.0615871,6.82187409 48.1091802,7.47064521 49.0903208,8.19372978 C49.6770136,8.62636649 50.2074148,9.13865103 50.6829469,9.6735607 C51.3367019,10.4093374 51.5261018,11.3228042 51.6057636,12.2359031 C51.6657132,12.9229346 51.6504718,13.6191633 51.6092184,14.3082182 C51.5848321,14.714367 51.4838323,15.1260341 51.3466596,15.5148921 C51.148318,16.0768415 50.6876209,16.4500643 50.1027571,16.6928706 C49.3565375,17.0026326 48.575161,17.1803227 47.7500925,17.2040515 C46.674252,17.235138 45.6041015,17.2128808 44.5514279,16.9838703 C43.5936575,16.7756455 42.6950238,16.4520876 41.9248244,15.8754226 C41.381214,15.4683542 41.0170458,14.964899 40.8331327,14.3461107 C40.6075598,13.5858694 40.5632581,12.8079695 40.5254594,12.0289659 C40.5069665,11.6470978 40.5024957,11.2639421 40.5094051,10.8817061 C40.5159081,10.5281654 40.572403,10.4785004 40.9715248,10.4713266 C41.4751011,10.4623133 41.979287,10.4691193 42.4830665,10.4691193 C42.4830665,10.4759252 42.4830665,10.4827311 42.4830665,10.4895371" id="Fill-9"></path>
                                <path d="M11.8929096,12.339693 C11.8574432,12.5429985 11.8181426,12.7015145 11.8041477,12.8621726 C11.7728989,13.2185415 11.7673393,13.5774419 11.7286138,13.9326423 C11.4698048,16.3140821 11.2035191,18.6945482 10.9466273,21.075988 C10.9347412,21.1862092 10.9897621,21.3036356 11.0135342,21.4177516 C11.1381459,21.3873726 11.2811618,21.3867884 11.384302,21.3213567 C11.8775728,21.008609 12.352631,20.6654822 12.8495443,20.3587713 C13.1273326,20.1875974 13.2139857,19.9741656 13.1626073,19.6577178 C13.0353116,18.875459 12.9183683,18.0912527 12.8089017,17.3060728 C12.6996268,16.5210876 12.6030048,15.7341551 12.5035071,14.947612 C12.419538,14.284727 12.3441958,13.6206735 12.2544753,12.9587622 C12.2243768,12.7373461 12.1998379,12.4985985 11.8929096,12.339693 M13.6436086,25.7333201 C13.6359402,25.5942778 13.6181111,25.4636092 13.6232873,25.334109 C13.6499351,24.6651872 13.6888523,23.9968495 13.7074482,23.3277329 C13.7108989,23.2025169 13.6750491,23.009922 13.5949142,22.9663009 C13.5103699,22.9201482 13.3326544,22.9851904 13.2277888,23.0527641 C12.4001752,23.5865385 11.5834891,24.1372549 10.7566423,24.672003 C10.454315,24.867519 10.3195427,25.1111351 10.350408,25.4869776 C10.4054289,26.1535627 10.4102217,26.8244319 10.4577658,27.4917959 C10.4777037,27.772412 10.3891335,27.9669544 10.171734,28.1307283 C9.2246848,28.8448292 8.28262008,29.5657458 7.33710458,30.2817941 C7.29205265,30.3158731 7.23032191,30.3275573 7.10225939,30.3797468 C7.09842519,30.1760518 7.07848731,30.0161727 7.09516611,29.8601883 C7.17664301,29.1024663 7.26751372,28.345718 7.35570049,27.5885802 C7.60415712,25.4562092 7.8535723,23.3238381 8.1016455,21.1912723 C8.29929888,19.4914124 8.49925279,17.7917471 8.69077144,16.0909134 C8.87002063,14.4991325 9.04850297,12.9069621 9.20762257,11.3128444 C9.25094912,10.8781912 9.40853503,10.5691435 9.7724013,10.3115063 C11.2688924,9.25272079 12.789539,8.23366164 14.3671235,7.30359733 C14.480616,7.23680251 14.6002433,7.18091297 14.777192,7.08860759 C14.8370056,7.3228763 14.8972027,7.49346599 14.9225084,7.66931357 C15.0651409,8.65487795 15.1939703,9.64258443 15.3375614,10.6279541 C15.530422,11.9511925 15.7355521,13.2726784 15.9289878,14.5959169 C16.0461228,15.3958968 16.1465791,16.1982136 16.2625638,16.9983882 C16.4320358,18.1679791 16.6101347,19.3362069 16.7817155,20.5054083 C16.9218558,21.4600095 17.0460841,22.4171423 17.2025197,23.3688224 C17.2550484,23.6887754 17.143473,23.8566388 16.8821717,24.0015232 C15.8615058,24.5680134 14.8483165,25.1485246 13.8307179,25.7206621 C13.7962101,25.7401359 13.7444483,25.7276727 13.6436086,25.7333201" id="Fill-11"></path>
                                <path d="M71.9489662,9.11392405 C72.105359,9.19746072 72.202021,9.23632847 72.2851165,9.29569365 C73.1009968,9.87812984 73.9078328,10.4742954 74.7321923,11.0439691 C75.044601,11.2599655 75.1405093,11.5225646 75.1395672,11.8994464 C75.1286386,16.1209486 75.1299575,20.3426441 75.1359871,24.5641463 C75.1365524,24.9953656 75.1729184,25.4287121 75.2232279,25.8572242 C75.2957716,26.4769812 75.6782744,26.8873164 76.1711942,27.1976783 C76.5126204,27.4127079 76.7609646,27.2887565 76.8009107,26.8770677 C76.8384073,26.4932244 76.848017,26.1053204 76.8482054,25.7189633 C76.8512202,21.6212192 76.8499012,17.5232817 76.8497128,13.4255375 C76.8497128,13.2615581 76.8497128,13.0975788 76.8497128,12.8601181 C77.0177879,12.9392072 77.120668,12.9624118 77.1905737,13.0242908 C78.0345294,13.7716732 78.8750934,14.5231165 79.7130195,15.2774603 C79.897676,15.4435668 80.0011214,15.6328779 79.9999908,15.9165545 C79.9856705,19.9214801 79.9964108,23.9265991 79.9749303,27.9315247 C79.970785,28.6860619 79.8833557,29.4444665 79.7736924,30.1916556 C79.731862,30.4780394 79.5626563,30.7748653 79.3766808,31.002464 C79.0840568,31.3605888 78.6717828,31.4928552 78.2318104,31.3114723 C77.7871273,31.1281557 77.3281239,30.9489 76.9320545,30.6799197 C75.1959063,29.5005444 73.785545,27.996691 72.7932988,26.1060939 C72.2939724,25.1547041 71.9949419,24.1352474 71.9623444,23.0502376 C71.9276742,21.8913597 71.9058169,20.731515 71.9031789,19.572057 C71.8954535,16.2938231 71.8995989,13.0155891 71.9022368,9.73735509 C71.9024252,9.54611027 71.9301237,9.35505882 71.9489662,9.11392405" id="Fill-13"></path>
                                <path d="M71.2002411,31.47984 C71.1677732,31.7234068 71.1354762,31.8609634 71.1335965,31.9990701 C71.1272738,32.4524565 71.1324003,32.9058429 71.1324003,33.3592293 C71.1325712,34.4321704 71.1822983,34.5156214 72.0992586,34.969558 C72.1115622,34.9757939 72.1230114,34.9844141 72.1354859,34.9899164 C72.4405128,35.125272 72.6592435,35.0126591 72.6900026,34.6583134 C72.7267425,34.238124 72.745027,33.8115153 72.7209324,33.3911424 C72.66437,32.4044034 71.9839123,31.970275 71.2002411,31.47984 M71.2036587,37.2962812 C71.1809312,37.3978897 71.1363307,37.505734 71.1356471,37.6135783 C71.1301789,38.6377327 71.1322295,39.6617037 71.1315459,40.6856746 C71.1315459,40.8733018 71.1838363,41.0378194 71.3408781,41.1335588 C71.6009626,41.2923907 71.8593383,41.4594761 72.1336062,41.5852945 C72.435728,41.7241349 72.6324148,41.5961156 72.7052112,41.2558924 C72.7205907,41.1849132 72.7380208,41.1115497 72.7369955,41.0394701 C72.7264007,40.3093199 72.721616,39.5786195 72.692224,38.8490196 C72.6855596,38.6832181 72.6177189,38.5020102 72.5307392,38.3615191 C72.2375033,37.888508 71.8005544,37.5849666 71.3607006,37.2909624 C71.3326757,37.2722547 71.2820942,37.2922462 71.2036587,37.2962812 M68.9003214,27.3417722 C69.0278004,27.3705673 69.1151218,27.3674494 69.1785195,27.4077993 C70.3639377,28.1612424 71.5814819,28.8581956 72.6783825,29.7653352 C73.6811263,30.5945261 74.3210846,31.6821399 74.6609717,32.9680185 C74.9273789,33.9756661 74.9509608,35.0212793 74.9314801,36.0645082 C74.9265245,36.3280665 74.9164424,36.5925419 74.8920061,36.854633 C74.8344184,37.4714366 74.6461048,37.6355874 74.0712531,37.595054 C74.0205007,37.5915693 73.9685522,37.6115608 73.8513261,37.632286 C73.9201922,37.7876332 73.9567612,37.9229889 74.0305828,38.0280821 C74.6102193,38.8534214 74.8875631,39.7922907 74.9044806,40.8124101 C74.9236195,41.9550465 74.9150753,43.0984165 74.8937149,44.2410529 C74.8884175,44.5269872 74.8125453,44.8200743 74.725053,45.0937202 C74.5895424,45.5172109 74.3108316,45.6641213 73.9169454,45.510058 C73.6240512,45.3956109 73.341581,45.2378794 73.0736358,45.0652918 C71.9270082,44.3265214 70.7896082,43.5714277 69.6448603,42.8289891 C68.702951,42.218238 68.8734927,42.5452558 68.8717838,41.3347581 C68.8654611,36.8196019 68.8681953,32.3046291 68.8692206,27.7894729 C68.8693915,27.6508159 68.8880178,27.5121589 68.9003214,27.3417722" id="Fill-15"></path>
                                <path d="M43.404417,30.5581666 C43.3830427,30.7121997 43.3432089,30.8660417 43.3430145,31.0200747 C43.3412657,32.8686627 43.3453463,34.7174418 43.3478723,36.5662208 C43.3480666,36.6273754 43.345152,36.68853 43.3484553,36.7494934 C43.3599197,36.9690766 43.2431383,37.0447554 43.0338647,37.0437998 C42.3038357,37.0409332 41.5738067,37.0403599 40.8437778,37.0478131 C40.6102152,37.0501064 40.4905192,36.9665922 40.5080072,36.7265605 C40.5136423,36.6504995 40.509756,36.5738652 40.509756,36.497422 C40.509756,31.6386914 40.509756,26.7799609 40.509756,21.9212304 C40.509756,21.8447872 40.5068413,21.768344 40.509756,21.6920919 C40.5229692,21.3454219 40.567078,21.2865606 40.9145072,21.2792985 C41.5668115,21.2657299 42.2195044,21.2619077 42.8718087,21.2701253 C43.3031806,21.2756675 43.3472894,21.3282222 43.3474837,21.7564953 C43.3480666,23.3761358 43.3432089,24.9957764 43.3459292,26.6152258 C43.3461235,26.7843564 43.3828484,26.953487 43.4026682,27.1228087 C43.4426964,27.1325552 43.4825303,27.1423017 43.5223642,27.1520482 C43.6269039,27.0133038 43.7473771,26.8833504 43.8330686,26.734095 C44.7570206,25.1257298 45.6834987,23.5185113 46.5889911,21.9000174 C46.774753,21.5678717 46.9980171,21.4449892 47.3743988,21.4954417 C47.9897839,21.5780004 48.6104154,21.6204264 49.226772,21.6966785 C49.6085945,21.7438821 49.6540634,21.853387 49.463638,22.1746396 C48.2278157,24.2584816 46.9954911,26.3442346 45.7518964,28.42349 C45.5855656,28.7015521 45.5688548,28.934895 45.7140056,29.2335969 C46.9649841,31.809542 48.201195,34.3925581 49.4391547,36.9746187 C49.502306,37.106101 49.5415569,37.2484765 49.6202532,37.4627086 C49.3662878,37.4627086 49.1879097,37.4770417 49.0128349,37.4600331 C48.4262079,37.4028918 47.8419127,37.3178487 47.2543142,37.2771427 C46.9309796,37.2547831 46.8025396,37.0638662 46.6832322,36.8186746 C46.0744537,35.5653881 45.4602345,34.3147772 44.8475698,33.0634018 C44.5042211,32.3618442 44.1641757,31.6585667 43.8138317,30.9602579 C43.7370786,30.8075626 43.6230177,30.6728315 43.5260561,30.5296915 L43.404417,30.5581666 Z" id="Fill-17"></path>
                                <path d="M57.7569899,24.3037975 C58.1259922,24.4137253 58.410284,24.4898436 58.6889906,24.5837167 C59.083499,24.7164989 59.4746563,24.8606138 59.8659998,25.0032177 C60.3277181,25.1716981 60.3627193,25.2260954 60.3627193,25.7217148 C60.362347,29.2256157 60.3606714,32.7297055 60.3647673,36.2337953 C60.3651396,36.5802001 60.3789167,36.9298158 60.4273226,37.2720651 C60.5118469,37.8679795 61.0716803,38.3645433 61.6577646,38.404208 C61.8770808,38.4191295 62.0446398,38.3303562 62.124882,38.1297663 C62.1850171,37.9794183 62.2209492,37.8116935 62.2298857,37.6494461 C62.2505513,37.2728207 62.254461,36.8948731 62.254461,36.5173032 C62.2557642,33.1794273 62.2540887,29.8415513 62.2557642,26.5036753 C62.2557642,26.3595604 62.278664,26.2154454 62.2939305,26.03771 C62.4276054,26.0607532 62.5165978,26.0590533 62.5908824,26.0917294 C63.1907438,26.3561605 63.7878125,26.6273913 64.3859983,26.8961666 C64.6667528,27.0221492 64.8119707,27.2019623 64.8101089,27.551578 C64.7922359,31.0856996 64.7940977,34.6200101 64.7859059,38.1541317 C64.784975,38.5919541 64.7445747,39.0297764 64.7475535,39.467221 C64.75016,39.8587679 64.6306345,40.212539 64.4692193,40.5530884 C64.1238615,41.2815961 63.5184148,41.5849364 62.7528561,41.5071181 C62.3149684,41.4627314 61.8698199,41.3565812 61.459114,41.1964115 C60.2353744,40.7191134 59.2175463,39.965107 58.5151015,38.811243 C58.0155894,37.99094 57.8037202,37.0920631 57.7629475,36.1438888 C57.7376275,35.5555296 57.7264569,34.966226 57.7257122,34.3773001 C57.7210578,31.1905277 57.721244,28.0037552 57.7218025,24.8167938 C57.7219887,24.6715456 57.7411649,24.5264862 57.7569899,24.3037975" id="Fill-19"></path>
                                <path d="M14.4721372,30.891218 C14.4185085,31.0864243 14.3769106,31.2020023 14.3567234,31.3204562 C14.3253211,31.5045182 14.3179803,31.6919954 14.2843349,31.8756978 C13.9703116,33.5888761 13.6489474,35.3009759 13.3398179,37.0146935 C13.2863932,37.3114574 13.2666138,37.6145126 13.2578456,37.915231 C13.2509126,38.1528579 13.4038461,38.2310482 13.6330423,38.1131335 C14.3491787,37.7444704 15.0579743,37.3650223 15.7722754,36.9940224 C16.0316506,36.8593912 16.1193324,36.6796432 16.0510221,36.4163123 C15.8552673,35.6613707 15.6711354,34.9039126 15.4890427,34.1462747 C15.2871705,33.3054135 15.0891727,32.4638333 14.8968844,31.6213544 C14.8420322,31.3810313 14.7904427,31.1455614 14.4721372,30.891218 M16.2979587,42.1260079 C16.2979587,41.9541688 16.2930648,41.8288844 16.2987743,41.7041393 C16.3256906,41.100905 16.3636181,40.4980301 16.3809505,39.8947958 C16.3907383,39.5450062 16.2541177,39.4635803 15.9097116,39.6372169 C14.9764098,40.1074377 14.0561582,40.59797 13.130605,41.080234 C12.8936601,41.2035411 12.8163777,41.3859853 12.8261655,41.6248704 C12.8526739,42.2710645 12.8469644,42.9185169 12.8850958,43.5641717 C12.9034478,43.8733383 12.7947631,44.0703421 12.4933823,44.238766 C11.8194556,44.6153381 11.1687747,45.0244445 10.5060631,45.4170142 C10.4163421,45.4702196 10.3119396,45.504192 10.1628804,45.5696203 C10.1475871,45.4362472 10.1167965,45.3431378 10.1296429,45.2548815 C10.391465,43.4742977 10.6512479,41.6933544 10.9261203,39.9143884 C11.1239142,38.6336838 11.3524988,37.3569337 11.5498849,36.0764088 C11.7780616,34.5956447 11.9878863,33.1129034 12.2040322,31.6308811 C12.2953844,31.0037403 12.392854,30.3773184 12.4666699,29.7485599 C12.4968488,29.4929582 12.6314302,29.3130305 12.8657243,29.1897233 C13.9984513,28.5929599 15.1326058,27.9983535 16.2720619,27.4114763 C16.538574,27.2743285 16.673971,27.3349036 16.7445243,27.6347233 C16.8634046,28.1405342 16.9580194,28.6510185 17.053246,29.1609637 C17.3022216,30.4932559 17.54508,31.8264469 17.7922204,33.1589189 C17.9920534,34.235969 18.1892356,35.3133785 18.3980408,36.3889906 C18.5929799,37.3936023 18.8032125,38.3958772 19.0038611,39.3995901 C19.0829787,39.7955749 19.1527164,40.192818 19.2297948,40.5891624 C19.2669067,40.7804143 19.2114428,40.9240329 19.0026377,41.0173221 C18.1890317,41.3805929 17.3786884,41.7494358 16.5646746,42.1118078 C16.5136968,42.1346358 16.4411044,42.1198964 16.2979587,42.1260079" id="Fill-21"></path>
                                <path d="M64.8583673,5.06329114 C64.9925124,5.10436109 65.0795254,5.1123795 65.1525091,5.15618745 C65.8998439,5.60502329 66.6432378,6.06461555 67.3919913,6.50973554 C67.6419961,6.65856521 67.7176596,6.88171192 67.7168714,7.22005005 C67.7083593,11.5030588 67.7104085,15.7860675 67.709778,20.0690762 C67.709778,20.2253376 67.7141917,20.3817945 67.7099356,20.5378603 C67.7023693,20.8185049 67.7996284,20.9976481 68.0037622,21.1325923 C68.49258,21.4556758 68.9643735,21.8180692 69.4546099,22.1374369 C69.7560029,22.3337904 69.8868377,22.5849038 69.8723355,23.0274814 C69.842543,23.9325848 69.8641387,24.8402306 69.8620894,25.7468985 C69.8617742,25.9119606 69.8490059,26.0770227 69.8384446,26.3291139 C69.6507045,26.2182251 69.5152984,26.1527087 69.391557,26.0625504 C68.0556233,25.0880193 66.689897,24.1829159 65.2718368,23.4066939 C64.9370258,23.2234437 64.809186,22.9885627 64.8101318,22.525059 C64.8225847,16.9289854 64.8178558,11.3329118 64.819905,5.73683826 C64.8200626,5.52679482 64.8432346,5.31675138 64.8583673,5.06329114" id="Fill-23"></path>
                                <path d="M7.03158079,12.1518987 C7.05840617,12.3737785 7.08366383,12.4872852 7.08383802,12.6007918 C7.08662508,13.5736786 7.07843811,14.5467556 7.08854117,15.5194523 C7.09132823,15.7890543 7.00649731,15.9772814 6.81680355,16.1445943 C6.28621841,16.6125002 5.77287817,17.1041722 5.23846084,17.5665644 C4.97473599,17.7947184 4.87457629,18.0574758 4.87544724,18.4261347 C4.88520192,22.6825384 4.87823429,26.938942 4.8893825,31.1953457 C4.89025346,31.5630539 4.79166147,31.8166851 4.54256865,32.0634718 C3.81079316,32.7884312 3.10305599,33.5422902 2.38417062,34.2828401 C2.33801006,34.3303722 2.27808843,34.3619335 2.18454798,34.4303797 C2.15807098,34.2904453 2.12427797,34.1950008 2.12427797,34.0993663 C2.12323282,29.919014 2.12567149,25.7384715 2.1254973,21.5581192 C2.1254973,21.3852925 2.10267831,21.2122757 2.08264637,20.9286042 C1.88772688,21.0751932 1.75534188,21.1443999 1.65936276,21.2523928 C1.2521047,21.710412 0.856343237,22.1805995 0.455007667,22.6447028 C0.352757675,22.7629626 0.24510777,22.8757088 0.0785813785,23.058232 C0.0421755043,22.8629702 0.00542124847,22.7564983 0.0050728669,22.6496461 C0.000718097257,21.6465289 0.00611801162,20.6430314 2.13341131e-05,19.6399142 C-0.00137219217,19.4267803 0.0655170696,19.2701145 0.19633435,19.1134487 C2.19813486,16.7163103 4.33859124,14.4800205 6.65219326,12.4429853 C6.74625628,12.3600893 6.85007399,12.2905023 7.03158079,12.1518987" id="Fill-25"></path>
                                <path d="M50.6335817,30.2577125 C50.6339265,27.7961263 50.6339265,25.3343453 50.6337541,22.8727592 C50.6337541,22.8104208 50.631858,22.7480824 50.6337541,22.6857441 C50.6458205,22.2922331 50.6840881,22.2378819 51.0243594,22.300415 C51.5949259,22.4054162 52.1649752,22.5201578 52.7283018,22.6650945 C53.130284,22.7685372 53.1368343,22.8065246 53.1373514,23.2728935 C53.1387305,24.7997938 53.1378686,26.3266942 53.1378686,27.8535945 C53.1378686,30.2684269 53.1376962,32.6834541 53.1378686,35.0982865 C53.1378686,35.2385478 53.1332144,35.3793936 53.1433846,35.5186808 C53.1668278,35.845178 53.2176789,35.9094645 53.5053754,35.9914784 C54.0657717,36.1512204 54.6265126,36.3088196 55.1872536,36.467198 C55.6395698,36.5949917 55.6952474,36.6756419 55.6949026,37.2010375 C55.6945579,37.8398109 55.6995568,38.4787791 55.6919722,39.1173577 C55.6874904,39.493336 55.6040602,39.5529471 55.2851635,39.446777 C54.0023371,39.0201489 52.6965846,38.7063142 51.3811789,38.4400125 C51.2861994,38.4207265 51.1908752,38.4039731 51.0960681,38.3829339 C50.6590935,38.2865042 50.6334094,38.2506597 50.6334094,37.7361734 C50.633237,35.243418 50.633237,32.7504678 50.6335817,30.2577125" id="Fill-27"></path>
                                <path d="M27.3770551,38.4810127 C27.3632194,38.2556364 27.3445411,38.0937598 27.3443681,37.9316937 C27.3426387,33.0947297 27.3429845,28.2577657 27.3417739,23.4208016 C27.341601,22.9332763 27.3531884,22.8843721 27.7926471,22.7753803 C28.3580112,22.635302 28.9157657,22.4580718 29.4788815,22.3054832 C29.735881,22.2359179 29.794683,22.2905087 29.8149178,22.5903784 C29.824084,22.726097 29.8183767,22.8631424 29.8183767,22.9996192 C29.8183767,26.7146305 29.8183767,30.4294522 29.8185497,34.1444634 C29.8185497,34.2809402 29.8131883,34.4181752 29.8242569,34.5537042 C29.8519285,34.8967916 29.944974,34.9637031 30.2606025,34.8958439 C30.8299445,34.7733939 31.3987676,34.6481006 31.9701849,34.5377819 C32.3572405,34.4630988 32.3985749,34.5072642 32.4013421,34.9462644 C32.4054928,35.5829665 32.4067034,36.219858 32.4022068,36.8567496 C32.3992667,37.2457084 32.3606995,37.2965081 32.0146323,37.3721389 C31.3365066,37.5201783 30.6535384,37.6439552 29.9792176,37.8098123 C29.2924445,37.9785128 28.6141459,38.1885354 27.9306589,38.3741059 C27.763592,38.4195981 27.5908178,38.4404487 27.3770551,38.4810127" id="Fill-29"></path>
                                <path d="M25.2637895,35.876782 C25.2841091,36.045739 25.3117365,36.1727827 25.3126277,36.3000126 C25.3174403,36.9402607 25.317262,37.580695 25.3145884,38.220943 C25.312806,38.5948091 25.2866045,38.6398891 24.930656,38.7583639 C23.4787001,39.241577 22.0622143,39.8227739 20.6574924,40.4371289 C20.3510951,40.5712513 20.2767684,40.5226319 20.2559141,40.1830415 C20.2505668,40.0941854 20.2546664,40.004398 20.2546664,39.9151693 C20.2544882,35.2244257 20.2544882,30.5338684 20.2544882,25.8433111 C20.2544882,25.7538962 20.25734,25.6644813 20.2544882,25.5752526 C20.2468238,25.3368129 20.3521645,25.1836898 20.5632026,25.0955789 C21.1451613,24.8528546 21.7230205,24.5989535 22.30694,24.3616315 C22.6095942,24.2384997 22.6951501,24.3040706 22.7120831,24.6349058 C22.7174303,24.7388506 22.7126178,24.8433543 22.7126178,24.9476717 C22.7126178,28.6405076 22.7124396,32.3335298 22.7124396,36.0263657 C22.7124396,36.7433616 22.7208169,36.7496951 23.3681903,36.5168438 C23.8786742,36.3329844 24.3875539,36.1439091 24.898929,35.9620988 C25.0014179,35.925774 25.1112147,35.9116166 25.2637895,35.876782" id="Fill-31"></path>
                                <path d="M34.4900289,37.4683544 C34.4669267,37.2636364 34.4327936,37.1006739 34.4327936,36.9377114 C34.4298798,31.9742172 34.4298798,27.0107231 34.4313367,22.0470357 C34.4315448,21.5484825 34.4550633,21.5216121 34.9762167,21.4667113 C35.6542988,21.3953789 36.3334215,21.3319724 37.0129605,21.2737853 C37.3890484,21.2416954 37.4460756,21.295243 37.466264,21.6461054 C37.4708428,21.7232371 37.4664721,21.8007554 37.4664721,21.8780805 C37.4664721,26.7487846 37.4664721,31.619682 37.4664721,36.490386 C37.4664721,37.2164681 37.4656396,37.2064159 36.6660106,37.2570638 C36.1854423,37.2876072 35.7077878,37.3568131 35.2284682,37.4055278 C35.000984,37.4287253 34.7726672,37.444577 34.4900289,37.4683544" id="Fill-33"></path>
                            </g>
                        </g>
                    </g>
                </g>
            </g>
        </g>
    </g>
</svg>