<?xml version="1.0" encoding="UTF-8"?>
<svg width="197px" height="77px" viewBox="0 0 197 77" version="1.1" xmlns="http://www.w3.org/2000/svg" xmlns:xlink="http://www.w3.org/1999/xlink">
    <!-- Generator: Sketch 46.2 (44496) - http://www.bohemiancoding.com/sketch -->
    <title>ttu</title>
    <desc>Created with Sketch.</desc>
    <defs>
        <filter x="-0.5%" y="-4.6%" width="100.9%" height="107.9%" filterUnits="objectBoundingBox" id="filter-1">
            <feOffset dx="0" dy="-1" in="SourceAlpha" result="shadowOffsetOuter1"></feOffset>
            <feGaussianBlur stdDeviation="2" in="shadowOffsetOuter1" result="shadowBlurOuter1"></feGaussianBlur>
            <feColorMatrix values="0 0 0 0 0   0 0 0 0 0   0 0 0 0 0  0 0 0 0.2 0" type="matrix" in="shadowBlurOuter1" result="shadowMatrixOuter1"></feColorMatrix>
            <feMerge>
                <feMergeNode in="shadowMatrixOuter1"></feMergeNode>
                <feMergeNode in="SourceGraphic"></feMergeNode>
            </feMerge>
        </filter>
    </defs>
    <g id="web" stroke="none" stroke-width="1" fill="none" fill-rule="evenodd">
        <g id="Desktop-HD" transform="translate(-160.000000, -921.000000)">
            <g id="Group-2" filter="url(#filter-1)" transform="translate(0.000000, 880.000000)">
                <g id="Group" transform="translate(164.000000, 21.000000)">
                    <g id="ttu" transform="translate(0.000000, 25.000000)">
                        <path d="M53.8005162,18.9847677 L58.2226906,18.5572942 L58.2226906,0 L53.8005162,0 L53.8005162,18.9847677 Z M42.3545431,20.0927093 L49.4972649,19.4020633 L49.4972649,0 L42.3545431,0 L42.3545431,20.0927093 Z M62.5362192,0 L62.5362192,18.1370906 L62.756447,18.1210967 L64,18.0018694 L64,0 L62.5362192,0 Z M7.66572734,18.5514782 L12.0923062,18.9818597 L12.0923062,0 L7.66572734,0 L7.66572734,18.5514782 Z M28.6387554,20.5827044 L32.9478794,21 L37.2496626,20.5827044 L37.2496626,0 L28.6387554,0 L28.6387554,20.5827044 Z M2,18.0018694 L3.35366691,18.1341826 L3.35366691,0 L2,0 L2,18.0018694 Z M16.3940894,19.3947933 L23.535343,20.0883473 L23.535343,0 L16.3940894,0 L16.3940894,19.3947933 Z" id="Fill-1" fill="#777776"></path>
                        <path d="M53.8005162,64 L58.2226906,64 L58.2226906,45.4367856 L53.8005162,45.0134396 L53.8005162,64 Z M42.3545431,64 L49.4972649,64 L49.4972649,44.5959127 L42.3545431,43.904884 L42.3545431,64 Z M64,64 L64,45.9983374 L62.756447,45.8746796 L62.5362192,45.857222 L62.5362192,64 L64,64 Z M7.66572734,64 L12.0923062,64 L12.0923062,45.0192587 L7.66572734,45.4440596 L7.66572734,64 Z M28.6387554,64 L37.2496626,64 L37.2496626,43.4146172 L32.9478794,43 L28.6387554,43.4146172 L28.6387554,64 Z M2,64 L3.35366691,64 L3.35366691,45.864496 L2,45.9983374 L2,64 Z M16.3940894,64 L23.535343,64 L23.535343,43.9092484 L16.3940894,44.6031867 L16.3940894,64 Z" id="Fill-2" fill="#777776"></path>
                        <path d="M61.0259067,41 L64,41 L64,22 L61.0259067,22 L61.0259067,41 Z M52.3449297,41 L58.1761658,41 L58.1761658,22 L52.3449297,22 L52.3449297,41 Z M40.6780163,41 L49.4848261,41 L49.4848261,22 L40.6780163,22 L40.6780163,41 Z M26.1643227,41 L37.8356773,41 L37.8356773,22 L26.1643227,22 L26.1643227,41 Z M14.5122132,41 L23.3042191,41 L23.3042191,22 L14.5122132,22 L14.5122132,41 Z M5.8238342,41 L11.6595115,41 L11.6595115,22 L5.8238342,22 L5.8238342,41 Z M0,41 L2.97261288,41 L2.97261288,22 L0,22 L0,41 Z" id="Fill-3" fill="#800F43"></path>
                        <path d="M163.168835,5.1462647 L166.917491,5.1462647 L166.917491,0 L163.168835,0 L163.168835,5.1462647 Z M172.843501,5.1462647 L176.590679,5.1462647 L176.590679,0 L172.843501,0 L172.843501,5.1462647 Z M182.03037,0 L182.03037,28.6383966 C182.03037,35.9582574 177.347506,40.5081994 169.813239,40.5081994 C162.358794,40.5081994 157.726188,36.0089448 157.726188,28.7651151 L157.726188,0 L152.758036,0 L152.758036,28.7651151 C152.758036,38.4732483 159.634514,45 169.875323,45 C180.119087,45 187,38.4732483 187,28.7651151 L187,0 L182.03037,0 Z M77,4.17425874 L91.3264889,4.17425874 L91.3264889,44.2277621 L96.2961191,44.2277621 L96.2961191,4.17425874 L110.619652,4.17425874 L110.619652,0 L77,0 L77,4.17425874 Z M114.876801,4.17425874 L129.204768,4.17425874 L129.204768,44.2277621 L134.174398,44.2277621 L134.174398,4.17425874 L148.499409,4.17425874 L148.499409,0 L114.876801,0 L114.876801,4.17425874 Z" id="Fill-4" fill="#777776"></path>
                        <text id="KORVPALL" font-family="LucidaGrande, Lucida Grande" font-size="20" font-weight="normal" fill="#777776">
                            <tspan x="89" y="68">KO</tspan>
                            <tspan x="117.59375" y="68" letter-spacing="-0.125">R</tspan>
                            <tspan x="130.115234" y="68">V</tspan>
                            <tspan x="143.191406" y="68" letter-spacing="-0.375">P</tspan>
                            <tspan x="153.871094" y="68">ALL</tspan>
                        </text>
                    </g>
                </g>
            </g>
        </g>
    </g>
</svg>