<?xml version="1.0" encoding="UTF-8"?>
<svg width="100px" height="100px" viewBox="0 0 100 100" version="1.1" xmlns="http://www.w3.org/2000/svg" xmlns:xlink="http://www.w3.org/1999/xlink">
    <!-- Generator: Sketch 46.2 (44496) - http://www.bohemiancoding.com/sketch -->
    <title>ttu</title>
    <desc>Created with Sketch.</desc>
    <defs>
        <circle id="path-1" cx="50" cy="50" r="50"></circle>
    </defs>
    <g id="web" stroke="none" stroke-width="1" fill="none" fill-rule="evenodd">
        <g id="Desktop-HD" transform="translate(-380.000000, -641.000000)">
            <g id="Group-8" transform="translate(380.000000, 641.000000)">
                <g id="Group-7">
                    <g id="ttu">
                        <g id="Group-19">
                            <mask id="mask-2" fill="white">
                                <use xlink:href="#path-1"></use>
                            </mask>
                            <use id="Oval-2" fill="#FFFFFF" xlink:href="#path-1"></use>
                            <g id="TTU_BB_logo_est" mask="url(#mask-2)">
                                <g transform="translate(10.000000, 37.000000)">
                                    <path d="M22.8487619,8.64895238 L24.7611429,8.46228571 L24.7611429,0.358793651 L22.8487619,0.358793651 L22.8487619,8.64895238 Z M17.8989206,9.1327619 L20.9878095,8.8311746 L20.9878095,0.358793651 L17.8989206,0.358793651 L17.8989206,9.1327619 Z M26.6265397,0.358793651 L26.6265397,8.27879365 L26.7217778,8.27180952 L27.2595556,8.21974603 L27.2595556,0.358793651 L26.6265397,0.358793651 Z M2.89765079,8.45974603 L4.81193651,8.64768254 L4.81193651,0.358793651 L2.89765079,0.358793651 L2.89765079,8.45974603 Z M11.9674921,9.34673016 L13.8309841,9.52895238 L15.6913016,9.34673016 L15.6913016,0.358793651 L11.9674921,0.358793651 L11.9674921,9.34673016 Z M0.447492063,8.21974603 L1.03288889,8.27752381 L1.03288889,0.358793651 L0.447492063,0.358793651 L0.447492063,8.21974603 Z M6.67225397,8.828 L9.76050794,9.13085714 L9.76050794,0.358793651 L6.67225397,0.358793651 L6.67225397,8.828 Z" id="Fill-1" fill="#777776" fill-rule="evenodd"></path>
                                    <path d="M22.8487619,27.8075556 L24.7611429,27.8075556 L24.7611429,19.7059683 L22.8487619,19.5212063 L22.8487619,27.8075556 Z M17.8989206,27.8075556 L20.9878095,27.8075556 L20.9878095,19.3389841 L17.8989206,19.0373968 L17.8989206,27.8075556 Z M27.2595556,27.8075556 L27.2595556,19.9510476 L26.7217778,19.8970794 L26.6265397,19.8894603 L26.6265397,27.8075556 L27.2595556,27.8075556 Z M2.89765079,27.8075556 L4.81193651,27.8075556 L4.81193651,19.523746 L2.89765079,19.7091429 L2.89765079,27.8075556 Z M11.9674921,27.8075556 L15.6913016,27.8075556 L15.6913016,18.8234286 L13.8309841,18.6424762 L11.9674921,18.8234286 L11.9674921,27.8075556 Z M0.447492063,27.8075556 L1.03288889,27.8075556 L1.03288889,19.8926349 L0.447492063,19.9510476 L0.447492063,27.8075556 Z M6.67225397,27.8075556 L9.76050794,27.8075556 L9.76050794,19.0393016 L6.67225397,19.3421587 L6.67225397,27.8075556 Z" id="Fill-2" fill="#777776" fill-rule="evenodd"></path>
                                    <path d="M26.2793651,18.0217778 L27.5549206,18.0217778 L27.5549206,10.1506667 L26.2793651,10.1506667 L26.2793651,18.0217778 Z M22.5561905,18.0217778 L25.0571429,18.0217778 L25.0571429,10.1506667 L22.5561905,10.1506667 L22.5561905,18.0217778 Z M17.552381,18.0217778 L21.3295238,18.0217778 L21.3295238,10.1506667 L17.552381,10.1506667 L17.552381,18.0217778 Z M11.327619,18.0217778 L16.3333333,18.0217778 L16.3333333,10.1506667 L11.327619,10.1506667 L11.327619,18.0217778 Z M6.33015873,18.0217778 L10.1009524,18.0217778 L10.1009524,10.1506667 L6.33015873,10.1506667 L6.33015873,18.0217778 Z M2.60380952,18.0217778 L5.10666667,18.0217778 L5.10666667,10.1506667 L2.60380952,10.1506667 L2.60380952,18.0217778 Z M0.106031746,18.0217778 L1.38095238,18.0217778 L1.38095238,10.1506667 L0.106031746,10.1506667 L0.106031746,18.0217778 Z" id="Fill-3" fill="#800F43" fill-rule="evenodd"></path>
                                    <path d="M69.568254,2.55066667 L71.1784127,2.55066667 L71.1784127,0.358920635 L69.568254,0.358920635 L69.568254,2.55066667 Z M73.7238095,2.55066667 L75.3333333,2.55066667 L75.3333333,0.358920635 L73.7238095,0.358920635 L73.7238095,2.55066667 Z M77.6698413,0.358920635 L77.6698413,12.555746 C77.6698413,15.6732063 75.6584127,17.6109841 72.4222222,17.6109841 C69.2203175,17.6109841 67.2304762,15.6947937 67.2304762,12.6097143 L67.2304762,0.358920635 L65.0965079,0.358920635 L65.0965079,12.6097143 C65.0965079,16.7443175 68.0501587,19.524 72.4488889,19.524 C76.8488889,19.524 79.8044444,16.7443175 79.8044444,12.6097143 L79.8044444,0.358920635 L77.6698413,0.358920635 Z M32.5561905,2.13669841 L38.7098413,2.13669841 L38.7098413,19.1951111 L40.8444444,19.1951111 L40.8444444,2.13669841 L46.9968254,2.13669841 L46.9968254,0.358920635 L32.5561905,0.358920635 L32.5561905,2.13669841 Z M48.8253968,2.13669841 L54.9796825,2.13669841 L54.9796825,19.1951111 L57.1142857,19.1951111 L57.1142857,2.13669841 L63.2673016,2.13669841 L63.2673016,0.358920635 L48.8253968,0.358920635 L48.8253968,2.13669841 Z" id="Fill-4" fill="#777776" fill-rule="evenodd"></path>
                                    <text id="KORVPALL" fill="none" font-family="LucidaGrande, Lucida Grande" font-size="8.5" font-weight="normal">
                                        <tspan x="37.7731429" y="28.2423621" fill="#777776">KO</tspan>
                                        <tspan x="49.9254866" y="28.2423621" letter-spacing="-0.125" fill="#777776">R</tspan>
                                        <tspan x="55.1752425" y="28.2423621" fill="#777776">V</tspan>
                                        <tspan x="60.7326155" y="28.2423621" letter-spacing="-0.375" fill="#777776">P</tspan>
                                        <tspan x="65.0558577" y="28.2423621" fill="#777776">ALL</tspan>
                                    </text>
                                </g>
                            </g>
                        </g>
                    </g>
                </g>
            </g>
        </g>
    </g>
</svg>