<?xml version="1.0" encoding="UTF-8"?>
<svg width="220px" height="80px" viewBox="0 0 220 80" version="1.1" xmlns="http://www.w3.org/2000/svg" xmlns:xlink="http://www.w3.org/1999/xlink">
    <!-- Generator: Sketch 47.1 (45422) - http://www.bohemiancoding.com/sketch -->
    <title>4teams</title>
    <desc>Created with Sketch.</desc>
    <defs>
        <rect id="path-1" x="0" y="0" width="220" height="80"></rect>
    </defs>
    <g id="web" stroke="none" stroke-width="1" fill="none" fill-rule="evenodd">
        <g id="Desktop-HD" transform="translate(-374.000000, -2345.000000)">
            <g id="sponsors-tab" transform="translate(0.000000, 2303.000000)">
                <g id="sponsors" transform="translate(374.000000, 42.000000)">
                    <g id="4teams">
                        <mask id="mask-2" fill="white">
                            <use xlink:href="#path-1"></use>
                        </mask>
                        <use id="Path" fill="#F8F8F8" xlink:href="#path-1"></use>
                        <g id="4teams_logo" mask="url(#mask-2)">
                            <g transform="translate(20.000000, 14.000000)">
                                <path d="M72.231,15.2996117 L78.4685,15.2996117 L78.4685,9.39584466 L72.231,9.39584466 L72.231,15.2996117 Z M71.14,36.7892427 L64.2405,36.7892427 L64.2405,15.2996117 L57.1465,15.2996117 L57.1465,9.39584466 L71.14,9.39584466 L71.14,36.7892427 Z" id="Fill-1" fill="#1A1919"></path>
                                <path d="M87.631,36.7892427 L99.909,36.7892427 L99.909,30.8854757 L87.631,30.8854757 L87.631,36.7892427 Z M87.631,25.7682718 L96.947,25.7682718 L96.947,19.9831456 L87.631,19.9831456 L87.631,25.7682718 Z M87.631,15.2996117 L99.325,15.2996117 L99.325,9.39584466 L87.631,9.39584466 L87.631,15.2996117 Z M79.64,36.7892427 L86.5395,36.7892427 L86.5395,9.39584466 L79.64,9.39584466 L79.64,36.7892427 Z" id="Fill-2" fill="#1A1919"></path>
                                <path d="M123.1832,26.0045437 L126.9247,36.7892427 L119.6742,36.7892427 L118.1547,31.633165 L110.9042,31.633165 L112.5022,26.0045437 L123.1832,26.0045437 Z M116.2057,24.9024466 L114.0607,17.4644272 L113.8662,17.4644272 L108.3312,36.7892427 L101.0807,36.7892427 L110.3587,9.39584466 L117.5307,9.39584466 L122.8322,24.9024466 L116.2057,24.9024466 Z" id="Fill-3" fill="#1A1919"></path>
                                <path d="M142.11205,23.9191417 L148.03755,9.39599612 L154.62505,9.39599612 L154.62505,36.7893942 L147.88105,36.7893942 L147.88105,24.9419767 L147.72555,24.9419767 L145.11355,30.6892388 L142.11205,23.9191417 Z M128.11755,9.63176311 L128.11755,9.39599612 L134.43355,9.39599612 L144.56755,31.9872194 L144.02205,33.2079573 L138.64205,33.2079573 L128.11755,9.63176311 Z M134.82255,27.1461709 L134.82255,36.7893942 L128.07955,36.7893942 L128.07955,12.0717243 L134.82255,27.1461709 Z" id="Fill-4" fill="#1A1919"></path>
                                <g id="Group-61" stroke-width="1" fill="none" transform="translate(0.000000, 0.141359)">
                                    <path d="M168.19295,8.93960777 C171.23345,9.05723883 174.78045,9.88368544 177.43145,11.6552194 L174.50745,16.7719184 C171.97345,15.1967728 169.59645,14.9216272 168.19295,14.8827534 L168.19295,8.93960777 Z M168.07545,30.980035 C170.76595,30.980035 171.63095,29.8385592 171.63095,28.5006951 C171.63095,27.2405786 171.23345,26.3747534 167.45245,25.5483068 C162.50145,24.4462097 157.51195,23.2269864 157.51195,17.4019767 C157.51195,11.5365786 162.81345,8.93960777 167.10145,8.93960777 L167.10145,14.8827534 C164.95795,14.9610058 164.17745,15.7874524 164.17745,16.9289282 C164.17745,18.0704039 164.84045,18.6610835 170.02445,19.9206951 C174.66395,21.0611612 178.60845,22.8326951 178.60845,28.185666 C178.60845,33.853666 174.27395,36.8838019 168.07545,36.8838019 L168.07545,30.980035 Z M166.98395,36.8838019 C163.51545,36.765666 159.57845,36.0573553 156.22595,33.0272194 L159.73395,27.9892777 C161.99495,30.0748311 164.68495,30.7836466 166.94495,30.9406563 L166.98395,36.8838019 Z" id="Fill-5" fill="#1A1919"></path>
                                    <path d="M66.30165,48.722334 C65.42615,48.722334 64.86665,48.4789942 64.32415,47.9312272 L64.64115,47.6106447 C65.17515,48.1498291 65.61765,48.3189553 66.32715,48.3189553 C67.27015,48.3189553 67.85415,47.862567 67.85415,47.0800427 C67.85415,46.7170524 67.75365,46.4308 67.52815,46.2374408 C67.30315,46.0602369 67.16165,45.9845087 66.66965,45.9173631 L65.97715,45.8073049 C65.52665,45.7401592 65.17515,45.5967806 64.91715,45.3695961 C64.60865,45.1075767 64.45015,44.7375184 64.45015,44.2654796 C64.45015,43.2542563 65.15115,42.6231883 66.29415,42.6231883 C67.02815,42.6231883 67.49565,42.8246252 68.00415,43.2714214 L67.71215,43.5657515 C67.36215,43.2295184 66.97015,43.0104117 66.26865,43.0104117 C65.40065,43.0104117 64.89215,43.4814408 64.89215,44.2483146 C64.89215,44.5941398 64.99265,44.8556544 65.20065,45.0318485 C65.40915,45.2090524 65.75165,45.3438485 66.08465,45.4024117 L66.72765,45.5038874 C67.28715,45.5796155 67.54515,45.6896738 67.78765,45.9001981 C68.11315,46.1692854 68.30465,46.5822563 68.30465,47.0628777 C68.30465,48.0826835 67.54515,48.722334 66.30165,48.722334" id="Fill-7" fill="#1A1919"></path>
                                    <path d="M71.86425,43.0779612 L70.18725,43.0779612 L70.18725,45.7228932 L71.86425,45.7228932 C72.69025,45.7228932 73.25825,45.3023495 73.25825,44.3996699 C73.25825,43.4985049 72.69025,43.0779612 71.86425,43.0779612 M71.91375,46.1277864 L70.18725,46.1277864 L70.18725,48.6722524 L69.73625,48.6722524 L69.73625,42.673068 L71.91375,42.673068 C72.94075,42.673068 73.70875,43.297068 73.70875,44.3996699 C73.70875,45.4957087 72.94075,46.1277864 71.91375,46.1277864" id="Fill-9" fill="#1A1919"></path>
                                    <path d="M77.9525,43.4901243 C77.652,43.1867068 77.2515,43.026668 76.825,43.026668 C76.4,43.026668 75.999,43.1867068 75.699,43.4901243 C75.274,43.9202602 75.24,44.392299 75.24,45.6726097 C75.24,46.9529204 75.274,47.4249592 75.699,47.8550951 C75.999,48.1585126 76.4,48.3185515 76.825,48.3185515 C77.2515,48.3185515 77.652,48.1585126 77.9525,47.8550951 C78.3775,47.4249592 78.4115,46.9529204 78.4115,45.6726097 C78.4115,44.392299 78.3775,43.9202602 77.9525,43.4901243 M78.311,48.1075223 C77.9185,48.5033282 77.393,48.722435 76.825,48.722435 C76.2585,48.722435 75.7325,48.5033282 75.3405,48.1075223 C74.798,47.5597553 74.7895,47.020066 74.7895,45.6726097 C74.7895,44.3165709 74.798,43.7849592 75.3405,43.2382019 C75.7325,42.8418913 76.2585,42.6232893 76.825,42.6232893 C77.393,42.6232893 77.9185,42.8418913 78.311,43.2382019 C78.8535,43.7849592 78.862,44.3165709 78.862,45.6726097 C78.862,47.020066 78.8535,47.5597553 78.311,48.1075223" id="Fill-11" fill="#1A1919"></path>
                                    <path d="M82.68705,43.0779612 L80.93455,43.0779612 L80.93455,45.5037864 L82.68705,45.5037864 C83.45505,45.5037864 83.99755,45.1251456 83.99755,44.2911262 C83.99755,43.4571068 83.45505,43.0779612 82.68705,43.0779612 L82.68705,43.0779612 Z M82.57055,45.9086796 L80.93455,45.9086796 L80.93455,48.6722524 L80.48405,48.6722524 L80.48405,42.673068 L82.74505,42.673068 C83.71405,42.673068 84.44805,43.238 84.44805,44.2825437 C84.44805,45.1837087 83.91355,45.7572233 83.07955,45.9000971 L84.51455,48.6722524 L83.98905,48.6722524 L82.57055,45.9086796 Z" id="Fill-13" fill="#1A1919"></path>
                                    <polygon id="Fill-15" fill="#1A1919" points="87.5401 48.6721515 87.0896 48.6721515 87.0896 43.0778602 85.3201 43.0778602 85.3201 42.6734718 89.3166 42.6734718 89.3166 43.0778602 87.5401 43.0778602"></polygon>
                                    <path d="M91.9934,48.722334 C91.1169,48.722334 90.5574,48.4789942 90.0149,47.9312272 L90.3319,47.6106447 C90.8659,48.1498291 91.3079,48.3189553 92.0179,48.3189553 C92.9609,48.3189553 93.5449,47.862567 93.5449,47.0800427 C93.5449,46.7170524 93.4444,46.4308 93.2189,46.2374408 C92.9939,46.0602369 92.8519,45.9845087 92.3604,45.9173631 L91.6679,45.8073049 C91.2174,45.7401592 90.8659,45.5967806 90.6079,45.3695961 C90.2994,45.1075767 90.1404,44.7375184 90.1404,44.2654796 C90.1404,43.2542563 90.8419,42.6231883 91.9849,42.6231883 C92.7189,42.6231883 93.1864,42.8246252 93.6949,43.2714214 L93.4029,43.5657515 C93.0529,43.2295184 92.6609,43.0104117 91.9594,43.0104117 C91.0914,43.0104117 90.5824,43.4814408 90.5824,44.2483146 C90.5824,44.5941398 90.6829,44.8556544 90.8914,45.0318485 C91.0999,45.2090524 91.4424,45.3438485 91.7754,45.4024117 L92.4184,45.5038874 C92.9779,45.5796155 93.2359,45.6896738 93.4784,45.9001981 C93.8039,46.1692854 93.9954,46.5822563 93.9954,47.0628777 C93.9954,48.0826835 93.2359,48.722334 91.9934,48.722334" id="Fill-17" fill="#1A1919"></path>
                                    <polygon id="Fill-19" fill="#1A1919" points="99.42465 48.6721515 98.02215 43.4484233 96.62015 48.6721515 96.16115 48.6721515 94.67615 42.6734718 95.15215 42.6734718 96.40315 47.8886175 97.78865 42.6734718 98.25615 42.6734718 99.64165 47.8886175 100.89265 42.6734718 101.36815 42.6734718 99.88365 48.6721515"></polygon>
                                    <polygon id="Fill-21" fill="#1A1919" points="102.47245 42.6732194 106.07745 42.6732194 106.07745 43.0781126 102.92295 43.0781126 102.92295 45.4453748 105.60995 45.4453748 105.60995 45.8497631 102.92295 45.8497631 102.92295 48.2675107 106.07745 48.2675107 106.07745 48.671899 102.47245 48.671899"></polygon>
                                    <path d="M107.83415,46.8098951 L110.32165,46.8098951 L109.07765,43.2799534 L107.83415,46.8098951 Z M110.46315,47.2147883 L107.69265,47.2147883 L107.17515,48.6723029 L106.69115,48.6723029 L108.87815,42.6731184 L109.27765,42.6731184 L111.46465,48.6723029 L110.98015,48.6723029 L110.46315,47.2147883 Z" id="Fill-23" fill="#1A1919"></path>
                                    <path d="M114.7314,43.0779612 L112.9789,43.0779612 L112.9789,45.5037864 L114.7314,45.5037864 C115.4994,45.5037864 116.0419,45.1251456 116.0419,44.2911262 C116.0419,43.4571068 115.4994,43.0779612 114.7314,43.0779612 L114.7314,43.0779612 Z M114.6149,45.9086796 L112.9789,45.9086796 L112.9789,48.6722524 L112.5284,48.6722524 L112.5284,42.673068 L114.7894,42.673068 C115.7584,42.673068 116.4924,43.238 116.4924,44.2825437 C116.4924,45.1837087 115.9579,45.7572233 115.1239,45.9000971 L116.5589,48.6722524 L116.0334,48.6722524 L114.6149,45.9086796 Z" id="Fill-25" fill="#1A1919"></path>
                                    <polygon id="Fill-27" fill="#1A1919" points="131.29025 42.6732194 134.89525 42.6732194 134.89525 43.0781126 131.74075 43.0781126 131.74075 45.4453748 134.42775 45.4453748 134.42775 45.8497631 131.74075 45.8497631 131.74075 48.2675107 134.89525 48.2675107 134.89525 48.671899 131.29025 48.671899"></polygon>
                                    <path d="M139.2302,43.4901243 C138.9297,43.1867068 138.5292,43.026668 138.1027,43.026668 C137.6777,43.026668 137.2772,43.1867068 136.9767,43.4901243 C136.5517,43.9202602 136.5177,44.392299 136.5177,45.6726097 C136.5177,46.9529204 136.5517,47.4249592 136.9767,47.8550951 C137.2772,48.1585126 137.6777,48.3185515 138.1027,48.3185515 C138.4782,48.3185515 138.8212,48.2004155 139.1127,47.9641437 L138.2782,47.1215417 L138.5787,46.8186291 L139.4047,47.6526485 C139.6722,47.2735029 139.6892,46.7509786 139.6892,45.6726097 C139.6892,44.392299 139.6552,43.9202602 139.2302,43.4901243 L139.2302,43.4901243 Z M139.4132,48.2675612 C139.0462,48.5623961 138.5787,48.722435 138.1027,48.722435 C137.5362,48.722435 137.0102,48.5033282 136.6182,48.1075223 C136.0757,47.5597553 136.0672,47.020066 136.0672,45.6726097 C136.0672,44.3165709 136.0757,43.7849592 136.6182,43.2382019 C137.0102,42.8418913 137.5362,42.6232893 138.1027,42.6232893 C138.6707,42.6232893 139.1962,42.8418913 139.5887,43.2382019 C140.1312,43.7849592 140.1397,44.3165709 140.1397,45.6726097 C140.1397,46.9029398 140.1312,47.4764544 139.7137,47.9641437 L140.4147,48.6719495 L140.1142,48.975367 L139.4132,48.2675612 Z" id="Fill-29" fill="#1A1919"></path>
                                    <path d="M143.7068,48.722334 C142.5138,48.722334 141.6708,47.8968971 141.6708,46.725635 L141.6708,42.6731689 L142.1213,42.6731689 L142.1213,46.666567 C142.1213,47.6611301 142.7478,48.3189553 143.7068,48.3189553 C144.6668,48.3189553 145.2933,47.6611301 145.2933,46.666567 L145.2933,42.6731689 L145.7438,42.6731689 L145.7438,46.725635 C145.7438,47.8968971 144.9008,48.722334 143.7068,48.722334" id="Fill-31" fill="#1A1919"></path>
                                    <polygon id="Fill-33" fill="#1A1919" points="147.516 42.6732194 147.9665 42.6732194 147.9665 46.539899 147.9665 48.671899 147.516 48.671899"></polygon>
                                    <path d="M151.95345,43.0779612 L150.27645,43.0779612 L150.27645,45.7228932 L151.95345,45.7228932 C152.77945,45.7228932 153.34745,45.3023495 153.34745,44.3996699 C153.34745,43.4985049 152.77945,43.0779612 151.95345,43.0779612 M152.00295,46.1277864 L150.27645,46.1277864 L150.27645,48.6722524 L149.82545,48.6722524 L149.82545,42.673068 L152.00295,42.673068 C153.02995,42.673068 153.79795,43.297068 153.79795,44.3996699 C153.79795,45.4957087 153.02995,46.1277864 152.00295,46.1277864" id="Fill-35" fill="#1A1919"></path>
                                    <polygon id="Fill-37" fill="#1A1919" points="159.6512 43.7260932 157.8492 47.8295495 157.3987 47.8295495 155.5627 43.7260932 155.5627 48.6721515 155.1122 48.6721515 155.1122 42.6734718 155.5627 42.6734718 157.6322 47.2989476 159.6512 42.6734718 160.1027 42.6734718 160.1027 48.6721515 159.6512 48.6721515"></polygon>
                                    <polygon id="Fill-39" fill="#1A1919" points="161.9577 42.6732194 165.5627 42.6732194 165.5627 43.0781126 162.4082 43.0781126 162.4082 45.4453748 165.0952 45.4453748 165.0952 45.8497631 162.4082 45.8497631 162.4082 48.2675107 165.5627 48.2675107 165.5627 48.671899 161.9577 48.671899"></polygon>
                                    <polygon id="Fill-41" fill="#1A1919" points="167.41985 43.4570058 167.41985 48.6721515 166.96935 48.6721515 166.96935 42.6734718 167.41985 42.6734718 170.84935 47.8714524 170.84935 42.6734718 171.29985 42.6734718 171.29985 48.6721515 170.84935 48.6721515"></polygon>
                                    <polygon id="Fill-43" fill="#1A1919" points="174.54235 48.6721515 174.09185 48.6721515 174.09185 43.0778602 172.32235 43.0778602 172.32235 42.6734718 176.31885 42.6734718 176.31885 43.0778602 174.54235 43.0778602"></polygon>
                                    <path d="M122.5635,46.5856388 C122.5635,47.0511146 122.92,47.3792699 123.401,47.3792699 C123.713,47.3792699 123.9785,47.2934447 124.284,47.018299 L123.1865,45.7006291 C122.849,45.9363961 122.5635,46.1519689 122.5635,46.5856388" id="Fill-45" fill="#1A1919"></path>
                                    <path d="M123.59565,44.7757359 C123.77765,44.6510369 123.93315,44.5066485 123.93315,44.2910757 C123.93315,44.0280466 123.74465,43.8256 123.47215,43.8256 C123.18615,43.8256 123.01815,44.0219883 123.01815,44.2835029 C123.01815,44.4733282 123.14115,44.6510369 123.37465,44.9261825 C123.44665,44.8802408 123.59565,44.7757359 123.59565,44.7757359" id="Fill-47" fill="#1A1919"></path>
                                    <path d="M125.05715,47.9492505 L124.68065,47.4903379 C124.47865,47.6675417 124.10215,47.9886291 123.40115,47.9886291 C122.43965,47.9886291 121.90765,47.4443961 121.90765,46.5982602 C121.90765,45.9490175 122.36865,45.5819883 122.82265,45.2805903 C122.61515,45.0382602 122.34265,44.7106097 122.34265,44.2769398 C122.34265,43.6802019 122.78465,43.2414835 123.47165,43.2414835 C124.12865,43.2414835 124.56965,43.6877748 124.56965,44.2835029 C124.56965,44.6510369 124.36865,44.9069981 124.07665,45.1099495 C124.07665,45.1099495 123.84965,45.2669592 123.73815,45.3457165 L124.71215,46.5195029 C124.88165,46.2771728 124.95365,46.0080854 124.95965,45.5819883 L125.59565,45.5819883 C125.57615,46.1787262 125.44615,46.650765 125.13415,47.018299 L125.90765,47.9492505 L125.05715,47.9492505 Z M123.64265,41.4189592 C121.32215,41.4189592 119.44065,43.3182214 119.44065,45.6617553 C119.44065,48.0052893 121.32215,49.9045515 123.64265,49.9045515 C125.96315,49.9045515 127.84465,48.0052893 127.84465,45.6617553 C127.84465,43.3182214 125.96315,41.4189592 123.64265,41.4189592 L123.64265,41.4189592 Z" id="Fill-49" fill="#1A1919"></path>
                                    <path d="M9.05755,45.3087612 C11.88705,47.8501981 15.27205,49.7721786 19.00605,50.869732 L23.34255,42.0479068 L9.25205,44.9129553 L9.05755,45.3087612 Z" id="Fill-51" fill="#1A1919"></path>
                                    <path d="M31.2644,0.131817476 L15.3844,32.4374485 L29.4749,29.5724 L41.6639,4.77496311 C38.6374,2.50665243 35.1029,0.89263301 31.2644,0.131817476" id="Fill-53" fill="#1A1919"></path>
                                    <path d="M36.86245,39.2990252 L30.86845,51.4927728 C39.29945,49.960035 46.30845,44.3086951 49.78295,36.672268 L36.86245,39.2990252 Z" id="Fill-55" fill="#1A1919"></path>
                                    <path d="M18.7944,0.744609709 C8.1344,3.9787068 0.3659,13.9591728 0.3659,25.7768039 C0.3659,28.9927262 0.9444,32.071833 1.9964,34.9171922 L18.7944,0.744609709 Z" id="Fill-57" fill="#1A1919"></path>
                                    <path d="M49.3297,13.9364039 L42.9947,26.8233165 L52.1202,24.9684816 C52.0007,21.0053748 51.0087,17.2654136 49.3297,13.9364039" id="Fill-59" fill="#1A1919"></path>
                                </g>
                            </g>
                        </g>
                    </g>
                </g>
            </g>
        </g>
    </g>
</svg>