<?xml version="1.0" encoding="UTF-8"?>
<svg width="220px" height="80px" viewBox="0 0 220 80" version="1.1" xmlns="http://www.w3.org/2000/svg" xmlns:xlink="http://www.w3.org/1999/xlink">
    <!-- Generator: Sketch 47.1 (45422) - http://www.bohemiancoding.com/sketch -->
    <title>macron</title>
    <desc>Created with Sketch.</desc>
    <defs>
        <rect id="path-1" x="0" y="0" width="220" height="80"></rect>
    </defs>
    <g id="web" stroke="none" stroke-width="1" fill="none" fill-rule="evenodd">
        <g id="Desktop-HD" transform="translate(-846.000000, -2345.000000)">
            <g id="sponsors-tab" transform="translate(0.000000, 2303.000000)">
                <g id="sponsors" transform="translate(374.000000, 42.000000)">
                    <g id="macron" transform="translate(472.000000, 0.000000)">
                        <g id="Group-19">
                            <mask id="mask-2" fill="white">
                                <use xlink:href="#path-1"></use>
                            </mask>
                            <use id="Path" fill="#F8F8F8" xlink:href="#path-1"></use>
                            <g id="01-Macron-Logo-Pos" mask="url(#mask-2)" fill="#1A1919">
                                <g transform="translate(15.000000, 23.000000)">
                                    <path d="M98.851954,22.7378318 C98.3783905,23.133344 98.0584551,23.4479292 97.9012887,23.6851189 C97.6633274,23.9220142 97.4468919,24.1412527 97.249328,24.3375374 C97.049995,24.5361764 96.8335594,24.6762536 96.5944187,24.7530607 C95.6458175,25.3054241 94.496114,25.5817529 93.1488466,25.5817529 C91.0844521,25.5817529 89.5402107,24.9514053 88.5125839,23.6851189 C87.0848167,22.1834085 86.3741767,20.0069142 86.3741767,16.3657888 C86.3741767,12.7334919 87.0848167,10.1223462 88.5125839,8.54147449 C89.619826,7.43557058 91.0455291,6.8799701 92.7920523,6.8799701 C94.6951521,6.8799701 96.1562398,7.43557058 97.1903538,8.54147449 C97.5825327,8.93639814 97.978545,9.52996072 98.3783905,10.3177481 L106.699956,10.3177481 C106.062149,8.02707321 105.034522,6.01184436 103.607345,4.26941299 C100.993015,1.4240205 97.3074177,0 92.552027,0 C88.0369564,0 84.5097049,1.46433685 81.9720418,4.39006775 C79.5184171,7.23516596 78.2914573,11.1899937 78.2914573,16.2519025 C78.2914573,21.548941 79.5579299,25.2280284 82.093234,28.0728324 C84.6291279,31.0009175 88.1554947,32.4623116 92.671155,32.4623116 C96.3944959,32.4623116 99.4876967,31.5556351 101.944565,29.7343368 C104.396715,27.995731 106.062149,25.4649238 106.934673,22.1451521 L100.993015,22.1451521 C100.043234,22.1451521 99.3290559,22.3414368 98.851954,22.7378318" id="Fill-1"></path>
                                    <path d="M68.2323627,25.0868748 C67.4917819,25.7223779 66.429143,26.0361446 65.0313196,26.0361446 L61.9532997,26.0361446 C60.5563921,26.0361446 59.4940586,25.7223779 58.7543936,25.0868748 C58.017476,24.3725611 57.6484066,23.4377547 57.6484066,22.2485109 C57.6484066,20.843202 58.7247825,19.6327059 60.294472,19.0332137 C60.7142158,18.8646711 61.1852448,18.700556 61.706643,18.5591691 L64.5373956,17.9641045 C66.5875773,17.4894696 68.1868777,16.9752818 69.3371285,16.4153425 L69.3371285,19.3933222 L69.3383496,22.2316862 C69.3383496,23.4203396 68.9680592,24.3725611 68.2323627,25.0868748 M73.7684027,2.25953368 C71.4694274,0.755637651 68.0229486,0 63.4301876,0 C59.3258558,0 56.1693819,0.912078259 53.9549659,2.73623478 C51.9869014,4.32543521 50.8363453,6.3470611 50.5109293,8.80583517 L58.7543936,8.80583517 C59.1646741,7.93301465 59.8191693,7.33765483 60.7230686,7.02123156 C61.6251363,6.70421796 62.6493114,6.54453047 63.7992569,6.54453047 C64.8640326,6.54453047 66.0329048,6.72133787 67.3061788,7.07819956 C68.5779263,7.43712744 69.2141054,8.21106569 69.2141054,9.3991288 C69.2141054,10.986263 67.4087489,12.0149338 63.7992569,12.4913397 L60.353694,12.968336 C57.2362945,13.4438564 54.6726516,14.3954876 52.6630706,15.8229343 C50.6534896,17.2524473 49.6482412,19.137409 49.6482412,22.469594 C49.6482412,26.0361446 50.7566703,28.5964575 52.9704757,30.1446292 C55.1861128,31.6889636 57.7680718,32.4623116 60.7230686,32.4623116 L66.2624666,32.4623116 C69.2165476,32.4623116 71.7991171,31.6889636 74.016891,30.1446292 C76.230086,28.5964575 77.3366834,26.0361446 77.3366834,22.469594 L77.3321044,8.92331321 C77.3321044,6.06841971 76.1430845,3.84814377 73.7684027,2.25953368" id="Fill-3"></path>
                                    <path d="M42.40149,2.75908093 C39.4803601,0.921675741 36.2827203,0.00297314755 32.8079832,0.00297314755 C31.0713493,0.0832481315 29.3926031,0.342506598 27.7752709,0.781937806 C26.1561756,1.22017976 24.7548208,1.96168276 23.5703247,2.99960857 C22.1475191,1.80024084 20.5689746,1.00284267 18.8326345,0.602359694 C17.0921806,0.203660607 15.3182281,0.00297314755 13.5022555,0.00297314755 L0,0 L0,32.4623116 L8.29000289,32.4623116 L8.29000289,20.4222532 L8.29000289,12.2261774 C8.29000289,10.3079026 8.84214082,8.91409099 9.94876747,8.03136349 C11.0518679,7.15369033 12.3157026,6.7139618 13.7388021,6.7139618 C15.1604324,6.7139618 16.4427794,7.15369033 17.5905445,8.03136349 C18.7327266,8.91409099 19.3057277,10.3079026 19.3057277,12.2261774 L19.3057277,13.9048165 L19.3057277,32.4623116 L27.4784858,32.4623116 L27.4784858,13.9048165 L27.4784858,12.2261774 C27.4784858,10.3079026 28.0506053,8.91409099 29.1957258,8.03136349 C30.339671,7.15369033 31.623781,6.7139618 33.0457052,6.7139618 C34.4676293,6.7139618 35.7485071,7.15369033 36.8956846,8.03136349 C38.0378666,8.91409099 38.6117492,10.3079026 38.6117492,12.2261774 L38.6117492,32.4623116 L46.7839196,32.4623116 L46.7839196,13.9048165 C46.7839196,8.31351519 45.3223261,4.59797269 42.40149,2.75908093" id="Fill-5"></path>
                                    <path d="M140.338969,6.64614309 C140.886197,4.1743165 143.424105,2.58813914 145.989478,3.11446946 C148.554851,3.63821269 150.201013,6.08129377 149.655875,8.55139563 C149.11014,11.0209226 146.573725,12.6073874 144.006262,12.0827818 C141.442381,11.5584637 139.795622,9.11509512 140.338969,6.64614309 L140.338969,6.64614309 Z M143.686225,14.1308995 C147.181557,14.8452255 150.835117,13.5194825 154.124455,10.7136331 L157.537688,7.85316714 C155.267573,4.13694733 151.449517,1.31787495 146.719115,0.35173829 C141.996476,-0.615835649 137.314736,0.463558333 133.668342,2.96585516 L135.582594,6.918938 C137.400418,10.7688244 140.176861,13.4125492 143.672193,14.1268752 L143.686225,14.1308995 Z" id="Fill-7"></path>
                                    <path d="M159.332816,12.6589911 C156.817604,14.7544088 154.434061,17.0918071 152.206481,19.6752626 C148.538637,23.9234629 145.545936,28.5502128 143.21608,33.4072955 C151.127933,33.6754834 158.33225,28.4089846 160.036752,20.6329932 C160.654308,17.8020244 160.469251,14.9861977 159.629147,12.4120603 L159.332816,12.6589911 Z" id="Fill-9"></path>
                                    <path d="M185.433051,2.71330694 C182.63419,1.02285002 179.582614,0.147695373 176.296702,0.00774209619 L161.356784,0 L161.356784,13.8762186 L161.356784,18.7242596 L161.356784,32.4623116 L169.99873,32.4623116 L169.99873,20.403699 L169.99873,12.1952904 C169.99873,10.2740594 170.572164,8.87809992 171.727302,7.99401209 C172.879072,7.11528417 174.198093,6.67458024 175.67977,6.67458024 C177.160835,6.67458024 178.496091,7.11528417 179.694115,7.99401209 C180.884787,8.87809992 181.480583,10.2740594 181.480583,12.1952904 L181.480583,32.4623116 L190,32.4623116 L190,13.8762186 C190,8.2765986 188.477275,4.55503252 185.433051,2.71330694" id="Fill-11"></path>
                                    <path d="M131.386588,6.08449348 L131.216344,5.72864322 C129.347914,7.83158784 127.981717,10.4363026 127.355973,13.3835194 C125.632902,21.4864696 130.063179,29.4638256 137.487437,32.4623116 C137.393363,26.8791331 136.585844,21.2443822 134.997208,15.6945742 C134.036136,12.3205191 132.822582,9.11179937 131.386588,6.08449348" id="Fill-13"></path>
                                    <path d="M131.4627,0.0749885646 L126.124832,0 C126.023815,0 123.40302,0.0255913355 122.720493,0.0636807652 C119.661861,0.234190478 116.83607,1.0792997 114.218533,2.71297914 C111.272767,4.55466258 109.798995,8.27641646 109.798995,13.8758602 L109.798995,32.462014 L109.799291,32.462014 L109.799291,32.4623116 L118.126472,32.4623116 L118.126472,14.8599363 C118.126472,12.566536 118.097145,10.7685959 119.216323,9.50152725 C120.143836,8.60196205 121.29086,8.3278967 123.05672,8.19815458 C124.263288,8.08477901 125.111114,8.04758231 126.096986,7.05725714 C126.221997,6.93138347 130.56481,1.73158118 131.623852,0.667755313 C131.85225,0.438326015 131.785597,0.0749885646 131.4627,0.0749885646" id="Fill-15"></path>
                                </g>
                            </g>
                        </g>
                        <rect id="Rectangle-13" fill="#F8F8F8" x="219" y="79" width="1" height="1"></rect>
                    </g>
                </g>
            </g>
        </g>
    </g>
</svg>