<?xml version="1.0" encoding="UTF-8"?>
<svg width="220px" height="80px" viewBox="0 0 220 80" version="1.1" xmlns="http://www.w3.org/2000/svg" xmlns:xlink="http://www.w3.org/1999/xlink">
    <!-- Generator: Sketch 47.1 (45422) - http://www.bohemiancoding.com/sketch -->
    <title>scanweld</title>
    <desc>Created with Sketch.</desc>
    <defs>
        <rect id="path-1" x="0" y="0" width="220" height="80"></rect>
    </defs>
    <g id="web" stroke="none" stroke-width="1" fill="none" fill-rule="evenodd">
        <g id="Desktop-HD" transform="translate(-610.000000, -2345.000000)">
            <g id="sponsors-tab" transform="translate(0.000000, 2303.000000)">
                <g id="sponsors" transform="translate(374.000000, 42.000000)">
                    <g id="scanweld" transform="translate(236.000000, 0.000000)">
                        <mask id="mask-2" fill="white">
                            <use xlink:href="#path-1"></use>
                        </mask>
                        <use id="Path" fill="#F8F8F8" xlink:href="#path-1"></use>
                        <path d="M201.0143,65.1504 C200.83485,65.1623 200.5532,65.1504 200.5532,65.1504 L17.0843,65.1504 C17.0843,65.1504 16.425,65.0855 16.0372,64.932 C15.60905,64.7625 15.3902,64.5985 15.0407,64.2986 C14.72975,64.03185 14.57905,63.8493 14.3364,63.5189 C14.10865,63.20855 14.0018,63.01605 13.83045,62.6712 C13.66175,62.3315 13.58595,62.1295 13.46505,61.76995 C13.34215,61.40415 13.28845,61.19195 13.20865,60.8144 C13.12615,60.4246 13.0937,60.2011 13.05305,59.80485 C13.0108,59.3938 13,59.15995 13,58.74665 C13,58.3342 13.01095,58.1008 13.05305,57.69045 C13.0937,57.2936 13.1259,57.0698 13.20865,56.67965 C13.28875,56.30275 13.34315,56.091 13.4663,55.7259 C13.5875,55.36635 13.6632,55.16425 13.8323,54.8245 C14.00375,54.47995 14.11065,54.28745 14.33885,53.97735 C14.58175,53.6471 14.73315,53.4647 15.0448,53.19825 C15.3949,52.8989 15.6144,52.7358 16.0429,52.56655 C16.5466,52.3674 17.41515,52.35225 17.41515,52.35225 L127.81095,52.35225 L127.81095,54.6574 L17.3753,54.6574 C16.2213,54.66065 15.30815,56.4917 15.30815,58.74665 C15.30815,61.0029 16.2152,62.84185 17.3223,62.8447 L198.12705,62.84525 C197.4544,61.79175 197.03885,60.3431 197.03885,58.74735 C197.03885,57.15555 197.4521,55.7103 198.12125,54.6574 L134.79865,54.6574 L134.79865,52.35225 L200.54045,52.35225 C200.54045,52.35225 200.8378,52.33895 201.02705,52.35225 C201.8858,52.4125 202.40355,52.6479 203.06585,53.1977 C203.38205,53.46005 203.5303,53.647 203.77365,53.97795 C204.0013,54.28775 204.107,54.48035 204.27835,54.8245 C204.44775,55.16435 204.525,55.36605 204.64615,55.7259 C204.76935,56.09145 204.82235,56.3039 204.902,56.68135 C204.98435,57.0711 205.01695,57.2946 205.0576,57.69105 C205.0997,58.10105 205.11005,58.3345 205.11005,58.74665 C205.11005,59.1598 205.0997,59.3938 205.0576,59.80485 C205.01695,60.2011 204.9842,60.4246 204.902,60.8144 C204.8222,61.19265 204.76945,61.40585 204.64615,61.7722 C204.52515,62.1315 204.44775,62.3329 204.2791,62.67235 C204.10785,63.01675 204.0027,63.20995 203.77535,63.5202 C203.53185,63.85215 203.3832,64.0395 203.0664,64.3027 C202.4004,64.856 201.8783,65.09285 201.0143,65.1504 Z M200.78425,54.6557 C201.89375,54.6557 202.80195,56.4917 202.80195,58.74665 C202.80195,61.0046 201.89375,62.8447 200.78425,62.8447 C199.67605,62.8447 198.7678,61.0046 198.7678,58.74665 C198.7678,56.4917 199.67605,54.6557 200.78425,54.6557 Z M44.3271,15.60405 L46.1063,15.60405 L43.81405,27.3616 L41.6291,27.3616 C41.32495,23.94825 40.45895,21.551 39.03865,19.9687 C37.6158,18.3837 35.8504,17.5957 33.73235,17.5957 C31.9196,17.5957 30.3441,18.11725 28.99565,19.1556 C27.6417,20.19815 26.82345,21.4352 26.5224,22.8687 C26.34385,23.71895 26.4014,24.4894 26.68795,25.18685 C26.9707,25.87495 27.5423,26.4776 28.4276,26.987 C29.31115,27.49525 30.9565,28.03835 33.38595,28.61085 C36.2223,29.28875 38.17935,29.89845 39.2368,30.44255 C40.9044,31.3158 42.06395,32.47925 42.6965,33.93795 C43.3289,35.39655 43.41945,37.159 42.9883,39.21225 C42.34245,42.28825 40.82815,44.75085 38.4451,46.588 C35.58705,48.7894 32.38615,49.8911 28.8495,49.8911 C25.6505,49.8911 22.9614,48.73215 20.79245,46.4219 L17.7577,49.57315 L15.8962,49.57315 L18.5368,36.99795 L20.72555,36.99795 C21.09975,44.01755 24.01505,47.35435 29.44265,47.35435 C31.68545,47.35435 33.5247,46.8057 34.9766,45.7247 C36.43505,44.63875 37.32665,43.29115 37.66555,41.67755 C37.9041,40.541 37.8294,39.61125 37.46485,38.87085 C37.1002,38.1304 36.41365,37.51785 35.37755,37.0432 C34.81545,36.7865 33.34345,36.36995 30.93355,35.79255 C27.70035,34.99515 25.42015,34.1663 24.11905,33.2986 C22.81965,32.43205 21.9432,31.361 21.50635,30.08355 C21.0704,28.8087 21.04945,27.2692 21.426,25.47585 C22.0611,22.45185 23.5398,19.9782 25.8618,18.06495 C28.1865,16.1496 30.96445,15.1953 34.1836,15.1953 C37.2164,15.1953 39.77465,16.2821 41.8495,18.4486 L44.3271,15.60405 Z M64.76205,42.24705 C63.3066,44.79125 61.5955,46.6314 59.5269,47.9349 C57.4569,49.2394 55.18425,49.8911 52.71355,49.8911 C49.37985,49.8911 46.9418,48.9212 45.44765,46.9443 C43.9569,44.97195 43.5751,42.3325 44.2626,39.05875 C45.00445,35.5255 46.72605,32.6146 49.4265,30.3353 C52.12975,28.0534 55.31745,26.9143 58.9787,26.9143 C61.60175,26.9143 63.5337,27.47755 64.7269,28.64685 C65.9142,29.8103 66.3397,31.22935 65.99245,32.8829 C65.74245,34.07375 65.2291,35.0323 64.4436,35.74265 C63.6584,36.45275 62.74155,36.80945 61.7039,36.80945 C60.7998,36.80945 60.10575,36.53125 59.66395,35.94475 C59.22575,35.36295 59.1156,34.6149 59.3017,33.72935 C59.46385,32.9569 59.94445,32.08 60.71535,31.1049 C61.04345,30.69655 61.18505,30.45375 61.2073,30.3482 C61.244,30.1727 61.16365,29.96975 60.80705,29.7491 C60.31435,29.40835 59.59155,29.22395 58.62195,29.22395 C56.8293,29.22395 55.4276,29.82375 54.39055,31.00865 C52.97945,32.60485 51.9183,35.0408 51.22535,38.34005 C50.53,41.6519 50.60415,43.91595 51.37305,45.1959 C52.14605,46.48255 53.35005,47.1273 55.015,47.1273 C56.33015,47.1273 57.6753,46.6647 59.05495,45.7216 C60.4289,44.7825 61.70095,43.3517 62.866,41.4169 L64.76205,42.24705 Z M73.9096,40.0778 C72.7158,40.94425 71.9737,42.0809 71.67605,43.49755 C71.46345,44.5109 71.5502,45.2451 71.88485,45.7399 C72.21565,46.2293 72.778,46.49135 73.6226,46.49135 C74.93915,46.49135 76.14145,45.98905 77.23665,44.9687 C78.3281,43.9518 79.06725,42.55585 79.44355,40.7641 L79.9895,38.16385 C77.08015,38.5936 75.0656,39.23875 73.9096,40.0778 Z M112.45895,49.20975 L100.3523,49.20975 L100.85645,46.8094 L102.2541,46.8094 C102.8682,46.8094 103.3358,46.64255 103.6806,46.3306 C104.0307,46.01385 104.2824,45.54105 104.4196,44.88835 L106.31515,35.8614 C106.63445,34.34035 106.5449,33.21685 106.0953,32.4546 C105.64775,31.69565 104.93805,31.3134 103.93235,31.3134 C102.5391,31.3134 101.28535,31.86785 100.1624,32.996 C99.04315,34.1204 98.2425,35.77825 97.7776,37.99225 L96.31605,44.95185 C96.1783,45.60835 96.24165,46.0616 96.45045,46.3547 C96.66245,46.6525 96.9845,46.8094 97.4491,46.8094 L99.17125,46.8094 L98.66715,49.20975 L86.04815,49.20975 C85.74215,49.3237 85.45245,49.43865 85.17905,49.52755 C84.4324,49.77045 83.64505,49.8911 82.81775,49.8911 C81.59335,49.8911 80.6307,49.6147 79.96015,49.034 C79.33625,48.4936 78.885,47.5331 78.58295,46.19315 C76.95135,47.57675 75.5313,48.53725 74.32505,49.06295 C73.0568,49.6157 71.6983,49.8911 70.2529,49.8911 C68.26215,49.8911 66.77115,49.4031 65.82465,48.38855 C64.88,47.37575 64.5764,46.08825 64.8987,44.55345 C65.38215,42.25115 66.81875,40.413 69.1756,39.0412 C71.04675,37.96445 74.8262,36.90275 80.47605,35.8467 L81.07445,32.9976 C81.31345,31.8596 81.14915,30.9596 80.6113,30.26895 C80.0761,29.58195 79.23095,29.22395 78.03475,29.22395 C77.12085,29.22395 76.2733,29.43275 75.49135,29.84785 C74.94695,30.1299 74.73095,30.3734 74.69355,30.55215 C74.67555,30.63775 74.6982,30.8152 74.81515,31.11055 C75.07465,31.81225 75.1353,32.515 74.9892,33.21075 C74.80495,34.08805 74.38145,34.8065 73.7177,35.3539 C73.0527,35.90225 72.26055,36.1735 71.3542,36.1735 C70.39225,36.1735 69.64955,35.87985 69.1644,35.265 C68.6814,34.65275 68.5507,33.8725 68.74405,32.9515 C69.06225,31.4361 70.1065,30.12125 71.82745,29.00085 C73.9738,27.60805 76.42395,26.9143 79.17,26.9143 C81.2352,26.9143 83.00715,27.2577 84.4806,27.95305 C85.4554,28.40505 86.15175,29.19545 86.57425,30.30765 C86.99875,31.42535 87.034,32.7864 86.6998,34.37835 L84.4871,44.9157 C84.32125,45.705 84.35485,46.21795 84.52255,46.5072 C84.6882,46.7928 84.96645,46.9456 85.4017,46.9456 C85.74695,46.9456 86.10385,46.5791 86.56955,46.64485 L88.3167,46.8094 C88.89015,46.8094 89.33815,46.64415 89.6809,46.3302 C90.02755,46.01255 90.2777,45.5382 90.4152,44.8834 L93.02235,32.4675 C93.1634,31.79655 93.0588,31.29525 92.7454,30.92845 C92.4292,30.5585 91.94135,30.3595 91.2456,30.3595 L90.17735,30.3595 L90.66025,28.05905 L99.22825,27.58495 C99.2607,28.91995 99.1917,30.25165 99.02555,31.7771 C100.3835,30.3384 101.73805,29.2387 103.09015,28.4841 C104.5805,27.65245 106.0623,27.2322 107.53335,27.2322 C109.53245,27.2322 110.9923,27.9457 111.8689,29.39235 C112.7257,30.83035 112.87125,32.80935 112.3491,35.29605 L110.32165,44.95115 C110.169,45.6778 110.2288,46.1377 110.42255,46.3951 C110.6146,46.65035 111.00195,46.8094 111.66185,46.8094 L112.9631,46.8094 L112.45895,49.20975 Z M125.02635,28.0497 L124.5317,30.40485 L123.78265,30.40485 C123.1582,30.40485 122.7538,30.49715 122.5279,30.6451 C122.2905,30.80045 122.1574,30.9922 122.10865,31.22435 C122.07225,31.398 122.0752,31.5828 122.12055,31.7771 L124.045,40.91985 L129.1159,32.53 C128.80265,31.39375 128.52715,30.83065 128.33355,30.70365 C128.08395,30.52095 127.5733,30.40485 126.7515,30.40485 L126.5158,30.40485 L127.0103,28.0497 L138.3485,28.0497 L137.854,30.40485 L137.0434,30.40485 C136.39245,30.40485 135.9719,30.5051 135.73775,30.66635 C135.4916,30.8359 135.34645,31.05105 135.29005,31.31945 C135.2166,31.66955 135.22655,32.0477 135.3249,32.4525 L137.19165,40.9204 L142.0858,32.6865 C142.21225,32.45275 142.30055,32.20985 142.3554,31.9479 C142.46395,31.4316 142.40825,31.0598 142.23065,30.8 C142.0545,30.5422 141.78125,30.40485 141.376,30.40485 L140.35045,30.40485 L140.84495,28.0497 L149.0232,28.0497 L148.53125,30.39285 C146.81175,30.51655 145.51775,31.4069 144.4882,33.13365 L134.59385,49.93655 C133.20615,52.6255 131.73485,55.36845 131.73485,55.36845 C130.67665,57.3938 130.10575,58.3073 129.37865,58.31465 C126.06315,58.34825 129.43095,53.8902 131.3323,49.1433 C131.51275,48.71 131.75695,48.17015 131.52465,46.85445 L129.5999,37.42715 L121.546,49.93655 L119.6893,49.93655 L115.98085,31.8979 C115.8383,31.2679 115.65715,30.8957 115.4637,30.7229 C115.2749,30.55425 114.89705,30.43405 114.27385,30.4046 L114.0499,30.3941 L114.54215,28.0497 L125.02635,28.0497 Z M153.2199,38.9899 C152.69195,41.7929 152.81525,43.81925 153.53795,45.11 C154.2752,46.4267 155.42905,47.0818 157.0264,47.0818 C158.17825,47.0818 159.34725,46.7411 160.5371,46.0497 C161.72115,45.3616 163.067,44.10315 164.57405,42.25495 L166.3226,43.3789 C164.5487,45.7501 162.8435,47.3467 161.0863,48.31135 C159.3294,49.27555 157.33395,49.75485 155.10635,49.75485 C151.8597,49.75485 149.42585,48.70225 147.8417,46.57455 C146.26025,44.4507 145.82825,41.73635 146.51665,38.45825 C147.20545,35.1777 148.79415,32.43165 151.28085,30.2273 C153.76695,28.02365 156.49235,26.9143 159.4507,26.9143 C161.4887,26.9143 163.16495,27.35705 164.46565,28.25765 C165.76775,29.1589 166.6462,30.47505 167.1058,32.1921 C167.56615,33.9116 167.52575,36.1239 167.0022,38.81755 L153.2199,38.9899 Z M160.0497,36.5892 C160.6302,36.5892 161.04465,36.43585 161.3264,36.1606 C161.613,35.88085 161.8599,35.34025 162.0386,34.48875 C162.39535,32.79035 162.29615,31.5165 161.78705,30.63365 C161.2789,29.75235 160.4981,29.31465 159.41855,29.31465 C158.138,29.31465 157.02425,29.91205 156.06925,31.14515 C155.1381,32.3473 154.355,34.15625 153.73095,36.5892 L160.0497,36.5892 Z M182.02525,15 L175.76115,44.8308 C175.65695,45.32645 175.7278,45.6775 175.92965,45.9223 C176.12975,46.1655 176.4817,46.3092 177.0383,46.3092 L178.48225,46.3092 L177.97825,48.70975 L165.87145,48.70975 L166.3756,46.3092 L167.88605,46.3092 C168.4602,46.3092 168.8979,46.14735 169.223,45.84365 C169.55255,45.5358 169.7993,45.0522 169.94385,44.36425 L175.0516,20.0397 C175.2044,19.31235 175.1256,18.796 174.86765,18.44945 C174.60925,18.10225 174.18945,17.9133 173.565,17.9133 L171.86875,17.9133 L172.3709,15.52185 L182.02525,15 Z M207.82255,15.503 L202.0746,42.8752 C201.7819,44.2691 201.6824,45.168 201.7496,45.60695 C201.8172,46.04845 201.9918,46.34255 202.2557,46.5204 C202.5185,46.6977 203.134,46.8094 204.1725,46.8094 L203.90535,49.20425 L195.48855,49.48275 L195.71305,45.79415 C194.2864,47.26845 193.04425,48.27845 191.9882,48.80655 C190.84,49.38085 189.5042,49.664 187.9881,49.664 C185.25805,49.664 183.213,48.6886 181.88595,46.72405 C180.56005,44.7612 180.2638,42.11665 180.95545,38.82235 C181.71885,35.18665 183.2283,32.28735 185.49375,30.13985 C187.7551,27.99625 190.24345,26.9143 192.95185,26.9143 C194.4056,26.9143 195.6412,27.25105 196.64805,27.93435 C197.5234,28.5285 198.2427,29.4371 198.8126,30.64695 L200.66975,21.803 C200.906,20.6778 200.96975,19.90465 200.886,19.45745 C200.79985,18.997 200.6285,18.7168 200.40045,18.5698 C200.168,18.42 199.57795,18.3225 198.5545,18.3225 L197.17335,18.3225 L197.6759,15.92905 L207.82255,15.503 Z M190.30075,32.3541 C189.41645,33.54465 188.6867,35.4616 188.1264,38.13 C187.6583,40.35885 187.49515,41.99985 187.62185,43.0681 C187.74925,44.1434 188.0839,44.91685 188.60375,45.41645 C189.12735,45.91945 189.7909,46.17345 190.6083,46.17345 C191.9573,46.17345 193.1796,45.56485 194.2807,44.31475 C195.76055,42.66175 196.7783,40.5376 197.32525,37.933 C197.83325,35.5143 197.73305,33.62305 197.0598,32.2348 C196.3826,30.8387 195.4343,30.1778 194.2189,30.1778 C192.67985,30.1778 191.3772,30.89145 190.30075,32.3541 L190.30075,32.3541 Z" id="Scanweld-logo" fill="#1A1919" mask="url(#mask-2)"></path>
                    </g>
                </g>
            </g>
        </g>
    </g>
</svg>