<?xml version="1.0" encoding="UTF-8"?>
<svg width="21px" height="20px" viewBox="0 0 21 20" version="1.1" xmlns="http://www.w3.org/2000/svg" xmlns:xlink="http://www.w3.org/1999/xlink">
    <!-- Generator: Sketch 47.1 (45422) - http://www.bohemiancoding.com/sketch -->
    <title>insta</title>
    <desc>Created with Sketch.</desc>
    <defs></defs>
    <g id="web" stroke="none" stroke-width="1" fill="none" fill-rule="evenodd">
        <g id="Desktop-HD" transform="translate(-1153.000000, -3491.000000)">
            <g id="footer" transform="translate(4.000000, 3455.000000)">
                <g id="Group-12">
                    <g id="Group-11" transform="translate(170.000000, 34.000000)">
                        <g id="social" transform="translate(977.000000, 0.000000)">
                            <g id="insta">
                                <path d="M12.0284402,2 C14.7519758,2 15.0934876,2.01151157 16.1631252,2.06017771 C17.2305336,2.10872478 17.9595353,2.27778605 18.5974167,2.5250069 C19.256874,2.78052401 19.8161349,3.12245728 20.373684,3.67838663 C20.9311933,4.23435568 21.2740984,4.79203161 21.5303815,5.44962002 C21.7782651,6.0856937 21.9478069,6.81262938 21.9964919,7.87701279 C22.0452964,8.94361912 22.0568407,9.28416306 22.0568407,12.0000198 C22.0568407,14.7158369 22.0452964,15.0563809 21.9964919,16.1229872 C21.9478069,17.1873706 21.7782651,17.9143063 21.5303815,18.55038 C21.2740984,19.2079684 20.9311933,19.7656443 20.373684,20.3216134 C19.8161349,20.8775427 19.256874,21.219476 18.5974167,21.4750328 C17.9595353,21.722214 17.2305336,21.8912752 16.1631252,21.9398223 C15.0934876,21.9884884 14.7519758,22 12.0284402,22 C9.30486489,22 8.96335311,21.9884884 7.89371545,21.9398223 C6.82630703,21.8912752 6.09730538,21.722214 5.45942395,21.4750328 C4.79996666,21.219476 4.24070579,20.8775427 3.68315666,20.3216134 C3.12564734,19.7656443 2.78274229,19.2079684 2.52649898,18.55038 C2.27857552,17.9143063 2.10903378,17.1873706 2.06034874,16.1229872 C2.01154428,15.0563809 2,14.7158369 2,12.0000198 C2,9.28416306 2.01154428,8.94361912 2.06034874,7.87701279 C2.10903378,6.81262938 2.27857552,6.0856937 2.52649898,5.44962002 C2.78274229,4.79203161 3.12564734,4.23435568 3.68315666,3.67838663 C4.24070579,3.12245728 4.79996666,2.78052401 5.45942395,2.5250069 C6.09730538,2.27778605 6.82630703,2.10872478 7.89371545,2.06017771 C8.96335311,2.01151157 9.30486489,2 12.0284402,2 Z M12.0284402,3.80179858 C9.35072357,3.80179858 9.0335344,3.81200021 7.97607795,3.86011063 C6.99831687,3.9045691 6.4673196,4.06747764 6.11394507,4.2044256 C5.64584424,4.38583204 5.31177654,4.60252738 4.9608701,4.95247906 C4.60992385,5.30239103 4.39261265,5.635512 4.21069065,6.10228624 C4.07335348,6.45465931 3.90998195,6.98415175 3.86539713,7.95914187 C3.81714998,9.01360151 3.80691935,9.32989177 3.80691935,12.0000198 C3.80691935,14.6701082 3.81714998,14.9863985 3.86539713,16.0408581 C3.90998195,17.0158483 4.07335348,17.5453407 4.21069065,17.8977138 C4.39261265,18.364488 4.60996366,18.697609 4.9608701,19.0475209 C5.31177654,19.3974726 5.64584424,19.614168 6.11394507,19.7955744 C6.4673196,19.9325224 6.99831687,20.0954309 7.97607795,20.1398894 C9.03341498,20.1879998 9.35052453,20.1982014 12.0284402,20.1982014 C14.7063161,20.1982014 15.0234655,20.1879998 16.0807627,20.1398894 C17.0585238,20.0954309 17.5895211,19.9325224 17.9428956,19.7955744 C18.4109964,19.614168 18.7450641,19.3974726 19.0959706,19.0475209 C19.4469168,18.697609 19.664228,18.364488 19.84615,17.8977138 C19.9834872,17.5453407 20.1468587,17.0158483 20.1914435,16.0408581 C20.2396907,14.9863985 20.2499213,14.6701082 20.2499213,12.0000198 C20.2499213,9.32989177 20.2396907,9.01360151 20.1914435,7.95914187 C20.1468587,6.98415175 19.9834872,6.45465931 19.84615,6.10228624 C19.664228,5.635512 19.4469168,5.30239103 19.0959706,4.95247906 C18.7450641,4.60252738 18.4109964,4.38583204 17.9428956,4.2044256 C17.5895211,4.06747764 17.0585238,3.9045691 16.0807627,3.86011063 C15.0233063,3.81200021 14.7061171,3.80179858 12.0284402,3.80179858 Z M12.0284402,6.86486808 C14.8725538,6.86486808 17.1781465,9.16392671 17.1781465,12.0000198 C17.1781465,14.8360733 14.8725538,17.1351319 12.0284402,17.1351319 C9.18428683,17.1351319 6.8786942,14.8360733 6.8786942,12.0000198 C6.8786942,9.16392671 9.18428683,6.86486808 12.0284402,6.86486808 Z M12.0284402,15.3333333 C13.8746102,15.3333333 15.3712271,13.8409578 15.3712271,12.0000198 C15.3712271,10.1590422 13.8746102,8.66666667 12.0284402,8.66666667 C10.1822305,8.66666667 8.68561356,10.1590422 8.68561356,12.0000198 C8.68561356,13.8409578 10.1822305,15.3333333 12.0284402,15.3333333 Z M18.5850365,6.66198662 C18.5850365,7.32473538 18.0462368,7.86196836 17.3816045,7.86196836 C16.717012,7.86196836 16.1782124,7.32473538 16.1782124,6.66198662 C16.1782124,5.99923785 16.717012,5.46196518 17.3816045,5.46196518 C18.0462368,5.46196518 18.5850365,5.99923785 18.5850365,6.66198662 Z" id="Instagram" fill="#800F43"></path>
                                <rect id="Rectangle-18-Copy" x="0" y="0" width="24" height="24"></rect>
                            </g>
                        </g>
                    </g>
                </g>
            </g>
        </g>
    </g>
</svg>