<?xml version="1.0" encoding="UTF-8"?>
<svg width="32px" height="32px" viewBox="0 0 32 32" version="1.1" xmlns="http://www.w3.org/2000/svg" xmlns:xlink="http://www.w3.org/1999/xlink">
    <!-- Generator: Sketch 46.2 (44496) - http://www.bohemiancoding.com/sketch -->
    <title>pall</title>
    <desc>Created with Sketch.</desc>
    <defs>
        <ellipse id="path-1" cx="15.9524686" cy="15.9304348" rx="15.9524686" ry="15.9304348"></ellipse>
        <path d="M13.1117918,0.0956946249 C13.1548135,9.46210658 13.1548135,19.0093275 13.1117918,28.3756644 C9.53903935,28.1500563 6.95037989,26.6719818 4.79632961,24.8277908 C4.64684237,24.6998412 4.41345158,24.5337654 4.41018553,24.4420301 C4.40538032,24.307295 5.05119372,23.5846592 5.15675828,23.4395022 C5.90325595,22.4118942 6.50206834,21.2720819 7.01040754,20.0458578 C7.67210067,18.4495059 8.1689524,16.400663 8.1689524,14.2356795 C8.1689524,10.2563837 6.91557962,7.27088091 5.28552303,4.90334498 C5.05971546,4.57520471 4.76539604,4.28665272 4.59041864,3.92642197 C6.36534496,2.30678941 8.50670647,0.976871006 11.361267,0.378585796 C11.8107799,0.284301235 13.1117918,0.0956946249 13.1117918,0.0956946249 Z M15.1198462,0.0956946249 C15.7356645,0.104092137 16.2277486,0.234665944 16.79345,0.327151038 C19.6024737,0.786427441 21.8007845,2.10093791 23.5897135,3.61781342 C23.3618787,3.97913135 23.0837018,4.31758106 22.8175755,4.67188856 C21.5469715,6.36451199 20.505291,8.48180957 20.0371579,11.0220193 C19.9411662,11.542965 19.8645456,12.0815304 19.8311343,12.6417644 C19.7985865,13.1898894 19.7047346,13.7365149 19.7280474,14.2870018 C19.9214949,18.8276188 21.5389002,22.1955458 23.7699841,24.7506386 C21.631776,26.7287025 18.9466369,28.1607781 15.0943185,28.4269867 C15.0340656,19.0604248 15.0856841,9.58240843 15.0685655,0.172846762 C15.0672891,0.128947271 15.0874861,0.106303981 15.1198462,0.0956946249 Z M24.9543946,5.05753679 C25.3959863,5.40790796 26.0131937,6.31405194 26.3444907,6.83147362 C27.5724109,8.74906788 28.3445489,11.1674013 28.4557446,14.1329225 C28.528949,16.088343 28.0673105,17.949404 27.4773577,19.4288656 C26.8649556,20.9650854 26.0555772,22.3087248 25.1345526,23.3367451 C24.8411717,23.1143235 24.6340594,22.7920315 24.4135826,22.4882965 C23.7649912,21.594074 23.1831097,20.6054545 22.7144511,19.4804129 C22.0654467,17.9218872 21.7650081,16.2144932 21.6331651,14.2870018 C21.6240427,14.1502423 21.6242304,14.0092091 21.6331651,13.8756362 C21.7608787,12.0100016 22.0264794,10.3288497 22.6373048,8.88826413 C23.2481303,7.44771601 24.0309298,6.13136858 24.9543946,5.05753679 Z M3.20013477,5.41746763 C3.61653669,5.71332995 4.10445372,6.59776787 4.38443258,7.08864741 C5.07078998,8.29159094 5.64647727,9.62683277 5.95487448,11.1506062 C6.11048085,11.9195784 6.19292033,12.7786363 6.26379725,13.6444047 C6.28647186,13.9222724 6.28380646,14.2301312 6.26379725,14.4927409 C6.12707386,16.2831353 5.83718425,17.8801246 5.25977008,19.3002787 C4.68194297,20.7212952 3.9628125,21.9651391 3.09723559,22.9509844 C1.36863455,20.8253268 0.0592885234,17.8411361 0.0592885234,14.1842448 C0.0592885234,10.3905939 1.52386552,7.57641537 3.20013477,5.41746763 Z" id="path-3"></path>
    </defs>
    <g id="web" stroke="none" stroke-width="1" fill="none" fill-rule="evenodd">
        <g id="Artboard-2" transform="translate(-20.000000, -19.000000)">
            <g id="pall" transform="translate(20.000000, 19.000000)">
                <mask id="mask-2" fill="white">
                    <use xlink:href="#path-1"></use>
                </mask>
                <use id="Oval" fill="#E5E3E3" xlink:href="#path-1"></use>
                <g id="Group-2" mask="url(#mask-2)">
                    <g transform="translate(1.671874, 1.530435)" id="pall">
                        <g>
                            <g id="ball">
                                <mask id="mask-4" fill="white">
                                    <use xlink:href="#path-3"></use>
                                </mask>
                                <use id="Combined-Shape" fill="#9B034D" xlink:href="#path-3"></use>
                                <g id="Group-6" mask="url(#mask-4)">
                                    <g transform="translate(0.278646, -7.234783)">
                                        <polygon id="Rectangle-Copy-10" fill="#A20B54" points="-1.42108547e-14 0 3.51365481 0 3.51365481 10.331392 -1.42108547e-14 11.010462"></polygon>
                                        <polygon id="Rectangle-Copy-11" fill="#830844" transform="translate(1.756827, 15.800883) rotate(-180.000000) translate(-1.756827, -15.800883) " points="5.68434189e-14 11.2316576 3.51365481 10.2956522 3.51365481 20.6270442 5.88233159e-14 21.3061141"></polygon>
                                        <polygon id="Rectangle-Copy-12" fill="#91094B" points="0 21.2430707 3.51365481 20.3130435 3.51365481 31.5744627 0 32.2535326"></polygon>
                                    </g>
                                </g>
                                <g id="Group-6-Copy" mask="url(#mask-4)">
                                    <g transform="translate(3.761717, -12.382609)">
                                        <polygon id="Rectangle-Copy-10" fill="#A20B54" points="-1.42108547e-14 0 3.51365481 0 3.51365481 10.331392 -1.42108547e-14 11.010462"></polygon>
                                        <polygon id="Rectangle-Copy-11" fill="#830844" transform="translate(1.756827, 15.800883) rotate(-180.000000) translate(-1.756827, -15.800883) " points="5.68434189e-14 11.2316576 3.51365481 10.2956522 3.51365481 20.6270442 5.88233159e-14 21.3061141"></polygon>
                                        <polygon id="Rectangle-Copy-12" fill="#91094B" points="0 21.2430707 3.51365481 20.3130435 3.51365481 31.5744627 0 32.2535326"></polygon>
                                    </g>
                                </g>
                                <g id="Group-6-Copy-2" mask="url(#mask-4)">
                                    <g transform="translate(6.548175, 14.747826)">
                                        <polygon id="Rectangle-Copy-10" fill="#A20B54" points="-1.42108547e-14 0 3.51365481 0 3.51365481 10.331392 -1.42108547e-14 11.010462"></polygon>
                                        <polygon id="Rectangle-Copy-11" fill="#830844" transform="translate(1.756827, 15.800883) rotate(-180.000000) translate(-1.756827, -15.800883) " points="5.68434189e-14 11.2316576 3.51365481 10.2956522 3.51365481 20.6270442 5.88233159e-14 21.3061141"></polygon>
                                    </g>
                                </g>
                                <g id="Group-6-Copy-3" mask="url(#mask-4)">
                                    <g transform="translate(10.031247, 2.782609)">
                                        <polygon id="Rectangle-Copy-10" fill="#A20B54" points="-1.42108547e-14 0 3.51365481 0 3.51365481 10.331392 -1.42108547e-14 11.010462"></polygon>
                                        <polyline id="Rectangle-Copy-11" fill="#830844" points="3.51365481 20.3701087 3.55271368e-15 21.3061141 5.03763647e-15 10.9747221 3.51365481 10.2956522"></polyline>
                                        <polygon id="Rectangle-Copy-12" fill="#91094B" points="0 21.2430707 3.51365481 20.3130435 3.51365481 31.5744627 0 32.2535326"></polygon>
                                    </g>
                                </g>
                                <g id="Group-6-Copy-4" mask="url(#mask-4)">
                                    <g transform="translate(14.210933, -11.130435)">
                                        <polygon id="Rectangle-Copy-10" fill="#A20B54" points="-1.42108547e-14 0 3.51365481 0 3.51365481 10.331392 -1.42108547e-14 11.010462"></polygon>
                                        <polygon id="Rectangle-Copy-11" fill="#830844" transform="translate(1.756827, 15.800883) rotate(-180.000000) translate(-1.756827, -15.800883) " points="5.68434189e-14 11.2316576 3.51365481 10.2956522 3.51365481 20.6270442 5.88233159e-14 21.3061141"></polygon>
                                        <polygon id="Rectangle-Copy-12" fill="#91094B" points="0 21.2430707 3.51365481 20.3130435 3.51365481 31.5744627 0 32.2535326"></polygon>
                                    </g>
                                </g>
                                <g id="Group-6-Copy-5" mask="url(#mask-4)">
                                    <g transform="translate(16.997390, 13.913043)">
                                        <polygon id="Rectangle-Copy-10" fill="#A20B54" points="0.696614348 0 4.21026916 0 4.21026916 10.331392 0.696614348 11.010462"></polygon>
                                        <polygon id="Rectangle-Copy-11" fill="#830844" transform="translate(1.756827, 15.244361) rotate(-180.000000) translate(-1.756827, -15.244361) " points="5.68434189e-14 10.6751359 3.51365481 9.73913043 3.51365481 20.0705224 5.88233159e-14 20.7495924"></polygon>
                                    </g>
                                </g>
                                <g id="Group-6-Copy-6" mask="url(#mask-4)">
                                    <g transform="translate(20.480462, -5.426087)">
                                        <polygon id="Rectangle-Copy-10" fill="#A20B54" points="-1.42108547e-14 0 3.51365481 0 3.51365481 10.331392 -1.42108547e-14 11.010462"></polygon>
                                        <polygon id="Rectangle-Copy-11" fill="#830844" transform="translate(1.756827, 15.800883) rotate(-180.000000) translate(-1.756827, -15.800883) " points="5.68434189e-14 11.2316576 3.51365481 10.2956522 3.51365481 20.6270442 5.88233159e-14 21.3061141"></polygon>
                                        <polygon id="Rectangle-Copy-12" fill="#91094B" points="0 21.2430707 3.51365481 20.3130435 3.51365481 31.5744627 0 32.2535326"></polygon>
                                    </g>
                                </g>
                                <g id="Group-6-Copy-7" mask="url(#mask-4)">
                                    <g transform="translate(23.545565, 1.530435)">
                                        <polygon id="Rectangle-Copy-10" fill="#A20B54" points="-1.42108547e-14 0 3.51365481 0 3.51365481 10.331392 -1.42108547e-14 11.010462"></polygon>
                                        <polygon id="Rectangle-Copy-11" fill="#830844" transform="translate(1.756827, 15.800883) rotate(-180.000000) translate(-1.756827, -15.800883) " points="5.68434189e-14 11.2316576 3.51365481 10.2956522 3.51365481 20.6270442 5.88233159e-14 21.3061141"></polygon>
                                        <polygon id="Rectangle-Copy-12" fill="#91094B" points="0 21.2430707 3.51365481 20.3130435 3.51365481 31.5744627 0 32.2535326"></polygon>
                                    </g>
                                </g>
                                <g id="Group-6-Copy-8" mask="url(#mask-4)">
                                    <g transform="translate(26.332022, -4.034783)">
                                        <polygon id="Rectangle-Copy-10" fill="#A20B54" points="-1.42108547e-14 0 3.51365481 0 3.51365481 10.331392 -1.42108547e-14 11.010462"></polygon>
                                        <polygon id="Rectangle-Copy-11" fill="#830844" transform="translate(1.756827, 15.800883) rotate(-180.000000) translate(-1.756827, -15.800883) " points="5.68434189e-14 11.2316576 3.51365481 10.2956522 3.51365481 20.6270442 5.88233159e-14 21.3061141"></polygon>
                                        <polygon id="Rectangle-Copy-12" fill="#91094B" points="0 21.2430707 3.51365481 20.3130435 3.51365481 31.5744627 0 32.2535326"></polygon>
                                    </g>
                                </g>
                            </g>
                        </g>
                    </g>
                </g>
            </g>
        </g>
    </g>
</svg>