<?xml version="1.0" encoding="UTF-8" standalone="no"?>
<svg width="229px" height="229px" viewBox="0 0 229 229" version="1.1" xmlns="http://www.w3.org/2000/svg" xmlns:xlink="http://www.w3.org/1999/xlink">
    <!-- Generator: Sketch 3.8.1 (29687) - http://www.bohemiancoding.com/sketch -->
    <title>pall</title>
    <desc>Created with Sketch.</desc>
    <defs>
        <path d="M114.5,229 C177.7366,229 229,177.7366 229,114.5 C229,51.2634 177.7366,0 114.5,0 C51.2634,0 0,51.2634 0,114.5 C0,177.7366 51.2634,229 114.5,229 L114.5,229 Z" id="path-1"></path>
        <path d="M94.1108,0.6878 C94.4196,68.0089 94.4196,136.6295 94.1108,203.95009 C68.4671,202.32853 49.8869,191.70487 34.426,178.44975 C33.35305,177.53011 31.67787,176.33644 31.65443,175.67709 C31.61994,174.70868 36.25531,169.5147 37.01301,168.4714 C42.37105,161.0855 46.66907,152.8931 50.3177,144.0796 C55.0671,132.6058 58.6332,117.8798 58.6332,102.3189 C58.6332,73.7178 49.6371,52.2595 37.93722,35.2428 C36.31647,32.8843 34.20398,30.8103 32.94806,28.2212 C45.68773,16.58 61.0575,7.0213 81.5463,2.7211 C84.7727,2.0434 94.1108,0.6878 94.1108,0.6878 L94.1108,0.6878 Z M108.5238,0.6878 C112.9439,0.7482 116.4758,1.6867 120.5362,2.3514 C140.6982,5.6524 156.4767,15.1005 169.3169,26.003 C167.6816,28.6 165.6849,31.0326 163.7748,33.5792 C154.655,45.7449 147.1782,60.963 143.8182,79.2208 C143.1292,82.9651 142.5792,86.836 142.3394,90.8627 C142.1058,94.8023 141.4322,98.7312 141.5995,102.6878 C142.988,135.3235 154.597,159.5305 170.6108,177.89522 C155.2636,192.11255 135.9909,202.40559 108.3406,204.31897 C107.9081,136.9968 108.2786,68.8736 108.1557,1.2423 C108.1466,0.9268 108.2915,0.7641 108.5238,0.6878 L108.5238,0.6878 Z M179.112,36.351 C182.2815,38.8693 186.7116,45.3822 189.0895,49.1012 C197.903,62.8839 203.4451,80.2657 204.2432,101.5804 C204.7686,115.635 201.4552,129.0113 197.2207,139.645 C192.8252,150.6866 187.0158,160.344 180.4051,167.7329 C178.2993,166.1342 176.8127,163.8177 175.2303,161.6346 C170.5749,155.2074 166.3985,148.1017 163.0346,140.0155 C158.3763,128.8136 156.2199,116.5417 155.2736,102.6878 C155.2081,101.7049 155.2095,100.6912 155.2736,99.7311 C156.1903,86.3219 158.0967,74.2386 162.4809,63.8844 C166.8651,53.5305 172.4837,44.0692 179.112,36.351 L179.112,36.351 Z M22.9692,38.938 C25.95795,41.0646 29.46001,47.4215 31.46958,50.9497 C36.39596,59.5958 40.528,69.1929 42.74154,80.145 C43.85842,85.672 44.45013,91.8464 44.95886,98.0692 C45.12161,100.0663 45.10248,102.2791 44.95886,104.1666 C43.97752,117.035 41.89681,128.5134 37.75238,138.7208 C33.60499,148.9343 28.44337,157.8744 22.23063,164.9602 C9.82347,149.682 0.42555,128.2332 0.42555,101.9493 C0.42555,74.6824 10.93766,54.4555 22.9692,38.938 L22.9692,38.938 Z" id="path-3"></path>
        <path d="M25.21951,5.86388977 C23.8240842,3.78533321 22.3424576,1.91512077 20.9692,0.938 C11.719224,12.8680192 3.36733715,27.5816225 -1.03170805e-11,46.137883 L0,63.1377 L25.21951,56.4102 L25.21951,5.86388977 L25.21951,5.86388977 L25.21951,5.86388977 Z" id="path-5"></path>
        <path d="M25.21951,64.5609182 C23.6389919,66.8318208 21.9763047,68.9692102 20.23063,70.9602 C10.8396999,59.3961911 3.17273809,44.2970974 -2.37321274e-12,26.2420174 L0,6.6846 L25.21951,0 L25.21951,64.5609182 L25.21951,64.5609182 L25.21951,64.5609182 Z" id="path-7"></path>
        <path d="M23.2621862,44.9323289 C19.8525997,36.5457226 15.6106057,29.0399297 10.93722,22.2428 C9.31647,19.8843 7.20398,17.8103 5.94806,15.2212 C11.7483689,9.92101906 18.0938807,5.05252705 25.2195,0.915474042 L25.2195,44.4102 L23.2621862,44.9323289 L23.2621862,44.9323289 L23.2621862,44.9323289 Z M0,30.5397355 C1.72493414,33.0645293 3.33509174,35.9578801 4.46958,37.9497 C6.39067863,41.3213463 8.190982,44.8376112 9.80382577,48.5224524 L0,51.1377 L0,30.5397355 L0,30.5397355 L0,30.5397355 Z" id="path-9"></path>
        <path d="M25.2195,6.11328329 C24.5576674,4.2196162 23.8530484,2.36884179 23.1097096,0.559214307 L25.2195,0 L25.2195,6.11328329 L25.2195,6.11328329 L25.2195,6.11328329 Z M9.63178465,4.13162997 C12.2330642,10.0074654 14.3606285,16.3125594 15.74154,23.145 C16.85842,28.672 17.45013,34.8464 17.95886,41.0692 C18.12161,43.0663 18.10248,45.2791 17.95886,47.1666 C16.97752,60.035 14.89681,71.5134 10.75238,81.7208 C10.4521299,82.460206 10.1465641,83.192938 9.83566874,83.9187757 L0,85.8223 L0,6.6846 L9.63178465,4.13162997 L9.63178465,4.13162997 L9.63178465,4.13162997 Z" id="path-11"></path>
        <path d="M1.42108547e-14,45.5227624 C1.16608044,43.0959823 2.26872783,40.6134596 3.3177,38.0796 C7.6908708,27.5147103 11.0607891,14.192466 11.5672505,4.81791932e-06 L25.2195,0 L25.2195,74.25688 L0,79.1377 L0,45.5227624 L1.42108547e-14,45.5227624 L1.42108547e-14,45.5227624 Z" id="path-13"></path>
        <path d="M25.2195,20.0482163 C15.819038,17.1901993 7.52015841,13.0066612 4.26325641e-13,8.01908485 L0,4.88082 L25.2195,0 L25.2195,20.0482163 L25.2195,20.0482163 L25.2195,20.0482163 Z" id="path-15"></path>
        <path d="M22.1907904,-1.51968578e-07 C22.2826675,24.8389008 22.3327857,49.8199763 22.341145,74.813956 L0,79.1377 L0,0 L22.1907905,0 L22.1907904,-1.51968578e-07 L22.1907904,-1.51968578e-07 Z" id="path-17"></path>
        <path d="M22.3410576,0.55707287 C22.3494429,24.799068 22.318544,49.0536193 22.2483609,73.2027753 L0,79.1377 L0,4.8808 L22.3410568,0.557073115 L22.3410576,0.55707287 L22.3410576,0.55707287 Z" id="path-19"></path>
        <path d="M22.2495647,0.787202077 C22.2137009,13.2078793 22.167446,25.6008573 22.1108,37.95009 C14.089689,37.4428811 6.75965688,36.0549245 -9.12336873e-12,33.9811798 L0,6.6846 L22.2495646,0.787201584 L22.2495647,0.787202077 L22.2495647,0.787202077 Z" id="path-21"></path>
        <path d="M19.2195,3.70257615 C17.0465518,3.17789206 14.8194848,2.72522815 12.5362,2.3514 C8.4758,1.6867 4.9439,0.7482 0.5238,0.6878 C0.2915,0.7641 0.1466,0.9268 0.1557,1.2423 C0.198179796,24.6187347 0.181712793,48.053937 0.159833109,71.4945161 L19.2195,66.4102 L19.2195,3.70257615 L19.2195,3.70257615 L19.2195,3.70257615 Z" id="path-23"></path>
        <path d="M0.141780811,84.6336642 C0.103474408,58.150741 0.13554707,31.5975996 0.160245702,5.05178497 L19.2195,0 L19.2195,80.9415 L0.14178099,84.633664 L0.141780811,84.6336642 L0.141780811,84.6336642 Z" id="path-25"></path>
        <path d="M14.6004724,-2.8408067e-09 C14.5668654,0.89480747 14.5615626,1.79059155 14.5995,2.6878 C15.3640881,20.6588976 19.2277755,36.0742124 25.2195,49.3656055 L25.2195,74.25688 L0,79.1377 L0,0 L14.6004725,0 L14.6004724,-2.8408067e-09 L14.6004724,-2.8408067e-09 Z" id="path-27"></path>
        <path d="M25.2195,24.2402204 C17.7414828,27.9518752 9.41543984,30.8154676 2.84217094e-14,32.5894493 L0,4.88082 L25.2195,0 L25.2195,24.2402204 L25.2195,24.2402204 L25.2195,24.2402204 Z" id="path-29"></path>
        <path d="M2.04636308e-12,0.985262633 C8.34548351,5.1827292 15.7190935,10.400861 22.3169,16.003 C20.6816,18.6 18.6849,21.0326 16.7748,23.5792 C15.8380829,24.8287689 14.9186993,26.1105402 14.0193296,27.4245001 L0,30.1377 L0,0.985262633 L2.04636308e-12,0.985262633 L2.04636308e-12,0.985262633 Z" id="path-31"></path>
        <path d="M14.2228439,0.128213453 C8.42835238,8.53457644 3.45080882,18.2682687 -5.37170308e-11,29.3256463 L0,2.8808 L14.2228439,0.128213453 L14.2228439,0.128213453 L14.2228439,0.128213453 Z M9.09971481,74.7102795 C8.75487663,71.7774168 8.48425513,68.7718063 8.2736,65.6878 C8.2081,64.7049 8.2095,63.6912 8.2736,62.7311 C9.1903,49.3219 11.0967,37.2386 15.4809,26.8844 C18.252646,20.3385352 21.5177725,14.149436 25.2195,8.53201589 L25.2195,70.4102 L9.09971481,74.7102795 L9.09971481,74.7102795 L9.09971481,74.7102795 Z" id="path-33"></path>
        <path d="M8.52651283e-14,28.4390558 C5.13430265,45.3579412 13.4934451,59.2925779 23.6108,70.89522 C17.884108,76.2003095 11.6108478,80.9589994 4.55971244,84.9398125 L0,85.82227 L0,28.4390558 L8.52651283e-14,28.4390558 L8.52651283e-14,28.4390558 Z M25.2195,50.2736539 C21.7697856,45.0209375 18.6555709,39.3158345 16.0346,33.0155 C12.3633049,24.1870689 10.2460192,14.694027 9.05037344,4.28573697 L25.2195,0 L25.2195,50.2736539 L25.2195,50.2736539 L25.2195,50.2736539 Z" id="path-35"></path>
        <path d="M1.16205911e-07,0.734725245 C0.105832061,0.824050367 0.211465089,0.913476152 0.3169,1.003 C0.212695488,1.16848592 0.107023516,1.33330429 2.27373675e-13,1.49752715 L0,0.734719503 L1.16205911e-07,0.734725245 L1.16205911e-07,0.734725245 Z M25.2195007,33.3132893 C23.6644938,30.0801389 21.949877,27.0104889 20.0895,24.1012 C17.7116,20.3822 13.2815,13.8693 10.112,11.351 C6.41405206,15.6570063 3.03037898,20.5055624 -8.24229573e-13,25.7489786 L0,65.1377 L25.2195,60.2569 L25.2195,33.313284 L25.2195007,33.3132893 L25.2195007,33.3132893 Z" id="path-37"></path>
        <path d="M25.2195,61.5161081 C23.0147959,66.1332775 20.5576922,70.441056 17.9016309,74.3622991 L6.73700311,77.3405514 C6.56861593,77.1043997 6.40000891,76.8687327 6.2303,76.6346 C4.03540781,73.6043532 1.94699068,70.4232852 2.84217094e-14,67.059746 L0,4.8808 L25.2195,0 L25.2195,61.5161081 L25.2195,61.5161081 L25.2195,61.5161081 Z" id="path-39"></path>
        <path d="M-7.95807864e-13,18.0101409 C0.531736063,18.6452614 1.06874458,19.2735877 1.6108,19.89522 C1.07864816,20.3881945 0.541776697,20.8764508 2.27373675e-13,21.3598032 L0,18.0101409 L-7.95807864e-13,18.0101409 L-7.95807864e-13,18.0101409 Z M18.2473647,0.848011884 C16.0912847,4.0795114 13.8008109,7.05517018 11.4051,9.7329 C9.40660845,8.21566739 7.96581779,6.05192686 6.47155859,3.96926923 L18.2473647,0.848011884 L18.2473647,0.848011884 L18.2473647,0.848011884 Z" id="path-41"></path>
        <path d="M1.40897515e-06,0.961420804 C0.0301462958,1.00843576 0.0599812719,1.05503315 0.0895,1.1012 C0.282012061,1.40225361 0.472963302,1.70502439 0.662338377,2.00951581 L0,2.1377 L2.84217094e-14,0.961416174 L1.40897515e-06,0.961420804 L1.40897515e-06,0.961420804 Z" id="path-43"></path>
        <path d="M0.519280501,0.7803022 C9.08300382,14.4534809 14.4581522,31.6142837 15.2432,52.5804 C15.4864171,59.0865259 14.9070062,65.447297 13.7944035,71.4579344 L0,75.1377 L0,0.8808 L0.519280501,0.7803022 L0.519280501,0.7803022 L0.519280501,0.7803022 Z" id="path-45"></path>
        <path d="M13.8768511,0.00644623459 C12.589995,7.15092676 10.5439838,13.8107568 8.2207,19.645 C5.85744689,25.5815477 3.08547686,31.117964 -5.68434189e-14,36.1168111 L0,3.6846 L13.8768511,0.00644623459 L13.8768511,0.00644623459 L13.8768511,0.00644623459 Z" id="path-47"></path>
    </defs>
    <g id="Page-1" stroke="none" stroke-width="1" fill="none" fill-rule="evenodd">
        <g id="punane" transform="translate(0.000000, -18.000000)">
            <g id="pall" transform="translate(0.000000, 18.000000)">
                <g id="Group-3">
                    <mask id="mask-2" fill="white">
                        <use xlink:href="#path-1"></use>
                    </mask>
                    <g id="Clip-2"></g>
                    <polygon id="Fill-1" fill="#F4F4F4" mask="url(#mask-2)" points="-5 234 234 234 234 -5 -5 -5"></polygon>
                </g>
                <g id="Group-75" transform="translate(12.000000, 11.000000)">
                    <g id="Group-6">
                        <mask id="mask-4" fill="white">
                            <use xlink:href="#path-3"></use>
                        </mask>
                        <g id="Clip-5"></g>
                        <polygon id="Fill-4" fill="#9B034D" mask="url(#mask-4)" points="-4.57445 209.31897 209.29805 209.31897 209.29805 -4.31223 -4.57445 -4.31223"></polygon>
                    </g>
                    <g id="Group-10" transform="translate(2.000000, 38.000000)">
                        <mask id="mask-6" fill="white">
                            <use xlink:href="#path-5"></use>
                        </mask>
                        <g id="Clip-9"></g>
                        <polygon id="Fill-8" fill="#830844" mask="url(#mask-6)" points="30.21951 68.1377 -5 68.1377 -5 -21 30.21951 -21"></polygon>
                    </g>
                    <g id="Group-13" transform="translate(2.000000, 94.000000)">
                        <mask id="mask-8" fill="white">
                            <use xlink:href="#path-7"></use>
                        </mask>
                        <g id="Clip-12"></g>
                        <polygon id="Fill-11" fill="#91094B" mask="url(#mask-8)" points="-5 90.82227 30.21951 90.82227 30.21951 -5 -5 -5"></polygon>
                    </g>
                    <g id="Group-16" transform="translate(27.000000, 13.000000)">
                        <mask id="mask-10" fill="white">
                            <use xlink:href="#path-9"></use>
                        </mask>
                        <g id="Clip-15"></g>
                        <polygon id="Fill-14" fill="#830844" mask="url(#mask-10)" points="30.2195 56.1377 -5 56.1377 -5 -33 30.2195 -33"></polygon>
                    </g>
                    <g id="Group-19" transform="translate(27.000000, 57.000000)">
                        <mask id="mask-12" fill="white">
                            <use xlink:href="#path-11"></use>
                        </mask>
                        <g id="Clip-18"></g>
                        <polygon id="Fill-17" fill="#91094B" mask="url(#mask-12)" points="-5 90.8223 30.21951 90.8223 30.21951 -4.99997 -5 -4.99997"></polygon>
                    </g>
                    <g id="Group-22" transform="translate(47.000000, 106.000000)">
                        <mask id="mask-14" fill="white">
                            <use xlink:href="#path-13"></use>
                        </mask>
                        <g id="Clip-21"></g>
                        <polygon id="Fill-20" fill="#A20B54" mask="url(#mask-14)" points="-5 84.1377 30.21951 84.1377 30.21951 -5 -5 -5"></polygon>
                    </g>
                    <g id="Group-25" transform="translate(47.000000, 180.000000)">
                        <mask id="mask-16" fill="white">
                            <use xlink:href="#path-15"></use>
                        </mask>
                        <g id="Clip-24"></g>
                        <polygon id="Fill-23" fill="#830844" mask="url(#mask-16)" points="30.2195 84.137695 -5 84.137695 -5 -5 30.2195 -5"></polygon>
                    </g>
                    <g id="Group-28" transform="translate(72.000000, 20.000000)">
                        <mask id="mask-18" fill="white">
                            <use xlink:href="#path-17"></use>
                        </mask>
                        <g id="Clip-27"></g>
                        <polygon id="Fill-26" fill="#A20B54" mask="url(#mask-18)" points="-5 84.1377 30.21951 84.1377 30.21951 -5 -5 -5"></polygon>
                    </g>
                    <g id="Group-31" transform="translate(72.000000, 94.000000)">
                        <mask id="mask-20" fill="white">
                            <use xlink:href="#path-19"></use>
                        </mask>
                        <g id="Clip-30"></g>
                        <polygon id="Fill-29" fill="#830844" mask="url(#mask-20)" points="-5 84.1377 30.21951 84.1377 30.21951 -5 -5 -5"></polygon>
                    </g>
                    <g id="Group-34" transform="translate(72.000000, 166.000000)">
                        <mask id="mask-22" fill="white">
                            <use xlink:href="#path-21"></use>
                        </mask>
                        <g id="Clip-33"></g>
                        <polygon id="Fill-32" fill="#91094B" mask="url(#mask-22)" points="-5 90.82227 30.21951 90.82227 30.21951 -5 -5 -5"></polygon>
                    </g>
                    <g id="Group-38" transform="translate(108.000000, 0.000000)">
                        <mask id="mask-24" fill="white">
                            <use xlink:href="#path-23"></use>
                        </mask>
                        <g id="Clip-37"></g>
                        <polygon id="Fill-36" fill="#830844" mask="url(#mask-24)" points="-11 78.1377 24.21951 78.1377 24.21951 -11 -11 -11"></polygon>
                    </g>
                    <g id="Group-41" transform="translate(108.000000, 66.000000)">
                        <mask id="mask-26" fill="white">
                            <use xlink:href="#path-25"></use>
                        </mask>
                        <g id="Clip-40"></g>
                        <polygon id="Fill-39" fill="#91094B" mask="url(#mask-26)" points="-11 90.8223 24.21951 90.8223 24.21951 -4.99997 -11 -4.99997"></polygon>
                    </g>
                    <g id="Group-44" transform="translate(127.000000, 100.000000)">
                        <mask id="mask-28" fill="white">
                            <use xlink:href="#path-27"></use>
                        </mask>
                        <g id="Clip-43"></g>
                        <polygon id="Fill-42" fill="#A20B54" mask="url(#mask-28)" points="-5 84.1377 30.21951 84.1377 30.21951 -5 -5 -5"></polygon>
                    </g>
                    <g id="Group-47" transform="translate(122.000000, 170.000000)">
                        <mask id="mask-30" fill="white">
                            <use xlink:href="#path-29"></use>
                        </mask>
                        <g id="Clip-46"></g>
                        <polygon id="Fill-45" fill="#830844" mask="url(#mask-30)" points="30.2195 84.1377 -5 84.1377 -5 -5 30.2195 -5"></polygon>
                    </g>
                    <g id="Group-50" transform="translate(147.000000, 10.000000)">
                        <mask id="mask-32" fill="white">
                            <use xlink:href="#path-31"></use>
                        </mask>
                        <g id="Clip-49"></g>
                        <polygon id="Fill-48" fill="#A20B54" mask="url(#mask-32)" points="-5 35.1377 30.21951 35.1377 30.21951 -54 -5 -54"></polygon>
                    </g>
                    <g id="Group-53" transform="translate(147.000000, 37.000000)">
                        <mask id="mask-34" fill="white">
                            <use xlink:href="#path-33"></use>
                        </mask>
                        <g id="Clip-52"></g>
                        <polygon id="Fill-51" fill="#830844" mask="url(#mask-34)" points="-5 82.1377 30.21951 82.1377 30.21951 -7 -5 -7"></polygon>
                    </g>
                    <g id="Group-56" transform="translate(147.000000, 107.000000)">
                        <mask id="mask-36" fill="white">
                            <use xlink:href="#path-35"></use>
                        </mask>
                        <g id="Clip-55"></g>
                        <polygon id="Fill-54" fill="#91094B" mask="url(#mask-36)" points="-5 90.82227 30.21951 90.82227 30.21951 -5 -5 -5"></polygon>
                    </g>
                    <g id="Group-59" transform="translate(169.000000, 25.000000)">
                        <mask id="mask-38" fill="white">
                            <use xlink:href="#path-37"></use>
                        </mask>
                        <g id="Clip-58"></g>
                        <polygon id="Fill-57" fill="#A20B54" mask="url(#mask-38)" points="-5 70.1377 30.21951 70.1377 30.21951 -19 -5 -19"></polygon>
                    </g>
                    <g id="Group-62" transform="translate(169.000000, 85.000000)">
                        <mask id="mask-40" fill="white">
                            <use xlink:href="#path-39"></use>
                        </mask>
                        <g id="Clip-61"></g>
                        <polygon id="Fill-60" fill="#830844" mask="url(#mask-40)" points="-5 84.1377 30.21951 84.1377 30.21951 -5 -5 -5"></polygon>
                    </g>
                    <g id="Group-65" transform="translate(169.000000, 158.000000)">
                        <mask id="mask-42" fill="white">
                            <use xlink:href="#path-41"></use>
                        </mask>
                        <g id="Clip-64"></g>
                        <polygon id="Fill-63" fill="#91094B" mask="url(#mask-42)" points="-5 89.82227 30.21951 89.82227 30.21951 -6 -5 -6"></polygon>
                    </g>
                    <g id="Group-68" transform="translate(189.000000, 48.000000)">
                        <mask id="mask-44" fill="white">
                            <use xlink:href="#path-43"></use>
                        </mask>
                        <g id="Clip-67"></g>
                        <polygon id="Fill-66" fill="#A20B54" mask="url(#mask-44)" points="-5 7.1377 30.21951 7.1377 30.21951 -82 -5 -82"></polygon>
                    </g>
                    <g id="Group-71" transform="translate(189.000000, 49.000000)">
                        <mask id="mask-46" fill="white">
                            <use xlink:href="#path-45"></use>
                        </mask>
                        <g id="Clip-70"></g>
                        <polygon id="Fill-69" fill="#830844" mask="url(#mask-46)" points="-5 80.1377 30.21951 80.1377 30.21951 -9 -5 -9"></polygon>
                    </g>
                    <g id="Group-74" transform="translate(189.000000, 120.000000)">
                        <mask id="mask-48" fill="white">
                            <use xlink:href="#path-47"></use>
                        </mask>
                        <g id="Clip-73"></g>
                        <polygon id="Fill-72" fill="#91094B" mask="url(#mask-48)" points="-5 87.82227 30.21951 87.82227 30.21951 -8 -5 -8"></polygon>
                    </g>
                </g>
            </g>
        </g>
    </g>
</svg>