<?xml version="1.0" encoding="UTF-8"?>
<svg width="32px" height="32px" viewBox="0 0 32 32" version="1.1" xmlns="http://www.w3.org/2000/svg" xmlns:xlink="http://www.w3.org/1999/xlink">
    <title>taltech</title>
    <defs>
        <path d="M14.9601469,0.14371182 C14.9772232,9.5023101 14.9257406,18.9290447 14.9859305,28.2449522 C18.8365619,27.9801843 21.520676,26.5559155 23.6577553,24.5882471 C21.4276015,22.047253 19.810928,18.6975841 19.6176779,14.1813133 C19.5941768,13.6339404 19.6881812,13.090287 19.7205587,12.5450275 C19.754035,11.9878483 19.8307941,11.4522259 19.9265738,10.9341025 C20.3944826,8.40764871 21.435717,6.30201691 22.7057913,4.61839068 C22.9716582,4.26595859 23.2498674,3.92925025 23.4774392,3.56988616 C21.6894951,2.06133472 19.4919723,0.753895303 16.684097,0.297145323 C16.1187178,0.204916148 15.6269697,0.0751528283 15.0112068,0.0667837281 C14.979083,0.0774353102 14.9588788,0.0999219832 14.9601469,0.14371182 L14.9601469,0.14371182 Z M11.245619,0.34879704 C8.40147754,0.945116558 6.26794877,2.26997047 4.49953257,3.88376967 C4.673762,4.24271107 4.96710318,4.53047286 5.19205445,4.85729045 C6.81625163,7.21627771 8.06502282,10.1910279 8.06502282,14.1559524 C8.06502282,16.3131514 7.56997786,18.354451 6.91059423,19.9453409 C6.40430592,21.1670604 5.8074792,22.3024683 5.06372826,23.3264573 C4.95873408,23.4712681 4.31507421,24.1914334 4.31975658,24.3255081 C4.32310516,24.4168073 4.55574923,24.5824986 4.70470232,24.7098949 C6.85099607,26.5473773 9.43003149,28.0203391 12.9898578,28.2449522 C13.0327178,18.9125601 13.0327178,9.39968294 12.9898578,0.0667837281 C12.9898578,0.0667837281 11.6935772,0.25487714 11.245619,0.34879704 L11.245619,0.34879704 Z M22.4484626,8.86059455 C21.8438585,10.2976282 21.5806968,11.974407 21.454484,13.8351369 C21.4455232,13.9685353 21.4455232,14.1090347 21.454484,14.245561 C21.5849236,16.1683406 21.8824071,17.8712411 22.5248835,19.426034 C22.9888191,20.5480851 23.5649344,21.5342018 24.2069881,22.4259759 C24.4251764,22.7292079 24.6300926,23.0506151 24.9207286,23.272354 C25.8322842,22.2470124 26.6337735,20.9066884 27.2398146,19.3744668 C27.823961,17.8985464 28.2809646,16.0422969 28.2082632,14.0918739 C28.0983659,11.1336929 27.3338192,8.72178582 26.1184398,6.80889698 C25.7903542,6.29280247 25.1793253,5.38902418 24.7421878,5.0396354 C23.8280961,6.11054205 23.0532358,7.42364543 22.4484626,8.86059455 L22.4484626,8.86059455 Z M0.0380413641,14.0177355 C0.0380413641,17.647727 1.34649522,20.6098812 3.07365768,22.7199934 C3.9384647,21.7413159 4.65710833,20.5069159 5.23440718,19.0961731 C5.81128332,17.6865292 6.10098946,16.1011342 6.23776929,14.3241798 C6.25771988,14.0633851 6.26059412,13.7576171 6.23776929,13.481944 C6.16667421,12.6227164 6.08450487,11.7699135 5.92904247,11.0067192 C5.62073837,9.49402553 5.04555295,8.16874894 4.35987849,6.9745037 C4.08006313,6.48740518 3.59245735,5.60949503 3.1762003,5.31581569 C1.5012813,7.45864347 0.0380413641,10.2521476 0.0380413641,14.0177355 L0.0380413641,14.0177355 Z" id="path-1"></path>
        <polygon id="path-3" points="0.0606125735 0.0162309821 3.513754 0.0162309821 3.513754 10.25536 0.0606125735 10.9285231"></polygon>
        <rect id="path-5" x="0.0380413641" y="0.0667837281" width="28.3159626" height="28.1782529"></rect>
        <path d="M14.9601469,0.14371182 C14.9772232,9.5023101 14.9257406,18.9290447 14.9859305,28.2449522 C18.8365619,27.9801843 21.520676,26.5559155 23.6577553,24.5882471 C21.4276015,22.047253 19.810928,18.6975841 19.6176779,14.1813133 C19.5941768,13.6339404 19.6881812,13.090287 19.7205587,12.5450275 C19.754035,11.9878483 19.8307941,11.4522259 19.9265738,10.9341025 C20.3944826,8.40764871 21.435717,6.30201691 22.7057913,4.61839068 C22.9716582,4.26595859 23.2498674,3.92925025 23.4774392,3.56988616 C21.6894951,2.06133472 19.4919723,0.753895303 16.684097,0.297145323 C16.1187178,0.204916148 15.6269697,0.0751528283 15.0112068,0.0667837281 C14.979083,0.0774353102 14.9588788,0.0999219832 14.9601469,0.14371182 L14.9601469,0.14371182 Z M11.245619,0.34879704 C8.40147754,0.945116558 6.26794877,2.26997047 4.49953257,3.88376967 C4.673762,4.24271107 4.96710318,4.53047286 5.19205445,4.85729045 C6.81625163,7.21627771 8.06502282,10.1910279 8.06502282,14.1559524 C8.06502282,16.3131514 7.56997786,18.354451 6.91059423,19.9453409 C6.40430592,21.1670604 5.8074792,22.3024683 5.06372826,23.3264573 C4.95873408,23.4712681 4.31507421,24.1914334 4.31975658,24.3255081 C4.32310516,24.4168073 4.55574923,24.5824986 4.70470232,24.7098949 C6.85099607,26.5473773 9.43003149,28.0203391 12.9898578,28.2449522 C13.0327178,18.9125601 13.0327178,9.39968294 12.9898578,0.0667837281 C12.9898578,0.0667837281 11.6935772,0.25487714 11.245619,0.34879704 L11.245619,0.34879704 Z M22.4484626,8.86059455 C21.8438585,10.2976282 21.5806968,11.974407 21.454484,13.8351369 C21.4455232,13.9685353 21.4455232,14.1090347 21.454484,14.245561 C21.5849236,16.1683406 21.8824071,17.8712411 22.5248835,19.426034 C22.9888191,20.5480851 23.5649344,21.5342018 24.2069881,22.4259759 C24.4251764,22.7292079 24.6300926,23.0506151 24.9207286,23.272354 C25.8322842,22.2470124 26.6337735,20.9066884 27.2398146,19.3744668 C27.823961,17.8985464 28.2809646,16.0422969 28.2082632,14.0918739 C28.0983659,11.1336929 27.3338192,8.72178582 26.1184398,6.80889698 C25.7903542,6.29280247 25.1793253,5.38902418 24.7421878,5.0396354 C23.8280961,6.11054205 23.0532358,7.42364543 22.4484626,8.86059455 L22.4484626,8.86059455 Z M0.0380413641,14.0177355 C0.0380413641,17.647727 1.34649522,20.6098812 3.07365768,22.7199934 C3.9384647,21.7413159 4.65710833,20.5069159 5.23440718,19.0961731 C5.81128332,17.6865292 6.10098946,16.1011342 6.23776929,14.3241798 C6.25771988,14.0633851 6.26059412,13.7576171 6.23776929,13.481944 C6.16667421,12.6227164 6.08450487,11.7699135 5.92904247,11.0067192 C5.62073837,9.49402553 5.04555295,8.16874894 4.35987849,6.9745037 C4.08006313,6.48740518 3.59245735,5.60949503 3.1762003,5.31581569 C1.5012813,7.45864347 0.0380413641,10.2521476 0.0380413641,14.0177355 L0.0380413641,14.0177355 Z" id="path-7"></path>
        <polygon id="path-9" points="0.0224021367 0.0651775373 3.47562811 0.0651775373 3.47562811 10.3043911 0.0224021367 10.9774697"></polygon>
        <rect id="path-11" x="0.0380413641" y="0.0667837281" width="28.3159626" height="28.1782529"></rect>
    </defs>
    <g id="logos" stroke="none" stroke-width="1" fill="none" fill-rule="evenodd">
        <g id="hall-copy" transform="translate(-200.000000, -125.000000)">
            <g id="taltech" transform="translate(200.000000, 125.000000)">
                <path d="M0.313830302,15.9763029 C0.313830302,24.0282225 6.32994525,30.6744716 14.1127012,31.6646459 L18.1460156,31.6646459 C25.9288559,30.6744716 31.9449711,24.0282225 31.9449711,15.9763029 C31.9449711,7.24158301 24.8641206,0.160648001 16.1294007,0.160648001 C7.39468077,0.160648001 0.313830302,7.24158301 0.313830302,15.9763029 Z" id="Path" fill="#FFFFFF" fill-rule="nonzero"></path>
                <path d="M16.8935249,1.89491153 C16.9106012,11.2535943 16.8591186,20.6802444 16.9193084,29.9963209 C20.7699399,29.7314685 23.4540539,28.3071996 25.5911332,26.3396159 C23.3609795,23.7985372 21.744306,20.4488684 21.5510559,15.9325976 C21.5275548,15.3852246 21.6215592,14.8415713 21.6539366,14.2963117 C21.687413,13.7391325 21.7641721,13.2035101 21.8599518,12.6853867 C22.3278606,10.1589329 23.369095,8.05330118 24.6391693,6.36967494 C24.9050362,6.01724282 25.1832454,5.68053449 25.4109017,5.3211704 C23.622873,3.81261897 21.4253503,2.50517954 18.6174749,2.04842957 C18.0520957,1.95620041 17.5603477,1.82643708 16.9445848,1.81806798 C16.912461,1.82871956 16.8922568,1.85120623 16.8935249,1.89491153 M13.178997,2.10008128 C10.3348555,2.69640081 8.20132677,4.02125472 6.43291053,5.63505391 C6.60713999,5.99399531 6.90048118,6.28167258 7.12543244,6.60857468 C8.74962962,8.96747741 9.99840079,11.9422276 9.99840079,15.9072367 C9.99840079,18.0644356 9.50335585,20.1056507 8.84397219,21.6966251 C8.33768391,22.9183446 7.74085719,24.0537525 6.99710625,25.0777414 C6.89211207,25.2225524 6.2484522,25.9427177 6.25313454,26.0767077 C6.25648315,26.168007 6.48912723,26.3337829 6.63808031,26.4610947 C8.78428952,28.2986616 11.3634095,29.7715387 14.9232358,29.9963209 C14.9660957,20.6638443 14.9660957,11.1509672 14.9232358,1.81806798 C14.9232358,1.81806798 13.6269552,2.00616138 13.178997,2.10008128 M24.3818406,10.6118788 C23.7771519,12.0489125 23.5141594,13.7256913 23.387862,15.5864212 C23.3789012,15.7198196 23.3789012,15.860319 23.387862,15.9967607 C23.5183017,17.9196249 23.8157851,19.6225254 24.4582616,21.1772337 C24.922197,22.2993694 25.4983122,23.2854861 26.1402816,24.1773446 C26.3585545,24.4804076 26.5634707,24.8018149 26.8541065,25.0236382 C27.7656623,23.9982122 28.5671514,22.6579726 29.1731926,21.125751 C29.7573389,19.6498306 30.2143426,17.7935811 30.1416411,15.8431581 C30.0317439,12.8848926 29.2671972,10.4730701 28.0518179,8.56018122 C27.7237322,8.04408671 27.1126188,7.14030844 26.6755658,6.79091964 C25.7614742,7.86182632 24.9866136,9.17492967 24.3818406,10.6118788 M1.97141935,15.7690197 C1.97141935,19.3990112 3.27987321,22.3610809 5.00703567,24.4712777 C5.87184269,23.4925155 6.59048633,22.2581156 7.16778515,20.8474573 C7.74466131,19.4378134 8.03436745,17.8523339 8.17114728,16.075464 C8.19109785,15.8146694 8.19388755,15.5089013 8.17114728,15.2332282 C8.1000522,14.3740006 8.01788286,13.5211978 7.86242046,12.7580035 C7.55411636,11.2453098 6.97893091,9.92003318 6.29325646,8.72578797 C6.01344109,8.23860488 5.52583534,7.36077927 5.10966283,7.06709993 C3.43465928,9.20992771 1.97141935,12.0034319 1.97141935,15.7690197" id="Shape" fill="#B41F79" fill-rule="nonzero"></path>
                <path d="M16.8935249,1.89499607 C16.9106012,11.2535943 16.8591186,20.6803289 16.9193084,29.9962363 C20.7699399,29.7314685 23.4540539,28.3071996 25.5911332,26.3395314 C23.3609795,23.7985372 21.744306,20.4488684 21.5510559,15.9325976 C21.5275548,15.3852246 21.6215592,14.8415713 21.6539366,14.2963117 C21.687413,13.7391325 21.7641721,13.2035101 21.8599518,12.6853867 C22.3278606,10.1589329 23.369095,8.05330118 24.6391693,6.36967494 C24.9050362,6.01724282 25.1832454,5.68053449 25.4108172,5.3211704 C23.622873,3.81261897 21.4253503,2.50517954 18.6174749,2.04842957 C18.0520957,1.95620041 17.5603477,1.82643708 16.9445848,1.81806798 C16.912461,1.82871956 16.8922568,1.85120623 16.8935249,1.89499607 L16.8935249,1.89499607 Z M13.178997,2.10008128 C10.3348555,2.69640081 8.20132677,4.02125472 6.43291053,5.63505391 C6.60713999,5.99399531 6.90048118,6.28175712 7.12543244,6.60857468 C8.74962962,8.96756195 9.99840079,11.9423121 9.99840079,15.9072367 C9.99840079,18.0644356 9.50335585,20.1057352 8.84397219,21.6966251 C8.33768391,22.9183446 7.74085719,24.0537525 6.99710625,25.0777414 C6.89211207,25.2225524 6.2484522,25.9427177 6.25313454,26.0767922 C6.25648315,26.1680916 6.48912723,26.3337829 6.63808031,26.461179 C8.78437406,28.2986616 11.3634095,29.7716233 14.9232358,29.9962363 C14.9660957,20.6638443 14.9660957,11.1509672 14.9232358,1.81806798 C14.9232358,1.81806798 13.6269552,2.00616138 13.178997,2.10008128 L13.178997,2.10008128 Z M24.3818406,10.6118788 C23.7772365,12.0489125 23.5140748,13.7256913 23.387862,15.5864212 C23.3789012,15.7198196 23.3789012,15.860319 23.387862,15.9968452 C23.5183017,17.9196249 23.8157851,19.6225254 24.4582616,21.1773182 C24.922197,22.2993694 25.4983122,23.2854861 26.1403662,24.1772601 C26.3585545,24.4804922 26.5634707,24.8018994 26.8541065,25.0236382 C27.7656623,23.9982968 28.5671514,22.6579726 29.1731926,21.125751 C29.7573389,19.6498306 30.2143426,17.7935811 30.1416411,15.8431581 C30.0317439,12.8849771 29.2671972,10.4730701 28.0518179,8.56018122 C27.7237322,8.04408671 27.1127033,7.14030844 26.6755658,6.79091964 C25.7614742,7.86182632 24.9866136,9.17492967 24.3818406,10.6118788 L24.3818406,10.6118788 Z M1.97141935,15.7690197 C1.97141935,19.3990112 3.27987321,22.3611655 5.00703567,24.4712777 C5.87184269,23.4926001 6.59048633,22.2582002 7.16778515,20.8474573 C7.74466131,19.4378134 8.03436745,17.8524184 8.17114728,16.075464 C8.19109785,15.8146694 8.19397208,15.5089013 8.17114728,15.2332282 C8.1000522,14.3740006 8.01788286,13.5211978 7.86242046,12.7580035 C7.55411636,11.2453098 6.97893091,9.92003318 6.29325646,8.72578797 C6.01344109,8.23868942 5.52583534,7.36077927 5.10957829,7.06709993 C3.43465928,9.20992771 1.97141935,12.0034319 1.97141935,15.7690197 L1.97141935,15.7690197 Z" id="Shape" fill="#B41F79" fill-rule="nonzero"></path>
                <g id="Clipped" transform="translate(1.933378, 1.751284)">
                    <mask id="mask-2" fill="white">
                        <use xlink:href="#path-1"></use>
                    </mask>
                    <g id="path-1"></g>
                    <g id="Group" mask="url(#mask-2)">
                        <g transform="translate(0.253609, -7.270127)" id="Clipped-Clipped">
                            <mask id="mask-4" fill="white">
                                <use xlink:href="#path-3"></use>
                            </mask>
                            <g id="path-3"></g>
                            <g id="Clipped" mask="url(#mask-4)">
                                <g transform="translate(-0.271039, 7.047025)" id="Group">
                                    <g transform="translate(0.017430, 0.223102)" id="Rectangle-Clipped">
                                        <mask id="mask-6" fill="white">
                                            <use xlink:href="#path-5"></use>
                                        </mask>
                                        <g id="path-5"></g>
                                        <rect id="Rectangle" fill="#A11E56" mask="url(#mask-6)" x="-0.376524968" y="-7.9445585" width="4.83446565" height="12.2933627"></rect>
                                    </g>
                                </g>
                            </g>
                        </g>
                    </g>
                </g>
                <path d="M2.24751511,13.0167693 L2.24751511,15.6308873 L5.70074108,14.7032698 L5.70074108,7.74618057 C5.50664559,7.45960228 5.30063046,7.2018509 5.10966283,7.06709993 C3.87128961,8.65139596 2.74873121,10.591421 2.24751511,13.0167693" id="Path" fill="#D5328A" fill-rule="nonzero"></path>
                <path d="M2.24751511,13.0167693 L2.24751511,15.6309718 L5.70074108,14.7033543 L5.70074108,7.74618057 C5.50673013,7.45960228 5.30063046,7.2018509 5.10957829,7.06709993 C3.87128961,8.65139596 2.74873121,10.591421 2.24751511,13.0167693 L2.24751511,13.0167693 Z" id="Path" fill="#D5328A" fill-rule="nonzero"></path>
                <path d="M2.24751511,15.5892954 L2.24751511,18.5972684 C2.71948164,20.9574391 3.75285415,22.9389715 5.00703567,24.4712777 C5.24965505,24.1966191 5.48094652,23.9016715 5.70074108,23.5885489 L5.70074108,14.6642985 L2.24751511,15.5892954 L2.24751511,15.5892954 Z" id="Path" fill="#C81A7D" fill-rule="nonzero"></path>
                <path d="M2.24751511,15.5892954 L2.24751511,18.5972684 C2.71948164,20.9574391 3.75285415,22.9389715 5.00703567,24.4712777 C5.24965505,24.1966191 5.48094652,23.9016715 5.70074108,23.5885489 L5.70074108,14.664214 L2.24751511,15.5892954 L2.24751511,15.5892954 Z" id="Path" fill="#C81A7D" fill-rule="nonzero"></path>
                <path d="M6.43291053,5.63505391 C6.60713999,5.99399531 6.90048118,6.28167258 7.12543244,6.60857468 C7.76148405,7.53230356 8.33996639,8.55037498 8.80838238,9.68552931 L9.15396704,9.59270836 L9.15396704,3.62545545 C8.14612452,4.20461409 7.25054625,4.88893595 6.43291053,5.63505391 L6.43291053,5.63505391 Z M5.70074108,10.5202414 L7.02610221,10.1642587 C6.80402518,9.66329625 6.55675631,9.18482041 6.29325646,8.72578797 C6.14185182,8.46220358 5.92958103,8.08415693 5.70074108,7.74618057 L5.70074108,10.5202414 Z" id="Shape" fill="#C61D7D" fill-rule="nonzero"></path>
                <path d="M6.43291053,5.63505391 C6.60713999,5.99399531 6.90048118,6.28175712 7.12543244,6.60857468 C7.76148405,7.53230356 8.33996639,8.55037498 8.80838238,9.68552931 L9.15396704,9.59270836 L9.15396704,3.62545545 C8.14603998,4.20461409 7.25054625,4.88893595 6.43291053,5.63505391 L6.43291053,5.63505391 Z M5.70074108,10.5202414 L7.02610221,10.1642587 C6.80394064,9.66329625 6.55675631,9.18482041 6.29325646,8.72578797 C6.14185182,8.46228811 5.92958103,8.08415693 5.70074108,7.74618057 L5.70074108,10.5202414 Z" id="Shape" fill="#C61D7D" fill-rule="nonzero"></path>
                <path d="M8.79367307,9.65002404 C8.92225288,9.95951167 9.0427172,10.2777911 9.15396704,10.6052004 L9.15396704,9.55356804 L8.79367307,9.65002404 Z M5.70074108,10.4784804 L5.70074108,21.4323644 L7.03108985,21.1721615 C7.07750031,21.0649694 7.12306543,20.9567628 7.16778515,20.8474573 C7.74466131,19.4378134 8.03436745,17.8523339 8.17114728,16.075464 C8.19109785,15.8146694 8.19388755,15.5089013 8.17114728,15.2332282 C8.1000522,14.3740006 8.01788286,13.5211978 7.86242046,12.7580035 C7.66976208,11.8126333 7.37287039,10.9405562 7.00987123,10.1278236 L5.70074108,10.4784804 L5.70074108,10.4784804 Z" id="Shape" fill="#D5328A" fill-rule="nonzero"></path>
                <path d="M8.79367307,9.65002404 C8.92225288,9.95951167 9.0427172,10.2777911 9.15396704,10.6052004 L9.15396704,9.55356804 L8.79367307,9.65002404 Z M5.70074108,10.478565 L5.70074108,21.4323644 L7.03108985,21.1721615 C7.07750031,21.0649694 7.12306543,20.9567628 7.16778515,20.8474573 C7.74466131,19.4378134 8.03436745,17.8524184 8.17114728,16.075464 C8.19109785,15.8146694 8.19397208,15.5089013 8.17114728,15.2332282 C8.1000522,14.3740006 8.01788286,13.5211978 7.86242046,12.7580035 C7.66976208,11.8126333 7.37287039,10.9405562 7.00987123,10.1278236 L5.70074108,10.478565 L5.70074108,10.478565 Z" id="Shape" fill="#D5328A" fill-rule="nonzero"></path>
                <path d="M9.99231419,16.3217185 C9.93415316,18.3250613 9.46091858,20.2081088 8.84397219,21.6966251 C8.72257799,21.9896281 8.59585798,22.2776435 8.46330495,22.5604177 L8.46330495,27.2338414 L11.9165309,26.5609321 L11.9165309,16.3217185 L9.99231419,16.3217185 L9.99231419,16.3217185 Z" id="Path" fill="#A02275" fill-rule="nonzero"></path>
                <path d="M9.99231419,16.3217185 C9.93415316,18.3250613 9.46091858,20.2080242 8.84397219,21.6966251 C8.72257799,21.9896281 8.59585798,22.2776435 8.46330495,22.5604177 L8.46330495,27.2338414 L11.9165309,26.5609321 L11.9165309,16.3217185 L9.99231419,16.3217185 L9.99231419,16.3217185 Z" id="Path" fill="#A02275" fill-rule="nonzero"></path>
                <path d="M8.46330495,27.2160889 L8.46330495,27.8402209 C9.49456406,28.5140602 10.6316627,29.0786787 11.9165309,29.4650945 L11.9165309,26.5429259 L8.46330495,27.2160889 Z" id="Path" fill="#C63389" fill-rule="nonzero"></path>
                <path d="M8.46330495,27.2160889 L8.46330495,27.8402209 C9.49456406,28.5140602 10.6317473,29.0786787 11.9165309,29.4650945 L11.9165309,26.5429259 L8.46330495,27.2160889 Z" id="Path" fill="#C63389" fill-rule="nonzero"></path>
                <path d="M11.9165309,4.44258395 L11.9165309,15.3547915 L14.955106,14.7625298 C14.9539225,11.3147987 14.946906,7.86875829 14.934141,4.44258395 L11.9165309,4.44258395 L11.9165309,4.44258395 Z" id="Path" fill="#A02275" fill-rule="nonzero"></path>
                <path d="M11.9165309,4.44258395 L11.9165309,15.3547915 L14.955106,14.7625298 C14.9539225,11.3147141 14.946906,7.86875829 14.934141,4.44258395 L11.9165309,4.44258395 L11.9165309,4.44258395 Z" id="Path" fill="#A02275" fill-rule="nonzero"></path>
                <path d="M11.9165309,15.3370389 L11.9165309,25.576168 L14.9426792,24.7634354 C14.9522318,21.4327871 14.9563741,18.0880213 14.955106,14.7450307 L11.9165309,15.3369544 L11.9165309,15.3370389 Z" id="Path" fill="#C61D7D" fill-rule="nonzero"></path>
                <path d="M11.9165309,15.3370389 L11.9165309,25.576168 L14.9425946,24.7633509 C14.9522318,21.4327871 14.9563741,18.0879367 14.955106,14.7450307 L11.9165309,15.3370389 L11.9165309,15.3370389 Z" id="Path" fill="#C61D7D" fill-rule="nonzero"></path>
                <path d="M11.9165309,25.5344071 L11.9165309,29.4651788 C12.8374701,29.7421201 13.834492,29.9276775 14.9232358,29.9963209 C14.9312668,28.2442201 14.9378606,26.4862019 14.9428482,24.7238723 L11.9165309,25.5343225 L11.9165309,25.5344071 Z" id="Path" fill="#D5328A" fill-rule="nonzero"></path>
                <path d="M11.9165309,25.5344071 L11.9165309,29.4650945 C12.8374701,29.7421201 13.834492,29.9276775 14.9232358,29.9962363 C14.9312668,28.2442201 14.9379451,26.4862865 14.9428482,24.7237878 L11.9165309,25.5344071 L11.9165309,25.5344071 Z" id="Path" fill="#D5328A" fill-rule="nonzero"></path>
                <path d="M16.8935249,1.89491153 C16.8994424,5.10399648 16.8971599,8.32153506 16.8941166,11.5394118 L19.5135604,10.8358156 L19.5135604,2.22705491 C19.2218254,2.1579887 18.9234121,2.09822149 18.6174749,2.04842957 C18.0520957,1.95620041 17.5603477,1.82643708 16.9445848,1.81806798 C16.912461,1.82871956 16.8922568,1.85120623 16.8935249,1.89491153" id="Path" fill="#C61D7D" fill-rule="nonzero"></path>
                <path d="M16.8935249,1.89499607 C16.8994424,5.10399648 16.8970754,8.3216196 16.8941166,11.5394118 L19.513645,10.8358156 L19.513645,2.22705491 C19.2218254,2.1579887 18.9234121,2.09822149 18.6174749,2.04842957 C18.0520957,1.95620041 17.5603477,1.82643708 16.9445848,1.81806798 C16.912461,1.82871956 16.8922568,1.85120623 16.8935249,1.89499607 L16.8935249,1.89499607 Z" id="Path" fill="#C61D7D" fill-rule="nonzero"></path>
                <path d="M16.8942011,11.4983271 C16.8908197,15.1726157 16.8863393,18.8470733 16.8915805,22.5128237 L19.5135604,22.0000261 L19.5135604,10.7965908 L16.8942011,11.4983271 Z" id="Path" fill="#D1378A" fill-rule="nonzero"></path>
                <path d="M16.8942011,11.4983271 C16.8908197,15.1726157 16.8863393,18.8470733 16.8915805,22.5128237 L19.513645,22.0000261 L19.513645,10.7966753 L16.8942011,11.4983271 L16.8942011,11.4983271 Z" id="Path" fill="#D1378A" fill-rule="nonzero"></path>
                <path d="M19.5135604,15.4927549 L19.5135604,26.4049625 L22.9667017,25.731884 L22.9667017,22.2506764 C22.1683404,20.4437116 21.6546975,18.3560861 21.5510559,15.9325976 C21.5447157,15.7857579 21.5469136,15.6390873 21.5540992,15.4927549 L19.5135604,15.4927549 L19.5135604,15.4927549 Z" id="Path" fill="#A02275" fill-rule="nonzero"></path>
                <path d="M19.513645,15.4927549 L19.513645,26.405047 L22.9667017,25.731884 L22.9667017,22.250761 C22.1683404,20.4437962 21.6546975,18.3561706 21.5510559,15.9325976 C21.5447157,15.7857579 21.5469136,15.6391719 21.5540992,15.4927549 L19.513645,15.4927549 L19.513645,15.4927549 Z" id="Path" fill="#A02275" fill-rule="nonzero"></path>
                <path d="M18.8228138,25.8347646 L18.8228138,29.7567448 C20.1093727,29.5156471 21.2498528,29.1295696 22.2761243,28.6297905 L22.2761243,25.1616861 L18.8228138,25.8347646 Z" id="Path" fill="#AD2076" fill-rule="nonzero"></path>
                <path d="M18.8228138,25.8347646 L18.8228138,29.7567448 C20.1093727,29.5156471 21.2498528,29.129485 22.2761243,28.6297059 L22.2761243,25.1617707 L18.8228138,25.8347646 Z" id="Path" fill="#AD2076" fill-rule="nonzero"></path>
                <path d="M22.2761243,7.20523236 L24.3215661,6.80647432 C24.4257149,6.65785938 24.5315544,6.5123723 24.6391693,6.36967494 C24.9050362,6.01724282 25.1832454,5.68053449 25.4109017,5.3211704 C24.4850595,4.53996986 23.4494045,3.81278805 22.2761243,3.22974072 L22.2761243,7.20523236 L22.2761243,7.20523236 Z" id="Path" fill="#A02275" fill-rule="nonzero"></path>
                <path d="M22.2761243,7.20523236 L24.3215661,6.80647432 C24.4257149,6.65785938 24.5315544,6.51245684 24.6391693,6.36967494 C24.9050362,6.01724282 25.1832454,5.68053449 25.4108172,5.3211704 C24.4850595,4.53996986 23.4494045,3.81278805 22.2761243,3.22974072 L22.2761243,7.20523236 L22.2761243,7.20523236 Z" id="Path" fill="#A02275" fill-rule="nonzero"></path>
                <path d="M22.2761243,7.18747971 L22.2761243,10.9877275 C22.7677032,9.38872213 23.4913346,7.98812362 24.3358528,6.78610107 L22.2761243,7.18747971 Z M24.3818406,10.6118788 C23.7771519,12.0489125 23.5141594,13.7256913 23.387862,15.5864212 C23.3789012,15.7198196 23.3789012,15.860319 23.387862,15.9967607 C23.4134766,16.3733702 23.4454314,16.7416951 23.4851633,17.1019891 L25.7292658,16.4991603 L25.7292658,8.05845789 C25.2169755,8.83974297 24.7652129,9.70083038 24.3818406,10.6118788 L24.3818406,10.6118788 Z" id="Shape" fill="#AD2076" fill-rule="nonzero"></path>
                <path d="M22.2761243,7.18747971 L22.2761243,10.9877275 C22.7677032,9.38872213 23.49125,7.98812362 24.3358528,6.78610107 L22.2761243,7.18747971 Z M24.3818406,10.6118788 C23.7772365,12.0489125 23.5140748,13.7256913 23.387862,15.5864212 C23.3789012,15.7198196 23.3789012,15.860319 23.387862,15.9968452 C23.4134766,16.3734547 23.4454314,16.7416951 23.4851633,17.1019891 L25.7292658,16.4991603 L25.7292658,8.05837336 C25.2169755,8.83982751 24.7652129,9.70083038 24.3818406,10.6118788 L24.3818406,10.6118788 Z" id="Shape" fill="#AD2076" fill-rule="nonzero"></path>
                <path d="M23.480683,17.062257 C23.6428237,18.5571136 23.9370102,19.9158666 24.4582616,21.1773182 C24.8207535,22.0542139 25.2518889,22.8479258 25.7292658,23.5786581 L25.7292658,16.4598509 L23.480683,17.062257 L23.480683,17.062257 Z M22.2761243,28.3387318 L23.134422,28.1708427 C24.0370167,27.6435894 24.8472132,27.0246139 25.5911332,26.3396159 C24.1643285,24.7139816 22.9885968,22.7570492 22.2761243,20.3757444 L22.2761243,28.3387318 Z" id="Shape" fill="#D5328A" fill-rule="nonzero"></path>
                <path d="M23.4805985,17.0621725 C23.6428237,18.5571136 23.9370102,19.9158666 24.4582616,21.1773182 C24.8207535,22.0541294 25.2518889,22.8479258 25.7292658,23.5785735 L25.7292658,16.4598509 L23.4805985,17.0621725 L23.4805985,17.0621725 Z M22.2761243,28.3386472 L23.134422,28.1708427 C24.0370167,27.6435894 24.8472132,27.0245296 25.5911332,26.3395314 C24.1643285,24.713897 22.9885968,22.7570492 22.2761243,20.3757444 L22.2761243,28.3386472 Z" id="Shape" fill="#D5328A" fill-rule="nonzero"></path>
                <path d="M25.314953,5.46733376 C25.3839054,5.41889443 25.4512584,5.37028603 25.5166567,5.3211704 C25.449659,5.29428784 25.382306,5.26740526 25.314953,5.24069177 L25.314953,5.46733376 Z M25.314953,8.73018385 L25.314953,14.1114307 L28.7681789,13.4386057 L28.7681789,9.85739173 C28.5514278,9.40182526 28.3119363,8.9695063 28.0518179,8.56018122 C27.7237322,8.04408671 27.1126188,7.14030844 26.6755658,6.79091964 C26.1793373,7.37227622 25.7241935,8.02506603 25.314953,8.73018385 L25.314953,8.73018385 Z" id="Shape" fill="#C81A7D" fill-rule="nonzero"></path>
                <path d="M25.314953,5.46733376 C25.3839664,5.41889443 25.4513788,5.37028603 25.5166567,5.3211704 C25.449778,5.29437238 25.3823654,5.26740526 25.314953,5.24069177 L25.314953,5.46733376 Z M25.314953,8.73018385 L25.314953,14.1114307 L28.7682635,13.4385212 L28.7682635,9.85739173 C28.5514278,9.40182526 28.3119363,8.9695063 28.0518179,8.56018122 C27.7237322,8.04408671 27.1127033,7.14030844 26.6755658,6.79091964 C26.1793373,7.37227622 25.7241935,8.02506603 25.314953,8.73018385 L25.314953,8.73018385 Z" id="Shape" fill="#C81A7D" fill-rule="nonzero"></path>
                <path d="M25.314953,14.0938471 L25.314953,22.9072704 C25.5619683,23.3320656 25.8249608,23.7358114 26.1005494,24.1219734 L27.8962708,23.6396935 C28.2103234,23.1509042 28.5026502,22.6222137 28.7681789,22.0605541 L28.7681789,13.4210222 L25.314953,14.0938471 L25.314953,14.0938471 Z" id="Path" fill="#AD2076" fill-rule="nonzero"></path>
                <path d="M25.314953,14.0939316 L25.314953,22.9073549 C25.5619683,23.3320656 25.8249608,23.7358114 26.1005494,24.1219734 L27.8963553,23.6396935 C28.2103234,23.1509042 28.5026502,22.6222137 28.7682635,22.0606387 L28.7682635,13.4210222 L25.314953,14.0939316 Z" id="Path" fill="#AD2076" fill-rule="nonzero"></path>
                <path d="M26.0759493,24.087398 C26.097337,24.1174083 26.1187248,24.1474189 26.1402816,24.1772601 C26.3585545,24.4804076 26.5634707,24.8018149 26.8541065,25.0236382 C27.2328294,24.5976596 27.5925318,24.117324 27.9271267,23.5914232 L26.0759493,24.087398 L26.0759493,24.087398 Z M25.314953,26.5880683 C25.4079431,26.5063215 25.500003,26.4234758 25.5911332,26.3396159 C25.4979743,26.2335227 25.4058295,26.1259078 25.314953,26.0169405 L25.314953,26.5880683 L25.314953,26.5880683 Z" id="Shape" fill="#C63389" fill-rule="nonzero"></path>
                <path d="M26.0759493,24.0874826 C26.097337,24.1174929 26.1187248,24.1474189 26.1403662,24.1772601 C26.3585545,24.4804922 26.5634707,24.8018994 26.8541065,25.0236382 C27.2328294,24.5976596 27.5925318,24.1172395 27.9271267,23.5914232 L26.0759493,24.0874826 L26.0759493,24.0874826 Z M25.314953,26.5880683 C25.4079431,26.5063215 25.500003,26.4234758 25.5911332,26.3395314 C25.4979743,26.2335227 25.4058295,26.1259078 25.314953,26.0170251 L25.314953,26.5880683 Z" id="Shape" fill="#C63389" fill-rule="nonzero"></path>
                <g id="Clipped" transform="translate(1.933378, 1.751284)">
                    <mask id="mask-8" fill="white">
                        <use xlink:href="#path-7"></use>
                    </mask>
                    <g id="path-7"></g>
                    <g id="Group" mask="url(#mask-8)">
                        <g transform="translate(26.121737, -4.142282)" id="Clipped-Clipped">
                            <mask id="mask-10" fill="white">
                                <use xlink:href="#path-9"></use>
                            </mask>
                            <g id="path-9"></g>
                            <g id="Clipped" mask="url(#mask-10)">
                                <g transform="translate(-26.290825, 4.065592)" id="Group">
                                    <g transform="translate(0.169088, 0.076690)" id="Rectangle-Clipped">
                                        <mask id="mask-12" fill="white">
                                            <use xlink:href="#path-11"></use>
                                        </mask>
                                        <g id="path-11"></g>
                                        <rect id="Rectangle" fill="#A11E56" mask="url(#mask-12)" x="25.4534768" y="-4.76751283" width="4.83446565" height="12.2933627"></rect>
                                    </g>
                                </g>
                            </g>
                        </g>
                    </g>
                </g>
                <path d="M28.0775167,18.807933 L29.971047,18.2993622 C30.1053753,17.5136812 30.1730888,16.6873383 30.1416411,15.8431581 C30.0325049,12.9059421 29.2778488,10.5070537 28.0775167,8.60075867 L28.0775167,18.807933 L28.0775167,18.807933 Z" id="Path" fill="#C61D7D" fill-rule="nonzero"></path>
                <path d="M28.0775167,18.807933 L29.9711313,18.2993622 C30.1053753,17.5137658 30.1730888,16.6873383 30.1416411,15.8431581 C30.0325049,12.9059421 29.2778488,10.5070537 28.0775167,8.60075867 L28.0775167,18.807933 L28.0775167,18.807933 Z" id="Path" fill="#C61D7D" fill-rule="nonzero"></path>
                <path d="M28.0775167,18.766172 L28.0775167,23.3492265 C28.4878563,22.6719211 28.8571113,21.9249578 29.1731926,21.125751 C29.5090557,20.277175 29.8029042,19.3027243 29.978148,18.2571786 L28.0775167,18.766172 L28.0775167,18.766172 Z" id="Path" fill="#C63389" fill-rule="nonzero"></path>
                <path d="M28.0775167,18.766172 L28.0775167,23.3492265 C28.4878563,22.6719211 28.8571113,21.9249578 29.1731926,21.125751 C29.5090557,20.277175 29.8029042,19.3027243 29.978148,18.2571786 L28.0775167,18.766172 L28.0775167,18.766172 Z" id="Path" fill="#C63389" fill-rule="nonzero"></path>
            </g>
        </g>
    </g>
</svg>