<?xml version="1.0" encoding="UTF-8"?>
<svg width="234px" height="252px" viewBox="0 0 234 252" version="1.1" xmlns="http://www.w3.org/2000/svg" xmlns:xlink="http://www.w3.org/1999/xlink">
    <!-- Generator: Sketch 46.2 (44496) - http://www.bohemiancoding.com/sketch -->
    <title>shards</title>
    <desc>Created with Sketch.</desc>
    <defs>
        <rect id="path-1" x="0" y="0" width="241" height="275"></rect>
    </defs>
    <g id="web" stroke="none" stroke-width="1" fill="none" fill-rule="evenodd">
        <g id="intro-bg" transform="translate(-1071.000000, -348.000000)">
            <g id="shards" transform="translate(1069.000000, 325.000000)">
                <mask id="mask-2" fill="white">
                    <use xlink:href="#path-1"></use>
                </mask>
                <g id="Rectangle-8" opacity="0">
                    <use fill="#FFFFFF" fill-rule="evenodd" xlink:href="#path-1"></use>
                    <rect stroke="#B7BBC0" stroke-width="1" x="0.5" y="0.5" width="240" height="274"></rect>
                </g>
                <g id="Group-5-Copy" mask="url(#mask-2)">
                    <g transform="translate(87.000000, 236.500000) rotate(-180.000000) translate(-87.000000, -236.500000) translate(-62.000000, 23.000000)">
                        <g id="Group-6" transform="translate(0.000000, 37.000000)">
                            <polygon id="Rectangle-Copy-11" fill="#830844" transform="translate(12.609756, 113.568848) rotate(-180.000000) translate(-12.609756, -113.568848) " points="5.68434189e-14 80.7275391 25.2195122 74 25.2195122 148.25688 7.10542736e-14 153.137695"></polygon>
                            <polygon id="Rectangle-Copy-12" fill="#91094B" points="0 152.68457 25.2195122 146 25.2195122 226.94145 0 231.822266"></polygon>
                        </g>
                        <g id="Group-6-Copy" transform="translate(25.000000, 0.000000)">
                            <polygon id="Rectangle-Copy-12" fill="#91094B" points="0 152.68457 25.2195122 146 25.2195122 226.94145 0 231.822266"></polygon>
                        </g>
                        <g id="Group-6-Copy-2" transform="translate(45.000000, 195.000000)">
                            <polygon id="Rectangle-Copy-10" fill="#A20B54" points="-1.42108547e-14 0 25.2195122 0 25.2195122 74.2568801 -1.42108547e-14 79.1376953"></polygon>
                            <polygon id="Rectangle-Copy-11" fill="#830844" transform="translate(12.609756, 113.568848) rotate(-180.000000) translate(-12.609756, -113.568848) " points="5.68434189e-14 80.7275391 25.2195122 74 25.2195122 148.25688 7.10542736e-14 153.137695"></polygon>
                            <polygon id="Rectangle-Copy-12" fill="#91094B" points="0 152.68457 25.2195122 146 25.2195122 226.94145 0 231.822266"></polygon>
                        </g>
                        <g id="Group-6-Copy-3" transform="translate(70.000000, 109.000000)">
                            <polygon id="Rectangle-Copy-10" fill="#A20B54" points="-1.42108547e-14 0 25.2195122 0 25.2195122 74.2568801 -1.42108547e-14 79.1376953"></polygon>
                            <polyline id="Rectangle-Copy-11" fill="#830844" points="25.2195122 146.410156 3.55271368e-15 153.137695 1.42108547e-14 78.8808152 25.2195122 74"></polyline>
                            <polygon id="Rectangle-Copy-12" fill="#91094B" points="0 152.68457 25.2195122 146 25.2195122 226.94145 0 231.822266"></polygon>
                        </g>
                        <g id="Group-6-Copy-4" transform="translate(100.000000, 9.000000)">
                            <polygon id="Rectangle-Copy-12" fill="#91094B" points="0 152.68457 25.2195122 146 25.2195122 226.94145 0 231.822266"></polygon>
                        </g>
                        <g id="Group-6-Copy-5" transform="translate(94.000000, 117.000000)">
                            <polygon id="Rectangle-Copy-10" fill="#A20B54" points="19 72 52.2195122 72 52.2195122 146.25688 19 151.137695"></polygon>
                            <polygon id="Rectangle-Copy-11" fill="#830844" transform="translate(127.390244, 72.253418) rotate(-180.000000) translate(-127.390244, -72.253418) " points="114.780488 39.4121094 140 32.6845703 140 106.94145 114.780488 111.822266"></polygon>
                            <polygon id="Rectangle-Copy-13" fill="#830844" transform="translate(13.390244, 111.568848) rotate(-180.000000) translate(-13.390244, -111.568848) " points="0.780487805 78.7275391 26 72 26 146.25688 0.780487805 151.137695"></polygon>
                        </g>
                        <g id="Group-6-Copy-6" transform="translate(145.000000, 50.000000)">
                            <polygon id="Rectangle-Copy-11" fill="#830844" transform="translate(12.609756, 113.568848) rotate(-180.000000) translate(-12.609756, -113.568848) " points="5.68434189e-14 80.7275391 25.2195122 74 25.2195122 148.25688 7.10542736e-14 153.137695"></polygon>
                            <polygon id="Rectangle-Copy-12" fill="#91094B" points="0 152.68457 25.2195122 146 25.2195122 226.94145 0 231.822266"></polygon>
                        </g>
                        <g id="Group-6-Copy-7" transform="translate(167.000000, 100.000000)">
                            <polygon id="Rectangle-Copy-10" fill="#A20B54" points="-1.42108547e-14 0 25.2195122 0 25.2195122 74.2568801 -1.42108547e-14 79.1376953"></polygon>
                            <polygon id="Rectangle-Copy-11" fill="#830844" transform="translate(12.609756, 113.568848) rotate(-180.000000) translate(-12.609756, -113.568848) " points="5.68434189e-14 80.7275391 25.2195122 74 25.2195122 148.25688 7.10542736e-14 153.137695"></polygon>
                            <polygon id="Rectangle-Copy-12" fill="#91094B" points="0 152.68457 25.2195122 146 25.2195122 226.94145 0 231.822266"></polygon>
                        </g>
                        <g id="Group-6-Copy-8" transform="translate(187.000000, 60.000000)">
                            <polygon id="Rectangle-Copy-11" fill="#830844" transform="translate(12.609756, 113.568848) rotate(-180.000000) translate(-12.609756, -113.568848) " points="5.68434189e-14 80.7275391 25.2195122 74 25.2195122 148.25688 7.10542736e-14 153.137695"></polygon>
                            <polygon id="Rectangle-Copy-12" fill="#91094B" points="0 152.68457 25.2195122 146 25.2195122 226.94145 0 231.822266"></polygon>
                        </g>
                    </g>
                </g>
            </g>
        </g>
    </g>
</svg>