<?xml version="1.0" encoding="UTF-8"?>
<svg width="328px" height="115px" viewBox="0 0 328 115" version="1.1" xmlns="http://www.w3.org/2000/svg" xmlns:xlink="http://www.w3.org/1999/xlink">
    <!-- Generator: Sketch 46.2 (44496) - http://www.bohemiancoding.com/sketch -->
    <title>ttu-logo</title>
    <desc>Created with Sketch.</desc>
    <defs>
        <ellipse id="path-1" cx="57.329184" cy="57.25" rx="57.329184" ry="57.25"></ellipse>
        <path d="M47.1205019,0.343902558 C47.2751111,34.0044455 47.2751111,68.3147706 47.1205019,101.975044 C34.2809227,101.164265 24.9779277,95.8524346 17.2368095,89.2248731 C16.6995898,88.7650543 15.8608416,88.1682194 15.8491043,87.8385456 C15.8318355,87.3543415 18.1527274,84.7573688 18.5321001,84.2357109 C21.2148261,80.5427447 23.3668081,76.4465445 25.1936521,72.0398015 C27.5716118,66.3029117 29.3571727,58.9398826 29.3571727,51.1594733 C29.3571727,36.858879 24.8528643,26.1297283 18.9948484,17.621396 C18.1833524,16.4421419 17.125642,15.4051582 16.496817,14.1105789 C22.8754584,8.29002445 30.5709764,3.51063018 40.8295533,1.3605427 C42.4449901,1.02170756 47.1205019,0.343902558 47.1205019,0.343902558 Z M54.3369472,0.343902558 C56.5500444,0.374081116 58.3184715,0.843330735 60.3514611,1.17569904 C70.4463897,2.82622361 78.3465692,7.55024562 84.7755328,13.001517 C83.9567516,14.3000033 82.9570534,15.5163069 82.0006619,16.7895995 C77.4344289,22.872465 73.6908894,30.4815032 72.0085363,39.610382 C71.6635662,41.4825303 71.3882107,43.4179998 71.268139,45.4313407 C71.1511702,47.4011651 70.8138901,49.3656006 70.8976705,51.3439128 C71.5928722,67.6617551 77.4054228,79.7652427 85.4233805,88.9476076 C77.7391952,96.0562745 68.0894763,101.202796 54.245207,102.159484 C54.0286732,68.4984017 54.2141772,34.4367803 54.1526573,0.621168053 C54.1480703,0.463404256 54.220653,0.382029932 54.3369472,0.343902558 Z M89.6798555,18.1755228 C91.2668259,19.4346692 93.4849148,22.6911242 94.6755136,24.5506083 C99.0883516,31.4419627 101.863223,40.1328483 102.262832,50.7901902 C102.525911,57.8174828 100.866897,64.5056708 98.7467543,69.8224859 C96.5459342,75.3432757 93.6372305,80.1719796 90.3272984,83.8664278 C89.2729608,83.0671002 88.528651,81.9088633 87.7363126,80.8173157 C85.4054372,77.6037035 83.3143005,74.050852 81.6300585,70.0077337 C79.2976991,64.4067821 78.217998,58.2708348 77.7441869,51.3439128 C77.7114033,50.8524334 77.7120778,50.3455954 77.7441869,49.8655677 C78.2031577,43.1609431 79.1576604,37.1193038 81.3528143,31.9421992 C83.5479681,26.7652294 86.3611541,22.0346058 89.6798555,18.1755228 Z M11.5004843,19.4690243 C12.9969287,20.5322795 14.7503806,23.7107283 15.7565546,25.4748266 C18.2231515,29.7979049 20.2920277,34.5964303 21.4003301,40.0724911 C21.9595406,42.8359847 22.2558074,45.9232242 22.5105214,49.0345795 C22.5920082,50.0331665 22.5824295,51.1395339 22.5105214,52.0832875 C22.0191717,58.5175175 20.9773809,64.2566977 18.9022987,69.3603767 C16.8257325,74.4671545 14.2413574,78.9372185 11.1306904,82.4801003 C4.91853042,74.8410183 0.213068131,64.116583 0.213068131,50.9746297 C0.213068131,37.341197 5.47639172,27.2277427 11.5004843,19.4690243 Z" id="path-3"></path>
    </defs>
    <g id="web" stroke="none" stroke-width="1" fill="none" fill-rule="evenodd">
        <g id="Desktop-HD" transform="translate(-318.000000, -702.000000)">
            <g id="Group-17" transform="translate(0.000000, 600.000000)">
                <g id="ttu-logo" transform="translate(302.000000, 98.000000)">
                    <rect id="base" fill="#7F807D" opacity="0" x="0" y="0" width="360" height="132"></rect>
                    <g id="pall" transform="translate(16.000000, 4.000000)">
                        <mask id="mask-2" fill="white">
                            <use xlink:href="#path-1"></use>
                        </mask>
                        <use id="Oval" fill="#7F807D" opacity="0.0911458333" xlink:href="#path-1"></use>
                        <g id="Group-2" mask="url(#mask-2)">
                            <g transform="translate(6.008299, 5.500000)" id="pall">
                                <g>
                                    <g id="ball">
                                        <mask id="mask-4" fill="white">
                                            <use xlink:href="#path-3"></use>
                                        </mask>
                                        <use id="Combined-Shape" fill="#9B034D" xlink:href="#path-3"></use>
                                        <g id="Group-6" mask="url(#mask-4)">
                                            <g transform="translate(1.001383, -26.000000)">
                                                <polygon id="Rectangle-Copy-10" fill="#A20B54" points="-1.42108547e-14 0 12.627197 0 12.627197 37.12844 -1.42108547e-14 39.5688477"></polygon>
                                                <polygon id="Rectangle-Copy-11" fill="#830844" transform="translate(6.313598, 56.784424) rotate(-180.000000) translate(-6.313598, -56.784424) " points="5.68434189e-14 40.3637695 12.627197 37 12.627197 74.12844 6.39586739e-14 76.5688477"></polygon>
                                                <polygon id="Rectangle-Copy-12" fill="#91094B" points="0 76.3422852 12.627197 73 12.627197 113.470725 0 115.911133"></polygon>
                                            </g>
                                        </g>
                                        <g id="Group-6-Copy" mask="url(#mask-4)">
                                            <g transform="translate(13.518672, -44.500000)">
                                                <polygon id="Rectangle-Copy-10" fill="#A20B54" points="-1.42108547e-14 0 12.627197 0 12.627197 37.12844 -1.42108547e-14 39.5688477"></polygon>
                                                <polygon id="Rectangle-Copy-11" fill="#830844" transform="translate(6.313598, 56.784424) rotate(-180.000000) translate(-6.313598, -56.784424) " points="5.68434189e-14 40.3637695 12.627197 37 12.627197 74.12844 6.39586739e-14 76.5688477"></polygon>
                                                <polygon id="Rectangle-Copy-12" fill="#91094B" points="0 76.3422852 12.627197 73 12.627197 113.470725 0 115.911133"></polygon>
                                            </g>
                                        </g>
                                        <g id="Group-6-Copy-2" mask="url(#mask-4)">
                                            <g transform="translate(23.532503, 53.000000)">
                                                <polygon id="Rectangle-Copy-10" fill="#A20B54" points="-1.42108547e-14 0 12.627197 0 12.627197 37.12844 -1.42108547e-14 39.5688477"></polygon>
                                                <polygon id="Rectangle-Copy-11" fill="#830844" transform="translate(6.313598, 56.784424) rotate(-180.000000) translate(-6.313598, -56.784424) " points="5.68434189e-14 40.3637695 12.627197 37 12.627197 74.12844 6.39586739e-14 76.5688477"></polygon>
                                            </g>
                                        </g>
                                        <g id="Group-6-Copy-3" mask="url(#mask-4)">
                                            <g transform="translate(36.049793, 10.000000)">
                                                <polygon id="Rectangle-Copy-10" fill="#A20B54" points="-1.42108547e-14 0 12.627197 0 12.627197 37.12844 -1.42108547e-14 39.5688477"></polygon>
                                                <polyline id="Rectangle-Copy-11" fill="#830844" points="12.627197 73.2050781 3.55271368e-15 76.5688477 8.88915497e-15 39.4404076 12.627197 37"></polyline>
                                                <polygon id="Rectangle-Copy-12" fill="#91094B" points="0 76.3422852 12.627197 73 12.627197 113.470725 0 115.911133"></polygon>
                                            </g>
                                        </g>
                                        <g id="Group-6-Copy-4" mask="url(#mask-4)">
                                            <g transform="translate(51.070539, -40.000000)">
                                                <polygon id="Rectangle-Copy-10" fill="#A20B54" points="-1.42108547e-14 0 12.627197 0 12.627197 37.12844 -1.42108547e-14 39.5688477"></polygon>
                                                <polygon id="Rectangle-Copy-11" fill="#830844" transform="translate(6.313598, 56.784424) rotate(-180.000000) translate(-6.313598, -56.784424) " points="5.68434189e-14 40.3637695 12.627197 37 12.627197 74.12844 6.39586739e-14 76.5688477"></polygon>
                                                <polygon id="Rectangle-Copy-12" fill="#91094B" points="0 76.3422852 12.627197 73 12.627197 113.470725 0 115.911133"></polygon>
                                            </g>
                                        </g>
                                        <g id="Group-6-Copy-5" mask="url(#mask-4)">
                                            <g transform="translate(61.084371, 50.000000)">
                                                <polygon id="Rectangle-Copy-10" fill="#A20B54" points="2.50345781 0 15.1306548 0 15.1306548 37.12844 2.50345781 39.5688477"></polygon>
                                                <polygon id="Rectangle-Copy-11" fill="#830844" transform="translate(6.313598, 54.784424) rotate(-180.000000) translate(-6.313598, -54.784424) " points="5.68434189e-14 38.3637695 12.627197 35 12.627197 72.12844 6.39586739e-14 74.5688477"></polygon>
                                            </g>
                                        </g>
                                        <g id="Group-6-Copy-6" mask="url(#mask-4)">
                                            <g transform="translate(73.601660, -19.500000)">
                                                <polygon id="Rectangle-Copy-10" fill="#A20B54" points="-1.42108547e-14 0 12.627197 0 12.627197 37.12844 -1.42108547e-14 39.5688477"></polygon>
                                                <polygon id="Rectangle-Copy-11" fill="#830844" transform="translate(6.313598, 56.784424) rotate(-180.000000) translate(-6.313598, -56.784424) " points="5.68434189e-14 40.3637695 12.627197 37 12.627197 74.12844 6.39586739e-14 76.5688477"></polygon>
                                                <polygon id="Rectangle-Copy-12" fill="#91094B" points="0 76.3422852 12.627197 73 12.627197 113.470725 0 115.911133"></polygon>
                                            </g>
                                        </g>
                                        <g id="Group-6-Copy-7" mask="url(#mask-4)">
                                            <g transform="translate(84.616874, 5.500000)">
                                                <polygon id="Rectangle-Copy-10" fill="#A20B54" points="-1.42108547e-14 0 12.627197 0 12.627197 37.12844 -1.42108547e-14 39.5688477"></polygon>
                                                <polygon id="Rectangle-Copy-11" fill="#830844" transform="translate(6.313598, 56.784424) rotate(-180.000000) translate(-6.313598, -56.784424) " points="5.68434189e-14 40.3637695 12.627197 37 12.627197 74.12844 6.39586739e-14 76.5688477"></polygon>
                                                <polygon id="Rectangle-Copy-12" fill="#91094B" points="0 76.3422852 12.627197 73 12.627197 113.470725 0 115.911133"></polygon>
                                            </g>
                                        </g>
                                        <g id="Group-6-Copy-8" mask="url(#mask-4)">
                                            <g transform="translate(94.630705, -14.500000)">
                                                <polygon id="Rectangle-Copy-10" fill="#A20B54" points="-1.42108547e-14 0 12.627197 0 12.627197 37.12844 -1.42108547e-14 39.5688477"></polygon>
                                                <polygon id="Rectangle-Copy-11" fill="#830844" transform="translate(6.313598, 56.784424) rotate(-180.000000) translate(-6.313598, -56.784424) " points="5.68434189e-14 40.3637695 12.627197 37 12.627197 74.12844 6.39586739e-14 76.5688477"></polygon>
                                                <polygon id="Rectangle-Copy-12" fill="#91094B" points="0 76.3422852 12.627197 73 12.627197 113.470725 0 115.911133"></polygon>
                                            </g>
                                        </g>
                                    </g>
                                </g>
                            </g>
                        </g>
                    </g>
                    <g id="ttu" transform="translate(150.181189, 16.000000)" fill="#7F807D">
                        <g id="icon" transform="translate(0.504841, 0.000000)">
                            <polygon id="Fill-1" points="0.0731009682 84.2802 4.64191148 84.2802 4.64191148 89.9782 9.40248686 84.2802 15.4944011 84.2802 10.0969461 89.9397 15.7252199 99.3527 10.1159723 99.3527 6.99365975 93.1532 4.64191148 95.6762 4.64191148 99.3527 0.0731009682 99.3527"></polygon>
                            <path d="M20.5254,91.8256 C20.5254,93.3471 20.814299,94.4436 21.3540445,95.1176 C21.913317,95.7716 22.664855,96.1191 23.6091593,96.1191 C24.5920169,96.1191 25.3640833,95.7916 25.9028274,95.1361 C26.4430736,94.4821 26.7124456,93.3086 26.7124456,91.6331 C26.7124456,90.2091 26.4235466,89.1691 25.8647748,88.5151 C25.3055024,87.8596 24.5344373,87.5336 23.5711068,87.5336 C22.6448274,87.5336 21.913317,87.8796 21.3540445,88.5336 C20.814299,89.2076 20.5254,90.3046 20.5254,91.8256 Z M15.9565895,91.8256 C15.9565895,89.3611 16.631021,87.4556 17.9803848,86.0706 C19.3107223,84.7036 21.1998315,84.0296 23.5901331,84.0296 C26.0570404,84.0296 27.9461497,84.7036 29.2764871,86.0311 C30.6058232,87.3781 31.2807555,89.2661 31.2807555,91.6901 C31.2807555,93.4621 30.9918564,94.9051 30.4135577,96.0411 C29.815732,97.1576 28.9685618,98.0436 27.8885701,98.6591 C26.7900528,99.2946 25.4021358,99.6021 23.7633723,99.6021 C22.1060833,99.6021 20.7371925,99.3326 19.6381746,98.7946 C18.5396573,98.2541 17.6524318,97.3881 16.9780003,96.2141 C16.303068,95.0591 15.9565895,93.5776 15.9565895,91.8256 Z" id="Fill-2"></path>
                            <path d="M38.3745535,90.4013 L40.302216,90.4013 C40.5140086,90.4013 40.919068,90.3243 41.5168938,90.1888 C41.8057928,90.1318 42.0761663,89.9778 42.2684318,89.7273 C42.4421718,89.4583 42.5383046,89.1688 42.5383046,88.8413 C42.5383046,88.3613 42.4031178,87.9753 42.0946918,87.7258 C41.7862658,87.4553 41.2274941,87.3218 40.3793225,87.3218 L38.3745535,87.3218 L38.3745535,90.4013 Z M33.7867167,99.3523 L33.7867167,84.2803 L41.401234,84.2803 C42.8076766,84.2803 43.8876683,84.3953 44.6392064,84.6463 C45.3717181,84.8953 45.9695438,85.3583 46.4507084,86.0128 C46.8948219,86.6858 47.1256407,87.5138 47.1256407,88.4768 C47.1256407,89.3043 46.9529021,90.0353 46.6054221,90.6318 C46.2394166,91.2488 45.7762769,91.7288 45.1408993,92.1148 C44.7743931,92.3458 44.2156213,92.5578 43.5406891,92.7118 C44.1004622,92.9038 44.4854941,93.0768 44.7358398,93.2698 C44.9090791,93.3858 45.1408993,93.6548 45.4678509,94.0588 C45.7963046,94.4623 45.9890708,94.7713 46.1042299,95.0023 L48.3207914,99.3523 L43.1741828,99.3523 L40.7268025,94.7513 C40.4178758,94.1548 40.148003,93.7698 39.8976573,93.5963 C39.5697043,93.3658 39.1846725,93.2498 38.779613,93.2498 L38.3745535,93.2498 L38.3745535,99.3523 L33.7867167,99.3523 Z" id="Fill-4"></path>
                            <polygon id="Fill-6" points="47.9742127 84.2802 52.7543151 84.2802 56.0894216 95.1177 59.3859748 84.2802 63.9923372 84.2802 58.518777 99.3527 53.564434 99.3527"></polygon>
                            <path d="M70.0456982,90.7089 L71.1632418,90.7089 C72.0499665,90.7089 72.6663178,90.5549 73.0328241,90.2474 C73.3988296,89.9399 73.5725696,89.5349 73.5725696,89.0534 C73.5725696,88.5724 73.4183566,88.1679 73.1094299,87.8414 C72.7824783,87.5134 72.2237065,87.3404 71.356008,87.3404 L70.0456982,87.3404 L70.0456982,90.7089 Z M65.4768877,84.2804 L73.052351,84.2804 C74.7096401,84.2804 75.9623704,84.6849 76.77299,85.4739 C77.6016346,86.2819 78.0061934,87.4169 78.0061934,88.9199 C78.0061934,90.4399 77.5630813,91.6334 76.6573303,92.4794 C75.7701048,93.3469 74.4017148,93.7699 72.5511588,93.7699 L70.0456982,93.7699 L70.0456982,99.3524 L65.4768877,99.3524 L65.4768877,84.2804 Z" id="Fill-8"></path>
                            <path d="M86.7577812,93.5961 L85.1390454,88.1876 L83.5188075,93.5961 L86.7577812,93.5961 Z M87.7406387,96.8696 L82.5554769,96.8696 L81.8034382,99.3526 L77.1384949,99.3526 L82.7096899,84.2801 L87.7216124,84.2801 L93.2342266,99.3526 L88.4731505,99.3526 L87.7406387,96.8696 Z" id="Fill-10"></path>
                            <polygon id="Fill-12" points="94.6988996 84.2802 99.2677101 84.2802 99.2677101 95.6377 106.380534 95.6377 106.380534 99.3527 94.6988996 99.3527"></polygon>
                            <polygon id="Fill-14" points="108.46231 84.2802 113.03112 84.2802 113.03112 95.6377 120.162971 95.6377 120.162971 99.3527 108.46231 99.3527"></polygon>
                            <polygon id="Fill-16" points="122.418086 99.3525 127.005422 99.3525 127.005422 84.28 122.418086 84.28"></polygon>
                            <polygon id="Fill-18" points="130.282498 84.2802 134.851309 84.2802 134.851309 89.9782 139.612885 84.2802 145.683771 84.2802 140.287317 89.9397 145.935118 99.3527 140.306343 99.3527 137.203057 93.1532 134.851309 95.6762 134.851309 99.3527 130.282498 99.3527"></polygon>
                            <path d="M150.734547,91.8256 C150.734547,93.3471 151.00442,94.4436 151.563692,95.1176 C152.121963,95.7716 152.874002,96.1191 153.818807,96.1191 C154.801664,96.1191 155.572229,95.7916 156.112976,95.1361 C156.652721,94.4821 156.921593,93.3086 156.921593,91.6331 C156.921593,90.2091 156.633194,89.1691 156.073922,88.5151 C155.514649,87.8596 154.744085,87.5336 153.780754,87.5336 C152.854475,87.5336 152.121963,87.8796 151.563692,88.5336 C151.00442,89.2076 150.734547,90.3046 150.734547,91.8256 M146.165736,91.8256 C146.165736,89.3611 146.840669,87.4556 148.171507,86.0706 C149.519869,84.7036 151.409479,84.0296 153.79928,84.0296 C156.247161,84.0296 158.155797,84.7036 159.486135,86.0311 C160.815972,87.3781 161.470876,89.2661 161.470876,91.6901 C161.470876,93.4621 161.201003,94.9051 160.603678,96.0411 C160.02588,97.1576 159.177709,98.0436 158.078691,98.6591 C156.9992,99.2946 155.611283,99.6021 153.973521,99.6021 C152.315731,99.6021 150.927313,99.3326 149.847822,98.7946 C148.749305,98.2541 147.86258,97.3881 147.187648,96.2141 C146.49419,95.0591 146.165736,93.5776 146.165736,91.8256" id="Fill-19"></path>
                            <path d="M167.909669,91.8256 C167.909669,93.3471 168.199069,94.4436 168.75734,95.1176 C169.317113,95.7716 170.068151,96.1191 171.013456,96.1191 C171.996314,96.1191 172.766878,95.7916 173.288098,95.1361 C173.846369,94.4821 174.116242,93.3086 174.116242,91.6331 C174.116242,90.2091 173.826842,89.1691 173.249044,88.5151 C172.709299,87.8596 171.938734,87.5336 170.974402,87.5336 C170.049124,87.5336 169.317113,87.8796 168.75734,88.5336 C168.199069,89.2076 167.909669,90.3046 167.909669,91.8256 M163.360386,91.8256 C163.360386,89.3611 164.035318,87.4556 165.365155,86.0706 C166.714519,84.7036 168.603127,84.0296 170.993929,84.0296 C173.441811,84.0296 175.350447,84.7036 176.679783,86.0311 C178.00962,87.3781 178.665526,89.2661 178.665526,91.6901 C178.665526,93.4621 178.395653,94.9051 177.798328,96.0411 C177.219528,97.1576 176.371357,98.0436 175.272339,98.6591 C174.174322,99.2946 172.805932,99.6021 171.167169,99.6021 C169.509379,99.6021 168.121963,99.3326 167.022945,98.7946 C165.943954,98.2541 165.056228,97.3881 164.36277,96.2141 C163.687838,95.0591 163.360386,93.5776 163.360386,91.8256" id="Fill-20"></path>
                            <polygon id="Fill-21" points="181.132984 84.2802 185.700793 84.2802 185.700793 95.6377 192.833645 95.6377 192.833645 99.3527 181.132984 99.3527"></polygon>
                            <path d="M66.5751046,7.3593 L91.5766371,7.3593 L91.5766371,76.4458 L100.250618,76.4458 L100.250618,7.3593 L125.232623,7.3593 L125.232623,0.1603 L66.5751046,0.1603 L66.5751046,7.3593 Z M0.516363209,7.3593 L25.497868,7.3593 L25.497868,76.4458 L34.1723494,76.4458 L34.1723494,7.3593 L59.1538542,7.3593 L59.1538542,0.1603 L0.516363209,0.1603 L0.516363209,7.3593 Z M183.715901,0.1603 L183.715901,49.5543 C183.715901,62.1813 175.543113,70.0358 162.415981,70.0358 C149.40451,70.0358 141.327854,62.2578 141.327854,49.7853 L141.327854,0.1603 L132.653874,0.1603 L132.653874,49.7853 C132.653874,66.5133 144.66246,77.7733 162.512615,77.7733 C180.380795,77.7733 192.389882,66.5133 192.389882,49.7853 L192.389882,0.1603 L183.715901,0.1603 Z M167.697276,9.0343 L174.231802,9.0343 L174.231802,0.1603 L167.697276,0.1603 L167.697276,9.0343 Z M150.811954,9.0343 L157.346479,9.0343 L157.346479,0.1603 L150.811954,0.1603 L150.811954,9.0343 Z" id="Fill-22"></path>
                        </g>
                    </g>
                </g>
            </g>
        </g>
    </g>
</svg>